<?xml version="1.0" encoding="UTF-8" standalone="no"?>
<svg
   width="40mm"
   height="40mm"
   viewBox="0 0 151.18111 151.18111"
   version="1.1"
   id="svg8"
   inkscape:version="1.1.1 (3bf5ae0d25, 2021-09-20)"
   sodipodi:docname="attach.svg"
   xmlns:inkscape="http://www.inkscape.org/namespaces/inkscape"
   xmlns:sodipodi="http://sodipodi.sourceforge.net/DTD/sodipodi-0.dtd"
   xmlns="http://www.w3.org/2000/svg"
   xmlns:svg="http://www.w3.org/2000/svg"
   xmlns:rdf="http://www.w3.org/1999/02/22-rdf-syntax-ns#"
   xmlns:cc="http://creativecommons.org/ns#"
   xmlns:dc="http://purl.org/dc/elements/1.1/">
  <defs
     id="defs2">
    <inkscape:path-effect
       effect="fillet_chamfer"
       id="path-effect5152"
       is_visible="true"
       lpeversion="1"
       satellites_param="F,0,0,1,0,0,0,1 @ F,0,0,1,0,5.6692913,0,1 @ F,0,0,1,0,5.6692913,0,1 @ F,0,0,1,0,5.6692913,0,1"
       unit="mm"
       method="auto"
       mode="F"
       radius="1.5"
       chamfer_steps="1"
       flexible="false"
       use_knot_distance="true"
       apply_no_radius="true"
       apply_with_radius="true"
       only_selected="false"
       hide_knots="false" />
    <inkscape:path-effect
       effect="fillet_chamfer"
       id="path-effect5150"
       is_visible="true"
       lpeversion="1"
       satellites_param="F,0,0,1,0,0,0,1 @ F,0,0,1,0,5.6692913,0,1 @ F,0,0,1,0,5.6692913,0,1 @ F,0,0,1,0,5.6692913,0,1"
       unit="mm"
       method="auto"
       mode="F"
       radius="1.5"
       chamfer_steps="1"
       flexible="false"
       use_knot_distance="true"
       apply_no_radius="true"
       apply_with_radius="true"
       only_selected="false"
       hide_knots="false" />
  </defs>
  <sodipodi:namedview
     id="base"
     pagecolor="#cccccc"
     bordercolor="#666666"
     borderopacity="1.0"
     inkscape:pageopacity="0"
     inkscape:pageshadow="2"
     inkscape:zoom="3.959798"
     inkscape:cx="86.494312"
     inkscape:cy="111.36932"
     inkscape:document-units="px"
     inkscape:current-layer="text20158"
     inkscape:document-rotation="0"
     showgrid="false"
     inkscape:window-width="1718"
     inkscape:window-height="1408"
     inkscape:window-x="1713"
     inkscape:window-y="0"
     inkscape:window-maximized="0"
     inkscape:pagecheckerboard="true"
     units="mm"
     scale-x="1" />
  <metadata
     id="metadata5">
    <rdf:RDF>
      <cc:Work
         rdf:about="">
        <dc:format>image/svg+xml</dc:format>
        <dc:type
           rdf:resource="http://purl.org/dc/dcmitype/StillImage" />
      </cc:Work>
    </rdf:RDF>
  </metadata>
  <g
     inkscape:label="Layer 1"
     inkscape:groupmode="layer"
     id="layer1">
    <g
       aria-label="STAMP"
       id="text20158"
       style="font-size:14.735px;line-height:1.25;font-family:COCOGOOSE;-inkscape-font-specification:COCOGOOSE;fill:#ffffff;stroke-width:0.999998"
       inkscape:label="stamp">
      <path
         d="m 50.716433,68.810638 q 0.0074,-0.0442 0.0442,-0.09578 0.0442,-0.05157 0.103145,-0.09578 0.05894,-0.04421 0.125248,-0.06631 0.06631,-0.02947 0.125247,-0.02947 h 1.88608 q 0.125248,0 0.213658,0.08104 0.08841,0.07367 0.132615,0.132615 l 0.184187,0.419947 3.867938,9.975595 q 0.05894,0.14735 -0.0221,0.243128 -0.08104,0.08841 -0.279965,0.08841 h -2.114472 q -0.169453,0 -0.26523,-0.05894 -0.08841,-0.06631 -0.139983,-0.213658 -0.14735,-0.375742 -0.287332,-0.744117 -0.139983,-0.375743 -0.279965,-0.751485 h -3.912143 q -0.139982,0.375742 -0.287332,0.751485 -0.139983,0.368375 -0.279965,0.744117 -0.09578,0.272598 -0.375743,0.272598 h -2.173412 q -0.139983,0 -0.23576,-0.07368 -0.08841,-0.07367 -0.02947,-0.221025 z m 1.340885,3.15329 q -0.139982,0.375742 -0.287332,0.810425 -0.139983,0.434682 -0.279965,0.876732 -0.139983,0.44205 -0.287333,0.876733 -0.139982,0.427315 -0.279965,0.803057 h 2.261823 z"
         id="path5162"
         style="stroke-opacity:0" />
      <path
         d="m 56.426233,68.847475 q 0,-0.14735 0.09578,-0.23576 0.103145,-0.08841 0.250495,-0.08841 h 7.934798 q 0.132615,0 0.23576,0.08104 0.103145,0.08104 0.11788,0.243127 v 1.834508 q 0,0.132615 -0.09578,0.257862 -0.08841,0.11788 -0.257862,0.11788 h -2.541788 v 8.060045 q 0,0.132615 -0.09578,0.243128 -0.09578,0.103145 -0.250495,0.103145 h -2.166045 q -0.125248,0 -0.23576,-0.09578 -0.110513,-0.103145 -0.110513,-0.250495 V 71.05772 h -2.53442 q -0.14735,0 -0.250495,-0.09578 -0.09578,-0.09578 -0.09578,-0.279965 z"
         id="path5164"
         style="stroke-opacity:0" />
      <path
         d="m 66.23972,68.847475 q 0,-0.14735 0.09578,-0.23576 0.103145,-0.08841 0.250495,-0.08841 h 7.934797 q 0.132615,0 0.23576,0.08104 0.103145,0.08104 0.11788,0.243127 v 1.834508 q 0,0.132615 -0.09578,0.257862 -0.08841,0.11788 -0.257862,0.11788 h -2.541788 v 8.060045 q 0,0.132615 -0.09578,0.243128 -0.09578,0.103145 -0.250495,0.103145 h -2.166045 q -0.125248,0 -0.23576,-0.09578 -0.110513,-0.103145 -0.110513,-0.250495 V 71.05772 H 66.58599 q -0.14735,0 -0.250495,-0.09578 -0.09578,-0.09578 -0.09578,-0.279965 z"
         id="path5166"
         style="stroke-opacity:0" />
      <path
         d="m 77.784541,68.810638 q 0.0074,-0.0442 0.0442,-0.09578 0.04421,-0.05157 0.103145,-0.09578 0.05894,-0.04421 0.125247,-0.06631 0.06631,-0.02947 0.125248,-0.02947 h 1.88608 q 0.125247,0 0.213657,0.08104 0.08841,0.07367 0.132615,0.132615 l 0.184188,0.419947 3.867937,9.975595 q 0.05894,0.14735 -0.0221,0.243128 -0.08104,0.08841 -0.279965,0.08841 H 82.05032 q -0.169452,0 -0.26523,-0.05894 -0.08841,-0.06631 -0.139982,-0.213658 -0.14735,-0.375742 -0.287333,-0.744117 -0.139982,-0.375743 -0.279965,-0.751485 h -3.912142 q -0.139983,0.375742 -0.287333,0.751485 -0.139982,0.368375 -0.279965,0.744117 -0.09578,0.272598 -0.375742,0.272598 h -2.173413 q -0.139982,0 -0.23576,-0.07368 -0.08841,-0.07367 -0.02947,-0.221025 z m 1.340885,3.15329 q -0.139983,0.375742 -0.287333,0.810425 -0.139982,0.434682 -0.279965,0.876732 -0.139982,0.44205 -0.287332,0.876733 -0.139983,0.427315 -0.279965,0.803057 h 2.261822 z"
         id="path5168"
         style="stroke-opacity:0" />
      <path
         d="m 93.396242,69.318995 q 0.125248,0.07367 0.184188,0.191555 0.05894,0.11788 -0.0221,0.279965 l -1.245107,1.7682 q -0.08104,0.125248 -0.17682,0.14735 -0.08841,0.01474 -0.221025,-0.06631 -0.361008,-0.272598 -0.79569,-0.419948 -0.434683,-0.14735 -0.920938,-0.14735 -0.604135,0 -1.112492,0.228393 -0.508358,0.228392 -0.876732,0.626237 -0.368375,0.397845 -0.574665,0.928305 -0.20629,0.53046 -0.20629,1.134595 0,0.604135 0.20629,1.134595 0.20629,0.523093 0.574665,0.920938 0.368374,0.390477 0.876732,0.61887 0.508357,0.228392 1.112492,0.228392 0.486255,0 0.928305,-0.14735 0.44205,-0.154717 0.803058,-0.427315 0.132615,-0.08104 0.221025,-0.06631 0.08841,0.01474 0.17682,0.132615 l 1.259842,1.812405 q 0.08104,0.162085 0.0221,0.272597 -0.05894,0.110513 -0.184188,0.184188 -0.692545,0.464152 -1.495602,0.722015 -0.79569,0.250495 -1.67979,0.250495 -0.780955,0 -1.50297,-0.198923 Q 88.032703,79.228283 87.406465,78.859908 86.780228,78.491533 86.264503,77.983175 85.756145,77.46745 85.38777,76.84858 85.019395,76.222343 84.820473,75.507695 84.62155,74.78568 84.62155,74.004725 q 0,-0.780955 0.198923,-1.495602 0.198922,-0.722015 0.567297,-1.348253 0.368375,-0.633605 0.876733,-1.14933 0.515725,-0.515725 1.141962,-0.876732 0.626238,-0.368375 1.340885,-0.567298 0.722015,-0.20629 1.50297,-0.20629 0.8841,0 1.665055,0.250495 0.788322,0.243128 1.480867,0.70728 z"
         id="path5170"
         style="stroke-opacity:0" />
      <path
         d="m 95.459114,68.847475 q 0.0074,-0.125247 0.08841,-0.221025 0.08841,-0.103145 0.228393,-0.103145 h 2.188147 q 0.110513,0 0.228393,0.09578 0.11788,0.08841 0.11788,0.228392 v 3.492195 h 3.661643 v -3.492195 q 0,-0.132615 0.0884,-0.228392 0.0958,-0.09578 0.24313,-0.09578 h 2.15868 q 0.14735,0 0.25786,0.07368 0.11051,0.07367 0.11051,0.23576 v 10.307133 q 0,0.162085 -0.0958,0.243127 -0.0958,0.08104 -0.2505,0.08104 h -2.18078 q -0.14735,0 -0.24313,-0.08104 -0.0884,-0.08104 -0.0884,-0.243127 v -4.18474 h -3.661643 v 4.18474 q 0,0.154717 -0.103145,0.243127 -0.09578,0.08104 -0.26523,0.08104 h -2.166045 q -0.309435,0 -0.316803,-0.287333 z"
         id="path5172"
         style="stroke-opacity:0" />
    </g>
  </g>
</svg>
