<?xml version="1.0" encoding="UTF-8" standalone="no"?>
<!-- Created with Inkscape (http://www.inkscape.org/) -->

<svg
   width="5mm"
   height="32mm"
   viewBox="0 0 5 32"
   version="1.1"
   id="svg5"
   inkscape:version="1.1.2 (0a00cf5339, 2022-02-04)"
   sodipodi:docname="logo.svg"
   xmlns:inkscape="http://www.inkscape.org/namespaces/inkscape"
   xmlns:sodipodi="http://sodipodi.sourceforge.net/DTD/sodipodi-0.dtd"
   xmlns="http://www.w3.org/2000/svg"
   xmlns:svg="http://www.w3.org/2000/svg">
  <sodipodi:namedview
     id="namedview7"
     pagecolor="#505050"
     bordercolor="#ffffff"
     borderopacity="1"
     inkscape:pageshadow="0"
     inkscape:pageopacity="0"
     inkscape:pagecheckerboard="1"
     inkscape:document-units="mm"
     showgrid="false"
     inkscape:zoom="4.6006366"
     inkscape:cx="-39.01634"
     inkscape:cy="55.861835"
     inkscape:window-width="1912"
     inkscape:window-height="1003"
     inkscape:window-x="4"
     inkscape:window-y="36"
     inkscape:window-maximized="0"
     inkscape:current-layer="layer1"
     showguides="true"
     inkscape:guide-bbox="true">
    <sodipodi:guide
       position="4.617028,38.949841"
       orientation="0,-1"
       id="guide11726" />
    <sodipodi:guide
       position="28.771375,28.88958"
       orientation="1,0"
       id="guide11728" />
  </sodipodi:namedview>
  <defs
     id="defs2">
    <inkscape:path-effect
       effect="fillet_chamfer"
       id="path-effect12485"
       is_visible="true"
       lpeversion="1"
       satellites_param="F,0,0,1,0,1,0,1 @ F,0,0,1,0,1,0,1 @ F,0,0,1,0,1,0,1 @ F,0,0,1,0,1,0,1"
       unit="mm"
       method="auto"
       mode="F"
       radius="1"
       chamfer_steps="1"
       flexible="false"
       use_knot_distance="true"
       apply_no_radius="true"
       apply_with_radius="true"
       only_selected="false"
       hide_knots="false" />
  </defs>
  <g
     inkscape:label="Layer 1"
     inkscape:groupmode="layer"
     id="layer1">
    <g
       aria-label="Stamp Attach"
       transform="matrix(0,-1,-1,0,0,31.999997)"
       id="text3155"
       style="font-size:4.41715px;line-height:1.25;letter-spacing:0px;stroke-width:0.264583">
      <path
         d="m 2.0031775,-3.414457 q -0.03092,-0.019877 -0.1015944,-0.0773 -0.070674,-0.057423 -0.1744774,-0.1170545 -0.1015945,-0.059632 -0.2296918,-0.1060116 -0.1280974,-0.048589 -0.2760719,-0.048589 -0.1744774,0 -0.30036622,0.041963 -0.12588878,0.041963 -0.20760606,0.1126373 -0.0817173,0.068466 -0.12147162,0.1568089 -0.0375458,0.086134 -0.0375458,0.1744774 0,0.1236802 0.0817173,0.207606 0.0817173,0.083926 0.21644035,0.145766 0.13472308,0.06184 0.30478335,0.1126373 0.1722689,0.048589 0.3489549,0.103803 0.1788945,0.055214 0.3489548,0.1236802 0.1722689,0.068466 0.3069919,0.1700603 0.1347231,0.1015945 0.2164404,0.2429433 0.081717,0.1413488 0.081717,0.3423291 0,0.2319004 -0.097177,0.4218378 -0.094969,0.1877289 -0.2628205,0.322452 -0.1656431,0.13251446 -0.3909177,0.20539744 -0.2252747,0.072883 -0.483678,0.072883 -0.1722688,0 -0.3423291,-0.0397544 Q 0.7155783,-0.88343001 0.55876947,-0.95631299 0.40416922,-1.0314045 0.26944615,-1.1374161 0.13472307,-1.2434277 0.02871147,-1.3803594 0,-1.4156966 0,-1.4510338 0.00220857,-1.486371 0.03975435,-1.517291 l 0.17447742,-0.145766 q 0.0375458,-0.03092 0.072883,-0.026503 0.0353372,0.00221 0.0640487,0.037546 l 0.0287115,0.028712 q 0.0927601,0.103803 0.20981462,0.1811031 0.11926305,0.075092 0.23631753,0.1258888 0.11926305,0.048589 0.22748328,0.072883 0.1082202,0.024294 0.1833117,0.024294 0.1347231,0 0.2760719,-0.035337 0.1413488,-0.035337 0.2584033,-0.1082202 0.1170544,-0.072883 0.192146,-0.1833117 0.075091,-0.1126373 0.075091,-0.2628204 0,-0.1258888 -0.075091,-0.2120232 -0.072883,-0.088343 -0.1987718,-0.1523917 -0.1258887,-0.066257 -0.295949,-0.1170545 -0.1678517,-0.053006 -0.3599977,-0.1104287 -0.26502908,-0.0773 -0.45496653,-0.161226 -0.18993745,-0.086134 -0.31361765,-0.1877289 -0.12147163,-0.103803 -0.17889458,-0.2296918 -0.057423,-0.1280973 -0.057423,-0.2871147 0,-0.2009804 0.0795087,-0.3666235 0.0817173,-0.1678517 0.2296918,-0.2893233 0.14797453,-0.1214716 0.35558058,-0.1877289 0.20981463,-0.068466 0.46821788,-0.068466 0.1391402,0 0.2893233,0.035337 0.1501831,0.035337 0.2915319,0.099386 0.1435574,0.06184 0.2672376,0.1501831 0.1258888,0.086134 0.2164404,0.192146 0.03092,0.033129 0.03092,0.070674 0.00221,0.035337 -0.033129,0.068466 l -0.1568088,0.1501831 q -0.035337,0.033129 -0.072883,0.03092 -0.035337,-0.00221 -0.066257,-0.033129 z"
         style="font-family:COCOGOOSE;-inkscape-font-specification:'COCOGOOSE weight=255'"
         id="path11739" />
      <path
         d="m 3.7722406,-0.81938133 q -0.1015944,0 -0.2053974,-0.0242943 -0.1015945,-0.0242943 -0.1833118,-0.0839258 -0.081717,-0.0618401 -0.134723,-0.16564307 -0.050797,-0.1060116 -0.050797,-0.2694462 v -1.9148346 h -0.256195 q -0.055214,0 -0.081717,-0.01546 -0.026503,-0.017669 -0.026503,-0.075092 v -0.2053975 q 0,-0.057423 0.026503,-0.070674 0.026503,-0.01546 0.081717,-0.01546 h 0.2561947 v -0.4704265 q 0,-0.037546 0.01546,-0.053006 0.01546,-0.017669 0.053006,-0.028712 0.013251,-0.00442 0.053006,-0.00883 0.041963,-0.00663 0.086134,-0.01546 0.053006,-0.00883 0.1148459,-0.019877 0.037546,-0.00442 0.059631,0.00442 0.022086,0.00883 0.03092,0.026503 0.011043,0.017669 0.013251,0.041963 0.00221,0.022086 0.00221,0.048589 v 0.4748436 h 0.3069919 q 0.050797,0 0.072883,0.022086 0.024294,0.022086 0.024294,0.079509 v 0.1744774 q 0,0.057423 -0.024294,0.081717 -0.022086,0.024294 -0.072883,0.024294 H 3.6264747 v 1.9104174 q 0,0.0773 0.037546,0.1082201 0.037546,0.03092 0.103803,0.03092 0.050797,0 0.083926,0.03092 0.033129,0.03092 0.033129,0.086135 v 0.18110311 q 0,0.0507972 -0.03092,0.0795087 -0.03092,0.03092 -0.081717,0.03092 z"
         style="font-family:COCOGOOSE;-inkscape-font-specification:'COCOGOOSE weight=255'"
         id="path11741" />
      <path
         d="m 6.7979845,-1.2235506 q -0.1899374,0.1943546 -0.441715,0.30699196 -0.2517775,0.11042876 -0.545518,0.11042876 -0.1965632,0 -0.3820835,-0.0507972 Q 5.2453563,-0.90993291 5.0841303,-1.0049016 4.9229043,-1.1020789 4.7903898,-1.2345934 4.6578753,-1.3671079 4.560698,-1.5283339 4.4657293,-1.6917685 4.4127235,-1.8750802 q -0.050797,-0.1855203 -0.050797,-0.384292 0,-0.1987718 0.050797,-0.3820835 0.053006,-0.1855203 0.1479745,-0.3467463 0.097177,-0.161226 0.2296918,-0.2937405 0.1325145,-0.1325145 0.2937405,-0.2274832 0.161226,-0.094969 0.3445377,-0.1457659 0.1833117,-0.053006 0.3820835,-0.053006 0.2937405,0 0.545518,0.1126373 0.2517776,0.1104287 0.441715,0.3047833 v -0.2694461 q 0,-0.097177 0.097177,-0.097177 H 7.122645 q 0.1038031,0 0.1038031,0.097177 v 2.61274421 q 0,0.0441715 -0.028712,0.0706744 -0.028712,0.0265029 -0.068466,0.0265029 H 6.899579 q -0.04638,0 -0.075092,-0.0287115 -0.026503,-0.0287115 -0.026503,-0.0684658 z m 0.022086,-1.0358216 q 0,-0.2076061 -0.079509,-0.395335 -0.079509,-0.1899374 -0.2164404,-0.3312862 -0.1369316,-0.1413488 -0.3224519,-0.2252747 -0.1833118,-0.083926 -0.3909178,-0.083926 -0.2076061,0 -0.3909178,0.083926 -0.1811031,0.083926 -0.3180348,0.2252747 -0.1347231,0.1413488 -0.2142318,0.3312862 -0.0773,0.1877289 -0.0773,0.395335 0,0.2053974 0.0773,0.3953349 0.079509,0.1899374 0.2142318,0.3357034 0.1369317,0.1435574 0.3180348,0.2296918 0.1833117,0.086134 0.3909178,0.086134 0.207606,0 0.3909178,-0.086134 0.1855203,-0.086134 0.3224519,-0.2296918 0.1369317,-0.145766 0.2164404,-0.3357034 0.079509,-0.1899375 0.079509,-0.3953349 z"
         style="font-family:COCOGOOSE;-inkscape-font-specification:'COCOGOOSE weight=255'"
         id="path11743" />
      <path
         d="m 8.2909772,-3.3283225 q 0.06184,-0.0773 0.1325145,-0.1435574 0.070674,-0.068466 0.1568088,-0.1192631 0.088343,-0.050797 0.1987718,-0.079509 0.1104287,-0.028711 0.2561947,-0.028711 0.3489548,0 0.5698123,0.1303059 0.2208575,0.1280973 0.353372,0.3754577 0.06184,-0.1391402 0.1590177,-0.2363175 0.09939,-0.097177 0.220857,-0.1568088 0.12368,-0.06184 0.262821,-0.088343 0.141348,-0.026503 0.287114,-0.026503 0.271655,0 0.479261,0.094969 0.207606,0.09276 0.346746,0.2561947 0.141349,0.161226 0.212024,0.3798749 0.07288,0.2186489 0.07288,0.4682179 v 1.4996224 q 0,0.0750916 -0.03975,0.11263736 -0.03755,0.0375458 -0.09718,0.0375458 h -0.163435 q -0.08172,0 -0.106011,-0.0331286 -0.02209,-0.0331286 -0.02209,-0.11042875 V -2.5023155 q 0,-0.1325145 -0.03755,-0.2694461 -0.03534,-0.1391403 -0.119263,-0.2517776 -0.08172,-0.1126373 -0.218649,-0.1833117 -0.136931,-0.070674 -0.335703,-0.070674 -0.167852,0 -0.300366,0.053006 -0.132515,0.053006 -0.225275,0.1546002 -0.09055,0.099386 -0.13914,0.2451519 -0.04859,0.1435573 -0.04859,0.3246605 v 1.4996224 q 0,0.0750916 -0.03975,0.11263734 -0.03755,0.0375458 -0.09718,0.0375458 H 9.845814 q -0.081717,0 -0.1060116,-0.0331286 -0.022086,-0.0331286 -0.022086,-0.11042875 V -2.5001069 q 0,-0.1325145 -0.037546,-0.2694462 -0.035337,-0.1391402 -0.1192631,-0.2517775 -0.081717,-0.1126373 -0.2186489,-0.1833117 -0.1369317,-0.070674 -0.3357034,-0.070674 -0.1258888,0 -0.2539861,0.04638 -0.1280974,0.044172 -0.2319004,0.1325145 -0.1015945,0.088343 -0.1656431,0.218649 -0.064049,0.1303059 -0.064049,0.2981576 v 1.63213691 q 0,0.0971773 -0.097177,0.0971773 H 7.9663166 q -0.103803,0 -0.103803,-0.0971773 V -3.5580143 q 0,-0.044172 0.028712,-0.070674 0.028712,-0.026503 0.068466,-0.026503 h 0.2296918 q 0.04638,0 0.072883,0.028711 0.028712,0.028712 0.028712,0.068466 z"
         style="font-family:COCOGOOSE;-inkscape-font-specification:'COCOGOOSE weight=255'"
         id="path11745" />
      <path
         d="m 13.054868,-3.2907768 q 0.189937,-0.1943546 0.441715,-0.3047833 0.251777,-0.1126373 0.545518,-0.1126373 0.198771,0 0.382083,0.053006 0.183312,0.050797 0.344538,0.1457659 0.161226,0.094969 0.29374,0.2274832 0.132515,0.1325145 0.227483,0.2937405 0.09718,0.161226 0.147975,0.3467463 0.05301,0.1833117 0.05301,0.3820835 0,0.1987717 -0.05301,0.384292 -0.0508,0.1833117 -0.147975,0.3467463 -0.09497,0.161226 -0.227483,0.2937405 -0.132514,0.1325145 -0.29374,0.2296918 -0.161226,0.0949687 -0.346746,0.14797449 -0.183312,0.0507972 -0.379875,0.0507972 -0.293741,0 -0.545518,-0.11042876 Q 13.244805,-1.029196 13.054868,-1.2235506 v 1.12637329 q 0,0.03975435 -0.02871,0.06846583 Q 12.999653,0 12.953273,0 h -0.229692 q -0.03975,0 -0.06846,-0.02650291 -0.02871,-0.0265029 -0.02871,-0.0706744 V -3.5602229 q 0,-0.097177 0.103803,-0.097177 h 0.227483 q 0.09718,0 0.09718,0.097177 z m -0.02209,1.0314046 q 0,0.2053974 0.07951,0.3953349 0.07951,0.1899374 0.21644,0.3357034 0.136932,0.1435574 0.320243,0.2296918 0.183312,0.086134 0.393127,0.086134 0.207606,0 0.388709,-0.086134 0.183312,-0.086134 0.318035,-0.2296918 0.136931,-0.145766 0.214231,-0.3357034 0.07951,-0.1899375 0.07951,-0.3953349 0,-0.2076061 -0.07951,-0.395335 -0.0773,-0.1899374 -0.214231,-0.3312862 -0.134723,-0.1413488 -0.318035,-0.2252747 -0.181103,-0.083926 -0.388709,-0.083926 -0.209815,0 -0.393127,0.083926 -0.183311,0.083926 -0.320243,0.2252747 -0.136932,0.1413488 -0.21644,0.3312862 -0.07951,0.1877289 -0.07951,0.395335 z"
         style="font-family:COCOGOOSE;-inkscape-font-specification:'COCOGOOSE weight=255'"
         id="path11747" />
      <path
         d="m 17.719371,-0.93201866 q -0.01546,0.0375458 -0.04417,0.0596315 -0.02871,0.0220858 -0.07288,0.0220858 h -0.234109 q -0.101595,0 -0.101595,-0.0773001 0,-0.01546 0,-0.0242943 0.0022,-0.0110429 0.0044,-0.0198772 0.0022,-0.008834 0.0044,-0.01546 L 18.549795,-4.048318 q 0.0044,-0.011043 0.01104,-0.024294 0.0066,-0.01546 0.01767,-0.026503 0.01104,-0.013251 0.03092,-0.022086 0.02209,-0.00883 0.05742,-0.00883 h 0.145766 q 0.03313,0 0.05301,0.00883 0.02209,0.00883 0.03313,0.022086 0.01104,0.011043 0.01767,0.026503 0.0066,0.013251 0.01104,0.024294 l 1.263305,3.06108496 q 0.0022,0.0110429 0.0044,0.0220858 0.0022,0.0110429 0.0044,0.0220858 0.0022,0.008834 0.0022,0.01546 0,0.0773001 -0.101594,0.0773001 h -0.234109 q -0.04417,0 -0.07288,-0.0220858 -0.02871,-0.0220858 -0.04417,-0.0596315 L 19.506108,-1.5393768 h -1.550419 q -0.0773,0.1965632 -0.141349,0.3555806 -0.06405,0.1590174 -0.09497,0.25177754 z m 0.413004,-1.03582164 h 1.203673 l -0.596315,-1.5106653 z"
         style="font-family:COCOGOOSE;-inkscape-font-specification:'COCOGOOSE weight=255'"
         id="path11749" />
      <path
         d="m 21.414311,-0.81938133 q -0.101594,0 -0.205397,-0.0242943 -0.101595,-0.0242943 -0.183312,-0.0839258 -0.08172,-0.0618401 -0.134723,-0.16564307 -0.0508,-0.1060116 -0.0508,-0.2694462 v -1.9148345 h -0.256195 q -0.05521,0 -0.08172,-0.01546 -0.0265,-0.017669 -0.0265,-0.075092 v -0.2053975 q 0,-0.057423 0.0265,-0.070674 0.0265,-0.01546 0.08172,-0.01546 h 0.256195 v -0.4704265 q 0,-0.037546 0.01546,-0.053006 0.01546,-0.017669 0.053,-0.028712 0.01325,-0.00442 0.05301,-0.00883 0.04196,-0.00663 0.08614,-0.01546 0.05301,-0.00883 0.114846,-0.019877 0.03754,-0.00442 0.05963,0.00442 0.02209,0.00883 0.03092,0.026503 0.01104,0.017669 0.01325,0.041963 0.0022,0.022086 0.0022,0.048589 v 0.4748436 h 0.306992 q 0.0508,0 0.07288,0.022086 0.02429,0.022086 0.02429,0.079509 v 0.1744774 q 0,0.057423 -0.02429,0.081717 -0.02209,0.024294 -0.07288,0.024294 h -0.306992 v 1.9104174 q 0,0.0773 0.03755,0.1082201 0.03755,0.03092 0.103803,0.03092 0.0508,0 0.08393,0.03092 0.03313,0.03092 0.03313,0.086135 v 0.18110309 q 0,0.0507972 -0.03092,0.0795087 -0.03092,0.03092 -0.08172,0.03092 z"
         style="font-family:COCOGOOSE;-inkscape-font-specification:'COCOGOOSE weight=255'"
         id="path11751" />
      <path
         d="m 22.847672,-0.81938133 q -0.101594,0 -0.205397,-0.0242943 -0.101595,-0.0242943 -0.183312,-0.0839258 -0.08172,-0.0618401 -0.134723,-0.16564307 -0.0508,-0.1060116 -0.0508,-0.2694462 v -1.9148345 h -0.256195 q -0.05521,0 -0.08172,-0.01546 -0.0265,-0.017669 -0.0265,-0.075092 v -0.2053975 q 0,-0.057423 0.0265,-0.070674 0.0265,-0.01546 0.08172,-0.01546 h 0.256195 v -0.4704265 q 0,-0.037546 0.01546,-0.053006 0.01546,-0.017669 0.05301,-0.028712 0.01325,-0.00442 0.053,-0.00883 0.04196,-0.00663 0.08613,-0.01546 0.05301,-0.00883 0.114846,-0.019877 0.03755,-0.00442 0.05963,0.00442 0.02209,0.00883 0.03092,0.026503 0.01104,0.017669 0.01325,0.041963 0.0022,0.022086 0.0022,0.048589 v 0.4748436 h 0.306992 q 0.0508,0 0.07288,0.022086 0.02429,0.022086 0.02429,0.079509 v 0.1744774 q 0,0.057423 -0.02429,0.081717 -0.02209,0.024294 -0.07288,0.024294 h -0.306992 v 1.9104174 q 0,0.0773 0.03755,0.1082201 0.03755,0.03092 0.103803,0.03092 0.0508,0 0.08393,0.03092 0.03313,0.03092 0.03313,0.086135 v 0.18110309 q 0,0.0507972 -0.03092,0.0795087 -0.03092,0.03092 -0.08172,0.03092 z"
         style="font-family:COCOGOOSE;-inkscape-font-specification:'COCOGOOSE weight=255'"
         id="path11753" />
      <path
         d="m 25.873416,-1.2235506 q -0.189938,0.1943546 -0.441715,0.30699196 -0.251778,0.11042876 -0.545518,0.11042876 -0.196563,0 -0.382084,-0.0507972 -0.183311,-0.0530058 -0.344537,-0.14797452 -0.161226,-0.097177 -0.293741,-0.2296918 -0.132514,-0.1325145 -0.229692,-0.2937405 -0.09497,-0.1634346 -0.147974,-0.3467463 -0.0508,-0.1855203 -0.0508,-0.384292 0,-0.1987718 0.0508,-0.3820835 0.05301,-0.1855203 0.147974,-0.3467463 0.09718,-0.161226 0.229692,-0.2937405 0.132515,-0.1325145 0.293741,-0.2274832 0.161226,-0.094969 0.344537,-0.1457659 0.183312,-0.053006 0.382084,-0.053006 0.29374,0 0.545518,0.1126373 0.251777,0.1104287 0.441715,0.3047833 v -0.2694461 q 0,-0.097177 0.09718,-0.097177 h 0.227483 q 0.103803,0 0.103803,0.097177 v 2.61274424 q 0,0.0441715 -0.02871,0.0706744 -0.02871,0.0265029 -0.06847,0.0265029 H 25.97501 q -0.04638,0 -0.07509,-0.0287115 -0.0265,-0.0287115 -0.0265,-0.0684658 z m 0.02209,-1.0358216 q 0,-0.2076061 -0.07951,-0.395335 -0.07951,-0.1899374 -0.21644,-0.3312862 -0.136932,-0.1413488 -0.322452,-0.2252747 -0.183312,-0.083926 -0.390918,-0.083926 -0.207606,0 -0.390918,0.083926 -0.181103,0.083926 -0.318035,0.2252747 -0.134723,0.1413488 -0.214232,0.3312862 -0.0773,0.1877289 -0.0773,0.395335 0,0.2053974 0.0773,0.3953349 0.07951,0.1899374 0.214232,0.3357034 0.136932,0.1435574 0.318035,0.2296918 0.183312,0.086134 0.390918,0.086134 0.207606,0 0.390918,-0.086134 0.18552,-0.086134 0.322452,-0.2296918 0.136931,-0.145766 0.21644,-0.3357034 0.07951,-0.1899375 0.07951,-0.3953349 z"
         style="font-family:COCOGOOSE;-inkscape-font-specification:'COCOGOOSE weight=255'"
         id="path11755" />
      <path
         d="m 28.870448,-1.4885796 q 0.01546,-0.013251 0.03313,-0.026503 0.01988,-0.01546 0.03975,-0.022086 0.02209,-0.00663 0.04196,0 0.02209,0.00663 0.04417,0.035337 0.04417,0.059631 0.07067,0.097177 0.02871,0.037546 0.04638,0.059631 0.01767,0.024294 0.0265,0.035337 0.01104,0.017669 0.01767,0.035337 0.0088,0.017669 0.0044,0.039754 -0.0044,0.019877 -0.02429,0.04638 -0.01767,0.024294 -0.05742,0.055214 -0.09497,0.075092 -0.198772,0.13693166 -0.101594,0.0596315 -0.214232,0.10380303 -0.112637,0.0441715 -0.238526,0.0684658 -0.12368,0.0242943 -0.26282,0.0242943 -0.196563,0 -0.379875,-0.0507972 -0.183312,-0.0530058 -0.346746,-0.14797453 -0.161226,-0.0971773 -0.295949,-0.22969176 -0.132515,-0.1325145 -0.229692,-0.2937405 -0.09718,-0.161226 -0.150183,-0.3445377 -0.05301,-0.1855203 -0.05301,-0.384292 0,-0.1987718 0.05301,-0.3820835 0.053,-0.1855203 0.150183,-0.3467463 0.09718,-0.161226 0.229692,-0.2937405 0.134723,-0.1325145 0.295949,-0.2274832 0.163434,-0.097177 0.346746,-0.1479745 0.183312,-0.053006 0.379875,-0.053006 0.12368,0 0.245152,0.024294 0.12368,0.022086 0.236317,0.064049 0.114846,0.039754 0.214232,0.094969 0.101594,0.055214 0.181103,0.1192631 0.01546,0.013251 0.03534,0.03092 0.02209,0.01546 0.03534,0.037546 0.01546,0.019877 0.01988,0.04638 0.0044,0.024294 -0.01104,0.053006 l -0.161226,0.2120232 q -0.05742,0.075091 -0.132515,-0.00221 -0.05963,-0.06184 -0.136931,-0.1104288 -0.0773,-0.050797 -0.165643,-0.086134 -0.08834,-0.037546 -0.183312,-0.057423 -0.09497,-0.019877 -0.187729,-0.019877 -0.194355,0 -0.375458,0.083926 -0.181103,0.083926 -0.320243,0.2274833 -0.13914,0.1435573 -0.223066,0.3334948 -0.08393,0.1899374 -0.08393,0.3997521 0,0.2120232 0.08172,0.4019606 0.08393,0.1877289 0.223066,0.3290777 0.13914,0.1413488 0.320244,0.2252746 0.183311,0.081717 0.379875,0.081717 0.121471,0 0.218648,-0.022086 0.09939,-0.024294 0.178895,-0.06184 0.08172,-0.039754 0.150183,-0.088343 0.06847,-0.050797 0.132515,-0.1038031 z"
         style="font-family:COCOGOOSE;-inkscape-font-specification:'COCOGOOSE weight=255'"
         id="path11757" />
      <path
         d="m 30.144792,-3.372494 q 0.06184,-0.0773 0.132514,-0.1369317 0.07067,-0.06184 0.156809,-0.103803 0.08834,-0.041963 0.198772,-0.064049 0.110428,-0.022086 0.256194,-0.022086 0.247361,0 0.45055,0.094969 0.205397,0.09276 0.351163,0.2561947 0.147975,0.161226 0.227483,0.3798749 0.08172,0.2186489 0.08172,0.4682179 v 1.4996224 q 0,0.0750916 -0.03975,0.11263734 -0.03755,0.0375458 -0.09718,0.0375458 h -0.163435 q -0.08172,0 -0.106011,-0.0331286 -0.02209,-0.0331286 -0.02209,-0.11042875 V -2.5001069 q 0,-0.1325145 -0.04638,-0.2694462 -0.04417,-0.1391402 -0.134723,-0.2517775 -0.08834,-0.1126373 -0.223066,-0.1833117 -0.132515,-0.070674 -0.306992,-0.070674 -0.125889,0 -0.253986,0.04638 -0.128098,0.044172 -0.231901,0.1325145 -0.101594,0.088343 -0.165643,0.218649 -0.06405,0.1303059 -0.06405,0.2981576 v 1.63213691 q 0,0.0971773 -0.09718,0.0971773 h -0.227483 q -0.103803,0 -0.103803,-0.0971773 V -4.3928557 q 0,-0.044172 0.02871,-0.070674 0.02871,-0.026503 0.06847,-0.026503 h 0.229692 q 0.04638,0 0.07288,0.028712 0.02871,0.028711 0.02871,0.068466 z"
         style="font-family:COCOGOOSE;-inkscape-font-specification:'COCOGOOSE weight=255'"
         id="path11759" />
    </g>
    <circle
       id="path11642"
       style="fill:#000000;stroke:none;stroke-width:0.264583"
       cx="2.5"
       cy="-15.529067"
       r="0.49999997"
       transform="scale(1,-1)" />
    <path
       id="rect12097"
       d="m 0.6000005,-0.8999995 h 3.8000002 a 1,1.0304878 0 0 1 1,1.0304878 V 31.869512 a 1,1.0304878 0 0 1 -1,1.030488 H 0.6000005 a 1,1.0304878 0 0 1 -1,-1.030488 V 0.1304883 a 1,1.0304878 0 0 1 1,-1.0304878 z"
       style="fill:none;stroke:#ffffff;stroke-width:0.200001;stroke-linecap:round;stroke-linejoin:round;stroke-miterlimit:4;stroke-dasharray:none;stroke-dashoffset:0;stroke-opacity:1" />
  </g>
</svg>
