<?xml version="1.0" encoding="UTF-8" standalone="no"?>
<!-- Created with Inkscape (http://www.inkscape.org/) -->

<svg
   width="400"
   height="400"
   viewBox="0 0 105.83333 105.83334"
   version="1.1"
   id="svg5"
   inkscape:version="1.1.2 (0a00cf5339, 2022-02-04)"
   sodipodi:docname="qr_stamp.svg"
   inkscape:export-filename="/home/daniel/Downloads/qr_stamp.png"
   inkscape:export-xdpi="96"
   inkscape:export-ydpi="96"
   xmlns:inkscape="http://www.inkscape.org/namespaces/inkscape"
   xmlns:sodipodi="http://sodipodi.sourceforge.net/DTD/sodipodi-0.dtd"
   xmlns="http://www.w3.org/2000/svg"
   xmlns:svg="http://www.w3.org/2000/svg">
  <sodipodi:namedview
     id="namedview7"
     pagecolor="#505050"
     bordercolor="#ffffff"
     borderopacity="1"
     inkscape:pageshadow="0"
     inkscape:pageopacity="0"
     inkscape:pagecheckerboard="1"
     inkscape:document-units="mm"
     showgrid="false"
     inkscape:zoom="0.56638244"
     inkscape:cx="189.80108"
     inkscape:cy="296.61937"
     inkscape:window-width="1912"
     inkscape:window-height="1003"
     inkscape:window-x="4"
     inkscape:window-y="36"
     inkscape:window-maximized="0"
     inkscape:current-layer="layer1"
     units="px" />
  <defs
     id="defs2" />
  <g
     inkscape:label="Layer 1"
     inkscape:groupmode="layer"
     id="layer1">
    <path
       d="m 94.105856,94.391892 h -2.288288 c -0.157971,0 -0.286036,-0.128066 -0.286036,-0.286036 v -2.288288 c 0,-0.157971 0.128065,-0.286036 0.286036,-0.286036 h 2.288288 c 0.15797,0 0.286036,0.128065 0.286036,0.286036 v 2.288288 c 0,0.15797 -0.128066,0.286036 -0.286036,0.286036 z m -5.720721,0 h -2.288288 c -0.157971,0 -0.286036,-0.128066 -0.286036,-0.286036 v -5.148649 c 0,-0.15797 0.128065,-0.286036 0.286036,-0.286036 h 2.288288 c 0.157971,0 0.286036,0.128066 0.286036,0.286036 v 5.148649 c 0,0.15797 -0.128065,0.286036 -0.286036,0.286036 z m -20.022522,0 h -5.148649 c -0.157973,0 -0.286036,-0.128066 -0.286036,-0.286036 v -2.288288 c 0,-0.157971 0.128063,-0.286036 0.286036,-0.286036 h 2.288288 c 0.157974,0 0.286036,-0.128066 0.286036,-0.286037 v -2.288288 c 0,-0.15797 0.128063,-0.286036 0.286036,-0.286036 h 2.288289 c 0.157973,0 0.286036,0.128066 0.286036,0.286036 v 5.148649 c 0,0.15797 -0.128063,0.286036 -0.286036,0.286036 z m -11.441442,0 h -5.148648 c -0.157974,0 -0.286037,-0.128066 -0.286037,-0.286036 v -5.148649 c 0,-0.15797 0.128063,-0.286036 0.286037,-0.286036 h 5.434684 v 5.434685 c 0,0.15797 -0.128062,0.286036 -0.286036,0.286036 z m -11.441441,0 h -2.288289 c -0.157973,0 -0.286036,-0.128066 -0.286036,-0.286036 v -2.288288 c 0,-0.157971 0.128063,-0.286036 0.286036,-0.286036 h 2.574325 v 2.574324 c 0,0.15797 -0.128063,0.286036 -0.286036,0.286036 z m -5.720721,0 h -2.288288 c -0.157974,0 -0.286036,-0.128066 -0.286036,-0.286036 v -5.148649 c 0,-0.15797 -0.128063,-0.286036 -0.286036,-0.286036 H 34.61036 c -0.157973,0 -0.286036,0.128066 -0.286036,0.286036 v 5.148649 c 0,0.15797 -0.128062,0.286036 -0.286036,0.286036 H 31.75 c -0.157973,0 -0.286036,-0.128066 -0.286036,-0.286036 V 74.655405 c 0,-0.15797 -0.128063,-0.286036 -0.286036,-0.286036 H 11.727477 c -0.157973,0 -0.286036,-0.128065 -0.286036,-0.286036 v -2.288288 c 0,-0.157971 0.128063,-0.286036 0.286036,-0.286036 h 10.86937 c 0.157973,0 0.286036,-0.128063 0.286036,-0.286036 V 60.353604 c 0,-0.157974 -0.128063,-0.286036 -0.286036,-0.286036 h -2.288288 c -0.157974,0 -0.286036,-0.128063 -0.286036,-0.286036 v -2.574325 h 2.574324 c 0.157973,0 0.286036,-0.128062 0.286036,-0.286036 v -2.288288 c 0,-0.157974 0.128063,-0.286036 0.286036,-0.286036 h 2.288288 c 0.157974,0 0.286036,0.128062 0.286036,0.286036 v 2.288288 c 0,0.157974 0.128063,0.286036 0.286036,0.286036 h 2.574325 v 2.860361 h -2.574325 c -0.157973,0 -0.286036,0.128062 -0.286036,0.286036 v 2.288288 c 0,0.157973 0.128063,0.286036 0.286036,0.286036 h 2.574325 v 2.574324 c 0,0.157974 0.128062,0.286036 0.286036,0.286036 h 2.574324 v 2.860361 h -5.434685 c -0.157973,0 -0.286036,0.128062 -0.286036,0.286036 v 2.288288 c 0,0.157973 0.128063,0.286036 0.286036,0.286036 h 5.148649 c 0.157973,0 0.286036,-0.128063 0.286036,-0.286036 v -2.574324 h 2.574324 c 0.157974,0 0.286036,0.128062 0.286036,0.286036 v 5.148648 c 0,0.157971 0.128063,0.286036 0.286036,0.286036 h 2.288289 c 0.157973,0 0.286036,0.128066 0.286036,0.286036 v 2.288289 c 0,0.15797 -0.128063,0.286036 -0.286036,0.286036 H 34.61036 c -0.157973,0 -0.286036,0.128065 -0.286036,0.286036 v 5.148648 c 0,0.157971 0.128063,0.286036 0.286036,0.286036 h 5.148649 c 0.157973,0 0.286036,0.128066 0.286036,0.286036 v 2.288289 c 0,0.15797 0.128063,0.286036 0.286036,0.286036 h 2.574324 v 2.574324 c 0,0.157971 -0.128062,0.286036 -0.286036,0.286036 h -2.288288 c -0.157973,0 -0.286036,0.128066 -0.286036,0.286036 v 5.148649 c 0,0.15797 -0.128063,0.286036 -0.286036,0.286036 z m 40.045045,-2.86036 h -2.288288 c -0.157971,0 -0.286036,-0.128066 -0.286036,-0.286037 v -2.288288 c 0,-0.15797 -0.128066,-0.286036 -0.286036,-0.286036 h -2.288289 c -0.15797,0 -0.286036,-0.128065 -0.286036,-0.286036 v -5.148649 c 0,-0.15797 0.128066,-0.286036 0.286036,-0.286036 h 10.86937 c 0.15797,0 0.286036,-0.128065 0.286036,-0.286036 v -2.288288 c 0,-0.15797 -0.128066,-0.286036 -0.286036,-0.286036 h -2.288289 c -0.15797,0 -0.286036,-0.128065 -0.286036,-0.286036 v -2.288288 c 0,-0.157971 0.128066,-0.286036 0.286036,-0.286036 h 5.434685 v 2.574324 c 0,0.157971 0.128066,0.286036 0.286036,0.286036 h 2.574325 v 5.434685 c 0,0.15797 -0.128066,0.286036 -0.286037,0.286036 h -8.009009 c -0.15797,0 -0.286036,0.128065 -0.286036,0.286036 v 2.288288 c 0,0.157971 -0.128065,0.286036 -0.286036,0.286036 h -2.288288 c -0.15797,0 -0.286036,0.128066 -0.286036,0.286036 v 2.288288 c 0,0.157971 -0.128065,0.286037 -0.286036,0.286037 z m -31.463964,0 h -2.574324 v -2.574325 c 0,-0.15797 0.128062,-0.286036 0.286036,-0.286036 h 2.288288 c 0.157973,0 0.286036,0.128066 0.286036,0.286036 v 2.288288 c 0,0.157971 -0.128063,0.286037 -0.286036,0.286037 z m -20.022522,0 h -13.72973 c -0.157974,0 -0.286036,-0.128066 -0.286036,-0.286037 V 77.515766 c 0,-0.157971 0.128062,-0.286036 0.286036,-0.286036 h 13.72973 c 0.157973,0 0.286036,0.128065 0.286036,0.286036 v 13.729729 c 0,0.157971 -0.128063,0.286037 -0.286036,0.286037 z m 34.324324,-2.860361 h -5.434685 v -2.574324 c 0,-0.157971 0.128063,-0.286036 0.286036,-0.286036 h 5.148649 c 0.157973,0 0.286036,0.128065 0.286036,0.286036 v 2.288288 c 0,0.157971 -0.128063,0.286036 -0.286036,0.286036 z M 25.743243,88.385135 v -8.009009 c 0,-0.15797 -0.128062,-0.286036 -0.286036,-0.286036 h -8.009009 c -0.157973,0 -0.286036,0.128066 -0.286036,0.286036 v 8.009009 c 0,0.157971 0.128063,0.286036 0.286036,0.286036 h 8.009009 c 0.157974,0 0.286036,-0.128065 0.286036,-0.286036 z m 45.47973,-2.574324 h -5.148649 c -0.157973,0 -0.286036,-0.128066 -0.286036,-0.286036 v -2.288289 c 0,-0.15797 0.128063,-0.286036 0.286036,-0.286036 h 5.148649 c 0.157973,0 0.286036,0.128066 0.286036,0.286036 v 2.288289 c 0,0.15797 -0.128063,0.286036 -0.286036,0.286036 z m -20.022523,0 h -2.288288 c -0.157973,0 -0.286036,-0.128066 -0.286036,-0.286036 V 82.95045 h 2.574324 c 0.157974,0 0.286036,0.128066 0.286036,0.286036 v 2.288289 c 0,0.15797 -0.128062,0.286036 -0.286036,0.286036 z m -5.72072,0 h -2.574325 v -2.574325 c 0,-0.15797 0.128063,-0.286036 0.286036,-0.286036 h 2.574325 v 2.574325 c 0,0.15797 -0.128063,0.286036 -0.286036,0.286036 z M 56.921171,82.95045 h -2.288288 c -0.157974,0 -0.286036,-0.128065 -0.286036,-0.286036 v -2.288288 c 0,-0.15797 0.128062,-0.286036 0.286036,-0.286036 h 2.574324 v 2.574324 c 0,0.157971 -0.128062,0.286036 -0.286036,0.286036 z m -8.581081,0 h -2.574324 v -2.86036 h 2.86036 v 2.86036 z m 45.765766,-2.86036 h -2.574324 v -2.86036 h 2.574324 c 0.15797,0 0.286036,0.128065 0.286036,0.286036 v 2.288288 c 0,0.157971 -0.128066,0.286036 -0.286036,0.286036 z m -14.301802,0 h -8.009009 c -0.157971,0 -0.286036,-0.128065 -0.286036,-0.286036 v -8.009009 c 0,-0.157971 0.128065,-0.286036 0.286036,-0.286036 h 8.009009 c 0.157971,0 0.286036,0.128065 0.286036,0.286036 v 8.009009 c 0,0.157971 -0.128065,0.286036 -0.286036,0.286036 z m -20.022522,0 h -2.574325 v -2.574324 c 0,-0.157971 0.128063,-0.286036 0.286036,-0.286036 h 2.574325 v 2.574324 c 0,0.157971 -0.128063,0.286036 -0.286036,0.286036 z m -8.581082,0 h -2.574324 v -2.86036 h 2.574324 c 0.157974,0 0.286036,0.128065 0.286036,0.286036 v 2.288288 c 0,0.157971 -0.128062,0.286036 -0.286036,0.286036 z m -5.72072,0 h -5.148649 c -0.157973,0 -0.286036,-0.128065 -0.286036,-0.286036 v -2.288288 c 0,-0.157971 0.128063,-0.286036 0.286036,-0.286036 h 2.288288 c 0.157974,0 0.286036,-0.128066 0.286036,-0.286036 v -2.288289 c 0,-0.15797 -0.128062,-0.286036 -0.286036,-0.286036 h -2.288288 c -0.157973,0 -0.286036,-0.128065 -0.286036,-0.286036 v -5.148648 c 0,-0.157974 0.128063,-0.286036 0.286036,-0.286036 h 5.434685 v 2.574324 c 0,0.157973 0.128062,0.286036 0.286036,0.286036 h 2.288288 c 0.157973,0 0.286036,-0.128063 0.286036,-0.286036 v -2.288288 c 0,-0.157974 -0.128063,-0.286036 -0.286036,-0.286036 h -2.574324 v -2.574325 c 0,-0.157973 0.128062,-0.286036 0.286036,-0.286036 h 2.288288 c 0.157973,0 0.286036,-0.128062 0.286036,-0.286036 v -5.148648 c 0,-0.157974 -0.128063,-0.286036 -0.286036,-0.286036 h -2.574324 v -2.860361 h 2.574324 c 0.157973,0 0.286036,-0.128062 0.286036,-0.286036 v -2.574324 h 2.86036 v 2.574324 c 0,0.157974 0.128063,0.286036 0.286037,0.286036 h 2.288288 c 0.157973,0 0.286036,0.128063 0.286036,0.286036 v 2.288289 c 0,0.157973 -0.128063,0.286036 -0.286036,0.286036 h -2.288288 c -0.157974,0 -0.286037,0.128062 -0.286037,0.286036 v 2.288288 c 0,0.157973 0.128063,0.286036 0.286037,0.286036 h 2.288288 c 0.157973,0 0.286036,0.128063 0.286036,0.286036 v 5.434685 h -2.574324 c -0.157974,0 -0.286037,0.128062 -0.286037,0.286036 v 5.148648 c 0,0.157971 -0.128062,0.286036 -0.286036,0.286036 h -2.288288 c -0.157973,0 -0.286036,0.128066 -0.286036,0.286036 v 2.574325 h -2.574324 c -0.157974,0 -0.286036,0.128065 -0.286036,0.286036 v 2.574324 z m 45.765765,-2.86036 h -2.574324 v -2.574325 c 0,-0.15797 -0.128065,-0.286036 -0.286036,-0.286036 h -5.148649 c -0.15797,0 -0.286036,-0.128065 -0.286036,-0.286036 v -2.288288 c 0,-0.157971 0.128066,-0.286036 0.286036,-0.286036 h 2.288289 c 0.15797,0 0.286036,-0.128063 0.286036,-0.286036 v -2.288288 c 0,-0.157974 -0.128066,-0.286036 -0.286036,-0.286036 h -2.288289 c -0.15797,0 -0.286036,-0.128063 -0.286036,-0.286036 v -2.288289 c 0,-0.157973 -0.128065,-0.286036 -0.286036,-0.286036 h -5.148648 c -0.157971,0 -0.286036,0.128063 -0.286036,0.286036 v 2.288289 c 0,0.157973 -0.128066,0.286036 -0.286036,0.286036 h -2.288289 c -0.15797,0 -0.286036,-0.128063 -0.286036,-0.286036 v -2.288289 c 0,-0.157973 -0.128065,-0.286036 -0.286036,-0.286036 h -2.288288 c -0.157971,0 -0.286036,-0.128062 -0.286036,-0.286036 v -8.009009 c 0,-0.157973 0.128065,-0.286036 0.286036,-0.286036 h 2.288288 c 0.157971,0 0.286036,-0.128062 0.286036,-0.286036 v -2.288288 c 0,-0.157974 0.128066,-0.286036 0.286036,-0.286036 h 5.148649 c 0.157971,0 0.286036,-0.128063 0.286036,-0.286036 v -2.288288 c 0,-0.157974 0.128066,-0.286037 0.286036,-0.286037 h 2.288288 c 0.157971,0 0.286036,0.128063 0.286036,0.286037 v 2.288288 c 0,0.157973 0.128066,0.286036 0.286036,0.286036 h 5.434685 v 8.581081 h -2.86036 v -2.574324 c 0,-0.157974 -0.128066,-0.286036 -0.286036,-0.286036 h -5.148649 c -0.15797,0 -0.286036,-0.128063 -0.286036,-0.286036 v -2.288289 c 0,-0.157973 -0.128065,-0.286036 -0.286036,-0.286036 h -2.288288 c -0.157971,0 -0.286036,0.128063 -0.286036,0.286036 v 2.288289 c 0,0.157973 -0.128066,0.286036 -0.286036,0.286036 h -2.288289 c -0.15797,0 -0.286036,0.128062 -0.286036,0.286036 v 2.288288 c 0,0.157973 0.128066,0.286036 0.286036,0.286036 h 11.155406 v 2.574324 c 0,0.157974 0.128065,0.286036 0.286036,0.286036 h 2.574324 v 2.574325 c 0,0.157973 0.128066,0.286036 0.286036,0.286036 h 2.288288 c 0.157971,0 0.286037,0.128062 0.286037,0.286036 V 77.22973 Z M 77.22973,76.943694 v -2.288289 c 0,-0.15797 -0.128066,-0.286036 -0.286036,-0.286036 h -2.288289 c -0.15797,0 -0.286036,0.128066 -0.286036,0.286036 v 2.288289 c 0,0.15797 0.128066,0.286036 0.286036,0.286036 h 2.288289 c 0.15797,0 0.286036,-0.128066 0.286036,-0.286036 z M 65.502252,77.22973 h -5.434684 v -2.574325 c 0,-0.15797 0.128062,-0.286036 0.286036,-0.286036 h 5.148648 c 0.157974,0 0.286036,0.128066 0.286036,0.286036 v 2.288289 c 0,0.15797 -0.128062,0.286036 -0.286036,0.286036 z m 2.860361,-5.720721 h -5.148649 c -0.157973,0 -0.286036,-0.128063 -0.286036,-0.286036 v -2.288288 c 0,-0.157974 0.128063,-0.286036 0.286036,-0.286036 h 2.288288 c 0.157974,0 0.286036,-0.128063 0.286036,-0.286036 v -2.288289 c 0,-0.157973 -0.128062,-0.286036 -0.286036,-0.286036 h -8.009009 c -0.157973,0 -0.286036,-0.128062 -0.286036,-0.286036 v -2.288288 c 0,-0.157973 0.128063,-0.286036 0.286036,-0.286036 h 2.288289 c 0.157973,0 0.286036,-0.128063 0.286036,-0.286036 v -2.574324 h 2.86036 v 2.574324 c 0,0.157973 0.128063,0.286036 0.286036,0.286036 h 2.288288 c 0.157974,0 0.286036,-0.128063 0.286036,-0.286036 v -2.288288 c 0,-0.157974 -0.128062,-0.286036 -0.286036,-0.286036 h -2.574324 v -2.574325 c 0,-0.157973 0.128063,-0.286036 0.286036,-0.286036 h 5.148649 c 0.157973,0 0.286036,0.128063 0.286036,0.286036 v 13.72973 c 0,0.157973 -0.128063,0.286036 -0.286036,0.286036 z m -8.581081,0 h -5.148649 c -0.157974,0 -0.286036,-0.128063 -0.286036,-0.286036 v -2.574324 h 5.434685 c 0.157973,0 0.286036,0.128062 0.286036,0.286036 v 2.288288 c 0,0.157973 -0.128063,0.286036 -0.286036,0.286036 z m -40.045046,-2.86036 h -8.009009 c -0.157973,0 -0.286036,-0.128063 -0.286036,-0.286036 v -5.148649 c 0,-0.157973 0.128063,-0.286036 0.286036,-0.286036 h 5.148649 c 0.157974,0 0.286036,0.128063 0.286036,0.286036 v 2.288288 c 0,0.157974 0.128063,0.286036 0.286036,0.286036 h 2.288288 c 0.157974,0 0.286037,0.128063 0.286037,0.286036 v 2.288289 c 0,0.157973 -0.128063,0.286036 -0.286037,0.286036 z m 71.509009,-2.860361 h -2.574324 v -2.86036 h 2.574324 c 0.157971,0 0.286037,0.128063 0.286037,0.286036 v 2.288288 c 0,0.157974 -0.128066,0.286036 -0.286037,0.286036 z m -48.626126,0 h -5.148648 c -0.157974,0 -0.286036,-0.128062 -0.286036,-0.286036 v -2.574324 h 5.72072 v 2.574324 c 0,0.157974 -0.128062,0.286036 -0.286036,0.286036 z m -8.581081,0 h -2.574324 v -2.86036 h 2.86036 v 2.574324 c 0,0.157974 -0.128062,0.286036 -0.286036,0.286036 z m 11.441442,-2.86036 h -2.574325 v -2.574324 c 0,-0.157974 0.128063,-0.286036 0.286036,-0.286036 h 2.574325 v 2.574324 c 0,0.157973 -0.128063,0.286036 -0.286036,0.286036 z m -8.581081,0 h -2.574325 v -5.434685 c 0,-0.157973 -0.128062,-0.286036 -0.286036,-0.286036 h -5.434684 v -2.574324 c 0,-0.157974 0.128062,-0.286036 0.286036,-0.286036 h 5.148648 c 0.157974,0 0.286036,-0.128063 0.286036,-0.286036 v -5.434685 h 2.574325 c 0.157973,0 0.286036,-0.128063 0.286036,-0.286036 v -2.288288 c 0,-0.157974 -0.128063,-0.286036 -0.286036,-0.286036 h -2.574325 v -2.860361 h 2.574325 c 0.157973,0 0.286036,-0.128062 0.286036,-0.286036 v -2.288288 c 0,-0.157973 0.128062,-0.286036 0.286036,-0.286036 h 5.434684 v 2.574324 c 0,0.157974 -0.128062,0.286036 -0.286036,0.286036 h -2.288288 c -0.157973,0 -0.286036,0.128063 -0.286036,0.286036 v 5.148649 c 0,0.157973 0.128063,0.286036 0.286036,0.286036 h 2.288288 c 0.157974,0 0.286036,-0.128063 0.286036,-0.286036 v -2.288288 c 0,-0.157974 0.128063,-0.286036 0.286036,-0.286036 h 2.574325 v 2.574324 c 0,0.157973 0.128062,0.286036 0.286036,0.286036 h 2.574324 v 5.720721 h -2.574324 c -0.157974,0 -0.286036,0.128062 -0.286036,0.286036 v 2.574324 h -5.434685 c -0.157973,0 -0.286036,-0.128062 -0.286036,-0.286036 v -2.288288 c 0,-0.157974 -0.128063,-0.286036 -0.286036,-0.286036 h -2.288288 c -0.157974,0 -0.286036,0.128062 -0.286036,0.286036 v 8.295045 z m -5.720721,0 h -2.574324 v -2.86036 h 2.574324 c 0.157973,0 0.286036,0.128062 0.286036,0.286036 v 2.574324 z m 62.927928,-2.86036 h -2.288288 c -0.157971,0 -0.286036,-0.128063 -0.286036,-0.286036 v -2.288289 c 0,-0.157973 0.128065,-0.286036 0.286036,-0.286036 h 2.288288 c 0.15797,0 0.286036,0.128063 0.286036,0.286036 v 2.288289 c 0,0.157973 -0.128066,0.286036 -0.286036,0.286036 z m -34.324324,0 h -2.288289 c -0.157973,0 -0.286036,-0.128063 -0.286036,-0.286036 v -8.009009 c 0,-0.157974 0.128063,-0.286037 0.286036,-0.286037 h 2.288289 c 0.157973,0 0.286036,0.128063 0.286036,0.286037 v 8.295045 z m -42.905406,0 h -2.288288 c -0.157974,0 -0.286036,-0.128063 -0.286036,-0.286036 v -2.288289 c 0,-0.157973 -0.128063,-0.286036 -0.286036,-0.286036 h -2.288289 c -0.157973,0 -0.286036,-0.128062 -0.286036,-0.286036 v -2.288288 c 0,-0.157974 0.128063,-0.286036 0.286036,-0.286036 h 2.288289 c 0.157973,0 0.286036,-0.128063 0.286036,-0.286036 v -5.148649 c 0,-0.157973 0.128062,-0.286036 0.286036,-0.286036 h 2.288288 c 0.157974,0 0.286036,-0.128063 0.286036,-0.286036 v -2.288288 c 0,-0.157974 -0.128062,-0.286036 -0.286036,-0.286036 h -5.148649 c -0.157973,0 -0.286036,-0.128063 -0.286036,-0.286036 v -8.009009 c 0,-0.157974 0.128063,-0.286036 0.286036,-0.286036 h 5.148649 c 0.157974,0 0.286036,-0.128063 0.286036,-0.286036 V 34.61036 c 0,-0.157973 -0.128062,-0.286036 -0.286036,-0.286036 h -5.148649 c -0.157973,0 -0.286036,-0.128062 -0.286036,-0.286036 V 31.75 c 0,-0.157973 0.128063,-0.286036 0.286036,-0.286036 h 19.450451 c 0.157973,0 0.286036,-0.128063 0.286036,-0.286036 V 11.727477 c 0,-0.157973 0.128063,-0.286036 0.286036,-0.286036 h 2.288288 c 0.157974,0 0.286036,0.128063 0.286036,0.286036 v 10.86937 c 0,0.157973 0.128063,0.286036 0.286036,0.286036 h 5.148649 c 0.157973,0 0.286036,-0.128063 0.286036,-0.286036 v -2.574324 h 2.574324 c 0.157974,0 0.286036,0.128062 0.286036,0.286036 v 2.288288 c 0,0.157973 0.128063,0.286036 0.286036,0.286036 h 2.288289 c 0.157973,0 0.286036,-0.128063 0.286036,-0.286036 v -5.148649 c 0,-0.157973 -0.128063,-0.286036 -0.286036,-0.286036 h -2.288289 c -0.157973,0 -0.286036,-0.128062 -0.286036,-0.286036 v -5.148649 c 0,-0.157973 0.128063,-0.286036 0.286036,-0.286036 h 2.288289 c 0.157973,0 0.286036,0.128063 0.286036,0.286036 v 2.288289 c 0,0.157973 0.128062,0.286036 0.286036,0.286036 h 2.288288 c 0.157973,0 0.286036,0.128062 0.286036,0.286036 v 2.288288 c 0,0.157974 0.128063,0.286036 0.286036,0.286036 h 2.288288 c 0.157974,0 0.286036,-0.128062 0.286036,-0.286036 v -5.148649 c 0,-0.157973 0.128063,-0.286036 0.286037,-0.286036 h 2.288288 c 0.157973,0 0.286036,0.128063 0.286036,0.286036 v 2.288289 c 0,0.157973 0.128062,0.286036 0.286036,0.286036 h 2.288288 c 0.157974,0 0.286036,0.128062 0.286036,0.286036 v 2.288288 c 0,0.157974 -0.128062,0.286036 -0.286036,0.286036 h -2.288288 c -0.157974,0 -0.286036,0.128063 -0.286036,0.286036 v 2.288288 c 0,0.157974 -0.128063,0.286037 -0.286036,0.286037 h -5.148649 c -0.157973,0 -0.286036,0.128062 -0.286036,0.286036 v 5.148648 c 0,0.157974 -0.128063,0.286036 -0.286036,0.286036 h -5.148649 c -0.157973,0 -0.286036,0.128063 -0.286036,0.286036 v 2.574325 h -2.574324 c -0.157973,0 -0.286036,0.128062 -0.286036,0.286036 v 2.574324 h -2.86036 v -5.434685 c 0,-0.157973 -0.128063,-0.286036 -0.286036,-0.286036 H 34.61036 c -0.157973,0 -0.286036,0.128063 -0.286036,0.286036 v 5.148649 c 0,0.157973 0.128063,0.286036 0.286036,0.286036 h 2.574325 v 2.574324 c 0,0.157974 0.128062,0.286036 0.286036,0.286036 h 2.288288 c 0.157973,0 0.286036,-0.128062 0.286036,-0.286036 v -2.574324 h 2.574324 c 0.157974,0 0.286036,-0.128063 0.286036,-0.286036 v -2.574324 h 2.574325 c 0.157973,0 0.286036,0.128062 0.286036,0.286036 v 5.434684 h -2.574325 c -0.157973,0 -0.286036,0.128063 -0.286036,0.286036 v 2.574325 H 34.61036 c -0.157973,0 -0.286036,0.128062 -0.286036,0.286036 v 5.434684 h -2.86036 v -2.574324 c 0,-0.157973 -0.128063,-0.286036 -0.286036,-0.286036 H 28.88964 c -0.157974,0 -0.286036,-0.128063 -0.286036,-0.286036 v -2.288288 c 0,-0.157974 0.128062,-0.286036 0.286036,-0.286036 h 2.288288 c 0.157973,0 0.286036,-0.128063 0.286036,-0.286036 V 34.61036 c 0,-0.157973 -0.128063,-0.286036 -0.286036,-0.286036 h -8.009009 c -0.157973,0 -0.286036,0.128063 -0.286036,0.286036 v 2.574325 h -2.574324 c -0.157974,0 -0.286036,0.128062 -0.286036,0.286036 v 2.288288 c 0,0.157973 0.128062,0.286036 0.286036,0.286036 h 2.574324 v 2.574324 c 0,0.157974 0.128063,0.286036 0.286036,0.286036 h 2.288288 c 0.157974,0 0.286036,0.128063 0.286036,0.286036 v 2.288289 c 0,0.157973 -0.128062,0.286036 -0.286036,0.286036 h -5.148648 c -0.157974,0 -0.286036,0.128062 -0.286036,0.286036 v 2.288288 c 0,0.157973 0.128062,0.286036 0.286036,0.286036 h 2.288288 c 0.157973,0 0.286036,0.128063 0.286036,0.286036 v 2.288288 c 0,0.157974 -0.128063,0.286036 -0.286036,0.286036 h -2.288288 c -0.157974,0 -0.286036,0.128063 -0.286036,0.286037 v 5.434684 h -2.574325 c -0.157973,0 -0.286036,0.128063 -0.286036,0.286036 v 2.288289 c 0,0.157973 -0.128062,0.286036 -0.286036,0.286036 z m 74.369369,-5.720721 h -2.574324 v -2.574324 c 0,-0.157974 0.128066,-0.286037 0.286036,-0.286037 h 2.288288 c 0.157971,0 0.286037,0.128063 0.286037,0.286037 v 2.288288 c 0,0.157973 -0.128066,0.286036 -0.286037,0.286036 z m -22.882882,0 h -5.148649 c -0.157973,0 -0.286036,-0.128063 -0.286036,-0.286036 v -2.288288 c 0,-0.157974 0.128063,-0.286037 0.286036,-0.286037 h 2.288288 c 0.157974,0 0.286036,-0.128062 0.286036,-0.286036 v -2.574324 h 2.574325 c 0.157973,0 0.286036,-0.128063 0.286036,-0.286036 v -2.288288 c 0,-0.157974 0.128062,-0.286036 0.286036,-0.286036 h 2.574324 v 2.574324 c 0,0.157973 0.128065,0.286036 0.286036,0.286036 h 2.574324 v 2.574324 c 0,0.157974 -0.128065,0.286036 -0.286036,0.286036 h -5.148648 c -0.157974,0 -0.286036,0.128063 -0.286036,0.286037 v 2.288288 c 0,0.157973 -0.128063,0.286036 -0.286036,0.286036 z m -14.301802,0 h -2.574325 v -2.574324 c 0,-0.157974 0.128063,-0.286037 0.286037,-0.286037 h 2.288288 c 0.157973,0 0.286036,0.128063 0.286036,0.286037 v 2.288288 c 0,0.157973 -0.128063,0.286036 -0.286036,0.286036 z M 31.177928,51.486486 H 28.88964 c -0.157974,0 -0.286036,-0.128062 -0.286036,-0.286036 v -2.288288 c 0,-0.157973 0.128062,-0.286036 0.286036,-0.286036 h 2.574324 v 2.574324 c 0,0.157974 -0.128063,0.286036 -0.286036,0.286036 z m 62.927928,-2.86036 h -2.288288 c -0.157971,0 -0.286036,-0.128063 -0.286036,-0.286036 v -2.288288 c 0,-0.157974 0.128065,-0.286036 0.286036,-0.286036 h 2.288288 c 0.15797,0 0.286036,0.128062 0.286036,0.286036 v 2.288288 c 0,0.157973 -0.128066,0.286036 -0.286036,0.286036 z m -5.720721,0 H 74.369369 v -2.86036 h 11.155406 c 0.15797,0 0.286036,-0.128063 0.286036,-0.286036 v -2.288289 c 0,-0.157973 -0.128066,-0.286036 -0.286036,-0.286036 h -5.148649 c -0.15797,0 -0.286036,-0.128062 -0.286036,-0.286036 v -2.288288 c 0,-0.157973 0.128066,-0.286036 0.286036,-0.286036 h 10.869369 c 0.157971,0 0.286037,0.128063 0.286037,0.286036 v 2.288288 c 0,0.157974 -0.128066,0.286036 -0.286037,0.286036 h -2.288288 c -0.15797,0 -0.286036,0.128063 -0.286036,0.286036 v 5.148649 c 0,0.157973 -0.128065,0.286036 -0.286036,0.286036 z m -22.882883,0 h -2.288288 c -0.157973,0 -0.286036,-0.128063 -0.286036,-0.286036 v -5.434685 h 2.86036 v 5.720721 z m -8.581081,0 h -8.295045 v -2.574324 c 0,-0.157974 -0.128063,-0.286036 -0.286036,-0.286036 h -2.574324 v -2.574325 c 0,-0.157973 0.128062,-0.286036 0.286036,-0.286036 h 2.288288 c 0.157973,0 0.286036,-0.128062 0.286036,-0.286036 v -2.288288 c 0,-0.157973 0.128063,-0.286036 0.286036,-0.286036 h 5.148649 c 0.157973,0 0.286036,0.128063 0.286036,0.286036 v 2.288288 c 0,0.157974 -0.128063,0.286036 -0.286036,0.286036 h -2.288288 c -0.157974,0 -0.286037,0.128063 -0.286037,0.286036 v 2.288289 c 0,0.157973 0.128063,0.286036 0.286037,0.286036 h 5.148648 c 0.157974,0 0.286036,0.128062 0.286036,0.286036 v 2.288288 c 0,0.157973 -0.128062,0.286036 -0.286036,0.286036 z m -22.882883,0 h -2.574324 v -2.86036 h 2.86036 v 2.86036 z m 40.045045,-2.86036 h -2.574324 v -5.720721 h 2.574324 c 0.157971,0 0.286036,0.128063 0.286036,0.286036 v 5.434685 z m -42.905405,0 H 28.88964 c -0.157974,0 -0.286036,-0.128063 -0.286036,-0.286036 v -2.288289 c 0,-0.157973 0.128062,-0.286036 0.286036,-0.286036 h 2.574324 v 2.860361 z m 37.184685,-2.860361 h -2.574325 v -5.434684 c 0,-0.157974 -0.128062,-0.286036 -0.286036,-0.286036 h -2.288288 c -0.157973,0 -0.286036,-0.128063 -0.286036,-0.286036 V 34.61036 c 0,-0.157973 0.128063,-0.286036 0.286036,-0.286036 h 5.148649 c 0.157973,0 0.286036,0.128063 0.286036,0.286036 v 2.288289 c 0,0.157973 0.128062,0.286036 0.286036,0.286036 h 2.574324 v 2.86036 h -2.574324 c -0.157974,0 -0.286036,0.128063 -0.286036,0.286036 v 2.288288 c 0,0.157974 -0.128063,0.286036 -0.286036,0.286036 z m -5.720721,0 h -2.288288 c -0.157974,0 -0.286036,-0.128062 -0.286036,-0.286036 v -2.574324 h 2.574324 c 0.157973,0 0.286036,0.128063 0.286036,0.286036 v 2.574324 z m -45.47973,-0.286036 v -2.288288 c 0,-0.157973 -0.128062,-0.286036 -0.286036,-0.286036 h -2.288288 c -0.157974,0 -0.286036,0.128063 -0.286036,0.286036 v 2.288288 c 0,0.157974 0.128062,0.286036 0.286036,0.286036 h 2.288288 c 0.157974,0 0.286036,-0.128062 0.286036,-0.286036 z m 42.61937,-2.574324 h -2.288289 c -0.157973,0 -0.286036,-0.128063 -0.286036,-0.286036 v -8.295045 h 2.860361 v 8.581081 z m -14.301802,0 h -2.574325 v -2.86036 h 2.860361 v 2.574324 c 0,0.157973 -0.128063,0.286036 -0.286036,0.286036 z m -20.022523,0 h -2.574324 v -2.86036 h 2.574324 c 0.157974,0 0.286036,0.128062 0.286036,0.286036 v 2.288288 c 0,0.157973 -0.128062,0.286036 -0.286036,0.286036 z m 57.207207,-2.86036 h -2.288288 c -0.15797,0 -0.286036,-0.128063 -0.286036,-0.286036 V 34.61036 c 0,-0.157973 -0.128065,-0.286036 -0.286036,-0.286036 h -2.288288 c -0.157971,0 -0.286036,0.128063 -0.286036,0.286036 v 2.288289 c 0,0.157973 -0.128066,0.286036 -0.286036,0.286036 H 71.509009 V 28.88964 c 0,-0.157974 -0.128063,-0.286036 -0.286036,-0.286036 h -2.574324 v -2.574325 c 0,-0.157973 -0.128063,-0.286036 -0.286036,-0.286036 h -2.574325 v -2.574324 c 0,-0.157973 0.128063,-0.286036 0.286036,-0.286036 h 2.288289 c 0.157973,0 0.286036,-0.128063 0.286036,-0.286036 v -2.574324 h 2.574324 c 0.157973,0 0.286036,-0.128063 0.286036,-0.286037 v -5.148648 c 0,-0.157974 -0.128063,-0.286036 -0.286036,-0.286036 h -5.434685 v -2.574325 c 0,-0.157973 0.128063,-0.286036 0.286036,-0.286036 h 8.009009 c 0.157971,0 0.286036,0.128063 0.286036,0.286036 v 19.450451 c 0,0.157973 0.128066,0.286036 0.286036,0.286036 h 19.450451 c 0.15797,0 0.286036,0.128063 0.286036,0.286036 v 2.288288 c 0,0.157974 -0.128066,0.286036 -0.286036,0.286036 h -10.86937 c -0.15797,0 -0.286036,0.128063 -0.286036,0.286036 v 2.288289 c 0,0.157973 -0.128065,0.286036 -0.286036,0.286036 z m -28.603603,0 h -8.295045 v -2.860361 h 2.574324 c 0.157973,0 0.286036,-0.128062 0.286036,-0.286036 V 28.88964 c 0,-0.157974 0.128063,-0.286036 0.286036,-0.286036 h 2.574324 v 2.574324 c 0,0.157973 0.128063,0.286036 0.286037,0.286036 h 2.574324 v 5.434685 c 0,0.157973 -0.128063,0.286036 -0.286036,0.286036 z m 14.301802,-5.720721 h -2.288289 c -0.157973,0 -0.286036,-0.128063 -0.286036,-0.286036 v -2.574324 h 2.860361 v 2.574324 c 0,0.157973 -0.128063,0.286036 -0.286036,0.286036 z m -5.720721,0 H 60.067568 V 20.308559 c 0,-0.157974 0.128062,-0.286036 0.286036,-0.286036 h 2.574324 v 5.434684 c 0,0.157974 0.128063,0.286036 0.286036,0.286036 h 2.574324 v 2.860361 h -2.574324 c -0.157973,0 -0.286036,0.128062 -0.286036,0.286036 v 2.288288 c 0,0.157973 -0.128063,0.286036 -0.286036,0.286036 z m -5.720721,0 H 54.346847 V 28.88964 c 0,-0.157974 -0.128063,-0.286036 -0.286036,-0.286036 h -2.574325 v -5.434685 c 0,-0.157973 0.128063,-0.286036 0.286037,-0.286036 h 2.288288 c 0.157973,0 0.286036,0.128063 0.286036,0.286036 v 2.288288 c 0,0.157974 0.128062,0.286036 0.286036,0.286036 h 2.288288 c 0.157974,0 0.286036,0.128063 0.286036,0.286036 v 5.434685 z m 34.324324,-2.86036 H 77.515766 c -0.157971,0 -0.286036,-0.128063 -0.286036,-0.286036 v -13.72973 c 0,-0.157974 0.128065,-0.286036 0.286036,-0.286036 h 13.729729 c 0.157971,0 0.286037,0.128062 0.286037,0.286036 v 13.72973 c 0,0.157973 -0.128066,0.286036 -0.286037,0.286036 z m -62.927927,0 h -13.72973 c -0.157974,0 -0.286036,-0.128063 -0.286036,-0.286036 v -13.72973 c 0,-0.157974 0.128062,-0.286036 0.286036,-0.286036 h 13.72973 c 0.157973,0 0.286036,0.128062 0.286036,0.286036 v 13.72973 c 0,0.157973 -0.128063,0.286036 -0.286036,0.286036 z m 60.353603,-3.146397 v -8.009009 c 0,-0.157973 -0.128065,-0.286036 -0.286036,-0.286036 h -8.009009 c -0.15797,0 -0.286036,0.128063 -0.286036,0.286036 v 8.009009 c 0,0.157974 0.128066,0.286036 0.286036,0.286036 h 8.009009 c 0.157971,0 0.286036,-0.128062 0.286036,-0.286036 z m -62.927928,0 v -8.009009 c 0,-0.157973 -0.128062,-0.286036 -0.286036,-0.286036 h -8.009009 c -0.157973,0 -0.286036,0.128063 -0.286036,0.286036 v 8.009009 c 0,0.157974 0.128063,0.286036 0.286036,0.286036 h 8.009009 c 0.157974,0 0.286036,-0.128062 0.286036,-0.286036 z m 42.61937,-5.434684 h -5.434685 v -5.720721 h 2.86036 v 2.574324 c 0,0.157974 0.128063,0.286036 0.286036,0.286036 h 2.288289 c 0.157973,0 0.286036,0.128063 0.286036,0.286036 v 2.574325 z m -28.603604,0 h -2.288288 c -0.157974,0 -0.286036,-0.128063 -0.286036,-0.286037 v -2.288288 c 0,-0.157973 0.128062,-0.286036 0.286036,-0.286036 h 2.288288 c 0.157973,0 0.286036,0.128063 0.286036,0.286036 v 2.574325 z m 22.882883,-5.720721 h -2.288288 c -0.157974,0 -0.286036,-0.128063 -0.286036,-0.286036 v -2.288289 c 0,-0.157973 0.128062,-0.286036 0.286036,-0.286036 h 2.288288 c 0.157973,0 0.286036,0.128063 0.286036,0.286036 v 2.574325 z"
       id="path1101"
       style="fill:#ffffff;stroke:none;stroke-width:0.264583" />
  </g>
</svg>
