<?xml version="1.0" encoding="UTF-8" standalone="no"?>
<svg
   version="1.1"
   viewBox="0 0 800 800"
   id="svg8"
   sodipodi:docname="qr_stamp.svg"
   inkscape:version="1.1.2 (0a00cf5339, 2022-02-04)"
   xmlns:inkscape="http://www.inkscape.org/namespaces/inkscape"
   xmlns:sodipodi="http://sodipodi.sourceforge.net/DTD/sodipodi-0.dtd"
   xmlns="http://www.w3.org/2000/svg"
   xmlns:svg="http://www.w3.org/2000/svg">
  <defs
     id="defs12" />
  <sodipodi:namedview
     id="namedview10"
     pagecolor="#505050"
     bordercolor="#ffffff"
     borderopacity="1"
     inkscape:pageshadow="0"
     inkscape:pageopacity="0"
     inkscape:pagecheckerboard="1"
     showgrid="false"
     inkscape:zoom="0.26763662"
     inkscape:cx="-564.19782"
     inkscape:cy="1333.8982"
     inkscape:window-width="1920"
     inkscape:window-height="1011"
     inkscape:window-x="0"
     inkscape:window-y="32"
     inkscape:window-maximized="1"
     inkscape:current-layer="svg8" />
  <path
     x="0"
     y="0"
     style="fill:#2a2a2e;shape-rendering:crispEdges"
     d="M 800,0 H 775.76 V 24.24 H 800 Z m 0,24.24 H 775.76 V 48.48 H 800 Z m 0,24.24 H 775.76 V 72.73 H 800 Z m 0,24.25 H 775.76 V 96.97 H 800 Z m 0,24.24 h -24.24 v 24.24 H 800 Z m 0,24.24 h -24.24 v 24.24 H 800 Z m 0,24.24 H 775.76 V 169.7 H 800 Z m 0,48.49 h -24.24 v 24.24 H 800 Z m 0,24.24 h -24.24 v 24.24 H 800 Z m 0,72.73 h -24.24 v 24.24 H 800 Z m 0,24.24 h -24.24 v 24.24 H 800 Z m 0,24.24 h -24.24 v 24.25 H 800 Z m 0,24.25 h -24.24 v 24.24 H 800 Z m 0,96.97 h -24.24 v 24.24 H 800 Z m 0,48.48 h -24.24 v 24.24 H 800 Z m 0,72.73 h -24.24 v 24.24 H 800 Z m 0,48.48 h -24.24 v 24.25 H 800 Z m 0,24.25 h -24.24 v 24.24 H 800 Z m 0,24.24 h -24.24 v 24.24 H 800 Z m 0,24.24 h -24.24 v 24.24 H 800 Z m 0,24.24 h -24.24 v 24.25 H 800 Z m 0,24.25 h -24.24 v 24.24 H 800 Z m 0,24.24 H 775.76 V 800 H 800 Z M 775.76,0 h -24.24 v 24.24 h 24.24 z m 0,145.45 h -24.24 v 24.25 h 24.24 z m 0,72.73 h -24.24 v 24.24 h 24.24 z m 0,48.49 h -24.24 v 24.24 h 24.24 z m 0,48.48 h -24.24 v 24.24 h 24.24 z m 0,24.24 h -24.24 v 24.25 h 24.24 z m 0,24.25 h -24.24 v 24.24 h 24.24 z m 0,121.21 h -24.24 v 24.24 h 24.24 z m 0,24.24 h -24.24 v 24.24 h 24.24 z m 0,48.49 h -24.24 v 24.24 h 24.24 z m 0,72.72 h -24.24 v 24.25 h 24.24 z m 0,145.46 H 751.52 V 800 h 24.24 z M 751.52,0 h -24.25 v 24.24 h 24.25 z m 0,48.48 h -24.25 v 24.25 h 24.25 z m 0,24.25 h -24.25 v 24.24 h 24.25 z m 0,24.24 h -24.25 v 24.24 h 24.25 z m 0,48.48 h -24.25 v 24.25 h 24.25 z m 0,48.49 h -24.25 v 24.24 h 24.25 z m 0,24.24 h -24.25 v 24.24 h 24.25 z m 0,24.24 h -24.25 v 24.25 h 24.25 z m 0,48.49 h -24.25 v 24.24 h 24.25 z m 0,24.24 h -24.25 v 24.24 h 24.25 z m 0,48.49 h -24.25 v 24.24 h 24.25 z m 0,24.24 h -24.25 v 24.24 h 24.25 z m 0,24.24 h -24.25 v 24.24 h 24.25 z m 0,48.49 h -24.25 v 24.24 h 24.25 z m 0,24.24 h -24.25 v 24.24 h 24.25 z m 0,24.24 h -24.25 v 24.24 h 24.25 z m 0,24.24 h -24.25 v 24.25 h 24.25 z m 0,96.97 h -24.25 v 24.25 h 24.25 z m 0,48.49 h -24.25 v 24.24 h 24.25 z m 0,24.24 h -24.25 v 24.24 h 24.25 z m 0,24.24 h -24.25 v 24.25 h 24.25 z m 0,48.49 H 727.27 V 800 h 24.25 z M 727.27,0 h -24.24 v 24.24 h 24.24 z m 0,48.48 h -24.24 v 24.25 h 24.24 z m 0,24.25 h -24.24 v 24.24 h 24.24 z m 0,24.24 h -24.24 v 24.24 h 24.24 z m 0,48.48 h -24.24 v 24.25 h 24.24 z m 0,48.49 h -24.24 v 24.24 h 24.24 z m 0,48.48 h -24.24 v 24.25 h 24.24 z m 0,121.22 h -24.24 v 24.24 h 24.24 z m 0,24.24 h -24.24 v 24.24 h 24.24 z m 0,24.24 h -24.24 v 24.24 h 24.24 z m 0,24.24 h -24.24 v 24.25 h 24.24 z m 0,24.25 h -24.24 v 24.24 h 24.24 z m 0,48.48 h -24.24 v 24.24 h 24.24 z m 0,48.49 h -24.24 v 24.24 h 24.24 z m 0,72.72 h -24.24 v 24.25 h 24.24 z m 0,48.49 h -24.24 v 24.24 h 24.24 z m 0,24.24 h -24.24 v 24.24 h 24.24 z m 0,24.24 h -24.24 v 24.25 h 24.24 z m 0,48.49 H 703.03 V 800 h 24.24 z M 703.03,0 h -24.24 v 24.24 h 24.24 z m 0,48.48 h -24.24 v 24.25 h 24.24 z m 0,24.25 h -24.24 v 24.24 h 24.24 z m 0,24.24 h -24.24 v 24.24 h 24.24 z m 0,48.48 h -24.24 v 24.25 h 24.24 z m 0,145.46 h -24.24 v 24.24 h 24.24 z m 0,48.48 h -24.24 v 24.25 h 24.24 z m 0,24.25 h -24.24 v 24.24 h 24.24 z m 0,72.72 h -24.24 v 24.25 h 24.24 z m 0,48.49 h -24.24 v 24.24 h 24.24 z m 0,24.24 h -24.24 v 24.24 h 24.24 z m 0,121.21 h -24.24 v 24.25 h 24.24 z m 0,48.49 h -24.24 v 24.24 h 24.24 z m 0,24.24 h -24.24 v 24.24 h 24.24 z m 0,24.24 h -24.24 v 24.25 h 24.24 z m 0,48.49 H 678.79 V 800 h 24.24 z M 678.79,0 h -24.24 v 24.24 h 24.24 z m 0,145.45 h -24.24 v 24.25 h 24.24 z m 0,48.49 h -24.24 v 24.24 h 24.24 z m 0,24.24 h -24.24 v 24.24 h 24.24 z m 0,24.24 h -24.24 v 24.25 h 24.24 z m 0,24.25 h -24.24 v 24.24 h 24.24 z m 0,24.24 h -24.24 v 24.24 h 24.24 z m 0,48.48 h -24.24 v 24.25 h 24.24 z m 0,48.49 h -24.24 v 24.24 h 24.24 z m 0,48.48 h -24.24 v 24.25 h 24.24 z m 0,24.25 h -24.24 v 24.24 h 24.24 z m 0,24.24 h -24.24 v 24.24 h 24.24 z m 0,24.24 h -24.24 v 24.24 h 24.24 z m 0,24.24 h -24.24 v 24.25 h 24.24 z m 0,48.49 h -24.24 v 24.24 h 24.24 z m 0,48.48 h -24.24 v 24.25 h 24.24 z m 0,145.46 H 654.55 V 800 h 24.24 z M 654.55,0 H 630.3 v 24.24 h 24.25 z m 0,24.24 H 630.3 v 24.24 h 24.25 z m 0,24.24 H 630.3 v 24.25 h 24.25 z m 0,24.25 H 630.3 v 24.24 h 24.25 z m 0,24.24 H 630.3 v 24.24 h 24.25 z m 0,24.24 H 630.3 v 24.24 h 24.25 z m 0,24.24 H 630.3 v 24.25 h 24.25 z m 0,48.49 H 630.3 v 24.24 h 24.25 z m 0,48.48 H 630.3 v 24.25 h 24.25 z m 0,48.49 H 630.3 v 24.24 h 24.25 z m 0,48.48 H 630.3 v 24.25 h 24.25 z m 0,48.49 H 630.3 v 24.24 h 24.25 z m 0,48.48 H 630.3 v 24.25 h 24.25 z m 0,48.49 H 630.3 v 24.24 h 24.25 z m 0,48.48 H 630.3 v 24.25 h 24.25 z m 0,48.49 H 630.3 v 24.24 h 24.25 z m 0,48.48 H 630.3 v 24.25 h 24.25 z m 0,24.25 H 630.3 v 24.24 h 24.25 z m 0,24.24 H 630.3 v 24.24 h 24.25 z m 0,24.24 H 630.3 v 24.24 h 24.25 z m 0,24.24 H 630.3 v 24.25 h 24.25 z m 0,24.25 H 630.3 v 24.24 h 24.25 z m 0,24.24 H 630.3 V 800 h 24.25 z M 630.3,193.94 h -24.24 v 24.24 h 24.24 z m 0,24.24 h -24.24 v 24.24 h 24.24 z m 0,48.49 h -24.24 v 24.24 h 24.24 z m 0,24.24 h -24.24 v 24.24 h 24.24 z m 0,24.24 h -24.24 v 24.24 h 24.24 z m 0,48.49 h -24.24 v 24.24 h 24.24 z m 0,24.24 h -24.24 v 24.24 h 24.24 z m 0,48.48 h -24.24 v 24.25 h 24.24 z m 0,24.25 h -24.24 v 24.24 h 24.24 z m 0,48.48 h -24.24 v 24.24 H 630.3 Z M 606.06,0 h -24.24 v 24.24 h 24.24 z m 0,24.24 h -24.24 v 24.24 h 24.24 z m 0,48.49 h -24.24 v 24.24 h 24.24 z m 0,72.72 h -24.24 v 24.25 h 24.24 z m 0,24.25 h -24.24 v 24.24 h 24.24 z m 0,48.48 h -24.24 v 24.24 h 24.24 z m 0,72.73 h -24.24 v 24.24 h 24.24 z m 0,145.45 h -24.24 v 24.25 h 24.24 z m 0,145.46 h -24.24 v 24.24 h 24.24 z m 0,24.24 h -24.24 v 24.24 h 24.24 z m 0,24.24 h -24.24 v 24.25 h 24.24 z m 0,24.25 h -24.24 v 24.24 h 24.24 z m 0,48.48 h -24.24 v 24.24 h 24.24 z m 0,24.24 h -24.24 v 24.25 h 24.24 z m 0,48.49 H 581.82 V 800 h 24.24 z M 581.82,0 h -24.24 v 24.24 h 24.24 z m 0,48.48 h -24.24 v 24.25 h 24.24 z m 0,48.49 h -24.24 v 24.24 h 24.24 z m 0,72.73 h -24.24 v 24.24 h 24.24 z m 0,24.24 h -24.24 v 24.24 h 24.24 z m 0,24.24 h -24.24 v 24.24 h 24.24 z m 0,48.49 h -24.24 v 24.24 h 24.24 z m 0,24.24 h -24.24 v 24.24 h 24.24 z m 0,24.24 h -24.24 v 24.24 h 24.24 z m 0,48.49 h -24.24 v 24.24 h 24.24 z m 0,48.48 h -24.24 v 24.24 h 24.24 z m 0,145.46 h -24.24 v 24.24 h 24.24 z m 0,48.48 h -24.24 v 24.24 h 24.24 z m 0,24.24 h -24.24 v 24.25 h 24.24 z m 0,48.49 h -24.24 v 24.24 h 24.24 z m 0,48.48 h -24.24 v 24.25 h 24.24 z M 557.58,48.48 h -24.25 v 24.25 h 24.25 z m 0,96.97 h -24.25 v 24.25 h 24.25 z m 0,24.25 h -24.25 v 24.24 h 24.25 z m 0,24.24 h -24.25 v 24.24 h 24.25 z m 0,72.73 h -24.25 v 24.24 h 24.25 z m 0,24.24 h -24.25 v 24.24 h 24.25 z m 0,48.48 h -24.25 v 24.25 h 24.25 z m 0,121.22 h -24.25 v 24.24 h 24.25 z m 0,48.48 h -24.25 v 24.24 h 24.25 z m 0,24.24 h -24.25 v 24.25 h 24.25 z m 0,48.49 h -24.25 v 24.24 h 24.25 z m 0,48.48 h -24.25 v 24.25 h 24.25 z m 0,121.22 h -24.25 v 24.24 h 24.25 z m 0,24.24 H 533.33 V 800 h 24.25 z M 533.33,24.24 h -24.24 v 24.24 h 24.24 z m 0,48.49 h -24.24 v 24.24 h 24.24 z m 0,96.97 h -24.24 v 24.24 h 24.24 z m 0,72.72 h -24.24 v 24.25 h 24.24 z m 0,96.97 h -24.24 v 24.25 h 24.24 z m 0,24.25 h -24.24 v 24.24 h 24.24 z m 0,24.24 h -24.24 v 24.24 h 24.24 z m 0,121.21 h -24.24 v 24.24 h 24.24 z m 0,72.73 h -24.24 v 24.24 h 24.24 z m 0,24.24 h -24.24 v 24.24 h 24.24 z m 0,24.24 h -24.24 v 24.25 h 24.24 z m 0,121.22 h -24.24 v 24.24 h 24.24 z m 0,24.24 H 509.09 V 800 h 24.24 z M 509.09,0 h -24.24 v 24.24 h 24.24 z m 0,24.24 h -24.24 v 24.24 h 24.24 z m 0,24.24 h -24.24 v 24.25 h 24.24 z m 0,72.73 h -24.24 v 24.24 h 24.24 z m 0,24.24 h -24.24 v 24.25 h 24.24 z m 0,24.25 h -24.24 v 24.24 h 24.24 z m 0,24.24 h -24.24 v 24.24 h 24.24 z m 0,24.24 h -24.24 v 24.24 h 24.24 z m 0,48.49 h -24.24 v 24.24 h 24.24 z m 0,24.24 h -24.24 v 24.24 h 24.24 z m 0,48.48 h -24.24 v 24.25 h 24.24 z m 0,96.97 h -24.24 v 24.25 h 24.24 z m 0,72.73 h -24.24 v 24.24 h 24.24 z m 0,24.24 h -24.24 v 24.25 h 24.24 z m 0,24.25 h -24.24 v 24.24 h 24.24 z m 0,24.24 h -24.24 v 24.24 h 24.24 z m 0,121.21 h -24.24 v 24.24 h 24.24 z m 0,24.24 h -24.24 v 24.25 h 24.24 z m 0,24.25 h -24.24 v 24.24 h 24.24 z m 0,24.24 H 484.85 V 800 h 24.24 z M 484.85,0 h -24.24 v 24.24 h 24.24 z m 0,24.24 h -24.24 v 24.24 h 24.24 z m 0,242.43 h -24.24 v 24.24 h 24.24 z m 0,48.48 h -24.24 v 24.24 h 24.24 z m 0,24.24 h -24.24 v 24.25 h 24.24 z m 0,24.25 h -24.24 v 24.24 h 24.24 z m 0,48.48 h -24.24 v 24.24 h 24.24 z m 0,24.24 h -24.24 v 24.25 h 24.24 z m 0,24.25 h -24.24 v 24.24 h 24.24 z m 0,24.24 h -24.24 v 24.24 h 24.24 z m 0,72.73 h -24.24 v 24.24 h 24.24 z m 0,96.97 h -24.24 v 24.24 h 24.24 z m 0,96.97 h -24.24 v 24.24 h 24.24 z m 0,24.24 H 460.61 V 800 h 24.24 z M 460.61,0 h -24.25 v 24.24 h 24.25 z m 0,72.73 h -24.25 v 24.24 h 24.25 z m 0,24.24 h -24.25 v 24.24 h 24.25 z m 0,48.48 h -24.25 v 24.25 h 24.25 z m 0,48.49 h -24.25 v 24.24 h 24.25 z m 0,24.24 h -24.25 v 24.24 h 24.25 z m 0,24.24 h -24.25 v 24.25 h 24.25 z m 0,24.25 h -24.25 v 24.24 h 24.25 z m 0,121.21 h -24.25 v 24.24 h 24.25 z m 0,72.73 h -24.25 v 24.24 h 24.25 z m 0,48.48 h -24.25 v 24.24 h 24.25 z m 0,96.97 h -24.25 v 24.24 h 24.25 z m 0,48.49 h -24.25 v 24.24 h 24.25 z m 0,48.48 h -24.25 v 24.24 h 24.25 z m 0,48.49 h -24.25 v 24.24 h 24.25 z M 436.36,48.48 h -24.24 v 24.25 h 24.24 z m 0,218.19 h -24.24 v 24.24 h 24.24 z m 0,72.72 h -24.24 v 24.25 h 24.24 z m 0,48.49 h -24.24 v 24.24 h 24.24 z m 0,24.24 h -24.24 v 24.24 h 24.24 z m 0,24.24 h -24.24 v 24.25 h 24.24 z m 0,24.25 h -24.24 v 24.24 h 24.24 z m 0,48.48 h -24.24 v 24.24 h 24.24 z m 0,72.73 h -24.24 v 24.24 h 24.24 z m 0,24.24 h -24.24 v 24.24 h 24.24 z m 0,48.49 h -24.24 v 24.24 h 24.24 z m 0,24.24 h -24.24 v 24.24 h 24.24 z m 0,72.73 h -24.24 v 24.24 h 24.24 z m 0,24.24 H 412.12 V 800 h 24.24 z M 412.12,0 h -24.24 v 24.24 h 24.24 z m 0,24.24 h -24.24 v 24.24 h 24.24 z m 0,48.49 h -24.24 v 24.24 h 24.24 z m 0,72.72 h -24.24 v 24.25 h 24.24 z m 0,48.49 h -24.24 v 24.24 h 24.24 z m 0,48.48 h -24.24 v 24.25 h 24.24 z m 0,24.25 h -24.24 v 24.24 h 24.24 z m 0,48.48 h -24.24 v 24.24 h 24.24 z m 0,24.24 h -24.24 v 24.25 h 24.24 z m 0,24.25 h -24.24 v 24.24 h 24.24 z m 0,72.72 h -24.24 v 24.25 h 24.24 z m 0,96.97 h -24.24 v 24.25 h 24.24 z m 0,24.25 h -24.24 v 24.24 h 24.24 z m 0,48.48 h -24.24 v 24.24 h 24.24 z m 0,145.46 h -24.24 v 24.24 h 24.24 z m 0,24.24 H 387.88 V 800 h 24.24 z M 387.88,0 h -24.24 v 24.24 h 24.24 z m 0,48.48 h -24.24 v 24.25 h 24.24 z m 0,121.22 h -24.24 v 24.24 h 24.24 z m 0,24.24 h -24.24 v 24.24 h 24.24 z m 0,48.48 h -24.24 v 24.25 h 24.24 z m 0,72.73 h -24.24 v 24.24 h 24.24 z m 0,24.24 h -24.24 v 24.25 h 24.24 z m 0,72.73 h -24.24 v 24.24 h 24.24 z m 0,24.24 h -24.24 v 24.25 h 24.24 z m 0,96.97 h -24.24 v 24.25 h 24.24 z m 0,48.49 h -24.24 v 24.24 h 24.24 z m 0,24.24 h -24.24 v 24.24 h 24.24 z m 0,72.73 h -24.24 v 24.24 h 24.24 z m 0,24.24 h -24.24 v 24.24 h 24.24 z m 0,24.24 h -24.24 v 24.25 h 24.24 z m 0,24.25 h -24.24 v 24.24 h 24.24 z m 0,24.24 H 363.64 V 800 h 24.24 z M 363.64,0 h -24.25 v 24.24 h 24.25 z m 0,24.24 h -24.25 v 24.24 h 24.25 z m 0,96.97 h -24.25 v 24.24 h 24.25 z m 0,24.24 h -24.25 v 24.25 h 24.25 z m 0,48.49 h -24.25 v 24.24 h 24.25 z m 0,24.24 h -24.25 v 24.24 h 24.25 z m 0,48.49 h -24.25 v 24.24 h 24.25 z m 0,24.24 h -24.25 v 24.24 h 24.25 z m 0,24.24 h -24.25 v 24.24 h 24.25 z m 0,24.24 h -24.25 v 24.25 h 24.25 z m 0,24.25 h -24.25 v 24.24 h 24.25 z m 0,24.24 h -24.25 v 24.24 h 24.25 z m 0,96.97 h -24.25 v 24.24 h 24.25 z m 0,24.24 h -24.25 v 24.24 h 24.25 z m 0,24.24 h -24.25 v 24.25 h 24.25 z m 0,24.25 h -24.25 v 24.24 h 24.25 z m 0,145.45 h -24.25 v 24.24 h 24.25 z m 0,72.73 H 339.39 V 800 h 24.25 z M 339.39,0 h -24.24 v 24.24 h 24.24 z m 0,72.73 h -24.24 v 24.24 h 24.24 z m 0,48.48 h -24.24 v 24.24 h 24.24 z m 0,72.73 h -24.24 v 24.24 h 24.24 z m 0,24.24 h -24.24 v 24.24 h 24.24 z m 0,145.46 h -24.24 v 24.24 h 24.24 z m 0,24.24 h -24.24 v 24.24 h 24.24 z m 0,72.73 h -24.24 v 24.24 h 24.24 z m 0,96.97 h -24.24 v 24.24 h 24.24 z m 0,48.48 h -24.24 v 24.24 h 24.24 z m 0,24.24 h -24.24 v 24.25 h 24.24 z m 0,48.49 h -24.24 v 24.24 h 24.24 z m 0,24.24 h -24.24 v 24.24 h 24.24 z m 0,24.24 h -24.24 v 24.25 h 24.24 z m 0,24.25 h -24.24 v 24.24 h 24.24 z M 315.15,0 h -24.24 v 24.24 h 24.24 z m 0,48.48 h -24.24 v 24.25 h 24.24 z m 0,24.25 h -24.24 v 24.24 h 24.24 z m 0,24.24 h -24.24 v 24.24 h 24.24 z m 0,24.24 h -24.24 v 24.24 h 24.24 z m 0,24.24 h -24.24 v 24.25 h 24.24 z m 0,24.25 h -24.24 v 24.24 h 24.24 z m 0,48.48 h -24.24 v 24.24 h 24.24 z m 0,48.49 h -24.24 v 24.24 h 24.24 z m 0,96.97 h -24.24 v 24.24 h 24.24 z m 0,48.48 h -24.24 v 24.24 h 24.24 z m 0,24.24 h -24.24 v 24.25 h 24.24 z m 0,48.49 h -24.24 v 24.24 h 24.24 z m 0,121.21 h -24.24 v 24.24 h 24.24 z m 0,24.24 h -24.24 v 24.25 h 24.24 z m 0,24.25 h -24.24 v 24.24 h 24.24 z m 0,24.24 h -24.24 v 24.24 h 24.24 z m 0,24.24 h -24.24 v 24.24 h 24.24 z M 290.91,24.24 h -24.24 v 24.24 h 24.24 z m 0,24.24 h -24.24 v 24.25 h 24.24 z m 0,24.25 h -24.24 v 24.24 h 24.24 z m 0,48.48 h -24.24 v 24.24 h 24.24 z m 0,72.73 h -24.24 v 24.24 h 24.24 z m 0,24.24 h -24.24 v 24.24 h 24.24 z m 0,72.73 h -24.24 v 24.24 h 24.24 z m 0,24.24 h -24.24 v 24.24 h 24.24 z m 0,24.24 h -24.24 v 24.25 h 24.24 z m 0,24.25 h -24.24 v 24.24 h 24.24 z m 0,24.24 h -24.24 v 24.24 h 24.24 z m 0,24.24 h -24.24 v 24.24 h 24.24 z m 0,48.49 h -24.24 v 24.24 h 24.24 z m 0,48.48 h -24.24 v 24.24 h 24.24 z m 0,24.24 h -24.24 v 24.25 h 24.24 z m 0,121.22 h -24.24 v 24.24 h 24.24 z m 0,48.48 h -24.24 v 24.24 h 24.24 z m 0,72.73 H 266.67 V 800 h 24.24 z M 266.67,24.24 h -24.25 v 24.24 h 24.25 z m 0,24.24 h -24.25 v 24.25 h 24.25 z m 0,24.25 h -24.25 v 24.24 h 24.25 z m 0,48.48 h -24.25 v 24.24 h 24.25 z m 0,24.24 h -24.25 v 24.25 h 24.25 z m 0,48.49 h -24.25 v 24.24 h 24.25 z m 0,121.21 h -24.25 v 24.24 h 24.25 z m 0,72.73 h -24.25 v 24.24 h 24.25 z m 0,24.24 h -24.25 v 24.24 h 24.25 z m 0,24.24 h -24.25 v 24.25 h 24.25 z m 0,145.46 h -24.25 v 24.24 h 24.25 z m 0,48.48 h -24.25 v 24.25 h 24.25 z m 0,24.25 h -24.25 v 24.24 h 24.25 z m 0,72.72 h -24.25 v 24.25 h 24.25 z m 0,24.25 h -24.25 v 24.24 h 24.25 z M 242.42,0 h -24.24 v 24.24 h 24.24 z m 0,24.24 h -24.24 v 24.24 h 24.24 z m 0,72.73 h -24.24 v 24.24 h 24.24 z m 0,72.73 h -24.24 v 24.24 h 24.24 z m 0,48.48 h -24.24 v 24.24 h 24.24 z m 0,24.24 h -24.24 v 24.25 h 24.24 z m 0,48.49 h -24.24 v 24.24 h 24.24 z m 0,24.24 h -24.24 v 24.24 h 24.24 z m 0,24.24 h -24.24 v 24.25 h 24.24 z m 0,24.25 h -24.24 v 24.24 h 24.24 z m 0,48.48 h -24.24 v 24.24 h 24.24 z m 0,48.49 h -24.24 v 24.24 h 24.24 z m 0,72.72 h -24.24 v 24.25 h 24.24 z m 0,24.25 h -24.24 v 24.24 h 24.24 z m 0,24.24 h -24.24 v 24.24 h 24.24 z m 0,48.48 h -24.24 v 24.25 h 24.24 z m 0,24.25 h -24.24 v 24.24 h 24.24 z m 0,24.24 h -24.24 v 24.24 h 24.24 z m 0,24.24 h -24.24 v 24.24 h 24.24 z m 0,48.49 h -24.24 v 24.24 h 24.24 z M 218.18,24.24 h -24.24 v 24.24 h 24.24 z m 0,24.24 h -24.24 v 24.25 h 24.24 z m 0,72.73 h -24.24 v 24.24 h 24.24 z m 0,24.24 h -24.24 v 24.25 h 24.24 z m 0,48.49 h -24.24 v 24.24 h 24.24 z m 0,96.97 h -24.24 v 24.24 h 24.24 z m 0,24.24 h -24.24 v 24.24 h 24.24 z m 0,96.97 h -24.24 v 24.24 h 24.24 z m 0,24.24 h -24.24 v 24.25 h 24.24 z m 0,24.25 h -24.24 v 24.24 h 24.24 z m 0,48.48 h -24.24 v 24.24 h 24.24 z m 0,24.24 h -24.24 v 24.25 h 24.24 z m 0,24.25 h -24.24 v 24.24 h 24.24 z m 0,24.24 h -24.24 v 24.24 h 24.24 z m 0,24.24 h -24.24 v 24.24 h 24.24 z m 0,24.24 h -24.24 v 24.25 h 24.24 z m 0,24.25 h -24.24 v 24.24 h 24.24 z m 0,24.24 h -24.24 v 24.24 h 24.24 z m 0,72.73 h -24.24 v 24.24 h 24.24 z M 193.94,290.91 H 169.7 v 24.24 h 24.24 z m 0,72.73 H 169.7 v 24.24 h 24.24 z m 0,24.24 H 169.7 v 24.24 h 24.24 z m 0,24.24 H 169.7 v 24.24 h 24.24 z m 0,48.49 H 169.7 v 24.24 h 24.24 z m 0,72.72 H 169.7 v 24.25 h 24.24 z m 0,48.49 H 169.7 v 24.24 h 24.24 z m 0,96.97 H 169.7 v 24.24 h 24.24 z m 0,96.97 H 169.7 V 800 h 24.24 z M 169.7,0 h -24.25 v 24.24 h 24.25 z m 0,24.24 h -24.25 v 24.24 h 24.25 z m 0,24.24 h -24.25 v 24.25 h 24.25 z m 0,24.25 h -24.25 v 24.24 h 24.25 z m 0,24.24 h -24.25 v 24.24 h 24.25 z m 0,24.24 h -24.25 v 24.24 h 24.25 z m 0,24.24 h -24.25 v 24.25 h 24.25 z m 0,48.49 h -24.25 v 24.24 h 24.25 z m 0,24.24 h -24.25 v 24.24 h 24.25 z m 0,24.24 h -24.25 v 24.25 h 24.25 z m 0,96.97 h -24.25 v 24.25 h 24.25 z m 0,24.25 h -24.25 v 24.24 h 24.25 z m 0,24.24 h -24.25 v 24.24 h 24.25 z m 0,24.24 h -24.25 v 24.24 h 24.25 z m 0,96.97 h -24.25 v 24.24 h 24.25 z m 0,24.24 h -24.25 v 24.25 h 24.25 z m 0,24.25 h -24.25 v 24.24 h 24.25 z m 0,24.24 h -24.25 v 24.24 h 24.25 z m 0,48.48 h -24.25 v 24.25 h 24.25 z m 0,48.49 h -24.25 v 24.24 h 24.25 z m 0,48.48 h -24.25 v 24.25 H 169.7 Z M 145.45,0 h -24.24 v 24.24 h 24.24 z m 0,145.45 h -24.24 v 24.25 h 24.24 z m 0,72.73 h -24.24 v 24.24 h 24.24 z m 0,24.24 h -24.24 v 24.25 h 24.24 z m 0,24.25 h -24.24 v 24.24 h 24.24 z m 0,24.24 h -24.24 v 24.24 h 24.24 z m 0,24.24 h -24.24 v 24.24 h 24.24 z m 0,121.21 h -24.24 v 24.25 h 24.24 z m 0,48.49 h -24.24 v 24.24 h 24.24 z m 0,72.73 h -24.24 v 24.24 h 24.24 z m 0,24.24 h -24.24 v 24.24 h 24.24 z m 0,96.97 h -24.24 v 24.24 h 24.24 z m 0,24.24 h -24.24 v 24.24 h 24.24 z m 0,24.24 h -24.24 v 24.25 h 24.24 z m 0,24.25 h -24.24 v 24.24 h 24.24 z M 121.21,0 H 96.97 v 24.24 h 24.24 z m 0,48.48 H 96.97 v 24.25 h 24.24 z m 0,24.25 H 96.97 v 24.24 h 24.24 z m 0,24.24 H 96.97 v 24.24 h 24.24 z m 0,48.48 H 96.97 v 24.25 h 24.24 z m 0,96.97 H 96.97 v 24.25 h 24.24 z m 0,48.49 H 96.97 v 24.24 h 24.24 z m 0,48.48 H 96.97 v 24.25 h 24.24 z m 0,48.49 H 96.97 v 24.24 h 24.24 z m 0,24.24 H 96.97 v 24.24 h 24.24 z m 0,24.24 H 96.97 v 24.25 h 24.24 z m 0,24.25 H 96.97 v 24.24 h 24.24 z m 0,96.97 H 96.97 v 24.24 h 24.24 z m 0,24.24 H 96.97 v 24.24 h 24.24 z m 0,24.24 H 96.97 v 24.24 h 24.24 z m 0,24.24 H 96.97 v 24.25 h 24.24 z m 0,24.25 H 96.97 v 24.24 h 24.24 z m 0,24.24 H 96.97 v 24.24 h 24.24 z m 0,72.73 H 96.97 v 24.24 h 24.24 z m 0,24.24 H 96.97 V 800 h 24.24 z M 96.97,0 H 72.73 v 24.24 h 24.24 z m 0,48.48 H 72.73 v 24.25 h 24.24 z m 0,24.25 H 72.73 v 24.24 h 24.24 z m 0,24.24 H 72.73 v 24.24 h 24.24 z m 0,48.48 H 72.73 v 24.25 h 24.24 z m 0,48.49 H 72.73 v 24.24 h 24.24 z m 0,24.24 H 72.73 v 24.24 h 24.24 z m 0,24.24 H 72.73 v 24.25 h 24.24 z m 0,24.25 H 72.73 v 24.24 h 24.24 z m 0,24.24 H 72.73 v 24.24 h 24.24 z m 0,24.24 H 72.73 v 24.24 h 24.24 z m 0,72.73 H 72.73 v 24.24 h 24.24 z m 0,24.24 H 72.73 v 24.24 h 24.24 z m 0,72.73 H 72.73 v 24.24 h 24.24 z m 0,24.24 H 72.73 v 24.24 h 24.24 z m 0,48.49 H 72.73 v 24.24 h 24.24 z m 0,48.48 H 72.73 v 24.24 h 24.24 z m 0,48.49 H 72.73 v 24.24 h 24.24 z m 0,72.72 H 72.73 v 24.25 h 24.24 z m 0,48.49 H 72.73 V 800 H 96.97 Z M 72.73,0 H 48.48 v 24.24 h 24.25 z m 0,48.48 H 48.48 v 24.25 h 24.25 z m 0,24.25 H 48.48 v 24.24 h 24.25 z m 0,24.24 H 48.48 v 24.24 h 24.25 z m 0,48.48 H 48.48 v 24.25 h 24.25 z m 0,72.73 H 48.48 v 24.24 h 24.25 z m 0,145.46 H 48.48 v 24.24 h 24.25 z m 0,24.24 H 48.48 v 24.24 h 24.25 z m 0,48.48 H 48.48 v 24.25 h 24.25 z m 0,48.49 H 48.48 v 24.24 h 24.25 z m 0,169.7 H 48.48 v 24.24 h 24.25 z m 0,24.24 H 48.48 v 24.24 h 24.25 z m 0,48.48 H 48.48 v 24.25 h 24.25 z m 0,48.49 H 48.48 V 800 H 72.73 Z M 48.48,0 H 24.24 v 24.24 h 24.24 z m 0,145.45 H 24.24 v 24.25 h 24.24 z m 0,48.49 H 24.24 v 24.24 h 24.24 z m 0,24.24 H 24.24 v 24.24 h 24.24 z m 0,24.24 H 24.24 v 24.25 h 24.24 z m 0,48.49 H 24.24 v 24.24 h 24.24 z m 0,24.24 H 24.24 v 24.24 h 24.24 z m 0,96.97 H 24.24 v 24.24 h 24.24 z m 0,24.24 H 24.24 v 24.25 h 24.24 z m 0,24.25 H 24.24 v 24.24 h 24.24 z m 0,24.24 H 24.24 v 24.24 h 24.24 z m 0,48.48 H 24.24 v 24.25 h 24.24 z m 0,24.25 H 24.24 v 24.24 h 24.24 z m 0,121.21 H 24.24 v 24.24 h 24.24 z m 0,24.24 H 24.24 v 24.24 H 48.48 Z M 24.24,0 H 0 v 24.24 h 24.24 z m 0,24.24 H 0 v 24.24 h 24.24 z m 0,24.24 H 0 v 24.25 h 24.24 z m 0,24.25 H 0 v 24.24 h 24.24 z m 0,24.24 H 0 v 24.24 h 24.24 z m 0,24.24 H 0 v 24.24 h 24.24 z m 0,24.24 H 0 v 24.25 h 24.24 z m 0,48.49 H 0 v 24.24 h 24.24 z m 0,24.24 H 0 v 24.24 h 24.24 z m 0,24.24 H 0 v 24.25 h 24.24 z m 0,48.49 H 0 v 24.24 h 24.24 z m 0,121.21 H 0 v 24.24 h 24.24 z m 0,48.49 H 0 v 24.24 h 24.24 z m 0,48.48 H 0 v 24.24 h 24.24 z m 0,24.24 H 0 v 24.25 h 24.24 z m 0,24.25 H 0 v 24.24 h 24.24 z m 0,24.24 H 0 v 24.24 h 24.24 z m 0,96.97 H 0 v 24.24 h 24.24 z m 0,24.24 H 0 v 24.24 h 24.24 z m 0,48.49 H 0 v 24.24 h 24.24 z"
     id="path4" />
</svg>
