  0
SECTION
  2
HEADER
  9
$ACADVER
  1
AC1009
  9
$DWGCODEPAGE
  3
ansi_1252
  9
$INSBASE
 10
0.0
 20
0.0
 30
0.0
  9
$EXTMIN
 10
293.5399296203184
 20
97.48376167014277
 30
0.0
  9
$EXTMAX
 10
303.6199296203185
 20
115.4837616701428
 30
0.0
  9
$LIMMIN
 10
0.0
 20
0.0
  9
$LIMMAX
 10
420.0
 20
297.0
  9
$ORTHOMODE
 70
     0
  9
$REGENMODE
 70
     1
  9
$FILLMODE
 70
     1
  9
$QTEXTMODE
 70
     0
  9
$MIRRTEXT
 70
     1
  9
$DRAGMODE
 70
     2
  9
$LTSCALE
 40
12.7
  9
$OSMODE
 70
    23
  9
$ATTMODE
 70
     1
  9
$TEXTSIZE
 40
3.5
  9
$TRACEWID
 40
1.0
  9
$TEXTSTYLE
  7
ONSHAPE-STANDARD
  9
$CLAYER
  8
0
  9
$CELTYPE
  6
BYLAYER
  9
$CECOLOR
 62
   256
  9
$DIMSCALE
 40
1.0
  9
$DIMASZ
 40
2.5
  9
$DIMEXO
 40
0.625
  9
$DIMDLI
 40
3.75
  9
$DIMRND
 40
0.0
  9
$DIMDLE
 40
0.0
  9
$DIMEXE
 40
1.25
  9
$DIMTP
 40
0.0
  9
$DIMTM
 40
0.0
  9
$DIMTXT
 40
3.5
  9
$DIMCEN
 40
2.5
  9
$DIMTSZ
 40
0.0
  9
$DIMTOL
 70
     0
  9
$DIMLIM
 70
     0
  9
$DIMTIH
 70
     0
  9
$DIMTOH
 70
     0
  9
$DIMSE1
 70
     0
  9
$DIMSE2
 70
     0
  9
$DIMTAD
 70
     1
  9
$DIMZIN
 70
     8
  9
$DIMBLK
  1

  9
$DIMASO
 70
     1
  9
$DIMSHO
 70
     1
  9
$DIMPOST
  1

  9
$DIMAPOST
  1

  9
$DIMALT
 70
     0
  9
$DIMALTD
 70
     3
  9
$DIMALTF
 40
0.03937
  9
$DIMLFAC
 40
1.0
  9
$DIMTOFL
 70
     1
  9
$DIMTVP
 40
0.0
  9
$DIMTIX
 70
     0
  9
$DIMSOXD
 70
     0
  9
$DIMSAH
 70
     0
  9
$DIMBLK1
  1

  9
$DIMBLK2
  1

  9
$DIMSTYLE
  2
ONSHAPE-ISO-25
  9
$DIMCLRD
 70
     7
  9
$DIMCLRE
 70
     7
  9
$DIMCLRT
 70
     7
  9
$DIMTFAC
 40
1.0
  9
$DIMGAP
 40
0.625
  9
$LUNITS
 70
     2
  9
$LUPREC
 70
     4
  9
$SKETCHINC
 40
1.0
  9
$FILLETRAD
 40
10.0
  9
$AUNITS
 70
     0
  9
$AUPREC
 70
     0
  9
$MENU
  1
.
  9
$ELEVATION
 40
0.0
  9
$PELEVATION
 40
0.0
  9
$THICKNESS
 40
0.0
  9
$LIMCHECK
 70
     0
  9
$CHAMFERA
 40
0.0
  9
$CHAMFERB
 40
0.0
  9
$SKPOLY
 70
     0
  9
$TDCREATE
 40
2459794.940653067
  9
$TDUPDATE
 40
2459794.940653345
  9
$TDINDWG
 40
0.0
  9
$TDUSRTIMER
 40
0.0
  9
$USRTIMER
 70
     1
  9
$ANGBASE
 50
0.0
  9
$ANGDIR
 70
     0
  9
$PDMODE
 70
    33
  9
$PDSIZE
 40
1.0
  9
$PLINEWID
 40
0.0
  9
$COORDS
 70
     1
  9
$SPLFRAME
 70
     0
  9
$SPLINETYPE
 70
     6
  9
$SPLINESEGS
 70
     8
  9
$ATTDIA
 70
     0
  9
$ATTREQ
 70
     1
  9
$HANDLING
 70
     1
  9
$HANDSEED
  5
150
  9
$SURFTAB1
 70
     6
  9
$SURFTAB2
 70
     6
  9
$SURFTYPE
 70
     6
  9
$SURFU
 70
     6
  9
$SURFV
 70
     6
  9
$UCSNAME
  2

  9
$UCSORG
 10
0.0
 20
0.0
 30
0.0
  9
$UCSXDIR
 10
1.0
 20
0.0
 30
0.0
  9
$UCSYDIR
 10
0.0
 20
1.0
 30
0.0
  9
$PUCSNAME
  2

  9
$PUCSORG
 10
0.0
 20
0.0
 30
0.0
  9
$PUCSXDIR
 10
1.0
 20
0.0
 30
0.0
  9
$PUCSYDIR
 10
0.0
 20
1.0
 30
0.0
  9
$USERI1
 70
     0
  9
$USERI2
 70
     0
  9
$USERI3
 70
     0
  9
$USERI4
 70
     0
  9
$USERI5
 70
     0
  9
$USERR1
 40
0.0
  9
$USERR2
 40
0.0
  9
$USERR3
 40
0.0
  9
$USERR4
 40
0.0
  9
$USERR5
 40
0.0
  9
$WORLDVIEW
 70
     1
  9
$SHADEDGE
 70
     3
  9
$SHADEDIF
 70
    70
  9
$TILEMODE
 70
     1
  9
$MAXACTVP
 70
    64
  9
$PLIMCHECK
 70
     0
  9
$PEXTMIN
 10
1.000000000000000E+20
 20
1.000000000000000E+20
 30
1.000000000000000E+20
  9
$PEXTMAX
 10
-1.000000000000000E+20
 20
-1.000000000000000E+20
 30
-1.000000000000000E+20
  9
$PLIMMIN
 10
0.0
 20
0.0
  9
$PLIMMAX
 10
420.0
 20
297.0
  9
$UNITMODE
 70
     0
  9
$VISRETAIN
 70
     1
  9
$PLINEGEN
 70
     0
  9
$PSLTSCALE
 70
     1
  0
ENDSEC
  0
SECTION
  2
TABLES
  0
TABLE
  2
VPORT
 70
     1
  0
VPORT
  2
*ACTIVE
 70
     0
 10
0.0
 20
0.0
 11
1.0
 21
1.0
 12
298.5799296203185
 22
106.4837616701428
 13
0.0
 23
0.0
 14
10.0
 24
10.0
 15
10.0
 25
10.0
 16
0.0
 26
0.0
 36
1.0
 17
0.0
 27
0.0
 37
0.0
 40
18.36
 41
0.5600000000000055
 42
50.0
 43
0.0
 44
0.0
 50
0.0
 51
0.0
 71
     0
 72
   100
 73
     1
 74
     3
 75
     0
 76
     0
 77
     0
 78
     0
  0
ENDTAB
  0
TABLE
  2
LTYPE
 70
     1
  0
LTYPE
  2
CONTINUOUS
 70
     0
  3
Solid line
 72
    65
 73
     0
 40
0.0
  0
ENDTAB
  0
TABLE
  2
LAYER
 70
     2
  0
LAYER
  2
0
 70
     0
 62
     7
  6
CONTINUOUS
  0
LAYER
  2
VISIBLE
 70
     0
 62
     7
  6
CONTINUOUS
  0
ENDTAB
  0
TABLE
  2
STYLE
 70
    32
  0
STYLE
  2
STANDARD
 70
     0
 40
0.0
 41
1.0
 50
0.0
 71
     0
 42
3.5
  3
txt
  4

  0
STYLE
  2
ONSHAPE-STANDARD
 70
     0
 40
0.0
 41
1.0
 50
0.0
 71
     0
 42
3.5
  3
NotoSans-Regular.ttf
  4

  0
STYLE
  2
ONSHAPE-STANDARD-DIMENSION
 70
     0
 40
0.0
 41
1.0
 50
0.0
 71
     0
 42
3.5
  3

  4

  0
STYLE
  2
ONSHAPE-STANDARD-BOLD
 70
     0
 40
0.0
 41
1.0
 50
0.0
 71
     0
 42
3.5
  3
NotoSans-Bold.ttf
  4

  0
STYLE
  2
ONSHAPE-STANDARD-FIELDS
 70
     0
 40
0.0
 41
1.0
 50
0.0
 71
     0
 42
3.5
  3

  4

  0
STYLE
  2
ONSHAPE-STANDARD-TCFIELDS
 70
     0
 40
0.0
 41
1.0
 50
0.0
 71
     0
 42
3.5
  3
NotoSansTC-Regular.otf
  4

  0
STYLE
  2
ONSHAPE-STANDARD-SCFIELDS
 70
     0
 40
0.0
 41
1.0
 50
0.0
 71
     0
 42
3.5
  3
NotoSansSC-Regular.otf
  4

  0
STYLE
  2
ONSHAPE-STANDARD-KOREANFIE
 70
     0
 40
0.0
 41
1.0
 50
0.0
 71
     0
 42
3.5
  3
NotoSansKR-Regular.otf
  4

  0
STYLE
  2
ONSHAPE-STANDARD-JAPANESEF
 70
     0
 40
0.0
 41
1.0
 50
0.0
 71
     0
 42
3.5
  3
NotoSansJP-Regular.otf
  4

  0
STYLE
  2
TTFSTYLE
 70
     0
 40
0.0
 41
1.0
 50
0.0
 71
     0
 42
3.5
  3
Verdana.ttf
  4

  0
STYLE
  2
ONSHAPE-STANDARD-GTOLERANC
 70
     0
 40
0.0
 41
1.0
 50
0.0
 71
     0
 42
3.5
  3

  4

  0
STYLE
  2
ONSHAPE-STANDARD-TABLE-DAT
 70
     0
 40
0.0
 41
1.0
 50
0.0
 71
     0
 42
3.5
  3
NotoSans-Regular.ttf
  4

  0
STYLE
  2
ONSHAPE-STANDARD-TABLE-TIT
 70
     0
 40
0.0
 41
1.0
 50
0.0
 71
     0
 42
3.5
  3
NotoSans-Bold.ttf
  4

  0
STYLE
  2
ONSHAPE-STANDARD-TABLE-HEA
 70
     0
 40
0.0
 41
1.0
 50
0.0
 71
     0
 42
3.5
  3
NotoSans-Bold.ttf
  4

  0
STYLE
  2
ONSHAPE-STANDARD-BOMTABLE-
 70
     0
 40
0.0
 41
1.0
 50
0.0
 71
     0
 42
3.5
  3
NotoSans-Regular.ttf
  4

  0
STYLE
  2
ONSHAPE-STANDARD-BOMTABLE0
 70
     0
 40
0.0
 41
1.0
 50
0.0
 71
     0
 42
3.5
  3
NotoSans-Bold.ttf
  4

  0
STYLE
  2
ONSHAPE-STANDARD-BOMTABLE1
 70
     0
 40
0.0
 41
1.0
 50
0.0
 71
     0
 42
3.5
  3
NotoSans-Bold.ttf
  4

  0
STYLE
  2
ONSHAPE-STANDARD-NOTESTYLE
 70
     0
 40
3.5
 41
1.0
 50
0.0
 71
     0
 42
3.5
  3
Noto Sans
  4

  0
STYLE
  2
ONSHAPE-STANDARD-VIEW-LABE
 70
     0
 40
3.5
 41
1.0
 50
0.0
 71
     0
 42
3.5
  3
Noto Sans
  4

  0
STYLE
  2
ONSHAPE-DETAIL-VIEW-LEADER
 70
     0
 40
3.5
 41
1.0
 50
0.0
 71
     0
 42
3.5
  3
Noto Sans
  4

  0
STYLE
  2
ONSHAPE-STANDARD-HOLE-CALL
 70
     0
 40
3.5
 41
1.0
 50
0.0
 71
     0
 42
3.5
  3
Noto Sans
  4

  0
STYLE
  2
ONSHAPE-STANDARD-HOLETABLE
 70
     0
 40
0.0
 41
1.0
 50
0.0
 71
     0
 42
3.5
  3
NotoSans-Regular.ttf
  4

  0
STYLE
  2
ONSHAPE-STANDARD-HOLETABL0
 70
     0
 40
0.0
 41
1.0
 50
0.0
 71
     0
 42
3.5
  3
NotoSans-Bold.ttf
  4

  0
STYLE
  2
ONSHAPE-STANDARD-HOLETABL1
 70
     0
 40
0.0
 41
1.0
 50
0.0
 71
     0
 42
3.5
  3
NotoSans-Bold.ttf
  4

  0
STYLE
  2
ONSHAPE-STANDARD-HOLE-TAG
 70
     0
 40
3.5
 41
1.0
 50
0.0
 71
     0
 42
3.5
  3
Noto Sans
  4

  0
STYLE
  2
ONSHAPE-STANDARD-REVISIONT
 70
     0
 40
0.0
 41
1.0
 50
0.0
 71
     0
 42
3.5
  3
NotoSans-Regular.ttf
  4

  0
STYLE
  2
ONSHAPE-STANDARD-REVISION0
 70
     0
 40
0.0
 41
1.0
 50
0.0
 71
     0
 42
3.5
  3
NotoSans-Bold.ttf
  4

  0
STYLE
  2
ONSHAPE-STANDARD-REVISION1
 70
     0
 40
0.0
 41
1.0
 50
0.0
 71
     0
 42
3.5
  3
NotoSans-Bold.ttf
  4

  0
STYLE
  2
ONSHAPE-STANDARD-REVISION-
 70
     0
 40
3.5
 41
1.0
 50
0.0
 71
     0
 42
3.5
  3
Noto Sans
  4

  0
STYLE
  2
ONSHAPE-STANDARD-CUTLISTTA
 70
     0
 40
0.0
 41
1.0
 50
0.0
 71
     0
 42
3.5
  3
NotoSans-Regular.ttf
  4

  0
STYLE
  2
ONSHAPE-STANDARD-CUTLISTT0
 70
     0
 40
0.0
 41
1.0
 50
0.0
 71
     0
 42
3.5
  3
NotoSans-Bold.ttf
  4

  0
STYLE
  2
ONSHAPE-STANDARD-CUTLISTT1
 70
     0
 40
0.0
 41
1.0
 50
0.0
 71
     0
 42
3.5
  3
NotoSans-Bold.ttf
  4

  0
ENDTAB
  0
TABLE
  2
VIEW
 70
     0
  0
ENDTAB
  0
TABLE
  2
UCS
 70
     0
  0
ENDTAB
  0
TABLE
  2
APPID
 70
     1
  0
APPID
  2
ACAD
 70
     0
  0
ENDTAB
  0
TABLE
  2
DIMSTYLE
 70
    18
  0
DIMSTYLE
  2
ISO-25
 70
     0
  3

  4

  5

  6

  7

 40
1.0
 41
2.5
 42
0.625
 43
3.75
 44
1.25
 45
0.0
 46
0.0
 47
0.0
 48
0.0
140
2.5
141
2.5
142
0.0
143
0.03937007874016
144
1.0
145
0.0
146
1.0
147
0.625
 71
     0
 72
     0
 73
     0
 74
     0
 75
     0
 76
     0
 77
     1
 78
     8
170
     0
171
     3
172
     1
173
     0
174
     0
175
     0
176
     0
177
     0
178
     0
  0
DIMSTYLE
  2
ONSHAPE-ISO-25
 70
     0
  3

  4

  5

  6

  7

 40
1.0
 41
2.5
 42
0.625
 43
3.75
 44
1.25
 45
0.0
 46
0.0
 47
0.0
 48
0.0
140
3.5
141
2.5
142
0.0
143
0.03937
144
1.0
145
0.0
146
1.0
147
0.625
 71
     0
 72
     0
 73
     0
 74
     0
 75
     0
 76
     0
 77
     1
 78
     8
170
     0
171
     3
172
     1
173
     0
174
     0
175
     0
176
     7
177
     7
178
     7
  0
DIMSTYLE
  2
ISO
 70
     0
  3

  4
"
  5

  6

  7

 40
1.0
 41
3.5
 42
1.0
 43
10.0
 44
1.0
 45
0.0
 46
0.0
 47
0.1
 48
0.1
140
3.5
141
0.0
142
0.0
143
0.03937
144
1.0
145
0.0
146
0.71
147
1.5
 71
     0
 72
     0
 73
     0
 74
     0
 75
     0
 76
     0
 77
     1
 78
     8
170
     0
171
     3
172
     1
173
     0
174
     0
175
     0
176
     7
177
     7
178
     7
  0
DIMSTYLE
  2
ISO$3
 70
     0
  3

  4
"
  5

  6

  7

 40
1.0
 41
3.5
 42
1.0
 43
10.0
 44
1.0
 45
0.0
 46
0.0
 47
0.1
 48
0.1
140
3.5
141
0.0
142
0.0
143
0.03937
144
1.0
145
0.0
146
0.71
147
1.5
 71
     0
 72
     0
 73
     0
 74
     1
 75
     0
 76
     0
 77
     1
 78
     8
170
     0
171
     3
172
     0
173
     0
174
     0
175
     0
176
     7
177
     7
178
     7
  0
DIMSTYLE
  2
ISO$4
 70
     0
  3

  4
"
  5

  6

  7

 40
1.0
 41
3.5
 42
1.0
 43
10.0
 44
1.0
 45
0.0
 46
0.0
 47
0.1
 48
0.1
140
3.5
141
0.0
142
0.0
143
0.03937
144
1.0
145
0.0
146
0.71
147
1.5
 71
     0
 72
     0
 73
     0
 74
     0
 75
     0
 76
     0
 77
     1
 78
     8
170
     0
171
     3
172
     1
173
     0
174
     0
175
     0
176
     7
177
     7
178
     7
  0
DIMSTYLE
  2
ISO$6
 70
     0
  3

  4
"
  5

  6

  7

 40
1.0
 41
0.5
 42
1.0
 43
10.0
 44
1.0
 45
0.0
 46
0.0
 47
0.1
 48
0.1
140
3.5
141
0.0
142
0.0
143
0.03937
144
1.0
145
0.0
146
0.71
147
1.5
 71
     0
 72
     0
 73
     0
 74
     0
 75
     0
 76
     0
 77
     0
 78
     8
170
     0
171
     3
172
     1
173
     0
174
     0
175
     0
176
     7
177
     7
178
     7
  0
DIMSTYLE
  2
ISO$7
 70
     0
  3

  4
"
  5

  6

  7

 40
1.0
 41
3.5
 42
1.0
 43
10.0
 44
1.0
 45
0.0
 46
0.0
 47
0.1
 48
0.1
140
3.5
141
0.0
142
0.0
143
0.03937
144
1.0
145
0.0
146
0.71
147
1.5
 71
     0
 72
     0
 73
     0
 74
     0
 75
     0
 76
     0
 77
     1
 78
     8
170
     0
171
     3
172
     1
173
     0
174
     0
175
     0
176
     7
177
     7
178
     7
  0
DIMSTYLE
  2
ISO$SF
 70
     0
  3

  4
"
  5

  6

  7

 40
1.0
 41
3.5
 42
1.0
 43
10.0
 44
1.0
 45
0.0
 46
0.0
 47
0.1
 48
0.1
140
3.5
141
0.0
142
0.0
143
0.03937
144
1.0
145
0.0
146
0.71
147
1.5
 71
     0
 72
     0
 73
     0
 74
     0
 75
     1
 76
     1
 77
     1
 78
     8
170
     0
171
     3
172
     1
173
     0
174
     0
175
     0
176
     7
177
     7
178
     7
  0
DIMSTYLE
  2
ISO$SH
 70
     0
  3

  4
"
  5

  6

  7

 40
1.0
 41
3.5
 42
1.0
 43
10.0
 44
1.0
 45
0.0
 46
0.0
 47
0.1
 48
0.1
140
3.5
141
0.0
142
0.0
143
0.03937
144
2.0
145
0.0
146
0.71
147
1.5
 71
     0
 72
     0
 73
     0
 74
     0
 75
     1
 76
     1
 77
     1
 78
     8
170
     0
171
     3
172
     1
173
     1
174
     0
175
     0
176
     7
177
     7
178
     7
  0
DIMSTYLE
  2
ONSHAPE-ISO-25$0
 70
     0
  3

  4

  5

  6

  7

 40
1.0
 41
2.5
 42
0.625
 43
3.75
 44
1.25
 45
0.0
 46
0.0
 47
0.0
 48
0.0
140
3.5
141
2.5
142
0.0
143
0.03937
144
1.0
145
0.0
146
1.0
147
0.625
 71
     0
 72
     0
 73
     0
 74
     0
 75
     0
 76
     0
 77
     1
 78
     8
170
     0
171
     3
172
     1
173
     0
174
     0
175
     0
176
     7
177
     7
178
     7
  0
DIMSTYLE
  2
ONSHAPE-ISO-25$2
 70
     0
  3

  4

  5

  6

  7

 40
1.0
 41
2.5
 42
0.625
 43
3.75
 44
1.25
 45
0.0
 46
0.0
 47
0.0
 48
0.0
140
3.5
141
2.5
142
0.0
143
0.03937
144
1.0
145
0.0
146
1.0
147
0.625
 71
     0
 72
     0
 73
     0
 74
     0
 75
     0
 76
     0
 77
     1
 78
     8
170
     0
171
     3
172
     1
173
     0
174
     0
175
     0
176
     7
177
     7
178
     7
  0
DIMSTYLE
  2
ONSHAPE-ISO-25$3
 70
     0
  3

  4

  5

  6

  7

 40
1.0
 41
2.5
 42
0.625
 43
3.75
 44
1.25
 45
0.0
 46
0.0
 47
0.0
 48
0.0
140
3.5
141
0.0
142
0.0
143
0.03937
144
1.0
145
0.0
146
1.0
147
0.625
 71
     0
 72
     0
 73
     0
 74
     0
 75
     0
 76
     0
 77
     1
 78
     8
170
     0
171
     3
172
     1
173
     0
174
     0
175
     0
176
     7
177
     7
178
     7
  0
DIMSTYLE
  2
ONSHAPE-ISO-25$4
 70
     0
  3

  4

  5

  6

  7

 40
1.0
 41
2.5
 42
0.625
 43
3.75
 44
1.25
 45
0.0
 46
0.0
 47
0.0
 48
0.0
140
3.5
141
0.0
142
0.0
143
0.03937
144
1.0
145
0.0
146
1.0
147
0.625
 71
     0
 72
     0
 73
     0
 74
     0
 75
     0
 76
     0
 77
     1
 78
     8
170
     0
171
     3
172
     1
173
     0
174
     0
175
     0
176
     7
177
     7
178
     7
  0
DIMSTYLE
  2
ONSHAPE-ISO-25$6
 70
     0
  3

  4

  5

  6

  7

 40
1.0
 41
0.5
 42
0.625
 43
3.75
 44
1.25
 45
0.0
 46
0.0
 47
0.0
 48
0.0
140
3.5
141
2.5
142
0.0
143
0.03937
144
1.0
145
0.0
146
1.0
147
0.625
 71
     0
 72
     0
 73
     0
 74
     0
 75
     0
 76
     0
 77
     1
 78
     8
170
     0
171
     3
172
     1
173
     0
174
     0
175
     0
176
     7
177
     7
178
     7
  0
DIMSTYLE
  2
ONSHAPE-ISO-25$7
 70
     0
  3

  4

  5

  6

  7

 40
1.0
 41
2.5
 42
0.625
 43
3.75
 44
1.25
 45
0.0
 46
0.0
 47
0.0
 48
0.0
140
3.5
141
2.5
142
0.0
143
0.03937
144
1.0
145
0.0
146
1.0
147
0.625
 71
     0
 72
     0
 73
     0
 74
     0
 75
     0
 76
     0
 77
     1
 78
     8
170
     0
171
     3
172
     1
173
     0
174
     0
175
     0
176
     7
177
     7
178
     7
  0
DIMSTYLE
  2
ONSHAPE-STANDARD-GTOLERANC
 70
     0
  3

  4

  5

  6

  7

 40
1.0
 41
2.5
 42
0.625
 43
3.75
 44
1.25
 45
0.0
 46
0.0
 47
0.0
 48
0.0
140
3.5
141
2.5
142
0.0
143
0.03937
144
1.0
145
0.0
146
1.0
147
0.625
 71
     0
 72
     0
 73
     0
 74
     0
 75
     0
 76
     0
 77
     1
 78
     8
170
     0
171
     3
172
     1
173
     0
174
     0
175
     0
176
     7
177
     7
178
     7
  0
DIMSTYLE
  2
ONSHAPE-ORDINATESTYLE
 70
     0
  3

  4

  5

  6

  7

 40
1.0
 41
2.5
 42
0.625
 43
3.75
 44
1.25
 45
0.0
 46
0.0
 47
0.0
 48
0.0
140
3.5
141
2.5
142
0.0
143
0.03937
144
1.0
145
0.0
146
1.0
147
0.625
 71
     0
 72
     0
 73
     0
 74
     0
 75
     0
 76
     0
 77
     1
 78
     8
170
     0
171
     3
172
     1
173
     0
174
     0
175
     0
176
     7
177
     7
178
     7
  0
DIMSTYLE
  2
ONSHAPE-CHAMFERDIMSTYLE
 70
     0
  3

  4

  5

  6

  7

 40
1.0
 41
2.5
 42
0.625
 43
3.75
 44
1.25
 45
0.0
 46
0.0
 47
0.0
 48
0.0
140
3.5
141
2.5
142
0.0
143
0.03937
144
1.0
145
0.0
146
1.0
147
0.625
 71
     0
 72
     0
 73
     0
 74
     0
 75
     0
 76
     0
 77
     1
 78
     8
170
     0
171
     3
172
     1
173
     0
174
     0
175
     0
176
     7
177
     7
178
     7
  0
ENDTAB
  0
ENDSEC
  0
SECTION
  2
BLOCKS
  0
BLOCK
  8
0
  2
$MODEL_SPACE
 70
     0
 10
0.0
 20
0.0
 30
0.0
  3
$MODEL_SPACE
  1

  0
ENDBLK
  5
21
  8
0
  0
BLOCK
 67
     1
  8
0
  2
$PAPER_SPACE
 70
     0
 10
0.0
 20
0.0
 30
0.0
  3
$PAPER_SPACE
  1

  0
ENDBLK
  5
1D
 67
     1
  8
0
  0
ENDSEC
  0
SECTION
  2
ENTITIES
  0
LINE
  5
75
  8
VISIBLE
 10
295.0467699193283
 20
103.4837616701428
 30
0.0
 11
296.0751010587541
 21
103.4837616701428
 31
0.0
  0
LINE
  5
76
  8
VISIBLE
 10
295.0467699193283
 20
104.6837616701428
 30
0.0
 11
296.0751010587541
 21
104.6837616701428
 31
0.0
  0
LINE
  5
77
  8
VISIBLE
 10
302.6199296203183
 20
104.6837616701428
 30
0.0
 11
302.6199296203183
 21
103.4837616701428
 31
0.0
  0
LINE
  5
78
  8
VISIBLE
 10
294.5399296203183
 20
104.6837616701428
 30
0.0
 11
294.5399296203183
 21
103.4837616701428
 31
0.0
  0
LINE
  5
79
  8
VISIBLE
 10
297.3099296203184
 20
104.6837616701428
 30
0.0
 11
301.1199296203183
 21
104.6837616701428
 31
0.0
  0
LINE
  5
7A
  8
VISIBLE
 10
297.3099296203184
 20
103.4837616701428
 30
0.0
 11
301.1199296203183
 21
103.4837616701428
 31
0.0
  0
LINE
  5
7B
  8
VISIBLE
 10
297.3099296203184
 20
103.4837616701428
 30
0.0
 11
296.0751010587541
 21
103.4837616701428
 31
0.0
  0
LINE
  5
7C
  8
VISIBLE
 10
294.5399296203183
 20
103.4837616701428
 30
0.0
 11
295.0467699193283
 21
103.4837616701428
 31
0.0
  0
LINE
  5
7D
  8
VISIBLE
 10
297.3099296203184
 20
104.6837616701428
 30
0.0
 11
296.0751010587541
 21
104.6837616701428
 31
0.0
  0
LINE
  5
7E
  8
VISIBLE
 10
302.6199296203183
 20
104.6837616701428
 30
0.0
 11
301.1199296203183
 21
104.6837616701428
 31
0.0
  0
LINE
  5
7F
  8
VISIBLE
 10
294.5399296203183
 20
104.6837616701428
 30
0.0
 11
295.0467699193283
 21
104.6837616701428
 31
0.0
  0
LINE
  5
80
  8
VISIBLE
 10
302.6199296203183
 20
103.4837616701428
 30
0.0
 11
301.1199296203183
 21
103.4837616701428
 31
0.0
  0
LINE
  5
81
  8
VISIBLE
 10
295.0467699193283
 20
104.6837616701428
 30
0.0
 11
296.0751010587541
 21
104.6837616701428
 31
0.0
  0
LINE
  5
82
  8
VISIBLE
 10
295.0467699193283
 20
105.8837616701428
 30
0.0
 11
296.0751010587541
 21
105.8837616701428
 31
0.0
  0
LINE
  5
83
  8
VISIBLE
 10
297.3099296203184
 20
104.6837616701428
 30
0.0
 11
301.1199296203183
 21
104.6837616701428
 31
0.0
  0
LINE
  5
84
  8
VISIBLE
 10
294.5399296203183
 20
105.8837616701428
 30
0.0
 11
294.5399296203183
 21
104.6837616701428
 31
0.0
  0
LINE
  5
85
  8
VISIBLE
 10
297.3099296203184
 20
105.8837616701428
 30
0.0
 11
301.1199296203183
 21
105.8837616701428
 31
0.0
  0
LINE
  5
86
  8
VISIBLE
 10
302.6199296203183
 20
105.8837616701428
 30
0.0
 11
302.6199296203183
 21
104.6837616701428
 31
0.0
  0
LINE
  5
87
  8
VISIBLE
 10
297.3099296203184
 20
104.6837616701428
 30
0.0
 11
296.0751010587541
 21
104.6837616701428
 31
0.0
  0
LINE
  5
88
  8
VISIBLE
 10
294.5399296203183
 20
104.6837616701428
 30
0.0
 11
295.0467699193283
 21
104.6837616701428
 31
0.0
  0
LINE
  5
89
  8
VISIBLE
 10
297.3099296203184
 20
105.8837616701428
 30
0.0
 11
296.0751010587541
 21
105.8837616701428
 31
0.0
  0
LINE
  5
8A
  8
VISIBLE
 10
294.5399296203183
 20
105.8837616701428
 30
0.0
 11
295.0467699193283
 21
105.8837616701428
 31
0.0
  0
LINE
  5
8B
  8
VISIBLE
 10
302.6199296203183
 20
104.6837616701428
 30
0.0
 11
301.1199296203183
 21
104.6837616701428
 31
0.0
  0
LINE
  5
8C
  8
VISIBLE
 10
302.6199296203183
 20
105.8837616701428
 30
0.0
 11
301.1199296203183
 21
105.8837616701428
 31
0.0
  0
LINE
  5
8D
  8
VISIBLE
 10
295.0467699193283
 20
105.8837616701428
 30
0.0
 11
296.0751010587541
 21
105.8837616701428
 31
0.0
  0
LINE
  5
8E
  8
VISIBLE
 10
295.0467699193283
 20
107.0837616701428
 30
0.0
 11
296.0751010587541
 21
107.0837616701428
 31
0.0
  0
LINE
  5
8F
  8
VISIBLE
 10
297.3099296203184
 20
105.8837616701428
 30
0.0
 11
301.1199296203183
 21
105.8837616701428
 31
0.0
  0
LINE
  5
90
  8
VISIBLE
 10
294.5399296203183
 20
107.0837616701428
 30
0.0
 11
294.5399296203183
 21
105.8837616701428
 31
0.0
  0
LINE
  5
91
  8
VISIBLE
 10
297.3099296203184
 20
107.0837616701428
 30
0.0
 11
301.1199296203183
 21
107.0837616701428
 31
0.0
  0
LINE
  5
92
  8
VISIBLE
 10
302.6199296203183
 20
107.0837616701428
 30
0.0
 11
302.6199296203183
 21
105.8837616701428
 31
0.0
  0
LINE
  5
93
  8
VISIBLE
 10
297.3099296203184
 20
105.8837616701428
 30
0.0
 11
296.0751010587541
 21
105.8837616701428
 31
0.0
  0
LINE
  5
94
  8
VISIBLE
 10
294.5399296203183
 20
105.8837616701428
 30
0.0
 11
295.0467699193283
 21
105.8837616701428
 31
0.0
  0
LINE
  5
95
  8
VISIBLE
 10
297.3099296203184
 20
107.0837616701428
 30
0.0
 11
296.0751010587541
 21
107.0837616701428
 31
0.0
  0
LINE
  5
96
  8
VISIBLE
 10
294.5399296203183
 20
107.0837616701428
 30
0.0
 11
295.0467699193283
 21
107.0837616701428
 31
0.0
  0
LINE
  5
97
  8
VISIBLE
 10
302.6199296203183
 20
105.8837616701428
 30
0.0
 11
301.1199296203183
 21
105.8837616701428
 31
0.0
  0
LINE
  5
98
  8
VISIBLE
 10
302.6199296203183
 20
107.0837616701428
 30
0.0
 11
301.1199296203183
 21
107.0837616701428
 31
0.0
  0
LINE
  5
99
  8
VISIBLE
 10
297.6599296203183
 20
102.5837616701428
 30
0.0
 11
297.6599296203183
 21
103.4837616701428
 31
0.0
  0
LINE
  5
9A
  8
VISIBLE
 10
296.9599296203183
 20
103.4837616701428
 30
0.0
 11
296.9599296203183
 21
102.5837616701428
 31
0.0
  0
ARC
  5
9B
  8
VISIBLE
 10
297.0599296203184
 20
102.5837616701428
 30
0.0
 40
0.1
 50
180.0
 51
270.0
  0
ARC
  5
9C
  8
VISIBLE
 10
297.5599296203184
 20
102.5837616701428
 30
0.0
 40
0.1
 50
270.0
 51
0.0
  0
LINE
  5
9D
  8
VISIBLE
 10
297.0599296504317
 20
102.4837616701428
 30
0.0
 11
297.5599296203184
 21
102.4837616701428
 31
0.0
  0
LINE
  5
9E
  8
VISIBLE
 10
297.0599296203184
 20
102.4837616701428
 30
0.0
 11
297.0599296203184
 21
100.4813254748482
 31
0.0
  0
LINE
  5
9F
  8
VISIBLE
 10
297.5599296203184
 20
100.4813254748482
 30
0.0
 11
297.5599296203184
 21
102.4837616701428
 31
0.0
  0
ARC
  5
A0
  8
VISIBLE
 10
297.3099296203184
 20
100.4813254748482
 30
0.0
 40
0.25
 50
180.0
 51
270.0
  0
ARC
  5
A1
  8
VISIBLE
 10
297.3099296203184
 20
100.4813254748482
 30
0.0
 40
0.25
 50
270.0
 51
0.0
  0
LINE
  5
A2
  8
VISIBLE
 10
298.9299296203184
 20
102.5837616701428
 30
0.0
 11
298.9299296203184
 21
103.4837616701428
 31
0.0
  0
LINE
  5
A3
  8
VISIBLE
 10
298.2299296203183
 20
103.4837616701428
 30
0.0
 11
298.2299296203183
 21
102.5837616701428
 31
0.0
  0
ARC
  5
A4
  8
VISIBLE
 10
298.3299296203184
 20
102.5837616701428
 30
0.0
 40
0.1
 50
180.0
 51
270.0
  0
ARC
  5
A5
  8
VISIBLE
 10
298.8299296203184
 20
102.5837616701428
 30
0.0
 40
0.1
 50
270.0
 51
0.0
  0
LINE
  5
A6
  8
VISIBLE
 10
298.3299296504317
 20
102.4837616701428
 30
0.0
 11
298.8299296203184
 21
102.4837616701428
 31
0.0
  0
LINE
  5
A7
  8
VISIBLE
 10
298.3299296203184
 20
102.4837616701428
 30
0.0
 11
298.3299296203184
 21
100.4813254748482
 31
0.0
  0
LINE
  5
A8
  8
VISIBLE
 10
298.8299296203184
 20
100.4813254748482
 30
0.0
 11
298.8299296203184
 21
102.4837616701428
 31
0.0
  0
ARC
  5
A9
  8
VISIBLE
 10
298.5799296203184
 20
100.4813254748482
 30
0.0
 40
0.25
 50
180.0
 51
270.0
  0
ARC
  5
AA
  8
VISIBLE
 10
298.5799296203184
 20
100.4813254748482
 30
0.0
 40
0.25
 50
270.0
 51
0.0
  0
LINE
  5
AB
  8
VISIBLE
 10
300.1999296203184
 20
102.5837616701428
 30
0.0
 11
300.1999296203184
 21
103.4837616701428
 31
0.0
  0
LINE
  5
AC
  8
VISIBLE
 10
299.4999296203183
 20
103.4837616701428
 30
0.0
 11
299.4999296203183
 21
102.5837616701428
 31
0.0
  0
ARC
  5
AD
  8
VISIBLE
 10
299.5999296203183
 20
102.5837616701428
 30
0.0
 40
0.1
 50
180.0
 51
270.0
  0
ARC
  5
AE
  8
VISIBLE
 10
300.0999296203183
 20
102.5837616701428
 30
0.0
 40
0.1
 50
270.0
 51
0.0
  0
LINE
  5
AF
  8
VISIBLE
 10
299.5999296504317
 20
102.4837616701428
 30
0.0
 11
300.0999296203183
 21
102.4837616701428
 31
0.0
  0
LINE
  5
B0
  8
VISIBLE
 10
299.5999296203183
 20
102.4837616701428
 30
0.0
 11
299.5999296203183
 21
100.4813254748482
 31
0.0
  0
LINE
  5
B1
  8
VISIBLE
 10
300.0999296203183
 20
100.4813254748482
 30
0.0
 11
300.0999296203183
 21
102.4837616701428
 31
0.0
  0
ARC
  5
B2
  8
VISIBLE
 10
299.8499296203183
 20
100.4813254748482
 30
0.0
 40
0.25
 50
180.0
 51
270.0
  0
ARC
  5
B3
  8
VISIBLE
 10
299.8499296203183
 20
100.4813254748482
 30
0.0
 40
0.25
 50
270.0
 51
0.0
  0
LINE
  5
B4
  8
VISIBLE
 10
301.6199296203183
 20
97.68376167014277
 30
0.0
 11
301.6199296203183
 21
103.4837616701428
 31
0.0
  0
LINE
  5
B5
  8
VISIBLE
 10
300.6199296203183
 20
103.4837616701428
 30
0.0
 11
300.6199296203183
 21
97.68376167014277
 31
0.0
  0
ARC
  5
B6
  8
VISIBLE
 10
300.8199296203184
 20
97.68376167014277
 30
0.0
 40
0.2
 50
180.0
 51
270.0
  0
ARC
  5
B7
  8
VISIBLE
 10
301.4199296203183
 20
97.68376167014277
 30
0.0
 40
0.2
 50
270.0
 51
0.0
  0
LINE
  5
B8
  8
VISIBLE
 10
301.4199296203184
 20
97.48376167014277
 30
0.0
 11
300.8199296203184
 21
97.48376167014277
 31
0.0
  0
LINE
  5
B9
  8
VISIBLE
 10
296.5399296203184
 20
97.68376167014277
 30
0.0
 11
296.5399296203184
 21
103.4837616701428
 31
0.0
  0
LINE
  5
BA
  8
VISIBLE
 10
295.5399296203184
 20
103.4837616701427
 30
0.0
 11
295.5399296203184
 21
97.68376167014277
 31
0.0
  0
ARC
  5
BB
  8
VISIBLE
 10
295.7399296203183
 20
97.68376167014277
 30
0.0
 40
0.2
 50
180.0
 51
270.0
  0
ARC
  5
BC
  8
VISIBLE
 10
296.3399296203183
 20
97.68376167014277
 30
0.0
 40
0.2
 50
270.0
 51
0.0
  0
LINE
  5
BD
  8
VISIBLE
 10
296.3399296203183
 20
97.48376167014277
 30
0.0
 11
295.7399296203183
 21
97.48376167014277
 31
0.0
  0
LINE
  5
BE
  8
VISIBLE
 10
294.5399296203183
 20
108.2837616701428
 30
0.0
 11
294.5399296203183
 21
107.0837616701428
 31
0.0
  0
LINE
  5
BF
  8
VISIBLE
 10
295.0467699193283
 20
107.0837616701428
 30
0.0
 11
296.0751010587541
 21
107.0837616701428
 31
0.0
  0
LINE
  5
C0
  8
VISIBLE
 10
302.6199296203183
 20
108.2837616701428
 30
0.0
 11
302.6199296203183
 21
107.0837616701428
 31
0.0
  0
LINE
  5
C1
  8
VISIBLE
 10
297.3099296203184
 20
107.0837616701428
 30
0.0
 11
301.1199296203183
 21
107.0837616701428
 31
0.0
  0
LINE
  5
C2
  8
VISIBLE
 10
294.5399296203183
 20
107.0837616701428
 30
0.0
 11
295.0467699193283
 21
107.0837616701428
 31
0.0
  0
LINE
  5
C3
  8
VISIBLE
 10
302.6199296203183
 20
107.0837616701428
 30
0.0
 11
301.1199296203183
 21
107.0837616701428
 31
0.0
  0
LINE
  5
C4
  8
VISIBLE
 10
297.3099296203184
 20
107.0837616701428
 30
0.0
 11
296.0751010587541
 21
107.0837616701428
 31
0.0
  0
LINE
  5
C5
  8
VISIBLE
 10
302.1199296203184
 20
109.4837616701428
 30
0.0
 11
295.0399296203184
 21
109.4837616701428
 31
0.0
  0
LINE
  5
C6
  8
VISIBLE
 10
302.1199296203184
 20
108.2837616701428
 30
0.0
 11
295.0399296203184
 21
108.2837616701428
 31
0.0
  0
LINE
  5
C7
  8
VISIBLE
 10
303.6199296203184
 20
109.4837616701428
 30
0.0
 11
303.6199296203184
 21
108.2837616701428
 31
0.0
  0
LINE
  5
C8
  8
VISIBLE
 10
293.5399296203184
 20
109.4837616701428
 30
0.0
 11
293.5399296203184
 21
108.2837616701428
 31
0.0
  0
LINE
  5
C9
  8
VISIBLE
 10
302.1199296203184
 20
109.4837616701428
 30
0.0
 11
303.6199296203184
 21
109.4837616701428
 31
0.0
  0
LINE
  5
CA
  8
VISIBLE
 10
302.1199296203184
 20
108.2837616701428
 30
0.0
 11
303.6199296203184
 21
108.2837616701428
 31
0.0
  0
LINE
  5
CB
  8
VISIBLE
 10
293.5399296203184
 20
109.4837616701428
 30
0.0
 11
295.0399296203184
 21
109.4837616701428
 31
0.0
  0
LINE
  5
CC
  8
VISIBLE
 10
293.5399296203184
 20
108.2837616701428
 30
0.0
 11
295.0399296203184
 21
108.2837616701428
 31
0.0
  0
LINE
  5
CD
  8
VISIBLE
 10
302.1199296203184
 20
110.6837616701428
 30
0.0
 11
295.0399296203184
 21
110.6837616701428
 31
0.0
  0
LINE
  5
CE
  8
VISIBLE
 10
302.1199296203184
 20
109.4837616701428
 30
0.0
 11
295.0399296203184
 21
109.4837616701428
 31
0.0
  0
LINE
  5
CF
  8
VISIBLE
 10
303.6199296203184
 20
110.6837616701428
 30
0.0
 11
303.6199296203184
 21
109.4837616701428
 31
0.0
  0
LINE
  5
D0
  8
VISIBLE
 10
293.5399296203184
 20
110.6837616701428
 30
0.0
 11
293.5399296203184
 21
109.4837616701428
 31
0.0
  0
LINE
  5
D1
  8
VISIBLE
 10
302.1199296203184
 20
110.6837616701428
 30
0.0
 11
303.6199296203184
 21
110.6837616701428
 31
0.0
  0
LINE
  5
D2
  8
VISIBLE
 10
302.1199296203184
 20
109.4837616701428
 30
0.0
 11
303.6199296203184
 21
109.4837616701428
 31
0.0
  0
LINE
  5
D3
  8
VISIBLE
 10
293.5399296203184
 20
110.6837616701428
 30
0.0
 11
295.0399296203184
 21
110.6837616701428
 31
0.0
  0
LINE
  5
D4
  8
VISIBLE
 10
293.5399296203184
 20
109.4837616701428
 30
0.0
 11
295.0399296203184
 21
109.4837616701428
 31
0.0
  0
LINE
  5
D5
  8
VISIBLE
 10
303.6199296203184
 20
111.8837616701428
 30
0.0
 11
303.6199296203184
 21
110.6837616701428
 31
0.0
  0
LINE
  5
D6
  8
VISIBLE
 10
302.1199296203184
 20
111.8837616701428
 30
0.0
 11
295.0399296203184
 21
111.8837616701428
 31
0.0
  0
LINE
  5
D7
  8
VISIBLE
 10
302.1199296203184
 20
110.6837616701428
 30
0.0
 11
295.0399296203184
 21
110.6837616701428
 31
0.0
  0
LINE
  5
D8
  8
VISIBLE
 10
293.5399296203184
 20
111.8837616701428
 30
0.0
 11
293.5399296203184
 21
110.6837616701428
 31
0.0
  0
LINE
  5
D9
  8
VISIBLE
 10
302.1199296203184
 20
111.8837616701428
 30
0.0
 11
303.6199296203184
 21
111.8837616701428
 31
0.0
  0
LINE
  5
DA
  8
VISIBLE
 10
302.1199296203184
 20
110.6837616701428
 30
0.0
 11
303.6199296203184
 21
110.6837616701428
 31
0.0
  0
LINE
  5
DB
  8
VISIBLE
 10
293.5399296203184
 20
111.8837616701428
 30
0.0
 11
295.0399296203184
 21
111.8837616701428
 31
0.0
  0
LINE
  5
DC
  8
VISIBLE
 10
293.5399296203184
 20
110.6837616701428
 30
0.0
 11
295.0399296203184
 21
110.6837616701428
 31
0.0
  0
LINE
  5
DD
  8
VISIBLE
 10
303.6199296203184
 20
113.0837616701428
 30
0.0
 11
303.6199296203184
 21
111.8837616701428
 31
0.0
  0
LINE
  5
DE
  8
VISIBLE
 10
302.1199296203184
 20
113.0837616701428
 30
0.0
 11
295.0399296203184
 21
113.0837616701428
 31
0.0
  0
LINE
  5
DF
  8
VISIBLE
 10
302.1199296203184
 20
111.8837616701428
 30
0.0
 11
295.0399296203184
 21
111.8837616701428
 31
0.0
  0
LINE
  5
E0
  8
VISIBLE
 10
293.5399296203184
 20
113.0837616701428
 30
0.0
 11
293.5399296203184
 21
111.8837616701428
 31
0.0
  0
LINE
  5
E1
  8
VISIBLE
 10
302.1199296203184
 20
113.0837616701428
 30
0.0
 11
303.6199296203184
 21
113.0837616701428
 31
0.0
  0
LINE
  5
E2
  8
VISIBLE
 10
302.1199296203184
 20
111.8837616701428
 30
0.0
 11
303.6199296203184
 21
111.8837616701428
 31
0.0
  0
LINE
  5
E3
  8
VISIBLE
 10
293.5399296203184
 20
113.0837616701428
 30
0.0
 11
295.0399296203184
 21
113.0837616701428
 31
0.0
  0
LINE
  5
E4
  8
VISIBLE
 10
293.5399296203184
 20
111.8837616701428
 30
0.0
 11
295.0399296203184
 21
111.8837616701428
 31
0.0
  0
LINE
  5
E5
  8
VISIBLE
 10
302.1199296203184
 20
114.2837616701428
 30
0.0
 11
295.0399296203184
 21
114.2837616701428
 31
0.0
  0
LINE
  5
E6
  8
VISIBLE
 10
302.1199296203184
 20
113.0837616701428
 30
0.0
 11
295.0399296203184
 21
113.0837616701428
 31
0.0
  0
LINE
  5
E7
  8
VISIBLE
 10
303.6199296203184
 20
114.2837616701428
 30
0.0
 11
303.6199296203184
 21
113.0837616701428
 31
0.0
  0
LINE
  5
E8
  8
VISIBLE
 10
293.5399296203184
 20
114.2837616701428
 30
0.0
 11
293.5399296203184
 21
113.0837616701428
 31
0.0
  0
LINE
  5
E9
  8
VISIBLE
 10
302.1199296203184
 20
114.2837616701428
 30
0.0
 11
303.6199296203184
 21
114.2837616701428
 31
0.0
  0
LINE
  5
EA
  8
VISIBLE
 10
302.1199296203184
 20
113.0837616701428
 30
0.0
 11
303.6199296203184
 21
113.0837616701428
 31
0.0
  0
LINE
  5
EB
  8
VISIBLE
 10
293.5399296203184
 20
114.2837616701428
 30
0.0
 11
295.0399296203184
 21
114.2837616701428
 31
0.0
  0
LINE
  5
EC
  8
VISIBLE
 10
293.5399296203184
 20
113.0837616701428
 30
0.0
 11
295.0399296203184
 21
113.0837616701428
 31
0.0
  0
LINE
  5
ED
  8
VISIBLE
 10
302.1199296203185
 20
115.4837616701428
 30
0.0
 11
295.0399296203185
 21
115.4837616701428
 31
0.0
  0
LINE
  5
EE
  8
VISIBLE
 10
302.1199296203185
 20
114.2837616701428
 30
0.0
 11
295.0399296203185
 21
114.2837616701428
 31
0.0
  0
LINE
  5
EF
  8
VISIBLE
 10
303.6199296203185
 20
115.4837616701428
 30
0.0
 11
303.6199296203185
 21
114.2837616701428
 31
0.0
  0
LINE
  5
F0
  8
VISIBLE
 10
293.5399296203185
 20
115.4837616701428
 30
0.0
 11
293.5399296203185
 21
114.2837616701428
 31
0.0
  0
LINE
  5
F1
  8
VISIBLE
 10
302.1199296203185
 20
115.4837616701428
 30
0.0
 11
303.6199296203185
 21
115.4837616701428
 31
0.0
  0
LINE
  5
F2
  8
VISIBLE
 10
302.1199296203185
 20
114.2837616701428
 30
0.0
 11
303.6199296203185
 21
114.2837616701428
 31
0.0
  0
LINE
  5
F3
  8
VISIBLE
 10
293.5399296203185
 20
115.4837616701428
 30
0.0
 11
295.0399296203185
 21
115.4837616701428
 31
0.0
  0
LINE
  5
F4
  8
VISIBLE
 10
293.5399296203185
 20
114.2837616701428
 30
0.0
 11
295.0399296203185
 21
114.2837616701428
 31
0.0
  0
ENDSEC
  0
EOF
