<?xml version="1.0" encoding="UTF-8" standalone="no"?>
<svg
   width="40mm"
   height="40mm"
   viewBox="0 0 151.18111 151.18111"
   version="1.1"
   id="svg8"
   inkscape:version="1.1.1 (3bf5ae0d25, 2021-09-20)"
   sodipodi:docname="attach.svg"
   xmlns:inkscape="http://www.inkscape.org/namespaces/inkscape"
   xmlns:sodipodi="http://sodipodi.sourceforge.net/DTD/sodipodi-0.dtd"
   xmlns="http://www.w3.org/2000/svg"
   xmlns:svg="http://www.w3.org/2000/svg"
   xmlns:rdf="http://www.w3.org/1999/02/22-rdf-syntax-ns#"
   xmlns:cc="http://creativecommons.org/ns#"
   xmlns:dc="http://purl.org/dc/elements/1.1/">
  <defs
     id="defs2" />
  <sodipodi:namedview
     id="base"
     pagecolor="#cccccc"
     bordercolor="#666666"
     borderopacity="1.0"
     inkscape:pageopacity="0"
     inkscape:pageshadow="2"
     inkscape:zoom="5.6"
     inkscape:cx="77.767857"
     inkscape:cy="83.035714"
     inkscape:document-units="px"
     inkscape:current-layer="text20158"
     inkscape:document-rotation="0"
     showgrid="false"
     inkscape:window-width="1718"
     inkscape:window-height="1408"
     inkscape:window-x="1713"
     inkscape:window-y="0"
     inkscape:window-maximized="0"
     inkscape:pagecheckerboard="true"
     units="mm"
     scale-x="1" />
  <metadata
     id="metadata5">
    <rdf:RDF>
      <cc:Work
         rdf:about="">
        <dc:format>image/svg+xml</dc:format>
        <dc:type
           rdf:resource="http://purl.org/dc/dcmitype/StillImage" />
      </cc:Work>
    </rdf:RDF>
  </metadata>
  <g
     inkscape:label="Layer 1"
     inkscape:groupmode="layer"
     id="layer1">
    <g
       aria-label="STAMP"
       id="text20158"
       style="font-size:14.735px;line-height:1.25;font-family:COCOGOOSE;-inkscape-font-specification:COCOGOOSE;fill:#ffffff;stroke-width:0.999998"
       inkscape:label="stamp">
      <path
         d="m 20.436566,78.369736 q 0.12524,0.10314 0.3168,0.27996 0.19892,0.16945 0.44942,0.33891 0.37574,0.25049 0.74411,0.39047 0.36838,0.13999 0.77359,0.13999 0.37574,0 0.62624,-0.081 0.25786,-0.0884 0.40521,-0.2284 0.14735,-0.13998 0.20629,-0.32417 0.0663,-0.18418 0.0663,-0.39047 0,-0.2284 -0.17682,-0.40522 -0.16945,-0.18418 -0.41995,-0.32417 -0.25049,-0.13998 -0.52309,-0.23576 -0.2726,-0.10314 -0.47152,-0.16945 -0.8841,-0.30943 -1.54717,-0.66307 -0.66308,-0.36101 -1.10513,-0.79569 -0.44205,-0.44205 -0.66307,-0.96515 -0.22103,-0.53046 -0.22103,-1.1788 0,-0.68517 0.2726,-1.2451 0.27996,-0.55993 0.78832,-0.95778 0.51573,-0.39784 1.23774,-0.6115 0.72202,-0.22103 1.61348,-0.22103 0.67045,0 1.28195,0.15472 0.61887,0.14735 1.21564,0.47889 0.25049,0.14735 0.47152,0.30943 0.22839,0.15472 0.39784,0.30207 0.16945,0.14735 0.26523,0.27997 0.10314,0.13261 0.10314,0.22839 0,0.0958 -0.0516,0.17682 -0.0442,0.081 -0.13999,0.18419 l -1.12723,1.2009 q -0.12524,0.12525 -0.25049,0.12525 -0.10315,0 -0.19156,-0.0589 -0.081,-0.0589 -0.18418,-0.14735 l -0.0663,-0.0589 q -0.14735,-0.12525 -0.33154,-0.25787 -0.17682,-0.13261 -0.38311,-0.23576 -0.20629,-0.11051 -0.43468,-0.17682 -0.2284,-0.0737 -0.46416,-0.0737 -0.24312,0 -0.45678,0.0442 -0.21366,0.0368 -0.37574,0.12525 -0.16209,0.0884 -0.25787,0.23576 -0.0958,0.13998 -0.0958,0.34627 0,0.20629 0.10315,0.36101 0.10314,0.14735 0.30943,0.27997 0.20629,0.12524 0.50836,0.24312 0.30944,0.11052 0.71465,0.24313 0.78095,0.25786 1.43666,0.5452 0.66308,0.27996 1.14196,0.67044 0.47889,0.38311 0.74412,0.92094 0.2726,0.53782 0.2726,1.30404 0,0.81043 -0.33154,1.4735 -0.33154,0.65571 -0.91357,1.11986 -0.57466,0.46416 -1.35562,0.72202 -0.78095,0.25049 -1.67979,0.25049 -0.84726,0 -1.66505,-0.30206 -0.8178,-0.30207 -1.52508,-0.81043 -0.2947,-0.21366 -0.50099,-0.41995 -0.19892,-0.20629 -0.3168,-0.33153 l -0.0221,-0.0221 q -0.007,-0.0147 -0.0147,-0.0147 -0.007,-0.007 -0.0147,-0.0147 -0.007,-0.0147 -0.0147,-0.0147 -0.007,-0.007 -0.0147,-0.0147 -0.16945,-0.18419 -0.16945,-0.2947 0,-0.12525 0.16945,-0.27997 l 1.27458,-1.21564 q 0.15472,-0.11051 0.25049,-0.11051 0.0663,0 0.13999,0.0442 0.0737,0.0442 0.17682,0.13262 z"
         id="path3855"
         style="font-size:14.735px;line-height:1.25;font-family:COCOGOOSE;-inkscape-font-specification:COCOGOOSE;fill:#ffffff;stroke-width:0.999998" />
      <path
         d="m 28.128206,71.282196 q 0,-0.14735 0.0958,-0.23576 0.10314,-0.0884 0.25049,-0.0884 h 7.9348 q 0.13262,0 0.23576,0.081 0.10315,0.081 0.11788,0.24313 v 1.83451 q 0,0.13261 -0.0958,0.25786 -0.0884,0.11788 -0.25786,0.11788 h -2.54179 v 8.06004 q 0,0.13262 -0.0958,0.24313 -0.0958,0.10315 -0.25049,0.10315 h -2.16605 q -0.12525,0 -0.23576,-0.0958 -0.11051,-0.10315 -0.11051,-0.2505 v -8.06004 h -2.53442 q -0.14735,0 -0.2505,-0.0958 -0.0958,-0.0958 -0.0958,-0.27997 z"
         id="path3857"
         style="font-size:14.735px;line-height:1.25;font-family:COCOGOOSE;-inkscape-font-specification:COCOGOOSE;fill:#ffffff;stroke-width:0.999998" />
      <path
         d="m 39.673026,71.245356 q 0.007,-0.0442 0.0442,-0.0958 0.0442,-0.0516 0.10315,-0.0958 0.0589,-0.0442 0.12524,-0.0663 0.0663,-0.0295 0.12525,-0.0295 h 1.88608 q 0.12525,0 0.21366,0.081 0.0884,0.0737 0.13261,0.13262 l 0.18419,0.41995 3.86794,9.97559 q 0.0589,0.14735 -0.0221,0.24313 -0.081,0.0884 -0.27997,0.0884 h -2.11447 q -0.16945,0 -0.26523,-0.0589 -0.0884,-0.0663 -0.13998,-0.21366 -0.14735,-0.37574 -0.28733,-0.74412 -0.13999,-0.37574 -0.27997,-0.75148 h -3.91214 q -0.13998,0.37574 -0.28733,0.75148 -0.13999,0.36838 -0.27997,0.74412 -0.0958,0.2726 -0.37574,0.2726 h -2.17341 q -0.13999,0 -0.23576,-0.0737 -0.0884,-0.0737 -0.0295,-0.22103 z m 1.34089,3.15329 q -0.13999,0.37575 -0.28734,0.81043 -0.13998,0.43468 -0.27996,0.87673 -0.13998,0.44205 -0.28733,0.87673 -0.13999,0.42732 -0.27997,0.80306 h 2.26182 z"
         id="path3859"
         style="font-size:14.735px;line-height:1.25;font-family:COCOGOOSE;-inkscape-font-specification:COCOGOOSE;fill:#ffffff;stroke-width:0.999998" />
      <path
         d="m 48.432966,71.282196 q 0.0147,-0.13261 0.10315,-0.22839 0.0884,-0.0958 0.25049,-0.0958 h 2.54916 q 0.2726,0 0.35364,0.27996 l 2.00396,6.68969 2.01869,-6.68969 q 0.10315,-0.27996 0.37575,-0.27996 h 2.51968 q 0.13262,0 0.23576,0.0958 0.11052,0.0884 0.12525,0.22839 0.25786,2.59336 0.52309,5.14988 0.2726,2.54916 0.53046,5.14252 v 0.0368 q 0,0.28733 -0.32417,0.28733 h -2.085 q -0.3389,0 -0.35364,-0.32417 l -0.64097,-5.69508 -1.65769,5.73192 q -0.0147,0.0737 -0.11051,0.17682 -0.0884,0.10314 -0.17682,0.10314 h -1.93766 q -0.0884,0 -0.19155,-0.0958 -0.0958,-0.10314 -0.10314,-0.18419 l -1.65769,-5.71718 -0.64097,5.68035 q -0.0147,0.32417 -0.36101,0.32417 h -2.085 q -0.31681,0 -0.31681,-0.32417 z"
         id="path3861"
         style="font-size:14.735px;line-height:1.25;font-family:COCOGOOSE;-inkscape-font-specification:COCOGOOSE;fill:#ffffff;stroke-width:0.999998" />
      <path
         d="m 61.834436,71.296936 q 0,-0.15472 0.081,-0.24313 0.081,-0.0958 0.24313,-0.0958 h 4.70783 q 0.50836,0 0.95778,0.13998 0.44941,0.13998 0.82516,0.39048 0.37574,0.24313 0.67781,0.5894 0.30206,0.3389 0.50835,0.73675 0.21366,0.39785 0.32417,0.83989 0.11052,0.43469 0.11052,0.8841 0,0.66308 -0.24313,1.29668 -0.23576,0.63361 -0.67781,1.12723 -0.44205,0.49362 -1.06092,0.80306 -0.61887,0.30207 -1.37036,0.30943 h -2.23235 v 3.50693 q 0,0.31681 -0.3389,0.31681 h -2.18815 q -0.14735,0 -0.23576,-0.0737 -0.0884,-0.081 -0.0884,-0.24313 z m 5.54773,3.22696 q 0,-0.22102 -0.081,-0.44205 -0.0737,-0.22102 -0.22103,-0.39048 -0.14735,-0.17682 -0.361,-0.28733 -0.20629,-0.11051 -0.47153,-0.11051 h -1.5619 v 2.46074 h 1.5619 q 0.26524,0 0.47889,-0.10314 0.21366,-0.11051 0.35364,-0.27996 0.14735,-0.16946 0.22103,-0.39048 0.081,-0.22103 0.081,-0.45679 z"
         id="path3863"
         style="font-size:14.735px;line-height:1.25;font-family:COCOGOOSE;-inkscape-font-specification:COCOGOOSE;fill:#ffffff;stroke-width:0.999998" />
      <path
         style="color:#000000;font-size:14.735px;line-height:1.25;font-family:COCOGOOSE;-inkscape-font-specification:COCOGOOSE;fill:#ffffff;stroke-width:0.999998;-inkscape-stroke:none"
         d="m 18.425776,64.578966 c -3.51404,0 -6.3789,2.86486 -6.3789,6.3789 v 10.94141 c 0,3.51405 2.86486,6.37891 6.3789,6.37891 H 134.07422 c 3.51405,0 6.37891,-2.86486 6.37891,-6.37891 v -10.94141 c 0,-3.51404 -2.86486,-6.3789 -6.37891,-6.3789 z m 0,1.41797 H 134.07422 c 2.74807,0 4.96094,2.21286 4.96094,4.96093 v 10.94141 c 0,2.74807 -2.21287,4.96094 -4.96094,4.96094 H 18.425776 c -2.74807,0 -4.96093,-2.21287 -4.96093,-4.96094 v -10.94141 c 0,-2.74807 2.21286,-4.96093 4.96093,-4.96093 z"
         id="path8455-0" />
      <path
         id="path18384-3"
         d="m 75.936236,68.123616 c -1.56553,0 -2.83398,1.26845 -2.83398,2.83399 v 10.9414 c 0,1.56553 1.26845,2.83399 2.83398,2.83399 h 58.138684 c 1.56553,0 2.83398,-1.26846 2.83398,-2.83399 v -10.9414 c 0,-1.56554 -1.26845,-2.83399 -2.83398,-2.83399 z m 43.558604,2.67188 c 0.5894,0 1.14538,0.083 1.66601,0.25 0.52555,0.16208 1.01877,0.39759 1.48047,0.70703 0.0835,0.0491 0.1443,0.11282 0.1836,0.1914 0.0393,0.0786 0.0325,0.1732 -0.0215,0.28125 l -1.24609,1.76758 c -0.054,0.0835 -0.11193,0.13175 -0.17578,0.14649 -0.0589,0.01 -0.1323,-0.0124 -0.22071,-0.0664 -0.24067,-0.18173 -0.50708,-0.32169 -0.79687,-0.41992 -0.28979,-0.0982 -0.59575,-0.14649 -0.91992,-0.14649 -0.40276,0 -0.77438,0.0763 -1.11329,0.22852 -0.3389,0.15226 -0.63137,0.36172 -0.87695,0.62695 -0.24558,0.26523 -0.43669,0.5741 -0.57422,0.92774 -0.13752,0.35364 -0.20703,0.73201 -0.20703,1.13476 0,0.40276 0.0695,0.78113 0.20703,1.13477 0.13753,0.34873 0.32864,0.65469 0.57422,0.91992 0.24558,0.26032 0.53805,0.46688 0.87695,0.61914 0.33891,0.15226 0.71053,0.22852 1.11329,0.22852 0.32417,0 0.63303,-0.0483 0.92773,-0.14649 0.2947,-0.10314 0.56206,-0.246 0.80273,-0.42773 0.0884,-0.054 0.16177,-0.0762 0.22071,-0.0664 0.0589,0.01 0.11879,0.0542 0.17773,0.13281 l 1.25977,1.8125 c 0.054,0.10806 0.0608,0.19781 0.0215,0.27149 -0.0393,0.0737 -0.10009,0.13643 -0.18359,0.18555 -0.4617,0.30943 -0.96072,0.54879 -1.4961,0.7207 -0.53046,0.167 -1.09028,0.25 -1.67968,0.25 -0.52064,0 -1.02257,-0.0646 -1.50391,-0.19727 -0.47643,-0.13261 -0.92235,-0.32277 -1.33984,-0.56836 -0.41749,-0.24558 -0.79876,-0.53804 -1.14258,-0.87695 -0.33891,-0.34382 -0.63137,-0.72219 -0.87695,-1.13477 -0.24559,-0.41749 -0.4338,-0.86341 -0.56641,-1.33984 -0.13262,-0.48134 -0.19922,-0.98327 -0.19922,-1.5039 0,-0.52064 0.0666,-1.01771 0.19922,-1.49415 0.13261,-0.48134 0.32082,-0.93211 0.56641,-1.34961 0.24558,-0.4224 0.53804,-0.80462 0.87695,-1.14843 0.34382,-0.34382 0.72509,-0.63628 1.14258,-0.87696 0.41749,-0.24558 0.86341,-0.43574 1.33984,-0.56835 0.48134,-0.13753 0.98327,-0.20508 1.50391,-0.20508 z m -39.136724,0.16211 h 1.88672 c 0.0835,0 0.15395,0.026 0.21289,0.0801 0.0589,0.0491 0.10334,0.0935 0.13281,0.13282 l 0.18555,0.41992 3.86718,9.97656 c 0.0393,0.0982 0.0326,0.17834 -0.0215,0.24219 -0.054,0.0589 -0.14864,0.0879 -0.28125,0.0879 h -2.11328 c -0.11297,0 -0.20177,-0.0193 -0.26563,-0.0586 -0.0589,-0.0442 -0.10624,-0.11466 -0.14062,-0.21289 -0.0982,-0.2505 -0.19379,-0.49856 -0.28711,-0.74415 l -0.2793,-0.75195 h -3.91211 c -0.0933,0.2505 -0.18887,0.50146 -0.28711,0.75195 -0.0933,0.24559 -0.18792,0.49365 -0.28125,0.74415 -0.0639,0.18173 -0.18835,0.27148 -0.375,0.27148 h -2.17382 c -0.0933,0 -0.17248,-0.0231 -0.23633,-0.0723 -0.0589,-0.0491 -0.0686,-0.12247 -0.0293,-0.2207 l 4.00195,-10.35937 c 0.005,-0.0295 0.0184,-0.0613 0.043,-0.0957 0.0295,-0.0344 0.0642,-0.0662 0.10352,-0.0957 0.0393,-0.0295 0.0808,-0.0517 0.125,-0.0664 0.0442,-0.0196 0.0857,-0.0293 0.125,-0.0293 z m 5.6582,0 h 7.93555 c 0.0884,0 0.16756,0.026 0.23633,0.0801 0.0688,0.054 0.10736,0.13609 0.11718,0.24414 v 1.83399 c 0,0.0884 -0.0318,0.17431 -0.0957,0.25781 -0.0589,0.0786 -0.14484,0.11719 -0.25781,0.11719 h -2.54102 v 8.06055 c 0,0.0884 -0.0319,0.17046 -0.0957,0.24414 -0.0639,0.0688 -0.14881,0.10156 -0.25195,0.10156 h -2.16602 c -0.0835,0 -0.1607,-0.0318 -0.23437,-0.0957 -0.0737,-0.0688 -0.11133,-0.15177 -0.11133,-0.25 v -8.06055 h -2.53516 c -0.0982,0 -0.18124,-0.0318 -0.25,-0.0957 -0.0639,-0.0639 -0.0957,-0.15651 -0.0957,-0.2793 v -1.83399 c 0,-0.0982 0.0318,-0.17738 0.0957,-0.23632 0.0688,-0.0589 0.15177,-0.0879 0.25,-0.0879 z m 9.81445,0 h 7.933604 c 0.0884,0 0.16756,0.026 0.23633,0.0801 0.0688,0.054 0.10931,0.13609 0.11914,0.24414 v 1.83399 c 0,0.0884 -0.0338,0.17431 -0.0977,0.25781 -0.0589,0.0786 -0.14484,0.11719 -0.25781,0.11719 h -2.54102 v 8.06055 c 0,0.0884 -0.0319,0.17046 -0.0957,0.24414 -0.0639,0.0688 -0.14686,0.10156 -0.25,0.10156 h -2.166024 c -0.0835,0 -0.16265,-0.0318 -0.23632,-0.0957 -0.0737,-0.0688 -0.11133,-0.15177 -0.11133,-0.25 v -8.06055 h -2.53321 c -0.0982,0 -0.18123,-0.0318 -0.25,-0.0957 -0.0639,-0.0639 -0.0957,-0.15651 -0.0957,-0.2793 v -1.83399 c 0,-0.0982 0.0319,-0.17738 0.0957,-0.23632 0.0688,-0.0589 0.15177,-0.0879 0.25,-0.0879 z m 11.595714,0 h 1.88672 c 0.0835,0 0.15395,0.026 0.21289,0.0801 0.0589,0.0491 0.10334,0.0935 0.13281,0.13282 l 0.18359,0.41992 3.86914,9.97656 c 0.0393,0.0982 0.0326,0.17834 -0.0215,0.24219 -0.054,0.0589 -0.14864,0.0879 -0.28125,0.0879 h -2.11328 c -0.11297,0 -0.20178,-0.0193 -0.26563,-0.0586 -0.0589,-0.0442 -0.10624,-0.11466 -0.14062,-0.21289 -0.0982,-0.2505 -0.19379,-0.49856 -0.28711,-0.74415 l -0.2793,-0.75195 h -3.91211 c -0.0933,0.2505 -0.18887,0.50146 -0.28711,0.75195 -0.0933,0.24559 -0.18793,0.49365 -0.28125,0.74415 -0.0639,0.18173 -0.18835,0.27148 -0.375,0.27148 h -2.17383 c -0.0933,0 -0.17247,-0.0231 -0.23632,-0.0723 -0.0589,-0.0491 -0.0686,-0.12247 -0.0293,-0.2207 l 4.00195,-10.35937 c 0.005,-0.0295 0.0184,-0.0613 0.043,-0.0957 0.0295,-0.0344 0.0642,-0.0662 0.10352,-0.0957 0.0393,-0.0295 0.0808,-0.0517 0.125,-0.0664 0.0442,-0.0196 0.0857,-0.0293 0.125,-0.0293 z m 17.59375,0 h 2.1875 c 0.0737,0 0.14993,0.0318 0.22851,0.0957 0.0786,0.0589 0.11914,0.13519 0.11914,0.22851 v 3.49219 h 3.66016 v -3.49219 c 0,-0.0884 0.0309,-0.16466 0.0898,-0.22851 0.0639,-0.0639 0.14396,-0.0957 0.24219,-0.0957 h 2.1582 c 0.0982,0 0.18414,0.0251 0.25782,0.0742 0.0737,0.0491 0.11133,0.12632 0.11133,0.23438 v 10.30664 c -1e-5,0.10806 -0.0319,0.19011 -0.0957,0.24414 -0.0639,0.054 -0.14685,0.0801 -0.25,0.0801 h -2.18164 c -0.0982,0 -0.17833,-0.026 -0.24219,-0.0801 -0.0589,-0.054 -0.0898,-0.13608 -0.0898,-0.24414 v -4.18359 h -3.66016 v 4.18359 c 0,0.10315 -0.0347,0.1852 -0.10351,0.24414 -0.0639,0.054 -0.15266,0.0801 -0.26563,0.0801 h -2.16601 c -0.20629,0 -0.3115,-0.0956 -0.31641,-0.28711 v -10.32813 c 0.005,-0.0835 0.0339,-0.15685 0.0879,-0.2207 0.0589,-0.0688 0.1352,-0.10351 0.22852,-0.10351 z m -43.718754,3.43945 c -0.0933,0.25049 -0.18888,0.52076 -0.28711,0.81055 -0.0933,0.28978 -0.18598,0.58225 -0.2793,0.87695 -0.0933,0.2947 -0.18887,0.58716 -0.28711,0.87695 -0.0933,0.28488 -0.18793,0.55224 -0.28125,0.80274 h 2.26172 z m 27.068364,0 c -0.0933,0.25049 -0.18888,0.52076 -0.28711,0.81055 -0.0933,0.28978 -0.18598,0.58225 -0.2793,0.87695 -0.0933,0.2947 -0.19083,0.58716 -0.28906,0.87695 -0.0933,0.28488 -0.18598,0.55224 -0.2793,0.80274 h 2.26172 z"
         style="font-size:14.735px;line-height:1.25;font-family:COCOGOOSE;-inkscape-font-specification:COCOGOOSE;fill:#ffffff;stroke:none;stroke-width:0.767114;stroke-linecap:butt;stroke-linejoin:miter;stroke-miterlimit:4;stroke-dasharray:none" />
    </g>
  </g>
</svg>
