<?xml version="1.0" encoding="UTF-8" standalone="no"?>
<svg
   width="40mm"
   height="40mm"
   viewBox="0 0 151.18111 151.18111"
   version="1.1"
   id="svg8"
   inkscape:version="1.1.1 (3bf5ae0d25, 2021-09-20)"
   sodipodi:docname="stamp-attack_dots.svg"
   xmlns:inkscape="http://www.inkscape.org/namespaces/inkscape"
   xmlns:sodipodi="http://sodipodi.sourceforge.net/DTD/sodipodi-0.dtd"
   xmlns="http://www.w3.org/2000/svg"
   xmlns:svg="http://www.w3.org/2000/svg"
   xmlns:rdf="http://www.w3.org/1999/02/22-rdf-syntax-ns#"
   xmlns:cc="http://creativecommons.org/ns#"
   xmlns:dc="http://purl.org/dc/elements/1.1/">
  <defs
     id="defs2">
    <inkscape:path-effect
       effect="fillet_chamfer"
       id="path-effect5152"
       is_visible="true"
       lpeversion="1"
       satellites_param="F,0,0,1,0,0,0,1 @ F,0,0,1,0,5.6692913,0,1 @ F,0,0,1,0,5.6692913,0,1 @ F,0,0,1,0,5.6692913,0,1"
       unit="mm"
       method="auto"
       mode="F"
       radius="1.5"
       chamfer_steps="1"
       flexible="false"
       use_knot_distance="true"
       apply_no_radius="true"
       apply_with_radius="true"
       only_selected="false"
       hide_knots="false" />
    <inkscape:path-effect
       effect="fillet_chamfer"
       id="path-effect5150"
       is_visible="true"
       lpeversion="1"
       satellites_param="F,0,0,1,0,0,0,1 @ F,0,0,1,0,5.6692913,0,1 @ F,0,0,1,0,5.6692913,0,1 @ F,0,0,1,0,5.6692913,0,1"
       unit="mm"
       method="auto"
       mode="F"
       radius="1.5"
       chamfer_steps="1"
       flexible="false"
       use_knot_distance="true"
       apply_no_radius="true"
       apply_with_radius="true"
       only_selected="false"
       hide_knots="false" />
  </defs>
  <sodipodi:namedview
     id="base"
     pagecolor="#cccccc"
     bordercolor="#666666"
     borderopacity="1.0"
     inkscape:pageopacity="0"
     inkscape:pageshadow="2"
     inkscape:zoom="3.959798"
     inkscape:cx="87.504464"
     inkscape:cy="115.15739"
     inkscape:document-units="px"
     inkscape:current-layer="text20158"
     inkscape:document-rotation="0"
     showgrid="false"
     inkscape:window-width="1718"
     inkscape:window-height="1408"
     inkscape:window-x="1713"
     inkscape:window-y="0"
     inkscape:window-maximized="0"
     inkscape:pagecheckerboard="true"
     units="mm"
     scale-x="1" />
  <metadata
     id="metadata5">
    <rdf:RDF>
      <cc:Work
         rdf:about="">
        <dc:format>image/svg+xml</dc:format>
        <dc:type
           rdf:resource="http://purl.org/dc/dcmitype/StillImage" />
      </cc:Work>
    </rdf:RDF>
  </metadata>
  <g
     inkscape:label="Layer 1"
     inkscape:groupmode="layer"
     id="layer1">
    <g
       aria-label="STAMP"
       id="text20158"
       style="font-size:14.735px;line-height:1.25;font-family:COCOGOOSE;-inkscape-font-specification:COCOGOOSE;fill:#ffffff;stroke-width:0.999998"
       inkscape:label="stamp">
      <path
         d="m 75.179507,68.557365 q 0.0074,-0.04421 0.04421,-0.09578 0.0442,-0.05157 0.103145,-0.09578 0.05894,-0.0442 0.125247,-0.06631 0.06631,-0.02947 0.125248,-0.02947 h 1.88608 q 0.125247,0 0.213657,0.08104 0.08841,0.07368 0.132615,0.132615 l 0.184188,0.419947 3.867937,9.975595 q 0.05894,0.14735 -0.0221,0.243128 -0.08104,0.08841 -0.279965,0.08841 h -2.114473 q -0.169452,0 -0.26523,-0.05894 -0.08841,-0.06631 -0.139982,-0.213658 -0.14735,-0.375742 -0.287333,-0.744117 -0.139982,-0.375743 -0.279965,-0.751485 h -3.912142 q -0.139982,0.375742 -0.287332,0.751485 -0.139983,0.368375 -0.279965,0.744117 -0.09578,0.272598 -0.375743,0.272598 h -2.173412 q -0.139983,0 -0.23576,-0.07367 -0.08841,-0.07368 -0.02947,-0.221025 z m 1.340885,3.15329 q -0.139983,0.375742 -0.287333,0.810425 -0.139982,0.434682 -0.279965,0.876732 -0.139982,0.44205 -0.287332,0.876733 -0.139983,0.427315 -0.279965,0.803057 h 2.261822 z"
         id="path4773" />
      <path
         d="m 80.889307,68.594202 q 0,-0.14735 0.09578,-0.23576 0.103145,-0.08841 0.250495,-0.08841 h 7.934798 q 0.132615,0 0.23576,0.08104 0.103145,0.08104 0.11788,0.243127 v 1.834508 q 0,0.132615 -0.09578,0.257862 -0.08841,0.11788 -0.257862,0.11788 H 86.62859 v 8.060045 q 0,0.132615 -0.09578,0.243128 -0.09578,0.103145 -0.250495,0.103145 H 84.11627 q -0.125248,0 -0.23576,-0.09578 -0.110513,-0.103145 -0.110513,-0.250495 v -8.060045 h -2.53442 q -0.14735,0 -0.250495,-0.09578 -0.09578,-0.09578 -0.09578,-0.279965 z"
         id="path4775" />
      <path
         d="m 90.702794,68.594202 q 0,-0.14735 0.09578,-0.23576 0.103145,-0.08841 0.250495,-0.08841 h 7.934798 q 0.132615,0 0.23576,0.08104 0.103145,0.08104 0.11788,0.243127 v 1.834508 q 0,0.132615 -0.09578,0.257862 -0.08841,0.11788 -0.257862,0.11788 h -2.541788 v 8.060045 q 0,0.132615 -0.09578,0.243128 -0.09578,0.103145 -0.250495,0.103145 h -2.166045 q -0.125248,0 -0.23576,-0.09578 -0.110513,-0.103145 -0.110513,-0.250495 v -8.060045 h -2.53442 q -0.14735,0 -0.250495,-0.09578 -0.09578,-0.09578 -0.09578,-0.279965 z"
         id="path4777" />
      <path
         d="m 102.24761,68.557365 q 0.007,-0.04421 0.0442,-0.09578 0.0442,-0.05157 0.10314,-0.09578 0.0589,-0.0442 0.12525,-0.06631 0.0663,-0.02947 0.12525,-0.02947 h 1.88608 q 0.12525,0 0.21366,0.08104 0.0884,0.07368 0.13261,0.132615 l 0.18419,0.419947 3.86794,9.975595 q 0.0589,0.14735 -0.0221,0.243128 -0.081,0.08841 -0.27996,0.08841 h -2.11447 q -0.16946,0 -0.26523,-0.05894 -0.0884,-0.06631 -0.13999,-0.213658 -0.14735,-0.375742 -0.28733,-0.744117 -0.13998,-0.375743 -0.27996,-0.751485 h -3.91215 q -0.13998,0.375742 -0.28733,0.751485 -0.13998,0.368375 -0.27996,0.744117 -0.0958,0.272598 -0.37575,0.272598 h -2.173408 q -0.139982,0 -0.23576,-0.07367 -0.08841,-0.07368 -0.02947,-0.221025 z m 1.34089,3.15329 q -0.13998,0.375742 -0.28733,0.810425 -0.13999,0.434682 -0.27997,0.876732 -0.13998,0.44205 -0.28733,0.876733 -0.13998,0.427315 -0.27997,0.803057 h 2.26183 z"
         id="path4779" />
      <path
         d="m 117.85932,69.065722 q 0.12524,0.07368 0.18418,0.191555 0.0589,0.11788 -0.0221,0.279965 l -1.24511,1.7682 q -0.081,0.125248 -0.17682,0.14735 -0.0884,0.01474 -0.22102,-0.06631 -0.36101,-0.272598 -0.79569,-0.419948 -0.43468,-0.14735 -0.92094,-0.14735 -0.60413,0 -1.11249,0.228393 -0.50836,0.228392 -0.87673,0.626237 -0.36838,0.397845 -0.57467,0.928305 -0.20629,0.53046 -0.20629,1.134595 0,0.604135 0.20629,1.134595 0.20629,0.523093 0.57467,0.920938 0.36837,0.390477 0.87673,0.61887 0.50836,0.228392 1.11249,0.228392 0.48626,0 0.92831,-0.14735 0.44205,-0.154717 0.80305,-0.427315 0.13262,-0.08104 0.22103,-0.06631 0.0884,0.01473 0.17682,0.132615 l 1.25984,1.812405 q 0.081,0.162085 0.0221,0.272597 -0.0589,0.110513 -0.18418,0.184188 -0.69255,0.464152 -1.49561,0.722015 -0.79569,0.250495 -1.67979,0.250495 -0.78095,0 -1.50297,-0.198923 -0.71464,-0.198922 -1.34088,-0.567297 -0.62624,-0.368375 -1.14196,-0.876733 -0.50836,-0.515725 -0.87674,-1.134595 -0.36837,-0.626237 -0.56729,-1.340885 -0.19893,-0.722015 -0.19893,-1.50297 0,-0.780955 0.19893,-1.495602 0.19892,-0.722015 0.56729,-1.348253 0.36838,-0.633605 0.87674,-1.14933 0.51572,-0.515725 1.14196,-0.876732 0.62624,-0.368375 1.34088,-0.567298 0.72202,-0.20629 1.50297,-0.20629 0.8841,0 1.66506,0.250495 0.78832,0.243128 1.48087,0.70728 z"
         id="path4781" />
      <path
         d="m 119.92219,68.594202 q 0.007,-0.125247 0.0884,-0.221025 0.0884,-0.103145 0.22839,-0.103145 h 2.18815 q 0.11051,0 0.22839,0.09578 0.11788,0.08841 0.11788,0.228392 v 3.492195 h 3.66165 v -3.492195 q 0,-0.132615 0.0884,-0.228392 0.0958,-0.09578 0.24313,-0.09578 h 2.15867 q 0.14735,0 0.25787,0.07367 0.11051,0.07368 0.11051,0.23576 V 78.8866 q 0,0.162085 -0.0958,0.243127 -0.0958,0.08104 -0.25049,0.08104 h -2.18078 q -0.14735,0 -0.24313,-0.08104 -0.0884,-0.08104 -0.0884,-0.243127 v -4.18474 h -3.66165 v 4.18474 q 0,0.154717 -0.10314,0.243127 -0.0958,0.08104 -0.26523,0.08104 h -2.16605 q -0.30943,0 -0.3168,-0.287333 z"
         id="path4783" />
      <path
         d="m 15.655139,75.682531 q 0.125248,0.103145 0.316803,0.279965 0.198922,0.169452 0.449417,0.338905 0.375743,0.250495 0.744118,0.390477 0.368375,0.139983 0.773587,0.139983 0.375743,0 0.626238,-0.08104 0.257862,-0.08841 0.405212,-0.228392 0.14735,-0.139983 0.20629,-0.32417 0.06631,-0.184188 0.06631,-0.390478 0,-0.228392 -0.17682,-0.405212 -0.169453,-0.184188 -0.419948,-0.32417 -0.250495,-0.139983 -0.523092,-0.23576 -0.272598,-0.103145 -0.47152,-0.169453 -0.8841,-0.309435 -1.547175,-0.663075 -0.663075,-0.361007 -1.105125,-0.79569 -0.44205,-0.44205 -0.663075,-0.965142 -0.221025,-0.53046 -0.221025,-1.1788 0,-0.685178 0.272597,-1.245108 0.279965,-0.55993 0.788323,-0.957775 0.515725,-0.397845 1.23774,-0.611502 0.722015,-0.221025 1.613482,-0.221025 0.670443,0 1.281945,0.154717 0.61887,0.14735 1.215638,0.478888 0.250495,0.14735 0.47152,0.309435 0.228392,0.154717 0.397845,0.302067 0.169452,0.14735 0.26523,0.279965 0.103145,0.132615 0.103145,0.228393 0,0.09578 -0.05157,0.17682 -0.04421,0.08104 -0.139982,0.184187 l -1.127228,1.200903 q -0.125247,0.125247 -0.250495,0.125247 -0.103145,0 -0.191555,-0.05894 -0.08104,-0.05894 -0.184187,-0.14735 l -0.06631,-0.05894 q -0.14735,-0.125247 -0.331537,-0.257862 -0.17682,-0.132615 -0.38311,-0.23576 -0.20629,-0.110513 -0.434683,-0.17682 -0.228392,-0.07367 -0.464152,-0.07367 -0.243128,0 -0.456785,0.04421 -0.213658,0.03684 -0.375743,0.125247 -0.162085,0.08841 -0.257862,0.23576 -0.09578,0.139983 -0.09578,0.346273 0,0.20629 0.103145,0.361007 0.103145,0.14735 0.309435,0.279965 0.20629,0.125248 0.508358,0.243128 0.309435,0.110512 0.714647,0.243127 0.780955,0.257863 1.436663,0.545195 0.663075,0.279965 1.141962,0.670443 0.478888,0.38311 0.744118,0.920937 0.272597,0.537828 0.272597,1.304048 0,0.810425 -0.331537,1.4735 -0.331538,0.655707 -0.91357,1.11986 -0.574665,0.464152 -1.35562,0.722015 -0.780955,0.250495 -1.67979,0.250495 -0.847263,0 -1.665055,-0.302068 -0.817793,-0.302067 -1.525073,-0.810425 -0.2947,-0.213657 -0.50099,-0.419947 -0.198922,-0.20629 -0.316802,-0.331538 l -0.0221,-0.0221 q -0.0074,-0.01474 -0.01473,-0.01474 -0.0074,-0.0074 -0.01473,-0.01474 -0.0074,-0.01474 -0.01473,-0.01474 -0.0074,-0.0074 -0.01473,-0.01474 -0.169452,-0.184188 -0.169452,-0.2947 0,-0.125248 0.169452,-0.279965 l 1.274578,-1.215638 q 0.154717,-0.110512 0.250495,-0.110512 0.06631,0 0.139982,0.0442 0.07367,0.04421 0.17682,0.132615 z"
         id="path4762" />
      <path
         d="m 23.346783,68.594996 q 0,-0.14735 0.09578,-0.23576 0.103145,-0.08841 0.250495,-0.08841 h 7.934797 q 0.132615,0 0.23576,0.08104 0.103145,0.08104 0.11788,0.243128 v 1.834507 q 0,0.132615 -0.09578,0.257863 -0.08841,0.11788 -0.257863,0.11788 h -2.541787 v 8.060045 q 0,0.132615 -0.09578,0.243127 -0.09578,0.103145 -0.250495,0.103145 h -2.166045 q -0.125247,0 -0.23576,-0.09578 -0.110512,-0.103145 -0.110512,-0.250495 v -8.060045 h -2.53442 q -0.14735,0 -0.250495,-0.09578 -0.09578,-0.09578 -0.09578,-0.279965 z"
         id="path4764" />
      <path
         d="m 34.891606,68.558158 q 0.0074,-0.04421 0.0442,-0.09578 0.0442,-0.05157 0.103145,-0.09578 0.05894,-0.0442 0.125248,-0.06631 0.06631,-0.02947 0.125247,-0.02947 h 1.88608 q 0.125248,0 0.213658,0.08104 0.08841,0.07368 0.132615,0.132615 l 0.184187,0.419948 3.867937,9.975595 q 0.05894,0.14735 -0.0221,0.243127 -0.08104,0.08841 -0.279965,0.08841 h -2.114473 q -0.169452,0 -0.26523,-0.05894 -0.08841,-0.06631 -0.139982,-0.213657 -0.14735,-0.375743 -0.287333,-0.744118 -0.139982,-0.375742 -0.279965,-0.751485 h -3.912142 q -0.139982,0.375743 -0.287332,0.751485 -0.139983,0.368375 -0.279965,0.744118 -0.09578,0.272597 -0.375743,0.272597 h -2.173412 q -0.139983,0 -0.23576,-0.07367 -0.08841,-0.07368 -0.02947,-0.221025 z m 1.340885,3.15329 q -0.139982,0.375743 -0.287332,0.810425 -0.139983,0.434683 -0.279965,0.876733 -0.139983,0.44205 -0.287333,0.876732 -0.139982,0.427315 -0.279965,0.803058 h 2.261823 z"
         id="path4766" />
      <path
         d="m 43.65155,68.594996 q 0.01474,-0.132615 0.103145,-0.228393 0.08841,-0.09578 0.250495,-0.09578 h 2.549155 q 0.272597,0 0.35364,0.279965 l 2.00396,6.68969 2.018695,-6.68969 q 0.103145,-0.279965 0.375742,-0.279965 h 2.519685 q 0.132615,0 0.23576,0.09578 0.110513,0.08841 0.125248,0.228393 0.257862,2.59336 0.523092,5.149882 0.272598,2.549155 0.53046,5.142515 v 0.03684 q 0,0.287332 -0.32417,0.287332 h -2.085002 q -0.338905,0 -0.35364,-0.32417 l -0.640973,-5.695077 -1.657687,5.731915 q -0.01474,0.07367 -0.110513,0.17682 -0.08841,0.103145 -0.17682,0.103145 H 47.95417 q -0.08841,0 -0.191555,-0.09578 -0.09578,-0.103145 -0.103145,-0.184187 l -1.657688,-5.71718 -0.640972,5.680342 q -0.01474,0.32417 -0.361008,0.32417 H 42.9148 q -0.316803,0 -0.316803,-0.32417 z"
         id="path4768" />
      <path
         d="m 57.053015,68.609731 q 0,-0.154718 0.08104,-0.243128 0.08104,-0.09578 0.243127,-0.09578 h 4.707833 q 0.508357,0 0.957775,0.139982 0.449417,0.139983 0.82516,0.390478 0.375742,0.243127 0.67781,0.5894 0.302067,0.338905 0.508357,0.73675 0.213657,0.397845 0.32417,0.839895 0.110512,0.434682 0.110512,0.8841 0,0.663075 -0.243127,1.29668 -0.23576,0.633605 -0.67781,1.127227 -0.44205,0.493623 -1.06092,0.803058 -0.61887,0.302067 -1.370355,0.309435 h -2.232352 v 3.50693 q 0,0.316802 -0.338905,0.316802 h -2.188148 q -0.14735,0 -0.23576,-0.07367 -0.08841,-0.08104 -0.08841,-0.243127 z m 5.547728,3.226965 q 0,-0.221025 -0.08104,-0.44205 -0.07368,-0.221025 -0.221025,-0.390478 -0.14735,-0.17682 -0.361007,-0.287332 -0.20629,-0.110513 -0.47152,-0.110513 h -1.56191 v 2.460745 h 1.56191 q 0.26523,0 0.478887,-0.103145 0.213658,-0.110512 0.35364,-0.279965 0.14735,-0.169452 0.221025,-0.390477 0.08104,-0.221025 0.08104,-0.456785 z"
         id="path4770" />
      <path
         style="fill:#ffffff;stroke:none;stroke-width:1"
         d="m 68.259974,82.701503 a 2.1805064,2.1805064 0 0 0 -2.1815,2.18149 2.1805064,2.1805064 0 0 0 2.1815,2.17926 2.1805064,2.1805064 0 0 0 2.17925,-2.17926 2.1805064,2.1805064 0 0 0 -2.17925,-2.18149 z"
         id="path5466" />
      <path
         style="fill:#ffffff;stroke:none;stroke-width:1"
         d="m 72.62746,60.42001 a 2.1805064,2.1805064 0 0 0 -2.18147,2.1815 2.1805064,2.1805064 0 0 0 2.18147,2.17925 2.1805064,2.1805064 0 0 0 2.17927,-2.17925 2.1805064,2.1805064 0 0 0 -2.17927,-2.1815 z"
         id="path5468" />
      <path
         style="fill:#ffffff;stroke:none;stroke-width:1"
         d="m 63.89019,60.42001 a 2.1805064,2.1805064 0 0 0 -2.17922,2.1815 2.1805064,2.1805064 0 0 0 2.17922,2.17925 2.1805064,2.1805064 0 0 0 2.18151,-2.17925 2.1805064,2.1805064 0 0 0 -2.18151,-2.1815 z"
         id="path5470" />
      <path
         style="color:#000000;-inkscape-font-specification:COCOGOOSE;stroke-linecap:round;stroke-linejoin:round;-inkscape-stroke:none"
         d="m 80.476562,61.892578 a 0.70866001,0.70866001 0 0 0 -0.708984,0.708984 0.70866001,0.70866001 0 0 0 0.708984,0.708985 h 48.818358 c 2.74806,-3.4e-5 4.95899,2.210927 4.95899,4.958984 v 10.94336 c 0,2.748089 -2.2109,4.960897 -4.95899,4.960937 H 76.109375 a 0.70866001,0.70866001 0 0 0 -0.708984,0.708984 0.70866001,0.70866001 0 0 0 0.708984,0.708985 h 53.185545 c 3.51406,-5.1e-5 6.37695,-2.864849 6.37695,-6.378906 v -10.94336 c 0,-3.514039 -2.86291,-6.376996 -6.37695,-6.376953 z"
         id="path1639" />
      <path
         style="color:#000000;-inkscape-font-specification:COCOGOOSE;stroke-linecap:round;-inkscape-stroke:none"
         d="m 13.642578,61.892578 c -3.514034,-7.3e-5 -6.3789061,2.862919 -6.3789061,6.376953 v 10.94336 c 0,3.51406 2.8648461,6.376886 6.3789061,6.376953 l 46.765625,0.002 a 0.70866001,0.70866001 0 0 0 0.708984,-0.708985 0.70866001,0.70866001 0 0 0 -0.708984,-0.708984 H 13.642578 c -2.748094,-5.2e-5 -4.9609374,-2.212843 -4.9609374,-4.960937 v -10.94336 c 0,-2.748048 2.2128894,-4.960994 4.9609374,-4.960937 l 42.398438,0.002 A 0.70866001,0.70866001 0 0 0 56.75,62.601562 0.70866001,0.70866001 0 0 0 56.041016,61.892578 Z"
         id="path1643" />
    </g>
  </g>
</svg>
