<?xml version="1.0" encoding="UTF-8" standalone="no"?>
<svg
   width="40mm"
   height="40mm"
   viewBox="0 0 151.18111 151.18111"
   version="1.1"
   id="svg8"
   inkscape:version="1.1.1 (3bf5ae0d25, 2021-09-20)"
   sodipodi:docname="stamp.svg"
   xmlns:inkscape="http://www.inkscape.org/namespaces/inkscape"
   xmlns:sodipodi="http://sodipodi.sourceforge.net/DTD/sodipodi-0.dtd"
   xmlns="http://www.w3.org/2000/svg"
   xmlns:svg="http://www.w3.org/2000/svg"
   xmlns:rdf="http://www.w3.org/1999/02/22-rdf-syntax-ns#"
   xmlns:cc="http://creativecommons.org/ns#"
   xmlns:dc="http://purl.org/dc/elements/1.1/">
  <defs
     id="defs2">
    <inkscape:path-effect
       effect="fillet_chamfer"
       id="path-effect5152"
       is_visible="true"
       lpeversion="1"
       satellites_param="F,0,0,1,0,0,0,1 @ F,0,0,1,0,5.6692913,0,1 @ F,0,0,1,0,5.6692913,0,1 @ F,0,0,1,0,5.6692913,0,1"
       unit="mm"
       method="auto"
       mode="F"
       radius="1.5"
       chamfer_steps="1"
       flexible="false"
       use_knot_distance="true"
       apply_no_radius="true"
       apply_with_radius="true"
       only_selected="false"
       hide_knots="false" />
    <inkscape:path-effect
       effect="fillet_chamfer"
       id="path-effect5150"
       is_visible="true"
       lpeversion="1"
       satellites_param="F,0,0,1,0,0,0,1 @ F,0,0,1,0,5.6692913,0,1 @ F,0,0,1,0,5.6692913,0,1 @ F,0,0,1,0,5.6692913,0,1"
       unit="mm"
       method="auto"
       mode="F"
       radius="1.5"
       chamfer_steps="1"
       flexible="false"
       use_knot_distance="true"
       apply_no_radius="true"
       apply_with_radius="true"
       only_selected="false"
       hide_knots="false" />
  </defs>
  <sodipodi:namedview
     id="base"
     pagecolor="#cccccc"
     bordercolor="#666666"
     borderopacity="1.0"
     inkscape:pageopacity="0"
     inkscape:pageshadow="2"
     inkscape:zoom="3.959798"
     inkscape:cx="86.494312"
     inkscape:cy="111.36932"
     inkscape:document-units="px"
     inkscape:current-layer="text20158"
     inkscape:document-rotation="0"
     showgrid="false"
     inkscape:window-width="1718"
     inkscape:window-height="1408"
     inkscape:window-x="1713"
     inkscape:window-y="0"
     inkscape:window-maximized="0"
     inkscape:pagecheckerboard="true"
     units="mm"
     scale-x="1" />
  <metadata
     id="metadata5">
    <rdf:RDF>
      <cc:Work
         rdf:about="">
        <dc:format>image/svg+xml</dc:format>
        <dc:type
           rdf:resource="http://purl.org/dc/dcmitype/StillImage" />
      </cc:Work>
    </rdf:RDF>
  </metadata>
  <g
     inkscape:label="Layer 1"
     inkscape:groupmode="layer"
     id="layer1">
    <g
       aria-label="STAMP"
       id="text20158"
       style="font-size:14.735px;line-height:1.25;font-family:COCOGOOSE;-inkscape-font-specification:COCOGOOSE;fill:#ffffff;stroke-width:0.999998"
       inkscape:label="stamp">
      <path
         d="m 52.860429,76.235448 q 0.125248,0.103145 0.316803,0.279965 0.198922,0.169453 0.449417,0.338905 0.375743,0.250495 0.744118,0.390478 0.368375,0.139982 0.773587,0.139982 0.375743,0 0.626238,-0.08104 0.257862,-0.08841 0.405212,-0.228393 0.14735,-0.139982 0.20629,-0.32417 0.06631,-0.184187 0.06631,-0.390477 0,-0.228393 -0.17682,-0.405213 -0.169453,-0.184187 -0.419948,-0.32417 -0.250495,-0.139982 -0.523092,-0.23576 -0.272598,-0.103145 -0.47152,-0.169452 -0.8841,-0.309435 -1.547175,-0.663075 -0.663075,-0.361008 -1.105125,-0.79569 -0.44205,-0.44205 -0.663075,-0.965143 -0.221025,-0.53046 -0.221025,-1.1788 0,-0.685177 0.272597,-1.245107 0.279965,-0.55993 0.788323,-0.957775 0.515725,-0.397845 1.23774,-0.611503 0.722015,-0.221025 1.613482,-0.221025 0.670443,0 1.281945,0.154718 0.61887,0.14735 1.215638,0.478887 0.250495,0.14735 0.47152,0.309435 0.228392,0.154718 0.397845,0.302068 0.169452,0.14735 0.26523,0.279965 0.103145,0.132615 0.103145,0.228392 0,0.09578 -0.05157,0.17682 -0.0442,0.08104 -0.139982,0.184188 l -1.127228,1.200902 q -0.125247,0.125248 -0.250495,0.125248 -0.103145,0 -0.191555,-0.05894 -0.08104,-0.05894 -0.184187,-0.14735 l -0.06631,-0.05894 q -0.14735,-0.125248 -0.331537,-0.257863 -0.17682,-0.132615 -0.38311,-0.23576 -0.20629,-0.110512 -0.434683,-0.17682 -0.228392,-0.07368 -0.464152,-0.07368 -0.243128,0 -0.456785,0.04421 -0.213658,0.03684 -0.375743,0.125248 -0.162085,0.08841 -0.257862,0.23576 -0.09578,0.139982 -0.09578,0.346272 0,0.20629 0.103145,0.361008 0.103145,0.14735 0.309435,0.279965 0.20629,0.125247 0.508358,0.243127 0.309435,0.110513 0.714647,0.243128 0.780955,0.257862 1.436663,0.545195 0.663075,0.279965 1.141962,0.670442 0.478888,0.38311 0.744118,0.920938 0.272597,0.537827 0.272597,1.304047 0,0.810425 -0.331537,1.4735 -0.331538,0.655708 -0.91357,1.11986 -0.574665,0.464153 -1.35562,0.722015 -0.780955,0.250495 -1.67979,0.250495 -0.847263,0 -1.665055,-0.302067 -0.817793,-0.302068 -1.525073,-0.810425 -0.2947,-0.213658 -0.50099,-0.419948 -0.198922,-0.20629 -0.316802,-0.331537 l -0.0221,-0.0221 q -0.0074,-0.01474 -0.01474,-0.01474 -0.0074,-0.0074 -0.01474,-0.01474 -0.0074,-0.01474 -0.01473,-0.01474 -0.0074,-0.0074 -0.01474,-0.01474 -0.169452,-0.184187 -0.169452,-0.2947 0,-0.125247 0.169452,-0.279965 l 1.274578,-1.215637 q 0.154717,-0.110513 0.250495,-0.110513 0.06631,0 0.139982,0.04421 0.07368,0.0442 0.17682,0.132615 z"
         id="path5403" />
      <path
         d="m 60.552073,69.147913 q 0,-0.14735 0.09578,-0.23576 0.103145,-0.08841 0.250495,-0.08841 h 7.934797 q 0.132615,0 0.23576,0.08104 0.103145,0.08104 0.11788,0.243127 v 1.834508 q 0,0.132615 -0.09578,0.257862 -0.08841,0.11788 -0.257862,0.11788 h -2.541787 v 8.060045 q 0,0.132615 -0.09578,0.243128 -0.09578,0.103145 -0.250495,0.103145 h -2.166045 q -0.125247,0 -0.23576,-0.09578 -0.110512,-0.103145 -0.110512,-0.250495 v -8.060045 h -2.53442 q -0.14735,0 -0.250495,-0.09578 -0.09578,-0.09578 -0.09578,-0.279965 z"
         id="path5405" />
      <path
         d="m 72.096896,69.111076 q 0.0074,-0.0442 0.04421,-0.09578 0.0442,-0.05157 0.103145,-0.09578 0.05894,-0.04421 0.125247,-0.06631 0.06631,-0.02947 0.125248,-0.02947 h 1.88608 q 0.125247,0 0.213657,0.08104 0.08841,0.07367 0.132615,0.132615 l 0.184188,0.419947 3.867937,9.975595 q 0.05894,0.14735 -0.0221,0.243128 -0.08104,0.08841 -0.279965,0.08841 h -2.114473 q -0.169452,0 -0.26523,-0.05894 -0.08841,-0.06631 -0.139982,-0.213658 -0.14735,-0.375742 -0.287333,-0.744117 -0.139982,-0.375743 -0.279965,-0.751485 h -3.912142 q -0.139983,0.375742 -0.287333,0.751485 -0.139982,0.368375 -0.279965,0.744117 -0.09578,0.272598 -0.375742,0.272598 h -2.173412 q -0.139983,0 -0.23576,-0.07368 -0.08841,-0.07367 -0.02947,-0.221025 z m 1.340885,3.15329 q -0.139983,0.375742 -0.287333,0.810425 -0.139982,0.434682 -0.279965,0.876732 -0.139982,0.44205 -0.287332,0.876733 -0.139983,0.427315 -0.279965,0.803057 h 2.261822 z"
         id="path5407" />
      <path
         d="m 80.85684,69.147913 q 0.01474,-0.132615 0.103145,-0.228392 0.08841,-0.09578 0.250495,-0.09578 h 2.549155 q 0.272597,0 0.35364,0.279965 l 2.00396,6.68969 2.018695,-6.68969 q 0.103145,-0.279965 0.375742,-0.279965 h 2.519685 q 0.132615,0 0.23576,0.09578 0.110512,0.08841 0.125247,0.228392 0.257863,2.59336 0.523093,5.149883 0.272597,2.549155 0.53046,5.142515 v 0.03684 q 0,0.287333 -0.32417,0.287333 h -2.085002 q -0.338905,0 -0.35364,-0.32417 l -0.640973,-5.695078 -1.657687,5.731915 q -0.01474,0.07367 -0.110513,0.17682 -0.08841,0.103145 -0.17682,0.103145 H 85.15946 q -0.08841,0 -0.191555,-0.09578 -0.09578,-0.103145 -0.103145,-0.184188 l -1.657688,-5.71718 -0.640972,5.680343 q -0.01474,0.32417 -0.361008,0.32417 H 80.12009 q -0.316803,0 -0.316803,-0.32417 z"
         id="path5409" />
      <path
         d="m 94.258305,69.162648 q 0,-0.154717 0.08104,-0.243127 0.08104,-0.09578 0.243127,-0.09578 h 4.707832 q 0.508358,0 0.957776,0.139983 0.44942,0.139982 0.82516,0.390477 0.37574,0.243128 0.67781,0.5894 0.30207,0.338905 0.50836,0.73675 0.21366,0.397845 0.32417,0.839895 0.11051,0.434683 0.11051,0.8841 0,0.663075 -0.24313,1.29668 -0.23576,0.633605 -0.67781,1.127228 -0.44205,0.493622 -1.06092,0.803057 -0.61887,0.302068 -1.370353,0.309435 h -2.232353 v 3.50693 q 0,0.316803 -0.338905,0.316803 h -2.188147 q -0.14735,0 -0.23576,-0.07368 -0.08841,-0.08104 -0.08841,-0.243128 z m 5.547727,3.226965 q 0,-0.221025 -0.08104,-0.44205 -0.07368,-0.221025 -0.221025,-0.390477 -0.14735,-0.17682 -0.361008,-0.287333 -0.20629,-0.110512 -0.47152,-0.110512 h -1.56191 v 2.460745 h 1.56191 q 0.26523,0 0.478888,-0.103145 0.213657,-0.110513 0.35364,-0.279965 0.14735,-0.169453 0.221025,-0.390478 0.08104,-0.221025 0.08104,-0.456785 z"
         id="path5411" />
    </g>
  </g>
</svg>
