G04 #@! TF.GenerationSoftware,KiCad,Pcbnew,(6.0.2-0)*
G04 #@! TF.CreationDate,2022-08-08T09:45:33+12:00*
G04 #@! TF.ProjectId,stamp_attach,7374616d-705f-4617-9474-6163682e6b69,rev?*
G04 #@! TF.SameCoordinates,Original*
G04 #@! TF.FileFunction,Soldermask,Bot*
G04 #@! TF.FilePolarity,Negative*
%FSLAX46Y46*%
G04 Gerber Fmt 4.6, Leading zero omitted, Abs format (unit mm)*
G04 Created by KiCad (PCBNEW (6.0.2-0)) date 2022-08-08 09:45:33*
%MOMM*%
%LPD*%
G01*
G04 APERTURE LIST*
G04 Aperture macros list*
%AMFreePoly0*
4,1,32,0.280000,0.504858,0.355383,0.504398,0.493921,0.462967,0.615261,0.384317,0.709651,0.274773,0.769501,0.143140,0.790000,0.000000,0.789848,-0.012460,0.765857,-0.155057,0.702809,-0.285188,0.605772,-0.392394,0.482545,-0.468055,0.343037,-0.506089,0.280000,-0.504934,0.280000,-0.510000,0.000000,-0.510000,0.000000,-0.504934,-0.081539,-0.503439,-0.219561,-0.460318,-0.339932,-0.380193,
-0.432976,-0.269504,-0.491213,-0.137149,-0.509962,0.006231,-0.487715,0.149110,-0.426262,0.280002,-0.330541,0.388385,-0.208249,0.465545,-0.069215,0.505281,0.000000,0.504858,0.000000,0.510000,0.280000,0.510000,0.280000,0.504858,0.280000,0.504858,$1*%
%AMFreePoly1*
4,1,24,0.750000,-0.499999,0.500000,-0.500000,0.350416,-0.350416,0.319385,-0.384700,0.198574,-0.458877,0.061801,-0.496166,-0.079941,-0.493568,-0.215256,-0.451293,-0.333266,-0.372738,-0.424486,-0.264219,-0.481581,-0.134460,-0.499963,0.006109,-0.478152,0.146187,-0.417904,0.274511,-0.324060,0.380769,-0.204165,0.456417,-0.067858,0.495374,0.073905,0.494508,0.209726,0.453889,0.328688,0.376783,
0.350948,0.350948,0.500000,0.500000,0.750000,0.499999,0.750000,-0.499999,0.750000,-0.499999,$1*%
G04 Aperture macros list end*
%ADD10C,0.006000*%
%ADD11C,0.150000*%
%ADD12C,0.500000*%
%ADD13C,1.000000*%
%ADD14C,0.700000*%
%ADD15FreePoly0,90.000000*%
%ADD16FreePoly0,270.000000*%
%ADD17FreePoly1,225.000000*%
%ADD18FreePoly1,0.000000*%
%ADD19FreePoly1,135.000000*%
%ADD20FreePoly0,180.000000*%
%ADD21FreePoly0,0.000000*%
%ADD22FreePoly1,315.000000*%
%ADD23FreePoly1,90.000000*%
G04 APERTURE END LIST*
D10*
X154577295Y-139266614D02*
X154000001Y-139266614D01*
X154000001Y-139266614D02*
X154000001Y-138689320D01*
X154000001Y-138689320D02*
X154577295Y-138689320D01*
X154577295Y-138689320D02*
X154577295Y-139266614D01*
G36*
X154577295Y-139266614D02*
G01*
X154000001Y-139266614D01*
X154000001Y-138689320D01*
X154577295Y-138689320D01*
X154577295Y-139266614D01*
G37*
X154577295Y-139266614D02*
X154000001Y-139266614D01*
X154000001Y-138689320D01*
X154577295Y-138689320D01*
X154577295Y-139266614D01*
X154000000Y-143500000D02*
X153807595Y-143500000D01*
X153807595Y-143500000D02*
X153807595Y-144462105D01*
X153807595Y-144462105D02*
X154000000Y-144462105D01*
X154000000Y-144462105D02*
X154000000Y-144462104D01*
X154000000Y-144462104D02*
X154192406Y-144462104D01*
X154192406Y-144462104D02*
X154192406Y-144462105D01*
X154192406Y-144462105D02*
X154192405Y-144654510D01*
X154192405Y-144654510D02*
X153615111Y-144654510D01*
X153615111Y-144654510D02*
X153615111Y-143307516D01*
X153615111Y-143307516D02*
X154000000Y-143307516D01*
X154000000Y-143307516D02*
X154000000Y-143500000D01*
G36*
X154000000Y-143500000D02*
G01*
X153807595Y-143500000D01*
X153807595Y-144462105D01*
X154000000Y-144462105D01*
X154000000Y-144462104D01*
X154192406Y-144462104D01*
X154192406Y-144462105D01*
X154192405Y-144654510D01*
X153615111Y-144654510D01*
X153615111Y-143307516D01*
X154000000Y-143307516D01*
X154000000Y-143500000D01*
G37*
X154000000Y-143500000D02*
X153807595Y-143500000D01*
X153807595Y-144462105D01*
X154000000Y-144462105D01*
X154000000Y-144462104D01*
X154192406Y-144462104D01*
X154192406Y-144462105D01*
X154192405Y-144654510D01*
X153615111Y-144654510D01*
X153615111Y-143307516D01*
X154000000Y-143307516D01*
X154000000Y-143500000D01*
X148804510Y-144462105D02*
X148612105Y-144462105D01*
X148612105Y-144462105D02*
X148612105Y-144269700D01*
X148612105Y-144269700D02*
X148804510Y-144269700D01*
X148804510Y-144269700D02*
X148804510Y-144462105D01*
G36*
X148804510Y-144462105D02*
G01*
X148612105Y-144462105D01*
X148612105Y-144269700D01*
X148804510Y-144269700D01*
X148804510Y-144462105D01*
G37*
X148804510Y-144462105D02*
X148612105Y-144462105D01*
X148612105Y-144269700D01*
X148804510Y-144269700D01*
X148804510Y-144462105D01*
X154577295Y-144269699D02*
X154384811Y-144269699D01*
X154384811Y-144269699D02*
X154384811Y-144269700D01*
X154384811Y-144269700D02*
X154192406Y-144269700D01*
X154192406Y-144269700D02*
X154192406Y-144269699D01*
X154192406Y-144269699D02*
X154000001Y-144269699D01*
X154000001Y-144269699D02*
X154000001Y-143692405D01*
X154000001Y-143692405D02*
X154192406Y-143692405D01*
X154192406Y-143692405D02*
X154192406Y-143692406D01*
X154192406Y-143692406D02*
X154384811Y-143692406D01*
X154384811Y-143692406D02*
X154384811Y-143692405D01*
X154384811Y-143692405D02*
X154577295Y-143692405D01*
X154577295Y-143692405D02*
X154577295Y-144269699D01*
G36*
X154192406Y-143692406D02*
G01*
X154384811Y-143692406D01*
X154384811Y-143692405D01*
X154577295Y-143692405D01*
X154577295Y-144269699D01*
X154384811Y-144269699D01*
X154384811Y-144269700D01*
X154192406Y-144269700D01*
X154192406Y-144269699D01*
X154000001Y-144269699D01*
X154000001Y-143692405D01*
X154192406Y-143692405D01*
X154192406Y-143692406D01*
G37*
X154192406Y-143692406D02*
X154384811Y-143692406D01*
X154384811Y-143692405D01*
X154577295Y-143692405D01*
X154577295Y-144269699D01*
X154384811Y-144269699D01*
X154384811Y-144269700D01*
X154192406Y-144269700D01*
X154192406Y-144269699D01*
X154000001Y-144269699D01*
X154000001Y-143692405D01*
X154192406Y-143692405D01*
X154192406Y-143692406D01*
X151690902Y-144269700D02*
X151883307Y-144269700D01*
X151883307Y-144269700D02*
X151883307Y-144269699D01*
X151883307Y-144269699D02*
X152075712Y-144269699D01*
X152075712Y-144269699D02*
X152075712Y-144269700D01*
X152075712Y-144269700D02*
X152268197Y-144269700D01*
X152268197Y-144269700D02*
X152268197Y-144462104D01*
X152268197Y-144462104D02*
X152268197Y-144269699D01*
X152268197Y-144269699D02*
X152460602Y-144269699D01*
X152460602Y-144269699D02*
X152460602Y-143884811D01*
X152460602Y-143884811D02*
X152653006Y-143884811D01*
X152653006Y-143884811D02*
X152653006Y-144462105D01*
X152653006Y-144462105D02*
X152653007Y-144462105D01*
X152653007Y-144462105D02*
X152653007Y-144269700D01*
X152653007Y-144269700D02*
X153037896Y-144269700D01*
X153037896Y-144269700D02*
X153037896Y-144654510D01*
X153037896Y-144654510D02*
X152268197Y-144654510D01*
X152268197Y-144654510D02*
X152268197Y-144462105D01*
X152268197Y-144462105D02*
X152075712Y-144462105D01*
X152075712Y-144462105D02*
X152075712Y-144654510D01*
X152075712Y-144654510D02*
X151306013Y-144654510D01*
X151306013Y-144654510D02*
X151306013Y-144462104D01*
X151306013Y-144462104D02*
X151498497Y-144462104D01*
X151498497Y-144462104D02*
X151498497Y-144077215D01*
X151498497Y-144077215D02*
X151306013Y-144077215D01*
X151306013Y-144077215D02*
X151306013Y-144462104D01*
X151306013Y-144462104D02*
X151113608Y-144462104D01*
X151113608Y-144462104D02*
X151113608Y-143692405D01*
X151113608Y-143692405D02*
X151306013Y-143692405D01*
X151306013Y-143692405D02*
X151306013Y-143884810D01*
X151306013Y-143884810D02*
X151498497Y-143884810D01*
X151498497Y-143884810D02*
X151498497Y-143692405D01*
X151498497Y-143692405D02*
X151690902Y-143692405D01*
X151690902Y-143692405D02*
X151690902Y-144269700D01*
G36*
X151306013Y-143884810D02*
G01*
X151498497Y-143884810D01*
X151498497Y-143692405D01*
X151690902Y-143692405D01*
X151690902Y-144269700D01*
X151883307Y-144269700D01*
X151883307Y-144269699D01*
X152075712Y-144269699D01*
X152075712Y-144269700D01*
X152268197Y-144269700D01*
X152268197Y-144269699D01*
X152460602Y-144269699D01*
X152460602Y-143884811D01*
X152653006Y-143884811D01*
X152653006Y-144462105D01*
X152653007Y-144462105D01*
X152653007Y-144269700D01*
X153037896Y-144269700D01*
X153037896Y-144654510D01*
X152268197Y-144654510D01*
X152268197Y-144462105D01*
X152075712Y-144462105D01*
X152075712Y-144654510D01*
X151306013Y-144654510D01*
X151306013Y-144462104D01*
X151498497Y-144462104D01*
X151498497Y-144077215D01*
X151306013Y-144077215D01*
X151306013Y-144462104D01*
X151113608Y-144462104D01*
X151113608Y-143692405D01*
X151306013Y-143692405D01*
X151306013Y-143884810D01*
G37*
X151306013Y-143884810D02*
X151498497Y-143884810D01*
X151498497Y-143692405D01*
X151690902Y-143692405D01*
X151690902Y-144269700D01*
X151883307Y-144269700D01*
X151883307Y-144269699D01*
X152075712Y-144269699D01*
X152075712Y-144269700D01*
X152268197Y-144269700D01*
X152268197Y-144269699D01*
X152460602Y-144269699D01*
X152460602Y-143884811D01*
X152653006Y-143884811D01*
X152653006Y-144462105D01*
X152653007Y-144462105D01*
X152653007Y-144269700D01*
X153037896Y-144269700D01*
X153037896Y-144654510D01*
X152268197Y-144654510D01*
X152268197Y-144462105D01*
X152075712Y-144462105D01*
X152075712Y-144654510D01*
X151306013Y-144654510D01*
X151306013Y-144462104D01*
X151498497Y-144462104D01*
X151498497Y-144077215D01*
X151306013Y-144077215D01*
X151306013Y-144462104D01*
X151113608Y-144462104D01*
X151113608Y-143692405D01*
X151306013Y-143692405D01*
X151306013Y-143884810D01*
X154000000Y-141190902D02*
X153615111Y-141190902D01*
X153615111Y-141190902D02*
X153615111Y-141383307D01*
X153615111Y-141383307D02*
X154000000Y-141383307D01*
X154000000Y-141383307D02*
X154000000Y-141575712D01*
X154000000Y-141575712D02*
X153615111Y-141575712D01*
X153615111Y-141575712D02*
X153422706Y-141575712D01*
X153422706Y-141575712D02*
X153422706Y-141190902D01*
X153422706Y-141190902D02*
X153615111Y-141190902D01*
X153615111Y-141190902D02*
X153615111Y-140998418D01*
X153615111Y-140998418D02*
X154000000Y-140998418D01*
X154000000Y-140998418D02*
X154000000Y-141190902D01*
G36*
X154000000Y-141190902D02*
G01*
X153615111Y-141190902D01*
X153615111Y-141383307D01*
X154000000Y-141383307D01*
X154000000Y-141575712D01*
X153422706Y-141575712D01*
X153422706Y-141190902D01*
X153615111Y-141190902D01*
X153615111Y-140998418D01*
X154000000Y-140998418D01*
X154000000Y-141190902D01*
G37*
X154000000Y-141190902D02*
X153615111Y-141190902D01*
X153615111Y-141383307D01*
X154000000Y-141383307D01*
X154000000Y-141575712D01*
X153422706Y-141575712D01*
X153422706Y-141190902D01*
X153615111Y-141190902D01*
X153615111Y-140998418D01*
X154000000Y-140998418D01*
X154000000Y-141190902D01*
X149381804Y-141768117D02*
X149189399Y-141768117D01*
X149189399Y-141768117D02*
X149189399Y-141383307D01*
X149189399Y-141383307D02*
X149574209Y-141383307D01*
X149574209Y-141383307D02*
X149574209Y-141768117D01*
X149574209Y-141768117D02*
X149766614Y-141768117D01*
X149766614Y-141768117D02*
X149766614Y-140998418D01*
X149766614Y-140998418D02*
X149959099Y-140998418D01*
X149959099Y-140998418D02*
X149959099Y-141190902D01*
X149959099Y-141190902D02*
X150151504Y-141190902D01*
X150151504Y-141190902D02*
X150151504Y-141575713D01*
X150151504Y-141575713D02*
X150151504Y-141768117D01*
X150151504Y-141768117D02*
X149766614Y-141768117D01*
X149766614Y-141768117D02*
X149766614Y-141960601D01*
X149766614Y-141960601D02*
X149574209Y-141960601D01*
X149574209Y-141960601D02*
X149574209Y-142153006D01*
X149574209Y-142153006D02*
X149766614Y-142153006D01*
X149766614Y-142153006D02*
X149766614Y-142345411D01*
X149766614Y-142345411D02*
X149574209Y-142345411D01*
X149574209Y-142345411D02*
X149574209Y-142153007D01*
X149574209Y-142153007D02*
X149381804Y-142153007D01*
X149381804Y-142153007D02*
X149381804Y-141768117D01*
G36*
X149959099Y-141190902D02*
G01*
X150151504Y-141190902D01*
X150151504Y-141768117D01*
X149766614Y-141768117D01*
X149766614Y-141960601D01*
X149574209Y-141960601D01*
X149574209Y-142153006D01*
X149766614Y-142153006D01*
X149766614Y-142345411D01*
X149574209Y-142345411D01*
X149574209Y-142153007D01*
X149381804Y-142153007D01*
X149381804Y-141768117D01*
X149189399Y-141768117D01*
X149189399Y-141383307D01*
X149574209Y-141383307D01*
X149574209Y-141768117D01*
X149766614Y-141768117D01*
X149766614Y-140998418D01*
X149959099Y-140998418D01*
X149959099Y-141190902D01*
G37*
X149959099Y-141190902D02*
X150151504Y-141190902D01*
X150151504Y-141768117D01*
X149766614Y-141768117D01*
X149766614Y-141960601D01*
X149574209Y-141960601D01*
X149574209Y-142153006D01*
X149766614Y-142153006D01*
X149766614Y-142345411D01*
X149574209Y-142345411D01*
X149574209Y-142153007D01*
X149381804Y-142153007D01*
X149381804Y-141768117D01*
X149189399Y-141768117D01*
X149189399Y-141383307D01*
X149574209Y-141383307D01*
X149574209Y-141768117D01*
X149766614Y-141768117D01*
X149766614Y-140998418D01*
X149959099Y-140998418D01*
X149959099Y-141190902D01*
X152268197Y-138496915D02*
X152075712Y-138496915D01*
X152075712Y-138496915D02*
X152075712Y-138304510D01*
X152075712Y-138304510D02*
X152268197Y-138304510D01*
X152268197Y-138304510D02*
X152268197Y-138496915D01*
G36*
X152268197Y-138496915D02*
G01*
X152075712Y-138496915D01*
X152075712Y-138304510D01*
X152268197Y-138304510D01*
X152268197Y-138496915D01*
G37*
X152268197Y-138496915D02*
X152075712Y-138496915D01*
X152075712Y-138304510D01*
X152268197Y-138304510D01*
X152268197Y-138496915D01*
X148612105Y-139651504D02*
X148612105Y-139459019D01*
X148612105Y-139459019D02*
X148804510Y-139459019D01*
X148804510Y-139459019D02*
X149189399Y-139459019D01*
X149189399Y-139459019D02*
X149766614Y-139459019D01*
X149766614Y-139459019D02*
X149766614Y-138496915D01*
X149766614Y-138496915D02*
X149189399Y-138496915D01*
X149189399Y-138496915D02*
X149189399Y-138304510D01*
X149189399Y-138304510D02*
X149189399Y-138496915D01*
X149189399Y-138496915D02*
X148804510Y-138496915D01*
X148804510Y-138496915D02*
X148804510Y-139459019D01*
X148804510Y-139459019D02*
X148612105Y-139459019D01*
X148612105Y-139459019D02*
X148612105Y-138304510D01*
X148612105Y-138304510D02*
X149189399Y-138304510D01*
X149189399Y-138304510D02*
X149959099Y-138304510D01*
X149959099Y-138304510D02*
X149959099Y-139651504D01*
X149959099Y-139651504D02*
X149189399Y-139651504D01*
X149189399Y-139651504D02*
X149189399Y-139459019D01*
X149189399Y-139459019D02*
X149189399Y-139651504D01*
X149189399Y-139651504D02*
X148612105Y-139651504D01*
G36*
X149959099Y-138304510D02*
G01*
X149959099Y-139651504D01*
X148612105Y-139651504D01*
X148612105Y-139459019D01*
X148804510Y-139459019D01*
X149766614Y-139459019D01*
X149766614Y-138496915D01*
X148804510Y-138496915D01*
X148804510Y-139459019D01*
X148612105Y-139459019D01*
X148612105Y-138304510D01*
X149959099Y-138304510D01*
G37*
X149959099Y-138304510D02*
X149959099Y-139651504D01*
X148612105Y-139651504D01*
X148612105Y-139459019D01*
X148804510Y-139459019D01*
X149766614Y-139459019D01*
X149766614Y-138496915D01*
X148804510Y-138496915D01*
X148804510Y-139459019D01*
X148612105Y-139459019D01*
X148612105Y-138304510D01*
X149959099Y-138304510D01*
X153230301Y-139266614D02*
X153037896Y-139266614D01*
X153037896Y-139266614D02*
X153037896Y-139074209D01*
X153037896Y-139074209D02*
X153230301Y-139074209D01*
X153230301Y-139074209D02*
X153230301Y-139266614D01*
G36*
X153230301Y-139266614D02*
G01*
X153037896Y-139266614D01*
X153037896Y-139074209D01*
X153230301Y-139074209D01*
X153230301Y-139266614D01*
G37*
X153230301Y-139266614D02*
X153037896Y-139266614D01*
X153037896Y-139074209D01*
X153230301Y-139074209D01*
X153230301Y-139266614D01*
X152845412Y-140421203D02*
X152653007Y-140421203D01*
X152653007Y-140421203D02*
X152653007Y-140228719D01*
X152653007Y-140228719D02*
X152845412Y-140228719D01*
X152845412Y-140228719D02*
X152845412Y-140421203D01*
G36*
X152845412Y-140421203D02*
G01*
X152653007Y-140421203D01*
X152653007Y-140228719D01*
X152845412Y-140228719D01*
X152845412Y-140421203D01*
G37*
X152845412Y-140421203D02*
X152653007Y-140421203D01*
X152653007Y-140228719D01*
X152845412Y-140228719D01*
X152845412Y-140421203D01*
X152653006Y-140228719D02*
X152460602Y-140228719D01*
X152460602Y-140228719D02*
X152460602Y-139266614D01*
X152460602Y-139266614D02*
X152653006Y-139266614D01*
X152653006Y-139266614D02*
X152653006Y-140228719D01*
G36*
X152653006Y-140228719D02*
G01*
X152460602Y-140228719D01*
X152460602Y-139266614D01*
X152653006Y-139266614D01*
X152653006Y-140228719D01*
G37*
X152653006Y-140228719D02*
X152460602Y-140228719D01*
X152460602Y-139266614D01*
X152653006Y-139266614D01*
X152653006Y-140228719D01*
X150343909Y-140036314D02*
X150536314Y-140036314D01*
X150536314Y-140036314D02*
X150536314Y-140421203D01*
X150536314Y-140421203D02*
X150343909Y-140421203D01*
X150343909Y-140421203D02*
X150343909Y-140036314D01*
X150343909Y-140036314D02*
X150151504Y-140036314D01*
X150151504Y-140036314D02*
X150151504Y-139843909D01*
X150151504Y-139843909D02*
X150343909Y-139843909D01*
X150343909Y-139843909D02*
X150343909Y-140036314D01*
G36*
X150343909Y-140036314D02*
G01*
X150536314Y-140036314D01*
X150536314Y-140421203D01*
X150343909Y-140421203D01*
X150343909Y-140036314D01*
X150151504Y-140036314D01*
X150151504Y-139843909D01*
X150343909Y-139843909D01*
X150343909Y-140036314D01*
G37*
X150343909Y-140036314D02*
X150536314Y-140036314D01*
X150536314Y-140421203D01*
X150343909Y-140421203D01*
X150343909Y-140036314D01*
X150151504Y-140036314D01*
X150151504Y-139843909D01*
X150343909Y-139843909D01*
X150343909Y-140036314D01*
X152845412Y-139074209D02*
X152653007Y-139074209D01*
X152653007Y-139074209D02*
X152653007Y-138881804D01*
X152653007Y-138881804D02*
X152845412Y-138881804D01*
X152845412Y-138881804D02*
X152845412Y-139074209D01*
G36*
X152845412Y-139074209D02*
G01*
X152653007Y-139074209D01*
X152653007Y-138881804D01*
X152845412Y-138881804D01*
X152845412Y-139074209D01*
G37*
X152845412Y-139074209D02*
X152653007Y-139074209D01*
X152653007Y-138881804D01*
X152845412Y-138881804D01*
X152845412Y-139074209D01*
X151113608Y-140613608D02*
X150921203Y-140613608D01*
X150921203Y-140613608D02*
X150921203Y-140421203D01*
X150921203Y-140421203D02*
X151113608Y-140421203D01*
X151113608Y-140421203D02*
X151113608Y-140613608D01*
G36*
X151113608Y-140613608D02*
G01*
X150921203Y-140613608D01*
X150921203Y-140421203D01*
X151113608Y-140421203D01*
X151113608Y-140613608D01*
G37*
X151113608Y-140613608D02*
X150921203Y-140613608D01*
X150921203Y-140421203D01*
X151113608Y-140421203D01*
X151113608Y-140613608D01*
X151113608Y-142345411D02*
X150921203Y-142345411D01*
X150921203Y-142345411D02*
X150921203Y-142153007D01*
X150921203Y-142153007D02*
X151113608Y-142153007D01*
X151113608Y-142153007D02*
X151113608Y-142345411D01*
G36*
X151113608Y-142345411D02*
G01*
X150921203Y-142345411D01*
X150921203Y-142153007D01*
X151113608Y-142153007D01*
X151113608Y-142345411D01*
G37*
X151113608Y-142345411D02*
X150921203Y-142345411D01*
X150921203Y-142153007D01*
X151113608Y-142153007D01*
X151113608Y-142345411D01*
X153037896Y-143115111D02*
X153230301Y-143115111D01*
X153230301Y-143115111D02*
X153230301Y-142922706D01*
X153230301Y-142922706D02*
X153422706Y-142922706D01*
X153422706Y-142922706D02*
X153422706Y-143692405D01*
X153422706Y-143692405D02*
X153230301Y-143692405D01*
X153230301Y-143692405D02*
X153230301Y-143500000D01*
X153230301Y-143500000D02*
X152653007Y-143500000D01*
X152653007Y-143500000D02*
X152653007Y-143307516D01*
X152653007Y-143307516D02*
X152845412Y-143307516D01*
X152845412Y-143307516D02*
X153037896Y-143307516D01*
X153037896Y-143307516D02*
X153037896Y-143115111D01*
X153037896Y-143115111D02*
X152845412Y-143115111D01*
X152845412Y-143115111D02*
X152845412Y-143307516D01*
X152845412Y-143307516D02*
X152653007Y-143307516D01*
X152653007Y-143307516D02*
X152653007Y-142922706D01*
X152653007Y-142922706D02*
X153037896Y-142922706D01*
X153037896Y-142922706D02*
X153037896Y-143115111D01*
G36*
X153037896Y-142922706D02*
G01*
X153037896Y-143115111D01*
X153230301Y-143115111D01*
X153230301Y-142922706D01*
X153422706Y-142922706D01*
X153422706Y-143692405D01*
X153230301Y-143692405D01*
X153230301Y-143500000D01*
X152653007Y-143500000D01*
X152653007Y-143307516D01*
X152845412Y-143307516D01*
X153037896Y-143307516D01*
X153037896Y-143115111D01*
X152845412Y-143115111D01*
X152845412Y-143307516D01*
X152653007Y-143307516D01*
X152653007Y-142922706D01*
X153037896Y-142922706D01*
G37*
X153037896Y-142922706D02*
X153037896Y-143115111D01*
X153230301Y-143115111D01*
X153230301Y-142922706D01*
X153422706Y-142922706D01*
X153422706Y-143692405D01*
X153230301Y-143692405D01*
X153230301Y-143500000D01*
X152653007Y-143500000D01*
X152653007Y-143307516D01*
X152845412Y-143307516D01*
X153037896Y-143307516D01*
X153037896Y-143115111D01*
X152845412Y-143115111D01*
X152845412Y-143307516D01*
X152653007Y-143307516D01*
X152653007Y-142922706D01*
X153037896Y-142922706D01*
X151306013Y-142153007D02*
X151113608Y-142153007D01*
X151113608Y-142153007D02*
X151113608Y-141960602D01*
X151113608Y-141960602D02*
X151306013Y-141960602D01*
X151306013Y-141960602D02*
X151306013Y-142153007D01*
G36*
X151306013Y-142153007D02*
G01*
X151113608Y-142153007D01*
X151113608Y-141960602D01*
X151306013Y-141960602D01*
X151306013Y-142153007D01*
G37*
X151306013Y-142153007D02*
X151113608Y-142153007D01*
X151113608Y-141960602D01*
X151306013Y-141960602D01*
X151306013Y-142153007D01*
X153422706Y-138689320D02*
X153230301Y-138689320D01*
X153230301Y-138689320D02*
X153230301Y-138496915D01*
X153230301Y-138496915D02*
X153037896Y-138496915D01*
X153037896Y-138496915D02*
X153037896Y-138304510D01*
X153037896Y-138304510D02*
X153422706Y-138304510D01*
X153422706Y-138304510D02*
X153422706Y-138689320D01*
G36*
X153422706Y-138689320D02*
G01*
X153230301Y-138689320D01*
X153230301Y-138496915D01*
X153037896Y-138496915D01*
X153037896Y-138304510D01*
X153422706Y-138304510D01*
X153422706Y-138689320D01*
G37*
X153422706Y-138689320D02*
X153230301Y-138689320D01*
X153230301Y-138496915D01*
X153037896Y-138496915D01*
X153037896Y-138304510D01*
X153422706Y-138304510D01*
X153422706Y-138689320D01*
X151883307Y-139651504D02*
X151690902Y-139651504D01*
X151690902Y-139651504D02*
X151690902Y-139843909D01*
X151690902Y-139843909D02*
X151883307Y-139843909D01*
X151883307Y-139843909D02*
X151883307Y-140036314D01*
X151883307Y-140036314D02*
X151690902Y-140036314D01*
X151690902Y-140036314D02*
X151498497Y-140036314D01*
X151498497Y-140036314D02*
X151498497Y-140228719D01*
X151498497Y-140228719D02*
X151113608Y-140228719D01*
X151113608Y-140228719D02*
X151113608Y-139843909D01*
X151113608Y-139843909D02*
X151498497Y-139843909D01*
X151498497Y-139843909D02*
X151498497Y-139651504D01*
X151498497Y-139651504D02*
X151690902Y-139651504D01*
X151690902Y-139651504D02*
X151690902Y-139459019D01*
X151690902Y-139459019D02*
X151883307Y-139459019D01*
X151883307Y-139459019D02*
X151883307Y-139651504D01*
G36*
X151883307Y-139651504D02*
G01*
X151690902Y-139651504D01*
X151690902Y-139843909D01*
X151883307Y-139843909D01*
X151883307Y-140036314D01*
X151498497Y-140036314D01*
X151498497Y-140228719D01*
X151113608Y-140228719D01*
X151113608Y-139843909D01*
X151498497Y-139843909D01*
X151498497Y-139651504D01*
X151690902Y-139651504D01*
X151690902Y-139459019D01*
X151883307Y-139459019D01*
X151883307Y-139651504D01*
G37*
X151883307Y-139651504D02*
X151690902Y-139651504D01*
X151690902Y-139843909D01*
X151883307Y-139843909D01*
X151883307Y-140036314D01*
X151498497Y-140036314D01*
X151498497Y-140228719D01*
X151113608Y-140228719D01*
X151113608Y-139843909D01*
X151498497Y-139843909D01*
X151498497Y-139651504D01*
X151690902Y-139651504D01*
X151690902Y-139459019D01*
X151883307Y-139459019D01*
X151883307Y-139651504D01*
X151306013Y-139074209D02*
X151113608Y-139074209D01*
X151113608Y-139074209D02*
X151113608Y-138881804D01*
X151113608Y-138881804D02*
X151306013Y-138881804D01*
X151306013Y-138881804D02*
X151306013Y-139074209D01*
G36*
X151306013Y-139074209D02*
G01*
X151113608Y-139074209D01*
X151113608Y-138881804D01*
X151306013Y-138881804D01*
X151306013Y-139074209D01*
G37*
X151306013Y-139074209D02*
X151113608Y-139074209D01*
X151113608Y-138881804D01*
X151306013Y-138881804D01*
X151306013Y-139074209D01*
X149959099Y-143500000D02*
X149766614Y-143500000D01*
X149766614Y-143500000D02*
X149766614Y-143307516D01*
X149766614Y-143307516D02*
X149959099Y-143307516D01*
X149959099Y-143307516D02*
X149959099Y-143500000D01*
G36*
X149959099Y-143500000D02*
G01*
X149766614Y-143500000D01*
X149766614Y-143307516D01*
X149959099Y-143307516D01*
X149959099Y-143500000D01*
G37*
X149959099Y-143500000D02*
X149766614Y-143500000D01*
X149766614Y-143307516D01*
X149959099Y-143307516D01*
X149959099Y-143500000D01*
X151306013Y-143500000D02*
X151113608Y-143500000D01*
X151113608Y-143500000D02*
X151113608Y-143115111D01*
X151113608Y-143115111D02*
X151306013Y-143115111D01*
X151306013Y-143115111D02*
X151306013Y-143500000D01*
G36*
X151306013Y-143500000D02*
G01*
X151113608Y-143500000D01*
X151113608Y-143115111D01*
X151306013Y-143115111D01*
X151306013Y-143500000D01*
G37*
X151306013Y-143500000D02*
X151113608Y-143500000D01*
X151113608Y-143115111D01*
X151306013Y-143115111D01*
X151306013Y-143500000D01*
X153037896Y-142153007D02*
X152845412Y-142153007D01*
X152845412Y-142153007D02*
X152845412Y-141960602D01*
X152845412Y-141960602D02*
X153037896Y-141960602D01*
X153037896Y-141960602D02*
X153037896Y-142153007D01*
G36*
X153037896Y-142153007D02*
G01*
X152845412Y-142153007D01*
X152845412Y-141960602D01*
X153037896Y-141960602D01*
X153037896Y-142153007D01*
G37*
X153037896Y-142153007D02*
X152845412Y-142153007D01*
X152845412Y-141960602D01*
X153037896Y-141960602D01*
X153037896Y-142153007D01*
X152268197Y-139651504D02*
X152075712Y-139651504D01*
X152075712Y-139651504D02*
X152075712Y-139459019D01*
X152075712Y-139459019D02*
X152268197Y-139459019D01*
X152268197Y-139459019D02*
X152268197Y-139651504D01*
G36*
X152268197Y-139651504D02*
G01*
X152075712Y-139651504D01*
X152075712Y-139459019D01*
X152268197Y-139459019D01*
X152268197Y-139651504D01*
G37*
X152268197Y-139651504D02*
X152075712Y-139651504D01*
X152075712Y-139459019D01*
X152268197Y-139459019D01*
X152268197Y-139651504D01*
X151690902Y-138881804D02*
X151498497Y-138881804D01*
X151498497Y-138881804D02*
X151498497Y-138689320D01*
X151498497Y-138689320D02*
X151690902Y-138689320D01*
X151690902Y-138689320D02*
X151690902Y-138881804D01*
G36*
X151690902Y-138881804D02*
G01*
X151498497Y-138881804D01*
X151498497Y-138689320D01*
X151690902Y-138689320D01*
X151690902Y-138881804D01*
G37*
X151690902Y-138881804D02*
X151498497Y-138881804D01*
X151498497Y-138689320D01*
X151690902Y-138689320D01*
X151690902Y-138881804D01*
X150151504Y-141768117D02*
X150151504Y-141575713D01*
X150151504Y-141575713D02*
X150343909Y-141575713D01*
X150343909Y-141575713D02*
X150343909Y-141575712D01*
X150343909Y-141575712D02*
X150536314Y-141575712D01*
X150536314Y-141575712D02*
X150536314Y-141383307D01*
X150536314Y-141383307D02*
X150728798Y-141383307D01*
X150728798Y-141383307D02*
X150728798Y-140998418D01*
X150728798Y-140998418D02*
X150536314Y-140998418D01*
X150536314Y-140998418D02*
X150536314Y-141383307D01*
X150536314Y-141383307D02*
X150343909Y-141383307D01*
X150343909Y-141383307D02*
X150343909Y-140998418D01*
X150343909Y-140998418D02*
X150151504Y-140998418D01*
X150151504Y-140998418D02*
X150151504Y-140806013D01*
X150151504Y-140806013D02*
X150151504Y-140613608D01*
X150151504Y-140613608D02*
X150343909Y-140613608D01*
X150343909Y-140613608D02*
X150536314Y-140613608D01*
X150536314Y-140613608D02*
X150536314Y-140806013D01*
X150536314Y-140806013D02*
X150728798Y-140806013D01*
X150728798Y-140806013D02*
X150728798Y-140613608D01*
X150728798Y-140613608D02*
X150921203Y-140613608D01*
X150921203Y-140613608D02*
X150921203Y-141190902D01*
X150921203Y-141190902D02*
X151113608Y-141190902D01*
X151113608Y-141190902D02*
X151113608Y-141383307D01*
X151113608Y-141383307D02*
X150921203Y-141383307D01*
X150921203Y-141383307D02*
X150921203Y-141575712D01*
X150921203Y-141575712D02*
X151113608Y-141575712D01*
X151113608Y-141575712D02*
X151113608Y-141960602D01*
X151113608Y-141960602D02*
X150921203Y-141960602D01*
X150921203Y-141960602D02*
X150921203Y-142153006D01*
X150921203Y-142153006D02*
X150728798Y-142153006D01*
X150728798Y-142153006D02*
X150728798Y-141960602D01*
X150728798Y-141960602D02*
X150536314Y-141960602D01*
X150536314Y-141960602D02*
X150536314Y-142153007D01*
X150536314Y-142153007D02*
X150151504Y-142153007D01*
X150151504Y-142153007D02*
X150151504Y-141960602D01*
X150151504Y-141960602D02*
X150343909Y-141960602D01*
X150343909Y-141960602D02*
X150536314Y-141960602D01*
X150536314Y-141960602D02*
X150536314Y-141960601D01*
X150536314Y-141960601D02*
X150728798Y-141960601D01*
X150728798Y-141960601D02*
X150921203Y-141960601D01*
X150921203Y-141960601D02*
X150921203Y-141768117D01*
X150921203Y-141768117D02*
X150728798Y-141768117D01*
X150728798Y-141768117D02*
X150728798Y-141960601D01*
X150728798Y-141960601D02*
X150536314Y-141960601D01*
X150536314Y-141960601D02*
X150536314Y-141768117D01*
X150536314Y-141768117D02*
X150343909Y-141768117D01*
X150343909Y-141768117D02*
X150343909Y-141960602D01*
X150343909Y-141960602D02*
X150151504Y-141960602D01*
X150151504Y-141960602D02*
X150151504Y-141768117D01*
G36*
X150343909Y-141575713D02*
G01*
X150343909Y-141575712D01*
X150536314Y-141575712D01*
X150536314Y-141383307D01*
X150728798Y-141383307D01*
X150728798Y-140998418D01*
X150536314Y-140998418D01*
X150536314Y-141383307D01*
X150343909Y-141383307D01*
X150343909Y-140998418D01*
X150151504Y-140998418D01*
X150151504Y-140613608D01*
X150536314Y-140613608D01*
X150536314Y-140806013D01*
X150728798Y-140806013D01*
X150728798Y-140613608D01*
X150921203Y-140613608D01*
X150921203Y-141190902D01*
X151113608Y-141190902D01*
X151113608Y-141383307D01*
X150921203Y-141383307D01*
X150921203Y-141575712D01*
X151113608Y-141575712D01*
X151113608Y-141960602D01*
X150921203Y-141960602D01*
X150921203Y-142153006D01*
X150728798Y-142153006D01*
X150728798Y-141960602D01*
X150536314Y-141960602D01*
X150536314Y-142153007D01*
X150151504Y-142153007D01*
X150151504Y-141960602D01*
X150343909Y-141960602D01*
X150536314Y-141960602D01*
X150536314Y-141960601D01*
X150728798Y-141960601D01*
X150921203Y-141960601D01*
X150921203Y-141768117D01*
X150728798Y-141768117D01*
X150728798Y-141960601D01*
X150536314Y-141960601D01*
X150536314Y-141768117D01*
X150343909Y-141768117D01*
X150343909Y-141960602D01*
X150151504Y-141960602D01*
X150151504Y-141575713D01*
X150343909Y-141575713D01*
G37*
X150343909Y-141575713D02*
X150343909Y-141575712D01*
X150536314Y-141575712D01*
X150536314Y-141383307D01*
X150728798Y-141383307D01*
X150728798Y-140998418D01*
X150536314Y-140998418D01*
X150536314Y-141383307D01*
X150343909Y-141383307D01*
X150343909Y-140998418D01*
X150151504Y-140998418D01*
X150151504Y-140613608D01*
X150536314Y-140613608D01*
X150536314Y-140806013D01*
X150728798Y-140806013D01*
X150728798Y-140613608D01*
X150921203Y-140613608D01*
X150921203Y-141190902D01*
X151113608Y-141190902D01*
X151113608Y-141383307D01*
X150921203Y-141383307D01*
X150921203Y-141575712D01*
X151113608Y-141575712D01*
X151113608Y-141960602D01*
X150921203Y-141960602D01*
X150921203Y-142153006D01*
X150728798Y-142153006D01*
X150728798Y-141960602D01*
X150536314Y-141960602D01*
X150536314Y-142153007D01*
X150151504Y-142153007D01*
X150151504Y-141960602D01*
X150343909Y-141960602D01*
X150536314Y-141960602D01*
X150536314Y-141960601D01*
X150728798Y-141960601D01*
X150921203Y-141960601D01*
X150921203Y-141768117D01*
X150728798Y-141768117D01*
X150728798Y-141960601D01*
X150536314Y-141960601D01*
X150536314Y-141768117D01*
X150343909Y-141768117D01*
X150343909Y-141960602D01*
X150151504Y-141960602D01*
X150151504Y-141575713D01*
X150343909Y-141575713D01*
X152460602Y-140998418D02*
X152653006Y-140998418D01*
X152653006Y-140998418D02*
X152653006Y-141190902D01*
X152653006Y-141190902D02*
X152460602Y-141190902D01*
X152460602Y-141190902D02*
X152460602Y-141383307D01*
X152460602Y-141383307D02*
X152268197Y-141383307D01*
X152268197Y-141383307D02*
X152268197Y-140806013D01*
X152268197Y-140806013D02*
X152460602Y-140806013D01*
X152460602Y-140806013D02*
X152460602Y-140998418D01*
G36*
X152460602Y-140998418D02*
G01*
X152653006Y-140998418D01*
X152653006Y-141190902D01*
X152460602Y-141190902D01*
X152460602Y-141383307D01*
X152268197Y-141383307D01*
X152268197Y-140806013D01*
X152460602Y-140806013D01*
X152460602Y-140998418D01*
G37*
X152460602Y-140998418D02*
X152653006Y-140998418D01*
X152653006Y-141190902D01*
X152460602Y-141190902D01*
X152460602Y-141383307D01*
X152268197Y-141383307D01*
X152268197Y-140806013D01*
X152460602Y-140806013D01*
X152460602Y-140998418D01*
X150343909Y-139651504D02*
X150536314Y-139651504D01*
X150536314Y-139651504D02*
X150536314Y-139843909D01*
X150536314Y-139843909D02*
X150921203Y-139843909D01*
X150921203Y-139843909D02*
X150921203Y-140036314D01*
X150921203Y-140036314D02*
X151113608Y-140036314D01*
X151113608Y-140036314D02*
X151113608Y-140228719D01*
X151113608Y-140228719D02*
X150728798Y-140228719D01*
X150728798Y-140228719D02*
X150728798Y-140036314D01*
X150728798Y-140036314D02*
X150536314Y-140036314D01*
X150536314Y-140036314D02*
X150536314Y-139843909D01*
X150536314Y-139843909D02*
X150343909Y-139843909D01*
X150343909Y-139843909D02*
X150343909Y-139651504D01*
G36*
X150536314Y-139843909D02*
G01*
X150921203Y-139843909D01*
X150921203Y-140036314D01*
X151113608Y-140036314D01*
X151113608Y-140228719D01*
X150728798Y-140228719D01*
X150728798Y-140036314D01*
X150536314Y-140036314D01*
X150536314Y-139843909D01*
X150343909Y-139843909D01*
X150343909Y-139651504D01*
X150536314Y-139651504D01*
X150536314Y-139843909D01*
G37*
X150536314Y-139843909D02*
X150921203Y-139843909D01*
X150921203Y-140036314D01*
X151113608Y-140036314D01*
X151113608Y-140228719D01*
X150728798Y-140228719D01*
X150728798Y-140036314D01*
X150536314Y-140036314D01*
X150536314Y-139843909D01*
X150343909Y-139843909D01*
X150343909Y-139651504D01*
X150536314Y-139651504D01*
X150536314Y-139843909D01*
X148996915Y-141768117D02*
X149189399Y-141768117D01*
X149189399Y-141768117D02*
X149189399Y-141960602D01*
X149189399Y-141960602D02*
X148996915Y-141960602D01*
X148996915Y-141960602D02*
X148996915Y-142153007D01*
X148996915Y-142153007D02*
X149189399Y-142153007D01*
X149189399Y-142153007D02*
X149189399Y-142345411D01*
X149189399Y-142345411D02*
X148804510Y-142345411D01*
X148804510Y-142345411D02*
X148804510Y-142153007D01*
X148804510Y-142153007D02*
X148612105Y-142153007D01*
X148612105Y-142153007D02*
X148612105Y-141960602D01*
X148612105Y-141960602D02*
X148804510Y-141960602D01*
X148804510Y-141960602D02*
X148804510Y-141768117D01*
X148804510Y-141768117D02*
X148612105Y-141768117D01*
X148612105Y-141768117D02*
X148612105Y-141575712D01*
X148612105Y-141575712D02*
X148996915Y-141575712D01*
X148996915Y-141575712D02*
X148996915Y-141768117D01*
G36*
X148996915Y-141768117D02*
G01*
X149189399Y-141768117D01*
X149189399Y-141960602D01*
X148996915Y-141960602D01*
X148996915Y-142153007D01*
X149189399Y-142153007D01*
X149189399Y-142345411D01*
X148804510Y-142345411D01*
X148804510Y-142153007D01*
X148612105Y-142153007D01*
X148612105Y-141960602D01*
X148804510Y-141960602D01*
X148804510Y-141768117D01*
X148612105Y-141768117D01*
X148612105Y-141575712D01*
X148996915Y-141575712D01*
X148996915Y-141768117D01*
G37*
X148996915Y-141768117D02*
X149189399Y-141768117D01*
X149189399Y-141960602D01*
X148996915Y-141960602D01*
X148996915Y-142153007D01*
X149189399Y-142153007D01*
X149189399Y-142345411D01*
X148804510Y-142345411D01*
X148804510Y-142153007D01*
X148612105Y-142153007D01*
X148612105Y-141960602D01*
X148804510Y-141960602D01*
X148804510Y-141768117D01*
X148612105Y-141768117D01*
X148612105Y-141575712D01*
X148996915Y-141575712D01*
X148996915Y-141768117D01*
X152268197Y-141575712D02*
X152075712Y-141575712D01*
X152075712Y-141575712D02*
X152075712Y-141960602D01*
X152075712Y-141960602D02*
X152268197Y-141960602D01*
X152268197Y-141960602D02*
X152268197Y-142153007D01*
X152268197Y-142153007D02*
X151883307Y-142153007D01*
X151883307Y-142153007D02*
X151883307Y-141960602D01*
X151883307Y-141960602D02*
X151690902Y-141960602D01*
X151690902Y-141960602D02*
X151498497Y-141960602D01*
X151498497Y-141960602D02*
X151498497Y-141575712D01*
X151498497Y-141575712D02*
X151690902Y-141575712D01*
X151690902Y-141575712D02*
X151690902Y-141768117D01*
X151690902Y-141768117D02*
X151883307Y-141768117D01*
X151883307Y-141768117D02*
X151883307Y-141383307D01*
X151883307Y-141383307D02*
X152268197Y-141383307D01*
X152268197Y-141383307D02*
X152268197Y-141575712D01*
G36*
X152268197Y-141575712D02*
G01*
X152075712Y-141575712D01*
X152075712Y-141960602D01*
X152268197Y-141960602D01*
X152268197Y-142153007D01*
X151883307Y-142153007D01*
X151883307Y-141960602D01*
X151498497Y-141960602D01*
X151498497Y-141575712D01*
X151690902Y-141575712D01*
X151690902Y-141768117D01*
X151883307Y-141768117D01*
X151883307Y-141383307D01*
X152268197Y-141383307D01*
X152268197Y-141575712D01*
G37*
X152268197Y-141575712D02*
X152075712Y-141575712D01*
X152075712Y-141960602D01*
X152268197Y-141960602D01*
X152268197Y-142153007D01*
X151883307Y-142153007D01*
X151883307Y-141960602D01*
X151498497Y-141960602D01*
X151498497Y-141575712D01*
X151690902Y-141575712D01*
X151690902Y-141768117D01*
X151883307Y-141768117D01*
X151883307Y-141383307D01*
X152268197Y-141383307D01*
X152268197Y-141575712D01*
X152845412Y-138689320D02*
X152653007Y-138689320D01*
X152653007Y-138689320D02*
X152653007Y-138496915D01*
X152653007Y-138496915D02*
X152845412Y-138496915D01*
X152845412Y-138496915D02*
X152845412Y-138689320D01*
G36*
X152845412Y-138689320D02*
G01*
X152653007Y-138689320D01*
X152653007Y-138496915D01*
X152845412Y-138496915D01*
X152845412Y-138689320D01*
G37*
X152845412Y-138689320D02*
X152653007Y-138689320D01*
X152653007Y-138496915D01*
X152845412Y-138496915D01*
X152845412Y-138689320D01*
X150343909Y-139074209D02*
X150536314Y-139074209D01*
X150536314Y-139074209D02*
X150536314Y-139266614D01*
X150536314Y-139266614D02*
X150921203Y-139266614D01*
X150921203Y-139266614D02*
X150921203Y-139074209D01*
X150921203Y-139074209D02*
X150536314Y-139074209D01*
X150536314Y-139074209D02*
X150536314Y-138689320D01*
X150536314Y-138689320D02*
X150343909Y-138689320D01*
X150343909Y-138689320D02*
X150343909Y-138881804D01*
X150343909Y-138881804D02*
X150151504Y-138881804D01*
X150151504Y-138881804D02*
X150151504Y-138496915D01*
X150151504Y-138496915D02*
X150343909Y-138496915D01*
X150343909Y-138496915D02*
X150343909Y-138304510D01*
X150343909Y-138304510D02*
X150536314Y-138304510D01*
X150536314Y-138304510D02*
X150536314Y-138496915D01*
X150536314Y-138496915D02*
X150921203Y-138496915D01*
X150921203Y-138496915D02*
X150921203Y-138689320D01*
X150921203Y-138689320D02*
X151113608Y-138689320D01*
X151113608Y-138689320D02*
X151113608Y-139843909D01*
X151113608Y-139843909D02*
X150921203Y-139843909D01*
X150921203Y-139843909D02*
X150921203Y-139459019D01*
X150921203Y-139459019D02*
X150728798Y-139459019D01*
X150728798Y-139459019D02*
X150728798Y-139651504D01*
X150728798Y-139651504D02*
X150536314Y-139651504D01*
X150536314Y-139651504D02*
X150536314Y-139266614D01*
X150536314Y-139266614D02*
X150343909Y-139266614D01*
X150343909Y-139266614D02*
X150343909Y-139074209D01*
G36*
X150536314Y-138496915D02*
G01*
X150921203Y-138496915D01*
X150921203Y-138689320D01*
X151113608Y-138689320D01*
X151113608Y-139843909D01*
X150921203Y-139843909D01*
X150921203Y-139459019D01*
X150728798Y-139459019D01*
X150728798Y-139651504D01*
X150536314Y-139651504D01*
X150536314Y-139266614D01*
X150921203Y-139266614D01*
X150921203Y-139074209D01*
X150536314Y-139074209D01*
X150536314Y-139266614D01*
X150343909Y-139266614D01*
X150343909Y-139074209D01*
X150536314Y-139074209D01*
X150536314Y-138689320D01*
X150343909Y-138689320D01*
X150343909Y-138881804D01*
X150151504Y-138881804D01*
X150151504Y-138496915D01*
X150343909Y-138496915D01*
X150343909Y-138304510D01*
X150536314Y-138304510D01*
X150536314Y-138496915D01*
G37*
X150536314Y-138496915D02*
X150921203Y-138496915D01*
X150921203Y-138689320D01*
X151113608Y-138689320D01*
X151113608Y-139843909D01*
X150921203Y-139843909D01*
X150921203Y-139459019D01*
X150728798Y-139459019D01*
X150728798Y-139651504D01*
X150536314Y-139651504D01*
X150536314Y-139266614D01*
X150921203Y-139266614D01*
X150921203Y-139074209D01*
X150536314Y-139074209D01*
X150536314Y-139266614D01*
X150343909Y-139266614D01*
X150343909Y-139074209D01*
X150536314Y-139074209D01*
X150536314Y-138689320D01*
X150343909Y-138689320D01*
X150343909Y-138881804D01*
X150151504Y-138881804D01*
X150151504Y-138496915D01*
X150343909Y-138496915D01*
X150343909Y-138304510D01*
X150536314Y-138304510D01*
X150536314Y-138496915D01*
X152075712Y-143500001D02*
X152268197Y-143500001D01*
X152268197Y-143500001D02*
X152268197Y-143692406D01*
X152268197Y-143692406D02*
X152075712Y-143692406D01*
X152075712Y-143692406D02*
X152075712Y-143884810D01*
X152075712Y-143884810D02*
X151883307Y-143884810D01*
X151883307Y-143884810D02*
X151883307Y-143500000D01*
X151883307Y-143500000D02*
X152075712Y-143500000D01*
X152075712Y-143500000D02*
X152075712Y-143500001D01*
G36*
X152075712Y-143500001D02*
G01*
X152268197Y-143500001D01*
X152268197Y-143692406D01*
X152075712Y-143692406D01*
X152075712Y-143884810D01*
X151883307Y-143884810D01*
X151883307Y-143500000D01*
X152075712Y-143500000D01*
X152075712Y-143500001D01*
G37*
X152075712Y-143500001D02*
X152268197Y-143500001D01*
X152268197Y-143692406D01*
X152075712Y-143692406D01*
X152075712Y-143884810D01*
X151883307Y-143884810D01*
X151883307Y-143500000D01*
X152075712Y-143500000D01*
X152075712Y-143500001D01*
X149189399Y-144077216D02*
X149189399Y-144269699D01*
X149189399Y-144269699D02*
X148996915Y-144269699D01*
X148996915Y-144269699D02*
X148996915Y-144077215D01*
X148996915Y-144077215D02*
X149189399Y-144077215D01*
X149189399Y-144077215D02*
X149189399Y-144077216D01*
G36*
X149189399Y-144269699D02*
G01*
X148996915Y-144269699D01*
X148996915Y-144077215D01*
X149189399Y-144077215D01*
X149189399Y-144269699D01*
G37*
X149189399Y-144269699D02*
X148996915Y-144269699D01*
X148996915Y-144077215D01*
X149189399Y-144077215D01*
X149189399Y-144269699D01*
X154962105Y-139074209D02*
X154769700Y-139074209D01*
X154769700Y-139074209D02*
X154769700Y-138881804D01*
X154769700Y-138881804D02*
X154962105Y-138881804D01*
X154962105Y-138881804D02*
X154962105Y-139074209D01*
G36*
X154962105Y-139074209D02*
G01*
X154769700Y-139074209D01*
X154769700Y-138881804D01*
X154962105Y-138881804D01*
X154962105Y-139074209D01*
G37*
X154962105Y-139074209D02*
X154769700Y-139074209D01*
X154769700Y-138881804D01*
X154962105Y-138881804D01*
X154962105Y-139074209D01*
X150151504Y-142153007D02*
X149959099Y-142153007D01*
X149959099Y-142153007D02*
X149959099Y-141960602D01*
X149959099Y-141960602D02*
X150151504Y-141960602D01*
X150151504Y-141960602D02*
X150151504Y-142153007D01*
G36*
X150151504Y-142153007D02*
G01*
X149959099Y-142153007D01*
X149959099Y-141960602D01*
X150151504Y-141960602D01*
X150151504Y-142153007D01*
G37*
X150151504Y-142153007D02*
X149959099Y-142153007D01*
X149959099Y-141960602D01*
X150151504Y-141960602D01*
X150151504Y-142153007D01*
X152460602Y-143692405D02*
X152268197Y-143692405D01*
X152268197Y-143692405D02*
X152268197Y-143500000D01*
X152268197Y-143500000D02*
X152460602Y-143500000D01*
X152460602Y-143500000D02*
X152460602Y-143692405D01*
G36*
X152460602Y-143692405D02*
G01*
X152268197Y-143692405D01*
X152268197Y-143500000D01*
X152460602Y-143500000D01*
X152460602Y-143692405D01*
G37*
X152460602Y-143692405D02*
X152268197Y-143692405D01*
X152268197Y-143500000D01*
X152460602Y-143500000D01*
X152460602Y-143692405D01*
X153037896Y-139651504D02*
X153230301Y-139651504D01*
X153230301Y-139651504D02*
X153230301Y-139459019D01*
X153230301Y-139459019D02*
X153422706Y-139459019D01*
X153422706Y-139459019D02*
X153422706Y-139843909D01*
X153422706Y-139843909D02*
X154000000Y-139843909D01*
X154000000Y-139843909D02*
X154000000Y-140806013D01*
X154000000Y-140806013D02*
X153615111Y-140806013D01*
X153615111Y-140806013D02*
X153615111Y-140998418D01*
X153615111Y-140998418D02*
X153422706Y-140998418D01*
X153422706Y-140998418D02*
X153422706Y-140806013D01*
X153422706Y-140806013D02*
X153230301Y-140806013D01*
X153230301Y-140806013D02*
X153230301Y-140998418D01*
X153230301Y-140998418D02*
X153037896Y-140998418D01*
X153037896Y-140998418D02*
X153037896Y-140806013D01*
X153037896Y-140806013D02*
X152845412Y-140806013D01*
X152845412Y-140806013D02*
X152845412Y-140421203D01*
X152845412Y-140421203D02*
X153230301Y-140421203D01*
X153230301Y-140421203D02*
X153230301Y-140613608D01*
X153230301Y-140613608D02*
X153422706Y-140613608D01*
X153422706Y-140613608D02*
X153422706Y-140421203D01*
X153422706Y-140421203D02*
X153615111Y-140421203D01*
X153615111Y-140421203D02*
X153615111Y-140613608D01*
X153615111Y-140613608D02*
X153807595Y-140613608D01*
X153807595Y-140613608D02*
X153807595Y-140421203D01*
X153807595Y-140421203D02*
X153615111Y-140421203D01*
X153615111Y-140421203D02*
X153615111Y-140228719D01*
X153615111Y-140228719D02*
X153807595Y-140228719D01*
X153807595Y-140228719D02*
X153807595Y-140036314D01*
X153807595Y-140036314D02*
X153615111Y-140036314D01*
X153615111Y-140036314D02*
X153615111Y-140228719D01*
X153615111Y-140228719D02*
X153230301Y-140228719D01*
X153230301Y-140228719D02*
X153037896Y-140228719D01*
X153037896Y-140228719D02*
X153037896Y-140036314D01*
X153037896Y-140036314D02*
X153230301Y-140036314D01*
X153230301Y-140036314D02*
X153422706Y-140036314D01*
X153422706Y-140036314D02*
X153422706Y-139843909D01*
X153422706Y-139843909D02*
X153230301Y-139843909D01*
X153230301Y-139843909D02*
X153230301Y-140036314D01*
X153230301Y-140036314D02*
X153037896Y-140036314D01*
X153037896Y-140036314D02*
X152845412Y-140036314D01*
X152845412Y-140036314D02*
X152845412Y-139843909D01*
X152845412Y-139843909D02*
X152653007Y-139843909D01*
X152653007Y-139843909D02*
X152653007Y-139651504D01*
X152653007Y-139651504D02*
X152845412Y-139651504D01*
X152845412Y-139651504D02*
X152845412Y-139459019D01*
X152845412Y-139459019D02*
X153037896Y-139459019D01*
X153037896Y-139459019D02*
X153037896Y-139651504D01*
G36*
X152845412Y-139843909D02*
G01*
X152653007Y-139843909D01*
X152653007Y-139651504D01*
X152845412Y-139651504D01*
X152845412Y-139459019D01*
X153037896Y-139459019D01*
X153037896Y-139651504D01*
X153230301Y-139651504D01*
X153230301Y-139459019D01*
X153422706Y-139459019D01*
X153422706Y-139843909D01*
X153230301Y-139843909D01*
X153230301Y-140036314D01*
X153422706Y-140036314D01*
X153422706Y-139843909D01*
X154000000Y-139843909D01*
X154000000Y-140806013D01*
X153615111Y-140806013D01*
X153615111Y-140998418D01*
X153422706Y-140998418D01*
X153422706Y-140806013D01*
X153230301Y-140806013D01*
X153230301Y-140998418D01*
X153037896Y-140998418D01*
X153037896Y-140806013D01*
X152845412Y-140806013D01*
X152845412Y-140421203D01*
X153230301Y-140421203D01*
X153230301Y-140613608D01*
X153422706Y-140613608D01*
X153615111Y-140613608D01*
X153807595Y-140613608D01*
X153807595Y-140421203D01*
X153615111Y-140421203D01*
X153615111Y-140613608D01*
X153422706Y-140613608D01*
X153422706Y-140421203D01*
X153615111Y-140421203D01*
X153615111Y-140228719D01*
X153807595Y-140228719D01*
X153807595Y-140036314D01*
X153615111Y-140036314D01*
X153615111Y-140228719D01*
X153037896Y-140228719D01*
X153037896Y-140036314D01*
X152845412Y-140036314D01*
X152845412Y-139843909D01*
G37*
X152845412Y-139843909D02*
X152653007Y-139843909D01*
X152653007Y-139651504D01*
X152845412Y-139651504D01*
X152845412Y-139459019D01*
X153037896Y-139459019D01*
X153037896Y-139651504D01*
X153230301Y-139651504D01*
X153230301Y-139459019D01*
X153422706Y-139459019D01*
X153422706Y-139843909D01*
X153230301Y-139843909D01*
X153230301Y-140036314D01*
X153422706Y-140036314D01*
X153422706Y-139843909D01*
X154000000Y-139843909D01*
X154000000Y-140806013D01*
X153615111Y-140806013D01*
X153615111Y-140998418D01*
X153422706Y-140998418D01*
X153422706Y-140806013D01*
X153230301Y-140806013D01*
X153230301Y-140998418D01*
X153037896Y-140998418D01*
X153037896Y-140806013D01*
X152845412Y-140806013D01*
X152845412Y-140421203D01*
X153230301Y-140421203D01*
X153230301Y-140613608D01*
X153422706Y-140613608D01*
X153615111Y-140613608D01*
X153807595Y-140613608D01*
X153807595Y-140421203D01*
X153615111Y-140421203D01*
X153615111Y-140613608D01*
X153422706Y-140613608D01*
X153422706Y-140421203D01*
X153615111Y-140421203D01*
X153615111Y-140228719D01*
X153807595Y-140228719D01*
X153807595Y-140036314D01*
X153615111Y-140036314D01*
X153615111Y-140228719D01*
X153037896Y-140228719D01*
X153037896Y-140036314D01*
X152845412Y-140036314D01*
X152845412Y-139843909D01*
X150921203Y-142730301D02*
X150728798Y-142730301D01*
X150728798Y-142730301D02*
X150728798Y-142345411D01*
X150728798Y-142345411D02*
X150921203Y-142345411D01*
X150921203Y-142345411D02*
X150921203Y-142730301D01*
G36*
X150921203Y-142730301D02*
G01*
X150728798Y-142730301D01*
X150728798Y-142345411D01*
X150921203Y-142345411D01*
X150921203Y-142730301D01*
G37*
X150921203Y-142730301D02*
X150728798Y-142730301D01*
X150728798Y-142345411D01*
X150921203Y-142345411D01*
X150921203Y-142730301D01*
X153230301Y-138881804D02*
X152845412Y-138881804D01*
X152845412Y-138881804D02*
X152845412Y-138689320D01*
X152845412Y-138689320D02*
X153230301Y-138689320D01*
X153230301Y-138689320D02*
X153230301Y-138881804D01*
G36*
X153230301Y-138881804D02*
G01*
X152845412Y-138881804D01*
X152845412Y-138689320D01*
X153230301Y-138689320D01*
X153230301Y-138881804D01*
G37*
X153230301Y-138881804D02*
X152845412Y-138881804D01*
X152845412Y-138689320D01*
X153230301Y-138689320D01*
X153230301Y-138881804D01*
X149189399Y-141383307D02*
X149189399Y-141575712D01*
X149189399Y-141575712D02*
X148996915Y-141575712D01*
X148996915Y-141575712D02*
X148996915Y-141190902D01*
X148996915Y-141190902D02*
X149189399Y-141190902D01*
X149189399Y-141190902D02*
X149189399Y-141383307D01*
G36*
X149189399Y-141575712D02*
G01*
X148996915Y-141575712D01*
X148996915Y-141190902D01*
X149189399Y-141190902D01*
X149189399Y-141575712D01*
G37*
X149189399Y-141575712D02*
X148996915Y-141575712D01*
X148996915Y-141190902D01*
X149189399Y-141190902D01*
X149189399Y-141575712D01*
X151498497Y-139651504D02*
X151306013Y-139651504D01*
X151306013Y-139651504D02*
X151306013Y-139459019D01*
X151306013Y-139459019D02*
X151113608Y-139459019D01*
X151113608Y-139459019D02*
X151113608Y-139266614D01*
X151113608Y-139266614D02*
X151498497Y-139266614D01*
X151498497Y-139266614D02*
X151498497Y-139651504D01*
G36*
X151498497Y-139651504D02*
G01*
X151306013Y-139651504D01*
X151306013Y-139459019D01*
X151113608Y-139459019D01*
X151113608Y-139266614D01*
X151498497Y-139266614D01*
X151498497Y-139651504D01*
G37*
X151498497Y-139651504D02*
X151306013Y-139651504D01*
X151306013Y-139459019D01*
X151113608Y-139459019D01*
X151113608Y-139266614D01*
X151498497Y-139266614D01*
X151498497Y-139651504D01*
X149381804Y-142537817D02*
X149189399Y-142537817D01*
X149189399Y-142537817D02*
X149189399Y-142153007D01*
X149189399Y-142153007D02*
X149381804Y-142153007D01*
X149381804Y-142153007D02*
X149381804Y-142537817D01*
G36*
X149381804Y-142537817D02*
G01*
X149189399Y-142537817D01*
X149189399Y-142153007D01*
X149381804Y-142153007D01*
X149381804Y-142537817D01*
G37*
X149381804Y-142537817D02*
X149189399Y-142537817D01*
X149189399Y-142153007D01*
X149381804Y-142153007D01*
X149381804Y-142537817D01*
X151113608Y-138496915D02*
X150921203Y-138496915D01*
X150921203Y-138496915D02*
X150921203Y-138304510D01*
X150921203Y-138304510D02*
X151113608Y-138304510D01*
X151113608Y-138304510D02*
X151113608Y-138496915D01*
G36*
X151113608Y-138496915D02*
G01*
X150921203Y-138496915D01*
X150921203Y-138304510D01*
X151113608Y-138304510D01*
X151113608Y-138496915D01*
G37*
X151113608Y-138496915D02*
X150921203Y-138496915D01*
X150921203Y-138304510D01*
X151113608Y-138304510D01*
X151113608Y-138496915D01*
X152460602Y-140421203D02*
X152653006Y-140421203D01*
X152653006Y-140421203D02*
X152653006Y-140806013D01*
X152653006Y-140806013D02*
X152460602Y-140806013D01*
X152460602Y-140806013D02*
X152460602Y-140613608D01*
X152460602Y-140613608D02*
X152268197Y-140613608D01*
X152268197Y-140613608D02*
X152268197Y-140421203D01*
X152268197Y-140421203D02*
X152460602Y-140421203D01*
X152460602Y-140421203D02*
X152460602Y-140421203D01*
G36*
X152653006Y-140806013D02*
G01*
X152460602Y-140806013D01*
X152460602Y-140613608D01*
X152268197Y-140613608D01*
X152268197Y-140421203D01*
X152653006Y-140421203D01*
X152653006Y-140806013D01*
G37*
X152653006Y-140806013D02*
X152460602Y-140806013D01*
X152460602Y-140613608D01*
X152268197Y-140613608D01*
X152268197Y-140421203D01*
X152653006Y-140421203D01*
X152653006Y-140806013D01*
X154769700Y-142922705D02*
X154577295Y-142922705D01*
X154577295Y-142922705D02*
X154577295Y-142730301D01*
X154577295Y-142730301D02*
X154769700Y-142730301D01*
X154769700Y-142730301D02*
X154769700Y-142922705D01*
G36*
X154769700Y-142922705D02*
G01*
X154577295Y-142922705D01*
X154577295Y-142730301D01*
X154769700Y-142730301D01*
X154769700Y-142922705D01*
G37*
X154769700Y-142922705D02*
X154577295Y-142922705D01*
X154577295Y-142730301D01*
X154769700Y-142730301D01*
X154769700Y-142922705D01*
X154000000Y-143115111D02*
X153615111Y-143115111D01*
X153615111Y-143115111D02*
X153615111Y-142922706D01*
X153615111Y-142922706D02*
X154000000Y-142922706D01*
X154000000Y-142922706D02*
X154000000Y-143115111D01*
G36*
X154000000Y-143115111D02*
G01*
X153615111Y-143115111D01*
X153615111Y-142922706D01*
X154000000Y-142922706D01*
X154000000Y-143115111D01*
G37*
X154000000Y-143115111D02*
X153615111Y-143115111D01*
X153615111Y-142922706D01*
X154000000Y-142922706D01*
X154000000Y-143115111D01*
X152845412Y-142345412D02*
X153037896Y-142345412D01*
X153037896Y-142345412D02*
X153037896Y-142730301D01*
X153037896Y-142730301D02*
X152845412Y-142730301D01*
X152845412Y-142730301D02*
X152845412Y-142537817D01*
X152845412Y-142537817D02*
X152653007Y-142537817D01*
X152653007Y-142537817D02*
X152653007Y-142345411D01*
X152653007Y-142345411D02*
X152845412Y-142345411D01*
X152845412Y-142345411D02*
X152845412Y-142345412D01*
G36*
X152845412Y-142345412D02*
G01*
X153037896Y-142345412D01*
X153037896Y-142730301D01*
X152845412Y-142730301D01*
X152845412Y-142537817D01*
X152653007Y-142537817D01*
X152653007Y-142345411D01*
X152845412Y-142345411D01*
X152845412Y-142345412D01*
G37*
X152845412Y-142345412D02*
X153037896Y-142345412D01*
X153037896Y-142730301D01*
X152845412Y-142730301D01*
X152845412Y-142537817D01*
X152653007Y-142537817D01*
X152653007Y-142345411D01*
X152845412Y-142345411D01*
X152845412Y-142345412D01*
X148996915Y-140998418D02*
X148804510Y-140998418D01*
X148804510Y-140998418D02*
X148804510Y-140806013D01*
X148804510Y-140806013D02*
X148612105Y-140806013D01*
X148612105Y-140806013D02*
X148612105Y-140613608D01*
X148612105Y-140613608D02*
X148996915Y-140613608D01*
X148996915Y-140613608D02*
X148996915Y-140998418D01*
G36*
X148996915Y-140998418D02*
G01*
X148804510Y-140998418D01*
X148804510Y-140806013D01*
X148612105Y-140806013D01*
X148612105Y-140613608D01*
X148996915Y-140613608D01*
X148996915Y-140998418D01*
G37*
X148996915Y-140998418D02*
X148804510Y-140998418D01*
X148804510Y-140806013D01*
X148612105Y-140806013D01*
X148612105Y-140613608D01*
X148996915Y-140613608D01*
X148996915Y-140998418D01*
X151883307Y-139074209D02*
X151690902Y-139074209D01*
X151690902Y-139074209D02*
X151690902Y-138881804D01*
X151690902Y-138881804D02*
X151883307Y-138881804D01*
X151883307Y-138881804D02*
X151883307Y-139074209D01*
G36*
X151883307Y-139074209D02*
G01*
X151690902Y-139074209D01*
X151690902Y-138881804D01*
X151883307Y-138881804D01*
X151883307Y-139074209D01*
G37*
X151883307Y-139074209D02*
X151690902Y-139074209D01*
X151690902Y-138881804D01*
X151883307Y-138881804D01*
X151883307Y-139074209D01*
X151883307Y-138689320D02*
X151690902Y-138689320D01*
X151690902Y-138689320D02*
X151690902Y-138496915D01*
X151690902Y-138496915D02*
X151498497Y-138496915D01*
X151498497Y-138496915D02*
X151498497Y-138689320D01*
X151498497Y-138689320D02*
X151306013Y-138689320D01*
X151306013Y-138689320D02*
X151306013Y-138496915D01*
X151306013Y-138496915D02*
X151113608Y-138496915D01*
X151113608Y-138496915D02*
X151113608Y-138304510D01*
X151113608Y-138304510D02*
X151883307Y-138304510D01*
X151883307Y-138304510D02*
X151883307Y-138689320D01*
G36*
X151883307Y-138689320D02*
G01*
X151690902Y-138689320D01*
X151690902Y-138496915D01*
X151498497Y-138496915D01*
X151498497Y-138689320D01*
X151306013Y-138689320D01*
X151306013Y-138496915D01*
X151113608Y-138496915D01*
X151113608Y-138304510D01*
X151883307Y-138304510D01*
X151883307Y-138689320D01*
G37*
X151883307Y-138689320D02*
X151690902Y-138689320D01*
X151690902Y-138496915D01*
X151498497Y-138496915D01*
X151498497Y-138689320D01*
X151306013Y-138689320D01*
X151306013Y-138496915D01*
X151113608Y-138496915D01*
X151113608Y-138304510D01*
X151883307Y-138304510D01*
X151883307Y-138689320D01*
X152460602Y-141768117D02*
X152653006Y-141768117D01*
X152653006Y-141768117D02*
X152653006Y-141960602D01*
X152653006Y-141960602D02*
X152460602Y-141960602D01*
X152460602Y-141960602D02*
X152460602Y-142345411D01*
X152460602Y-142345411D02*
X152268197Y-142345411D01*
X152268197Y-142345411D02*
X152268197Y-141575712D01*
X152268197Y-141575712D02*
X152460602Y-141575712D01*
X152460602Y-141575712D02*
X152460602Y-141768117D01*
G36*
X152460602Y-141768117D02*
G01*
X152653006Y-141768117D01*
X152653006Y-141960602D01*
X152460602Y-141960602D01*
X152460602Y-142345411D01*
X152268197Y-142345411D01*
X152268197Y-141575712D01*
X152460602Y-141575712D01*
X152460602Y-141768117D01*
G37*
X152460602Y-141768117D02*
X152653006Y-141768117D01*
X152653006Y-141960602D01*
X152460602Y-141960602D01*
X152460602Y-142345411D01*
X152268197Y-142345411D01*
X152268197Y-141575712D01*
X152460602Y-141575712D01*
X152460602Y-141768117D01*
X154962105Y-142153007D02*
X154769700Y-142153007D01*
X154769700Y-142153007D02*
X154769700Y-141960602D01*
X154769700Y-141960602D02*
X154962105Y-141960602D01*
X154962105Y-141960602D02*
X154962105Y-142153007D01*
G36*
X154962105Y-142153007D02*
G01*
X154769700Y-142153007D01*
X154769700Y-141960602D01*
X154962105Y-141960602D01*
X154962105Y-142153007D01*
G37*
X154962105Y-142153007D02*
X154769700Y-142153007D01*
X154769700Y-141960602D01*
X154962105Y-141960602D01*
X154962105Y-142153007D01*
X153422706Y-139074209D02*
X153230301Y-139074209D01*
X153230301Y-139074209D02*
X153230301Y-138881804D01*
X153230301Y-138881804D02*
X153422706Y-138881804D01*
X153422706Y-138881804D02*
X153422706Y-139074209D01*
G36*
X153422706Y-139074209D02*
G01*
X153230301Y-139074209D01*
X153230301Y-138881804D01*
X153422706Y-138881804D01*
X153422706Y-139074209D01*
G37*
X153422706Y-139074209D02*
X153230301Y-139074209D01*
X153230301Y-138881804D01*
X153422706Y-138881804D01*
X153422706Y-139074209D01*
X153422706Y-142537817D02*
X153422706Y-142345411D01*
X153422706Y-142345411D02*
X153615111Y-142345411D01*
X153615111Y-142345411D02*
X153615111Y-142153007D01*
X153615111Y-142153007D02*
X153807595Y-142153007D01*
X153807595Y-142153007D02*
X153807595Y-141960602D01*
X153807595Y-141960602D02*
X153615111Y-141960602D01*
X153615111Y-141960602D02*
X153615111Y-142153007D01*
X153615111Y-142153007D02*
X153422706Y-142153007D01*
X153422706Y-142153007D02*
X153422706Y-141960602D01*
X153422706Y-141960602D02*
X153230301Y-141960602D01*
X153230301Y-141960602D02*
X153230301Y-141768117D01*
X153230301Y-141768117D02*
X153615111Y-141768117D01*
X153615111Y-141768117D02*
X154000000Y-141768117D01*
X154000000Y-141768117D02*
X154000000Y-142730301D01*
X154000000Y-142730301D02*
X153615111Y-142730301D01*
X153615111Y-142730301D02*
X153615111Y-142537817D01*
X153615111Y-142537817D02*
X153807595Y-142537817D01*
X153807595Y-142537817D02*
X153807595Y-142345411D01*
X153807595Y-142345411D02*
X153615111Y-142345411D01*
X153615111Y-142345411D02*
X153615111Y-142537817D01*
X153615111Y-142537817D02*
X153422706Y-142537817D01*
G36*
X154000000Y-142730301D02*
G01*
X153615111Y-142730301D01*
X153615111Y-142537817D01*
X153807595Y-142537817D01*
X153807595Y-142345411D01*
X153615111Y-142345411D01*
X153615111Y-142537817D01*
X153422706Y-142537817D01*
X153422706Y-142345411D01*
X153615111Y-142345411D01*
X153615111Y-142153007D01*
X153807595Y-142153007D01*
X153807595Y-141960602D01*
X153615111Y-141960602D01*
X153615111Y-142153007D01*
X153422706Y-142153007D01*
X153422706Y-141960602D01*
X153230301Y-141960602D01*
X153230301Y-141768117D01*
X154000000Y-141768117D01*
X154000000Y-142730301D01*
G37*
X154000000Y-142730301D02*
X153615111Y-142730301D01*
X153615111Y-142537817D01*
X153807595Y-142537817D01*
X153807595Y-142345411D01*
X153615111Y-142345411D01*
X153615111Y-142537817D01*
X153422706Y-142537817D01*
X153422706Y-142345411D01*
X153615111Y-142345411D01*
X153615111Y-142153007D01*
X153807595Y-142153007D01*
X153807595Y-141960602D01*
X153615111Y-141960602D01*
X153615111Y-142153007D01*
X153422706Y-142153007D01*
X153422706Y-141960602D01*
X153230301Y-141960602D01*
X153230301Y-141768117D01*
X154000000Y-141768117D01*
X154000000Y-142730301D01*
X152268197Y-139266614D02*
X152075712Y-139266614D01*
X152075712Y-139266614D02*
X152075712Y-138881804D01*
X152075712Y-138881804D02*
X152268197Y-138881804D01*
X152268197Y-138881804D02*
X152268197Y-139266614D01*
G36*
X152268197Y-139266614D02*
G01*
X152075712Y-139266614D01*
X152075712Y-138881804D01*
X152268197Y-138881804D01*
X152268197Y-139266614D01*
G37*
X152268197Y-139266614D02*
X152075712Y-139266614D01*
X152075712Y-138881804D01*
X152268197Y-138881804D01*
X152268197Y-139266614D01*
D11*
X184920001Y-67770000D02*
G75*
G03*
X184920001Y-66230000I-861483J770000D01*
G01*
D10*
X152268197Y-140613608D02*
X151690902Y-140613608D01*
X151690902Y-140613608D02*
X151690902Y-140421203D01*
X151690902Y-140421203D02*
X151498497Y-140421203D01*
X151498497Y-140421203D02*
X151498497Y-140228719D01*
X151498497Y-140228719D02*
X151883307Y-140228719D01*
X151883307Y-140228719D02*
X151883307Y-140421203D01*
X151883307Y-140421203D02*
X152075712Y-140421203D01*
X152075712Y-140421203D02*
X152075712Y-139843909D01*
X152075712Y-139843909D02*
X152268197Y-139843909D01*
X152268197Y-139843909D02*
X152268197Y-140613608D01*
G36*
X152268197Y-140613608D02*
G01*
X151690902Y-140613608D01*
X151690902Y-140421203D01*
X151498497Y-140421203D01*
X151498497Y-140228719D01*
X151883307Y-140228719D01*
X151883307Y-140421203D01*
X152075712Y-140421203D01*
X152075712Y-139843909D01*
X152268197Y-139843909D01*
X152268197Y-140613608D01*
G37*
X152268197Y-140613608D02*
X151690902Y-140613608D01*
X151690902Y-140421203D01*
X151498497Y-140421203D01*
X151498497Y-140228719D01*
X151883307Y-140228719D01*
X151883307Y-140421203D01*
X152075712Y-140421203D01*
X152075712Y-139843909D01*
X152268197Y-139843909D01*
X152268197Y-140613608D01*
X148804510Y-142537816D02*
X148996915Y-142537816D01*
X148996915Y-142537816D02*
X148996915Y-142922705D01*
X148996915Y-142922705D02*
X148804510Y-142922705D01*
X148804510Y-142922705D02*
X148804510Y-143115111D01*
X148804510Y-143115111D02*
X148612105Y-143115111D01*
X148612105Y-143115111D02*
X148612105Y-142345411D01*
X148612105Y-142345411D02*
X148804510Y-142345411D01*
X148804510Y-142345411D02*
X148804510Y-142537816D01*
G36*
X148804510Y-142537816D02*
G01*
X148996915Y-142537816D01*
X148996915Y-142922705D01*
X148804510Y-142922705D01*
X148804510Y-143115111D01*
X148612105Y-143115111D01*
X148612105Y-142345411D01*
X148804510Y-142345411D01*
X148804510Y-142537816D01*
G37*
X148804510Y-142537816D02*
X148996915Y-142537816D01*
X148996915Y-142922705D01*
X148804510Y-142922705D01*
X148804510Y-143115111D01*
X148612105Y-143115111D01*
X148612105Y-142345411D01*
X148804510Y-142345411D01*
X148804510Y-142537816D01*
X153230301Y-143884810D02*
X153037896Y-143884810D01*
X153037896Y-143884810D02*
X153037896Y-143692405D01*
X153037896Y-143692405D02*
X153230301Y-143692405D01*
X153230301Y-143692405D02*
X153230301Y-143884810D01*
G36*
X153230301Y-143884810D02*
G01*
X153037896Y-143884810D01*
X153037896Y-143692405D01*
X153230301Y-143692405D01*
X153230301Y-143884810D01*
G37*
X153230301Y-143884810D02*
X153037896Y-143884810D01*
X153037896Y-143692405D01*
X153230301Y-143692405D01*
X153230301Y-143884810D01*
X152075712Y-142922706D02*
X152075712Y-143115111D01*
X152075712Y-143115111D02*
X152268197Y-143115111D01*
X152268197Y-143115111D02*
X152268197Y-143307516D01*
X152268197Y-143307516D02*
X152075712Y-143307516D01*
X152075712Y-143307516D02*
X151690902Y-143307516D01*
X151690902Y-143307516D02*
X151690902Y-143307515D01*
X151690902Y-143307515D02*
X151498497Y-143307515D01*
X151498497Y-143307515D02*
X151498497Y-143115111D01*
X151498497Y-143115111D02*
X151690902Y-143115111D01*
X151690902Y-143115111D02*
X151883307Y-143115111D01*
X151883307Y-143115111D02*
X151883307Y-142922706D01*
X151883307Y-142922706D02*
X151690902Y-142922706D01*
X151690902Y-142922706D02*
X151690902Y-143115111D01*
X151690902Y-143115111D02*
X151498497Y-143115111D01*
X151498497Y-143115111D02*
X151498497Y-142922705D01*
X151498497Y-142922705D02*
X151690902Y-142922705D01*
X151690902Y-142922705D02*
X151690902Y-142730301D01*
X151690902Y-142730301D02*
X151498497Y-142730301D01*
X151498497Y-142730301D02*
X151498497Y-142922705D01*
X151498497Y-142922705D02*
X151306013Y-142922705D01*
X151306013Y-142922705D02*
X151306013Y-142922706D01*
X151306013Y-142922706D02*
X151113608Y-142922706D01*
X151113608Y-142922706D02*
X151113608Y-142730301D01*
X151113608Y-142730301D02*
X151306013Y-142730301D01*
X151306013Y-142730301D02*
X151306013Y-142153007D01*
X151306013Y-142153007D02*
X151498497Y-142153007D01*
X151498497Y-142153007D02*
X151498497Y-142537816D01*
X151498497Y-142537816D02*
X151690902Y-142537816D01*
X151690902Y-142537816D02*
X151690902Y-142537817D01*
X151690902Y-142537817D02*
X151883307Y-142537817D01*
X151883307Y-142537817D02*
X151883307Y-142922706D01*
X151883307Y-142922706D02*
X152075712Y-142922706D01*
G36*
X151690902Y-142922705D02*
G01*
X151690902Y-142730301D01*
X151498497Y-142730301D01*
X151498497Y-142922705D01*
X151306013Y-142922705D01*
X151306013Y-142922706D01*
X151113608Y-142922706D01*
X151113608Y-142730301D01*
X151306013Y-142730301D01*
X151306013Y-142153007D01*
X151498497Y-142153007D01*
X151498497Y-142537816D01*
X151690902Y-142537816D01*
X151690902Y-142537817D01*
X151883307Y-142537817D01*
X151883307Y-142922706D01*
X151690902Y-142922706D01*
X151690902Y-143115111D01*
X151883307Y-143115111D01*
X151883307Y-142922706D01*
X152075712Y-142922706D01*
X152075712Y-143115111D01*
X152268197Y-143115111D01*
X152268197Y-143307516D01*
X151690902Y-143307516D01*
X151690902Y-143307515D01*
X151498497Y-143307515D01*
X151498497Y-142922705D01*
X151690902Y-142922705D01*
G37*
X151690902Y-142922705D02*
X151690902Y-142730301D01*
X151498497Y-142730301D01*
X151498497Y-142922705D01*
X151306013Y-142922705D01*
X151306013Y-142922706D01*
X151113608Y-142922706D01*
X151113608Y-142730301D01*
X151306013Y-142730301D01*
X151306013Y-142153007D01*
X151498497Y-142153007D01*
X151498497Y-142537816D01*
X151690902Y-142537816D01*
X151690902Y-142537817D01*
X151883307Y-142537817D01*
X151883307Y-142922706D01*
X151690902Y-142922706D01*
X151690902Y-143115111D01*
X151883307Y-143115111D01*
X151883307Y-142922706D01*
X152075712Y-142922706D01*
X152075712Y-143115111D01*
X152268197Y-143115111D01*
X152268197Y-143307516D01*
X151690902Y-143307516D01*
X151690902Y-143307515D01*
X151498497Y-143307515D01*
X151498497Y-142922705D01*
X151690902Y-142922705D01*
X154577295Y-140036314D02*
X154769700Y-140036314D01*
X154769700Y-140036314D02*
X154769700Y-139843909D01*
X154769700Y-139843909D02*
X154962105Y-139843909D01*
X154962105Y-139843909D02*
X154962105Y-140228719D01*
X154962105Y-140228719D02*
X154577295Y-140228719D01*
X154577295Y-140228719D02*
X154577295Y-140421203D01*
X154577295Y-140421203D02*
X154769700Y-140421203D01*
X154769700Y-140421203D02*
X154769700Y-140613608D01*
X154769700Y-140613608D02*
X154577295Y-140613608D01*
X154577295Y-140613608D02*
X154577295Y-140421203D01*
X154577295Y-140421203D02*
X154384811Y-140421203D01*
X154384811Y-140421203D02*
X154192406Y-140421203D01*
X154192406Y-140421203D02*
X154192406Y-140228719D01*
X154192406Y-140228719D02*
X154384811Y-140228719D01*
X154384811Y-140228719D02*
X154384811Y-140036314D01*
X154384811Y-140036314D02*
X154192406Y-140036314D01*
X154192406Y-140036314D02*
X154192406Y-139843909D01*
X154192406Y-139843909D02*
X154577295Y-139843909D01*
X154577295Y-139843909D02*
X154577295Y-140036314D01*
G36*
X154577295Y-140036314D02*
G01*
X154769700Y-140036314D01*
X154769700Y-139843909D01*
X154962105Y-139843909D01*
X154962105Y-140228719D01*
X154577295Y-140228719D01*
X154577295Y-140421203D01*
X154769700Y-140421203D01*
X154769700Y-140613608D01*
X154577295Y-140613608D01*
X154577295Y-140421203D01*
X154192406Y-140421203D01*
X154192406Y-140228719D01*
X154384811Y-140228719D01*
X154384811Y-140036314D01*
X154192406Y-140036314D01*
X154192406Y-139843909D01*
X154577295Y-139843909D01*
X154577295Y-140036314D01*
G37*
X154577295Y-140036314D02*
X154769700Y-140036314D01*
X154769700Y-139843909D01*
X154962105Y-139843909D01*
X154962105Y-140228719D01*
X154577295Y-140228719D01*
X154577295Y-140421203D01*
X154769700Y-140421203D01*
X154769700Y-140613608D01*
X154577295Y-140613608D01*
X154577295Y-140421203D01*
X154192406Y-140421203D01*
X154192406Y-140228719D01*
X154384811Y-140228719D01*
X154384811Y-140036314D01*
X154192406Y-140036314D01*
X154192406Y-139843909D01*
X154577295Y-139843909D01*
X154577295Y-140036314D01*
X153230301Y-141768117D02*
X153037896Y-141768117D01*
X153037896Y-141768117D02*
X153037896Y-141575712D01*
X153037896Y-141575712D02*
X153230301Y-141575712D01*
X153230301Y-141575712D02*
X153230301Y-141768117D01*
G36*
X153230301Y-141768117D02*
G01*
X153037896Y-141768117D01*
X153037896Y-141575712D01*
X153230301Y-141575712D01*
X153230301Y-141768117D01*
G37*
X153230301Y-141768117D02*
X153037896Y-141768117D01*
X153037896Y-141575712D01*
X153230301Y-141575712D01*
X153230301Y-141768117D01*
X152653006Y-143115111D02*
X152460602Y-143115111D01*
X152460602Y-143115111D02*
X152460602Y-142922705D01*
X152460602Y-142922705D02*
X152268197Y-142922705D01*
X152268197Y-142922705D02*
X152268197Y-142730301D01*
X152268197Y-142730301D02*
X152460602Y-142730301D01*
X152460602Y-142730301D02*
X152460602Y-142345412D01*
X152460602Y-142345412D02*
X152653006Y-142345412D01*
X152653006Y-142345412D02*
X152653006Y-143115111D01*
G36*
X152653006Y-143115111D02*
G01*
X152460602Y-143115111D01*
X152460602Y-142922705D01*
X152268197Y-142922705D01*
X152268197Y-142730301D01*
X152460602Y-142730301D01*
X152460602Y-142345412D01*
X152653006Y-142345412D01*
X152653006Y-143115111D01*
G37*
X152653006Y-143115111D02*
X152460602Y-143115111D01*
X152460602Y-142922705D01*
X152268197Y-142922705D01*
X152268197Y-142730301D01*
X152460602Y-142730301D01*
X152460602Y-142345412D01*
X152653006Y-142345412D01*
X152653006Y-143115111D01*
X151498497Y-140806013D02*
X151690902Y-140806013D01*
X151690902Y-140806013D02*
X151883307Y-140806013D01*
X151883307Y-140806013D02*
X151883307Y-140998418D01*
X151883307Y-140998418D02*
X152075712Y-140998418D01*
X152075712Y-140998418D02*
X152075712Y-141190902D01*
X152075712Y-141190902D02*
X151883307Y-141190902D01*
X151883307Y-141190902D02*
X151883307Y-141383307D01*
X151883307Y-141383307D02*
X151690902Y-141383307D01*
X151690902Y-141383307D02*
X151690902Y-141190902D01*
X151690902Y-141190902D02*
X151498497Y-141190902D01*
X151498497Y-141190902D02*
X151498497Y-141575712D01*
X151498497Y-141575712D02*
X151306013Y-141575712D01*
X151306013Y-141575712D02*
X151113608Y-141575712D01*
X151113608Y-141575712D02*
X151113608Y-141190902D01*
X151113608Y-141190902D02*
X151306013Y-141190902D01*
X151306013Y-141190902D02*
X151306013Y-140421203D01*
X151306013Y-140421203D02*
X151498497Y-140421203D01*
X151498497Y-140421203D02*
X151498497Y-140806013D01*
G36*
X151498497Y-140806013D02*
G01*
X151883307Y-140806013D01*
X151883307Y-140998418D01*
X152075712Y-140998418D01*
X152075712Y-141190902D01*
X151883307Y-141190902D01*
X151883307Y-141383307D01*
X151690902Y-141383307D01*
X151690902Y-141190902D01*
X151498497Y-141190902D01*
X151498497Y-141575712D01*
X151113608Y-141575712D01*
X151113608Y-141190902D01*
X151306013Y-141190902D01*
X151306013Y-140421203D01*
X151498497Y-140421203D01*
X151498497Y-140806013D01*
G37*
X151498497Y-140806013D02*
X151883307Y-140806013D01*
X151883307Y-140998418D01*
X152075712Y-140998418D01*
X152075712Y-141190902D01*
X151883307Y-141190902D01*
X151883307Y-141383307D01*
X151690902Y-141383307D01*
X151690902Y-141190902D01*
X151498497Y-141190902D01*
X151498497Y-141575712D01*
X151113608Y-141575712D01*
X151113608Y-141190902D01*
X151306013Y-141190902D01*
X151306013Y-140421203D01*
X151498497Y-140421203D01*
X151498497Y-140806013D01*
X148996915Y-139266614D02*
X148996915Y-139074209D01*
X148996915Y-139074209D02*
X149189399Y-139074209D01*
X149189399Y-139074209D02*
X149189399Y-138881804D01*
X149189399Y-138881804D02*
X149189399Y-139074209D01*
X149189399Y-139074209D02*
X148996915Y-139074209D01*
X148996915Y-139074209D02*
X148996915Y-138881804D01*
X148996915Y-138881804D02*
X149189399Y-138881804D01*
X149189399Y-138881804D02*
X149189399Y-138689320D01*
X149189399Y-138689320D02*
X149189399Y-138881804D01*
X149189399Y-138881804D02*
X148996915Y-138881804D01*
X148996915Y-138881804D02*
X148996915Y-138689320D01*
X148996915Y-138689320D02*
X149189399Y-138689320D01*
X149189399Y-138689320D02*
X149574209Y-138689320D01*
X149574209Y-138689320D02*
X149574209Y-139266614D01*
X149574209Y-139266614D02*
X149189399Y-139266614D01*
X149189399Y-139266614D02*
X149189399Y-139074209D01*
X149189399Y-139074209D02*
X149189399Y-139266614D01*
X149189399Y-139266614D02*
X148996915Y-139266614D01*
G36*
X149574209Y-139266614D02*
G01*
X148996915Y-139266614D01*
X148996915Y-138689320D01*
X149574209Y-138689320D01*
X149574209Y-139266614D01*
G37*
X149574209Y-139266614D02*
X148996915Y-139266614D01*
X148996915Y-138689320D01*
X149574209Y-138689320D01*
X149574209Y-139266614D01*
X152075712Y-142345412D02*
X152268197Y-142345412D01*
X152268197Y-142345412D02*
X152268197Y-142537817D01*
X152268197Y-142537817D02*
X151883307Y-142537817D01*
X151883307Y-142537817D02*
X151883307Y-142345411D01*
X151883307Y-142345411D02*
X152075712Y-142345411D01*
X152075712Y-142345411D02*
X152075712Y-142345412D01*
G36*
X152075712Y-142345412D02*
G01*
X152268197Y-142345412D01*
X152268197Y-142537817D01*
X151883307Y-142537817D01*
X151883307Y-142345411D01*
X152075712Y-142345411D01*
X152075712Y-142345412D01*
G37*
X152075712Y-142345412D02*
X152268197Y-142345412D01*
X152268197Y-142537817D01*
X151883307Y-142537817D01*
X151883307Y-142345411D01*
X152075712Y-142345411D01*
X152075712Y-142345412D01*
X148996915Y-140036314D02*
X149189399Y-140036314D01*
X149189399Y-140036314D02*
X149189399Y-139843909D01*
X149189399Y-139843909D02*
X149381804Y-139843909D01*
X149381804Y-139843909D02*
X149381804Y-140228719D01*
X149381804Y-140228719D02*
X149574209Y-140228719D01*
X149574209Y-140228719D02*
X149574209Y-140036314D01*
X149574209Y-140036314D02*
X149766614Y-140036314D01*
X149766614Y-140036314D02*
X149766614Y-139843909D01*
X149766614Y-139843909D02*
X149959099Y-139843909D01*
X149959099Y-139843909D02*
X149959099Y-140421203D01*
X149959099Y-140421203D02*
X149766614Y-140421203D01*
X149766614Y-140421203D02*
X149766614Y-140998418D01*
X149766614Y-140998418D02*
X149574209Y-140998418D01*
X149574209Y-140998418D02*
X149574209Y-140806013D01*
X149574209Y-140806013D02*
X149381804Y-140806013D01*
X149381804Y-140806013D02*
X149381804Y-140998418D01*
X149381804Y-140998418D02*
X149189399Y-140998418D01*
X149189399Y-140998418D02*
X149189399Y-140613608D01*
X149189399Y-140613608D02*
X149381804Y-140613608D01*
X149381804Y-140613608D02*
X149574209Y-140613608D01*
X149574209Y-140613608D02*
X149574209Y-140421203D01*
X149574209Y-140421203D02*
X149381804Y-140421203D01*
X149381804Y-140421203D02*
X149381804Y-140613608D01*
X149381804Y-140613608D02*
X149189399Y-140613608D01*
X149189399Y-140613608D02*
X149189399Y-140036314D01*
X149189399Y-140036314D02*
X149189399Y-140228719D01*
X149189399Y-140228719D02*
X148996915Y-140228719D01*
X148996915Y-140228719D02*
X148996915Y-140421203D01*
X148996915Y-140421203D02*
X148612105Y-140421203D01*
X148612105Y-140421203D02*
X148612105Y-139843909D01*
X148612105Y-139843909D02*
X148996915Y-139843909D01*
X148996915Y-139843909D02*
X148996915Y-140036314D01*
G36*
X148996915Y-140228719D02*
G01*
X148996915Y-140421203D01*
X148612105Y-140421203D01*
X148612105Y-139843909D01*
X148996915Y-139843909D01*
X148996915Y-140036314D01*
X149189399Y-140036314D01*
X149189399Y-139843909D01*
X149381804Y-139843909D01*
X149381804Y-140228719D01*
X149574209Y-140228719D01*
X149574209Y-140036314D01*
X149766614Y-140036314D01*
X149766614Y-139843909D01*
X149959099Y-139843909D01*
X149959099Y-140421203D01*
X149766614Y-140421203D01*
X149766614Y-140998418D01*
X149574209Y-140998418D01*
X149574209Y-140806013D01*
X149381804Y-140806013D01*
X149381804Y-140998418D01*
X149189399Y-140998418D01*
X149189399Y-140613608D01*
X149381804Y-140613608D01*
X149574209Y-140613608D01*
X149574209Y-140421203D01*
X149381804Y-140421203D01*
X149381804Y-140613608D01*
X149189399Y-140613608D01*
X149189399Y-140228719D01*
X148996915Y-140228719D01*
G37*
X148996915Y-140228719D02*
X148996915Y-140421203D01*
X148612105Y-140421203D01*
X148612105Y-139843909D01*
X148996915Y-139843909D01*
X148996915Y-140036314D01*
X149189399Y-140036314D01*
X149189399Y-139843909D01*
X149381804Y-139843909D01*
X149381804Y-140228719D01*
X149574209Y-140228719D01*
X149574209Y-140036314D01*
X149766614Y-140036314D01*
X149766614Y-139843909D01*
X149959099Y-139843909D01*
X149959099Y-140421203D01*
X149766614Y-140421203D01*
X149766614Y-140998418D01*
X149574209Y-140998418D01*
X149574209Y-140806013D01*
X149381804Y-140806013D01*
X149381804Y-140998418D01*
X149189399Y-140998418D01*
X149189399Y-140613608D01*
X149381804Y-140613608D01*
X149574209Y-140613608D01*
X149574209Y-140421203D01*
X149381804Y-140421203D01*
X149381804Y-140613608D01*
X149189399Y-140613608D01*
X149189399Y-140228719D01*
X148996915Y-140228719D01*
X153422706Y-144269699D02*
X153037896Y-144269699D01*
X153037896Y-144269699D02*
X153037896Y-144077215D01*
X153037896Y-144077215D02*
X153230301Y-144077215D01*
X153230301Y-144077215D02*
X153230301Y-143884810D01*
X153230301Y-143884810D02*
X153422706Y-143884810D01*
X153422706Y-143884810D02*
X153422706Y-144269699D01*
G36*
X153422706Y-144269699D02*
G01*
X153037896Y-144269699D01*
X153037896Y-144077215D01*
X153230301Y-144077215D01*
X153230301Y-143884810D01*
X153422706Y-143884810D01*
X153422706Y-144269699D01*
G37*
X153422706Y-144269699D02*
X153037896Y-144269699D01*
X153037896Y-144077215D01*
X153230301Y-144077215D01*
X153230301Y-143884810D01*
X153422706Y-143884810D01*
X153422706Y-144269699D01*
X150151504Y-140613608D02*
X150151504Y-140806013D01*
X150151504Y-140806013D02*
X149959099Y-140806013D01*
X149959099Y-140806013D02*
X149959099Y-140613608D01*
X149959099Y-140613608D02*
X150151504Y-140613608D01*
X150151504Y-140613608D02*
X150151504Y-140613608D01*
G36*
X150151504Y-140806013D02*
G01*
X149959099Y-140806013D01*
X149959099Y-140613608D01*
X150151504Y-140613608D01*
X150151504Y-140806013D01*
G37*
X150151504Y-140806013D02*
X149959099Y-140806013D01*
X149959099Y-140613608D01*
X150151504Y-140613608D01*
X150151504Y-140806013D01*
X154769700Y-143307516D02*
X154962105Y-143307516D01*
X154962105Y-143307516D02*
X154962105Y-144654510D01*
X154962105Y-144654510D02*
X154192406Y-144654510D01*
X154192406Y-144654510D02*
X154192406Y-144462105D01*
X154192406Y-144462105D02*
X154384811Y-144462105D01*
X154384811Y-144462105D02*
X154384811Y-144462104D01*
X154384811Y-144462104D02*
X154577295Y-144462104D01*
X154577295Y-144462104D02*
X154769700Y-144462104D01*
X154769700Y-144462104D02*
X154769700Y-143500000D01*
X154769700Y-143500000D02*
X154384811Y-143500000D01*
X154384811Y-143500000D02*
X154384811Y-143500001D01*
X154384811Y-143500001D02*
X154192406Y-143500001D01*
X154192406Y-143500001D02*
X154192406Y-143500000D01*
X154192406Y-143500000D02*
X154000001Y-143500000D01*
X154000001Y-143500000D02*
X154000001Y-143307516D01*
X154000001Y-143307516D02*
X154192406Y-143307516D01*
X154192406Y-143307516D02*
X154384811Y-143307516D01*
X154384811Y-143307516D02*
X154384811Y-143307515D01*
X154384811Y-143307515D02*
X154769700Y-143307515D01*
X154769700Y-143307515D02*
X154769700Y-143307516D01*
G36*
X154769700Y-143307516D02*
G01*
X154962105Y-143307516D01*
X154962105Y-144654510D01*
X154192406Y-144654510D01*
X154192406Y-144462105D01*
X154384811Y-144462105D01*
X154384811Y-144462104D01*
X154769700Y-144462104D01*
X154769700Y-143500000D01*
X154384811Y-143500000D01*
X154384811Y-143500001D01*
X154192406Y-143500001D01*
X154192406Y-143500000D01*
X154000001Y-143500000D01*
X154000001Y-143307516D01*
X154384811Y-143307516D01*
X154384811Y-143307515D01*
X154769700Y-143307515D01*
X154769700Y-143307516D01*
G37*
X154769700Y-143307516D02*
X154962105Y-143307516D01*
X154962105Y-144654510D01*
X154192406Y-144654510D01*
X154192406Y-144462105D01*
X154384811Y-144462105D01*
X154384811Y-144462104D01*
X154769700Y-144462104D01*
X154769700Y-143500000D01*
X154384811Y-143500000D01*
X154384811Y-143500001D01*
X154192406Y-143500001D01*
X154192406Y-143500000D01*
X154000001Y-143500000D01*
X154000001Y-143307516D01*
X154384811Y-143307516D01*
X154384811Y-143307515D01*
X154769700Y-143307515D01*
X154769700Y-143307516D01*
X154962105Y-143115111D02*
X154769700Y-143115111D01*
X154769700Y-143115111D02*
X154769700Y-142922706D01*
X154769700Y-142922706D02*
X154962105Y-142922706D01*
X154962105Y-142922706D02*
X154962105Y-143115111D01*
G36*
X154962105Y-143115111D02*
G01*
X154769700Y-143115111D01*
X154769700Y-142922706D01*
X154962105Y-142922706D01*
X154962105Y-143115111D01*
G37*
X154962105Y-143115111D02*
X154769700Y-143115111D01*
X154769700Y-142922706D01*
X154962105Y-142922706D01*
X154962105Y-143115111D01*
X153422706Y-144654510D02*
X153230301Y-144654510D01*
X153230301Y-144654510D02*
X153230301Y-144462104D01*
X153230301Y-144462104D02*
X153422706Y-144462104D01*
X153422706Y-144462104D02*
X153422706Y-144654510D01*
G36*
X153422706Y-144654510D02*
G01*
X153230301Y-144654510D01*
X153230301Y-144462104D01*
X153422706Y-144462104D01*
X153422706Y-144654510D01*
G37*
X153422706Y-144654510D02*
X153230301Y-144654510D01*
X153230301Y-144462104D01*
X153422706Y-144462104D01*
X153422706Y-144654510D01*
X154000000Y-138496915D02*
X153807595Y-138496915D01*
X153807595Y-138496915D02*
X153807595Y-139459019D01*
X153807595Y-139459019D02*
X154000000Y-139459019D01*
X154000000Y-139459019D02*
X154000000Y-139651504D01*
X154000000Y-139651504D02*
X153615111Y-139651504D01*
X153615111Y-139651504D02*
X153615111Y-138304510D01*
X153615111Y-138304510D02*
X154000000Y-138304510D01*
X154000000Y-138304510D02*
X154000000Y-138496915D01*
G36*
X154000000Y-138496915D02*
G01*
X153807595Y-138496915D01*
X153807595Y-139459019D01*
X154000000Y-139459019D01*
X154000000Y-139651504D01*
X153615111Y-139651504D01*
X153615111Y-138304510D01*
X154000000Y-138304510D01*
X154000000Y-138496915D01*
G37*
X154000000Y-138496915D02*
X153807595Y-138496915D01*
X153807595Y-139459019D01*
X154000000Y-139459019D01*
X154000000Y-139651504D01*
X153615111Y-139651504D01*
X153615111Y-138304510D01*
X154000000Y-138304510D01*
X154000000Y-138496915D01*
X154192406Y-140806013D02*
X154000001Y-140806013D01*
X154000001Y-140806013D02*
X154000001Y-140613608D01*
X154000001Y-140613608D02*
X154192406Y-140613608D01*
X154192406Y-140613608D02*
X154192406Y-140806013D01*
G36*
X154192406Y-140806013D02*
G01*
X154000001Y-140806013D01*
X154000001Y-140613608D01*
X154192406Y-140613608D01*
X154192406Y-140806013D01*
G37*
X154192406Y-140806013D02*
X154000001Y-140806013D01*
X154000001Y-140613608D01*
X154192406Y-140613608D01*
X154192406Y-140806013D01*
X152075712Y-138881804D02*
X151883307Y-138881804D01*
X151883307Y-138881804D02*
X151883307Y-138689320D01*
X151883307Y-138689320D02*
X152075712Y-138689320D01*
X152075712Y-138689320D02*
X152075712Y-138881804D01*
G36*
X152075712Y-138881804D02*
G01*
X151883307Y-138881804D01*
X151883307Y-138689320D01*
X152075712Y-138689320D01*
X152075712Y-138881804D01*
G37*
X152075712Y-138881804D02*
X151883307Y-138881804D01*
X151883307Y-138689320D01*
X152075712Y-138689320D01*
X152075712Y-138881804D01*
X153037896Y-141190902D02*
X153230301Y-141190902D01*
X153230301Y-141190902D02*
X153230301Y-141383307D01*
X153230301Y-141383307D02*
X153037896Y-141383307D01*
X153037896Y-141383307D02*
X153037896Y-141190902D01*
X153037896Y-141190902D02*
X152845412Y-141190902D01*
X152845412Y-141190902D02*
X152845412Y-141575712D01*
X152845412Y-141575712D02*
X152653007Y-141575712D01*
X152653007Y-141575712D02*
X152653007Y-140998418D01*
X152653007Y-140998418D02*
X153037896Y-140998418D01*
X153037896Y-140998418D02*
X153037896Y-141190902D01*
G36*
X153037896Y-141190902D02*
G01*
X152845412Y-141190902D01*
X152845412Y-141575712D01*
X152653007Y-141575712D01*
X152653007Y-140998418D01*
X153037896Y-140998418D01*
X153037896Y-141190902D01*
G37*
X153037896Y-141190902D02*
X152845412Y-141190902D01*
X152845412Y-141575712D01*
X152653007Y-141575712D01*
X152653007Y-140998418D01*
X153037896Y-140998418D01*
X153037896Y-141190902D01*
G36*
X153230301Y-141190902D02*
G01*
X153230301Y-141383307D01*
X153037896Y-141383307D01*
X153037896Y-141190902D01*
X153230301Y-141190902D01*
G37*
X153230301Y-141190902D02*
X153230301Y-141383307D01*
X153037896Y-141383307D01*
X153037896Y-141190902D01*
X153230301Y-141190902D01*
X150728798Y-144462104D02*
X150921203Y-144462104D01*
X150921203Y-144462104D02*
X150921203Y-144654510D01*
X150921203Y-144654510D02*
X150728798Y-144654510D01*
X150728798Y-144654510D02*
X150728798Y-144462105D01*
X150728798Y-144462105D02*
X150536314Y-144462105D01*
X150536314Y-144462105D02*
X150536314Y-144462104D01*
X150536314Y-144462104D02*
X150343909Y-144462104D01*
X150343909Y-144462104D02*
X150151504Y-144462104D01*
X150151504Y-144462104D02*
X150151504Y-144654510D01*
X150151504Y-144654510D02*
X149959099Y-144654510D01*
X149959099Y-144654510D02*
X149959099Y-144462104D01*
X149959099Y-144462104D02*
X150151504Y-144462104D01*
X150151504Y-144462104D02*
X149959099Y-144462104D01*
X149959099Y-144462104D02*
X150151504Y-144462104D01*
X150151504Y-144462104D02*
X150151504Y-144269699D01*
X150151504Y-144269699D02*
X150343909Y-144269699D01*
X150343909Y-144269699D02*
X150536314Y-144269699D01*
X150536314Y-144269699D02*
X150536314Y-144077216D01*
X150536314Y-144077216D02*
X150728798Y-144077216D01*
X150728798Y-144077216D02*
X150728798Y-144462104D01*
G36*
X150728798Y-144462104D02*
G01*
X150921203Y-144462104D01*
X150921203Y-144654510D01*
X150728798Y-144654510D01*
X150728798Y-144462105D01*
X150536314Y-144462105D01*
X150536314Y-144462104D01*
X150151504Y-144462104D01*
X150151504Y-144654510D01*
X149959099Y-144654510D01*
X149959099Y-144462104D01*
X150151504Y-144462104D01*
X150151504Y-144269699D01*
X150536314Y-144269699D01*
X150536314Y-144077216D01*
X150728798Y-144077216D01*
X150728798Y-144462104D01*
G37*
X150728798Y-144462104D02*
X150921203Y-144462104D01*
X150921203Y-144654510D01*
X150728798Y-144654510D01*
X150728798Y-144462105D01*
X150536314Y-144462105D01*
X150536314Y-144462104D01*
X150151504Y-144462104D01*
X150151504Y-144654510D01*
X149959099Y-144654510D01*
X149959099Y-144462104D01*
X150151504Y-144462104D01*
X150151504Y-144269699D01*
X150536314Y-144269699D01*
X150536314Y-144077216D01*
X150728798Y-144077216D01*
X150728798Y-144462104D01*
X149574209Y-141190902D02*
X149381804Y-141190902D01*
X149381804Y-141190902D02*
X149381804Y-140998418D01*
X149381804Y-140998418D02*
X149574209Y-140998418D01*
X149574209Y-140998418D02*
X149574209Y-141190902D01*
G36*
X149574209Y-141190902D02*
G01*
X149381804Y-141190902D01*
X149381804Y-140998418D01*
X149574209Y-140998418D01*
X149574209Y-141190902D01*
G37*
X149574209Y-141190902D02*
X149381804Y-141190902D01*
X149381804Y-140998418D01*
X149574209Y-140998418D01*
X149574209Y-141190902D01*
X154962105Y-138881804D02*
X154769700Y-138881804D01*
X154769700Y-138881804D02*
X154769700Y-138496915D01*
X154769700Y-138496915D02*
X154000001Y-138496915D01*
X154000001Y-138496915D02*
X154000001Y-138304510D01*
X154000001Y-138304510D02*
X154962105Y-138304510D01*
X154962105Y-138304510D02*
X154962105Y-138881804D01*
G36*
X154962105Y-138881804D02*
G01*
X154769700Y-138881804D01*
X154769700Y-138496915D01*
X154000001Y-138496915D01*
X154000001Y-138304510D01*
X154962105Y-138304510D01*
X154962105Y-138881804D01*
G37*
X154962105Y-138881804D02*
X154769700Y-138881804D01*
X154769700Y-138496915D01*
X154000001Y-138496915D01*
X154000001Y-138304510D01*
X154962105Y-138304510D01*
X154962105Y-138881804D01*
X152653006Y-138881804D02*
X152460602Y-138881804D01*
X152460602Y-138881804D02*
X152460602Y-138689320D01*
X152460602Y-138689320D02*
X152268197Y-138689320D01*
X152268197Y-138689320D02*
X152268197Y-138304510D01*
X152268197Y-138304510D02*
X152653006Y-138304510D01*
X152653006Y-138304510D02*
X152653006Y-138881804D01*
G36*
X152653006Y-138881804D02*
G01*
X152460602Y-138881804D01*
X152460602Y-138689320D01*
X152268197Y-138689320D01*
X152268197Y-138304510D01*
X152653006Y-138304510D01*
X152653006Y-138881804D01*
G37*
X152653006Y-138881804D02*
X152460602Y-138881804D01*
X152460602Y-138689320D01*
X152268197Y-138689320D01*
X152268197Y-138304510D01*
X152653006Y-138304510D01*
X152653006Y-138881804D01*
X153230301Y-142922706D02*
X153037896Y-142922706D01*
X153037896Y-142922706D02*
X153037896Y-142730301D01*
X153037896Y-142730301D02*
X153230301Y-142730301D01*
X153230301Y-142730301D02*
X153230301Y-142922706D01*
G36*
X153230301Y-142922706D02*
G01*
X153037896Y-142922706D01*
X153037896Y-142730301D01*
X153230301Y-142730301D01*
X153230301Y-142922706D01*
G37*
X153230301Y-142922706D02*
X153037896Y-142922706D01*
X153037896Y-142730301D01*
X153230301Y-142730301D01*
X153230301Y-142922706D01*
X154577295Y-140806013D02*
X154769700Y-140806013D01*
X154769700Y-140806013D02*
X154769700Y-140613608D01*
X154769700Y-140613608D02*
X154962105Y-140613608D01*
X154962105Y-140613608D02*
X154962105Y-141383307D01*
X154962105Y-141383307D02*
X154577295Y-141383307D01*
X154577295Y-141383307D02*
X154577295Y-141768117D01*
X154577295Y-141768117D02*
X154384811Y-141768117D01*
X154384811Y-141768117D02*
X154384811Y-141960601D01*
X154384811Y-141960601D02*
X154577295Y-141960601D01*
X154577295Y-141960601D02*
X154577295Y-142153007D01*
X154577295Y-142153007D02*
X154769700Y-142153007D01*
X154769700Y-142153007D02*
X154769700Y-142345411D01*
X154769700Y-142345411D02*
X154962105Y-142345411D01*
X154962105Y-142345411D02*
X154962105Y-142537817D01*
X154962105Y-142537817D02*
X154769700Y-142537817D01*
X154769700Y-142537817D02*
X154769700Y-142537816D01*
X154769700Y-142537816D02*
X154577295Y-142537816D01*
X154577295Y-142537816D02*
X154577295Y-142730301D01*
X154577295Y-142730301D02*
X154384811Y-142730301D01*
X154384811Y-142730301D02*
X154384811Y-142537817D01*
X154384811Y-142537817D02*
X154000001Y-142537817D01*
X154000001Y-142537817D02*
X154000001Y-142345411D01*
X154000001Y-142345411D02*
X154192406Y-142345411D01*
X154192406Y-142345411D02*
X154384811Y-142345411D01*
X154384811Y-142345411D02*
X154384811Y-142153007D01*
X154384811Y-142153007D02*
X154192406Y-142153007D01*
X154192406Y-142153007D02*
X154192406Y-142345411D01*
X154192406Y-142345411D02*
X154000001Y-142345411D01*
X154000001Y-142345411D02*
X154000001Y-142153007D01*
X154000001Y-142153007D02*
X154192406Y-142153007D01*
X154192406Y-142153007D02*
X154192406Y-141960602D01*
X154192406Y-141960602D02*
X154000001Y-141960602D01*
X154000001Y-141960602D02*
X154000001Y-141768117D01*
X154000001Y-141768117D02*
X154192406Y-141768117D01*
X154192406Y-141768117D02*
X154192406Y-141383307D01*
X154192406Y-141383307D02*
X154000001Y-141383307D01*
X154000001Y-141383307D02*
X154000001Y-140998418D01*
X154000001Y-140998418D02*
X154192406Y-140998418D01*
X154192406Y-140998418D02*
X154192406Y-141190902D01*
X154192406Y-141190902D02*
X154384811Y-141190902D01*
X154384811Y-141190902D02*
X154577295Y-141190902D01*
X154577295Y-141190902D02*
X154577295Y-140998418D01*
X154577295Y-140998418D02*
X154384811Y-140998418D01*
X154384811Y-140998418D02*
X154384811Y-140613608D01*
X154384811Y-140613608D02*
X154577295Y-140613608D01*
X154577295Y-140613608D02*
X154577295Y-140806013D01*
G36*
X154192406Y-142153007D02*
G01*
X154192406Y-141960602D01*
X154000001Y-141960602D01*
X154000001Y-141768117D01*
X154192406Y-141768117D01*
X154192406Y-141383307D01*
X154000001Y-141383307D01*
X154000001Y-140998418D01*
X154192406Y-140998418D01*
X154192406Y-141190902D01*
X154577295Y-141190902D01*
X154577295Y-140998418D01*
X154384811Y-140998418D01*
X154384811Y-140613608D01*
X154577295Y-140613608D01*
X154577295Y-140806013D01*
X154769700Y-140806013D01*
X154769700Y-140613608D01*
X154962105Y-140613608D01*
X154962105Y-141383307D01*
X154577295Y-141383307D01*
X154577295Y-141768117D01*
X154384811Y-141768117D01*
X154384811Y-141960601D01*
X154577295Y-141960601D01*
X154577295Y-142153007D01*
X154769700Y-142153007D01*
X154769700Y-142345411D01*
X154962105Y-142345411D01*
X154962105Y-142537817D01*
X154769700Y-142537817D01*
X154769700Y-142537816D01*
X154577295Y-142537816D01*
X154577295Y-142730301D01*
X154384811Y-142730301D01*
X154384811Y-142537817D01*
X154000001Y-142537817D01*
X154000001Y-142345411D01*
X154192406Y-142345411D01*
X154384811Y-142345411D01*
X154384811Y-142153007D01*
X154192406Y-142153007D01*
X154192406Y-142345411D01*
X154000001Y-142345411D01*
X154000001Y-142153007D01*
X154192406Y-142153007D01*
G37*
X154192406Y-142153007D02*
X154192406Y-141960602D01*
X154000001Y-141960602D01*
X154000001Y-141768117D01*
X154192406Y-141768117D01*
X154192406Y-141383307D01*
X154000001Y-141383307D01*
X154000001Y-140998418D01*
X154192406Y-140998418D01*
X154192406Y-141190902D01*
X154577295Y-141190902D01*
X154577295Y-140998418D01*
X154384811Y-140998418D01*
X154384811Y-140613608D01*
X154577295Y-140613608D01*
X154577295Y-140806013D01*
X154769700Y-140806013D01*
X154769700Y-140613608D01*
X154962105Y-140613608D01*
X154962105Y-141383307D01*
X154577295Y-141383307D01*
X154577295Y-141768117D01*
X154384811Y-141768117D01*
X154384811Y-141960601D01*
X154577295Y-141960601D01*
X154577295Y-142153007D01*
X154769700Y-142153007D01*
X154769700Y-142345411D01*
X154962105Y-142345411D01*
X154962105Y-142537817D01*
X154769700Y-142537817D01*
X154769700Y-142537816D01*
X154577295Y-142537816D01*
X154577295Y-142730301D01*
X154384811Y-142730301D01*
X154384811Y-142537817D01*
X154000001Y-142537817D01*
X154000001Y-142345411D01*
X154192406Y-142345411D01*
X154384811Y-142345411D01*
X154384811Y-142153007D01*
X154192406Y-142153007D01*
X154192406Y-142345411D01*
X154000001Y-142345411D01*
X154000001Y-142153007D01*
X154192406Y-142153007D01*
X152268197Y-144077216D02*
X152075712Y-144077216D01*
X152075712Y-144077216D02*
X152075712Y-143884811D01*
X152075712Y-143884811D02*
X152268197Y-143884811D01*
X152268197Y-143884811D02*
X152268197Y-144077216D01*
G36*
X152268197Y-144077216D02*
G01*
X152075712Y-144077216D01*
X152075712Y-143884811D01*
X152268197Y-143884811D01*
X152268197Y-144077216D01*
G37*
X152268197Y-144077216D02*
X152075712Y-144077216D01*
X152075712Y-143884811D01*
X152268197Y-143884811D01*
X152268197Y-144077216D01*
X149189399Y-143884810D02*
X148996915Y-143884810D01*
X148996915Y-143884810D02*
X148996915Y-144077215D01*
X148996915Y-144077215D02*
X148804510Y-144077215D01*
X148804510Y-144077215D02*
X148804510Y-144077216D01*
X148804510Y-144077216D02*
X148612105Y-144077216D01*
X148612105Y-144077216D02*
X148612105Y-143692406D01*
X148612105Y-143692406D02*
X148804510Y-143692406D01*
X148804510Y-143692406D02*
X148804510Y-143692405D01*
X148804510Y-143692405D02*
X148996915Y-143692405D01*
X148996915Y-143692405D02*
X149189399Y-143692405D01*
X149189399Y-143692405D02*
X149574209Y-143692405D01*
X149574209Y-143692405D02*
X149766614Y-143692405D01*
X149766614Y-143692405D02*
X149959099Y-143692405D01*
X149959099Y-143692405D02*
X150151504Y-143692405D01*
X150151504Y-143692405D02*
X150151504Y-143115110D01*
X150151504Y-143115110D02*
X150151504Y-142922705D01*
X150151504Y-142922705D02*
X150151504Y-143115110D01*
X150151504Y-143115110D02*
X149959099Y-143115110D01*
X149959099Y-143115110D02*
X149959099Y-143115111D01*
X149959099Y-143115111D02*
X149766614Y-143115111D01*
X149766614Y-143115111D02*
X149766614Y-143115110D01*
X149766614Y-143115110D02*
X149574209Y-143115110D01*
X149574209Y-143115110D02*
X149574209Y-143692405D01*
X149574209Y-143692405D02*
X149189399Y-143692405D01*
X149189399Y-143692405D02*
X149189399Y-143500001D01*
X149189399Y-143500001D02*
X149189399Y-143692405D01*
X149189399Y-143692405D02*
X148996915Y-143692405D01*
X148996915Y-143692405D02*
X148996915Y-143500000D01*
X148996915Y-143500000D02*
X149189399Y-143500000D01*
X149189399Y-143500000D02*
X149381804Y-143500000D01*
X149381804Y-143500000D02*
X149381804Y-143307516D01*
X149381804Y-143307516D02*
X149189399Y-143307516D01*
X149189399Y-143307516D02*
X149189399Y-143115111D01*
X149189399Y-143115111D02*
X149381804Y-143115111D01*
X149381804Y-143115111D02*
X149381804Y-142922706D01*
X149381804Y-142922706D02*
X149189399Y-142922706D01*
X149189399Y-142922706D02*
X149189399Y-142922705D01*
X149189399Y-142922705D02*
X149959099Y-142922705D01*
X149959099Y-142922705D02*
X150151504Y-142922705D01*
X150151504Y-142922705D02*
X150151504Y-142730301D01*
X150151504Y-142730301D02*
X150151504Y-142537816D01*
X150151504Y-142537816D02*
X150151504Y-142730301D01*
X150151504Y-142730301D02*
X149959099Y-142730301D01*
X149959099Y-142730301D02*
X149959099Y-142922705D01*
X149959099Y-142922705D02*
X149189399Y-142922705D01*
X149189399Y-142922705D02*
X149189399Y-142730301D01*
X149189399Y-142730301D02*
X149381804Y-142730301D01*
X149381804Y-142730301D02*
X149766614Y-142730301D01*
X149766614Y-142730301D02*
X149766614Y-142345411D01*
X149766614Y-142345411D02*
X149959099Y-142345411D01*
X149959099Y-142345411D02*
X149959099Y-142537816D01*
X149959099Y-142537816D02*
X150151504Y-142537816D01*
X150151504Y-142537816D02*
X150151504Y-142345412D01*
X150151504Y-142345412D02*
X150343909Y-142345412D01*
X150343909Y-142345412D02*
X150343909Y-142537816D01*
X150343909Y-142537816D02*
X150536314Y-142537816D01*
X150536314Y-142537816D02*
X150536314Y-142922706D01*
X150536314Y-142922706D02*
X150728798Y-142922706D01*
X150728798Y-142922706D02*
X150728798Y-143115111D01*
X150728798Y-143115111D02*
X150536314Y-143115111D01*
X150536314Y-143115111D02*
X150536314Y-143115110D01*
X150536314Y-143115110D02*
X150343909Y-143115110D01*
X150343909Y-143115110D02*
X150343909Y-143307515D01*
X150343909Y-143307515D02*
X150536314Y-143307515D01*
X150536314Y-143307515D02*
X150536314Y-143307516D01*
X150536314Y-143307516D02*
X150728798Y-143307516D01*
X150728798Y-143307516D02*
X150728798Y-143500000D01*
X150728798Y-143500000D02*
X150921203Y-143500000D01*
X150921203Y-143500000D02*
X150921203Y-143115111D01*
X150921203Y-143115111D02*
X151113608Y-143115111D01*
X151113608Y-143115111D02*
X151113608Y-144077215D01*
X151113608Y-144077215D02*
X150921203Y-144077215D01*
X150921203Y-144077215D02*
X150921203Y-144077214D01*
X150921203Y-144077214D02*
X150728798Y-144077214D01*
X150728798Y-144077214D02*
X150728798Y-143884809D01*
X150728798Y-143884809D02*
X150921203Y-143884809D01*
X150921203Y-143884809D02*
X150921203Y-143692405D01*
X150921203Y-143692405D02*
X150728798Y-143692405D01*
X150728798Y-143692405D02*
X150536314Y-143692405D01*
X150536314Y-143692405D02*
X150536314Y-144077214D01*
X150536314Y-144077214D02*
X150343909Y-144077214D01*
X150343909Y-144077214D02*
X150343909Y-143884810D01*
X150343909Y-143884810D02*
X150151504Y-143884810D01*
X150151504Y-143884810D02*
X150151504Y-143884809D01*
X150151504Y-143884809D02*
X150151504Y-143692405D01*
X150151504Y-143692405D02*
X150151504Y-143884809D01*
X150151504Y-143884809D02*
X149959099Y-143884809D01*
X149959099Y-143884809D02*
X149959099Y-143884810D01*
X149959099Y-143884810D02*
X149766614Y-143884810D01*
X149766614Y-143884810D02*
X149766614Y-144077215D01*
X149766614Y-144077215D02*
X149959099Y-144077215D01*
X149959099Y-144077215D02*
X149959099Y-144269699D01*
X149959099Y-144269699D02*
X149766614Y-144269699D01*
X149766614Y-144269699D02*
X149766614Y-144462104D01*
X149766614Y-144462104D02*
X149574209Y-144462104D01*
X149574209Y-144462104D02*
X149574209Y-144654510D01*
X149574209Y-144654510D02*
X148996915Y-144654510D01*
X148996915Y-144654510D02*
X148996915Y-144462104D01*
X148996915Y-144462104D02*
X149189399Y-144462104D01*
X149189399Y-144462104D02*
X149189399Y-144462105D01*
X149189399Y-144462105D02*
X149381804Y-144462105D01*
X149381804Y-144462105D02*
X149381804Y-144269700D01*
X149381804Y-144269700D02*
X149189399Y-144269700D01*
X149189399Y-144269700D02*
X149189399Y-144077216D01*
X149189399Y-144077216D02*
X149381804Y-144077216D01*
X149381804Y-144077216D02*
X149381804Y-144269699D01*
X149381804Y-144269699D02*
X149574209Y-144269699D01*
X149574209Y-144269699D02*
X149574209Y-143884809D01*
X149574209Y-143884809D02*
X149381804Y-143884809D01*
X149381804Y-143884809D02*
X149381804Y-143692405D01*
X149381804Y-143692405D02*
X149189399Y-143692405D01*
X149189399Y-143692405D02*
X149189399Y-143884810D01*
G36*
X148996915Y-143884810D02*
G01*
X148996915Y-144077215D01*
X148804510Y-144077215D01*
X148804510Y-144077216D01*
X148612105Y-144077216D01*
X148612105Y-143692406D01*
X148804510Y-143692406D01*
X148804510Y-143692405D01*
X148996915Y-143692405D01*
X148996915Y-143500000D01*
X149381804Y-143500000D01*
X149381804Y-143307516D01*
X149189399Y-143307516D01*
X149189399Y-143115111D01*
X149381804Y-143115111D01*
X149381804Y-142922706D01*
X149189399Y-142922706D01*
X149189399Y-142922705D01*
X149959099Y-142922705D01*
X150151504Y-142922705D01*
X150151504Y-142730301D01*
X149959099Y-142730301D01*
X149959099Y-142922705D01*
X149189399Y-142922705D01*
X149189399Y-142730301D01*
X149766614Y-142730301D01*
X149766614Y-142345411D01*
X149959099Y-142345411D01*
X149959099Y-142537816D01*
X150151504Y-142537816D01*
X150151504Y-142345412D01*
X150343909Y-142345412D01*
X150343909Y-142537816D01*
X150536314Y-142537816D01*
X150536314Y-142922706D01*
X150728798Y-142922706D01*
X150728798Y-143115111D01*
X150536314Y-143115111D01*
X150536314Y-143115110D01*
X150343909Y-143115110D01*
X150343909Y-143307515D01*
X150536314Y-143307515D01*
X150536314Y-143307516D01*
X150728798Y-143307516D01*
X150728798Y-143500000D01*
X150921203Y-143500000D01*
X150921203Y-143115111D01*
X151113608Y-143115111D01*
X151113608Y-144077215D01*
X150921203Y-144077215D01*
X150921203Y-144077214D01*
X150728798Y-144077214D01*
X150728798Y-143884809D01*
X150921203Y-143884809D01*
X150921203Y-143692405D01*
X150536314Y-143692405D01*
X150536314Y-144077214D01*
X150343909Y-144077214D01*
X150343909Y-143884810D01*
X150151504Y-143884810D01*
X150151504Y-143884809D01*
X149959099Y-143884809D01*
X149959099Y-143884810D01*
X149766614Y-143884810D01*
X149766614Y-144077215D01*
X149959099Y-144077215D01*
X149959099Y-144269699D01*
X149766614Y-144269699D01*
X149766614Y-144462104D01*
X149574209Y-144462104D01*
X149574209Y-144654510D01*
X148996915Y-144654510D01*
X148996915Y-144462104D01*
X149189399Y-144462104D01*
X149189399Y-144462105D01*
X149381804Y-144462105D01*
X149381804Y-144269700D01*
X149189399Y-144269700D01*
X149189399Y-144077216D01*
X149381804Y-144077216D01*
X149381804Y-144269699D01*
X149574209Y-144269699D01*
X149574209Y-143884809D01*
X149381804Y-143884809D01*
X149381804Y-143692405D01*
X149574209Y-143692405D01*
X150151504Y-143692405D01*
X150151504Y-143115110D01*
X149959099Y-143115110D01*
X149959099Y-143115111D01*
X149766614Y-143115111D01*
X149766614Y-143115110D01*
X149574209Y-143115110D01*
X149574209Y-143692405D01*
X149381804Y-143692405D01*
X149189399Y-143692405D01*
X149189399Y-143884810D01*
X148996915Y-143884810D01*
G37*
X148996915Y-143884810D02*
X148996915Y-144077215D01*
X148804510Y-144077215D01*
X148804510Y-144077216D01*
X148612105Y-144077216D01*
X148612105Y-143692406D01*
X148804510Y-143692406D01*
X148804510Y-143692405D01*
X148996915Y-143692405D01*
X148996915Y-143500000D01*
X149381804Y-143500000D01*
X149381804Y-143307516D01*
X149189399Y-143307516D01*
X149189399Y-143115111D01*
X149381804Y-143115111D01*
X149381804Y-142922706D01*
X149189399Y-142922706D01*
X149189399Y-142922705D01*
X149959099Y-142922705D01*
X150151504Y-142922705D01*
X150151504Y-142730301D01*
X149959099Y-142730301D01*
X149959099Y-142922705D01*
X149189399Y-142922705D01*
X149189399Y-142730301D01*
X149766614Y-142730301D01*
X149766614Y-142345411D01*
X149959099Y-142345411D01*
X149959099Y-142537816D01*
X150151504Y-142537816D01*
X150151504Y-142345412D01*
X150343909Y-142345412D01*
X150343909Y-142537816D01*
X150536314Y-142537816D01*
X150536314Y-142922706D01*
X150728798Y-142922706D01*
X150728798Y-143115111D01*
X150536314Y-143115111D01*
X150536314Y-143115110D01*
X150343909Y-143115110D01*
X150343909Y-143307515D01*
X150536314Y-143307515D01*
X150536314Y-143307516D01*
X150728798Y-143307516D01*
X150728798Y-143500000D01*
X150921203Y-143500000D01*
X150921203Y-143115111D01*
X151113608Y-143115111D01*
X151113608Y-144077215D01*
X150921203Y-144077215D01*
X150921203Y-144077214D01*
X150728798Y-144077214D01*
X150728798Y-143884809D01*
X150921203Y-143884809D01*
X150921203Y-143692405D01*
X150536314Y-143692405D01*
X150536314Y-144077214D01*
X150343909Y-144077214D01*
X150343909Y-143884810D01*
X150151504Y-143884810D01*
X150151504Y-143884809D01*
X149959099Y-143884809D01*
X149959099Y-143884810D01*
X149766614Y-143884810D01*
X149766614Y-144077215D01*
X149959099Y-144077215D01*
X149959099Y-144269699D01*
X149766614Y-144269699D01*
X149766614Y-144462104D01*
X149574209Y-144462104D01*
X149574209Y-144654510D01*
X148996915Y-144654510D01*
X148996915Y-144462104D01*
X149189399Y-144462104D01*
X149189399Y-144462105D01*
X149381804Y-144462105D01*
X149381804Y-144269700D01*
X149189399Y-144269700D01*
X149189399Y-144077216D01*
X149381804Y-144077216D01*
X149381804Y-144269699D01*
X149574209Y-144269699D01*
X149574209Y-143884809D01*
X149381804Y-143884809D01*
X149381804Y-143692405D01*
X149574209Y-143692405D01*
X150151504Y-143692405D01*
X150151504Y-143115110D01*
X149959099Y-143115110D01*
X149959099Y-143115111D01*
X149766614Y-143115111D01*
X149766614Y-143115110D01*
X149574209Y-143115110D01*
X149574209Y-143692405D01*
X149381804Y-143692405D01*
X149189399Y-143692405D01*
X149189399Y-143884810D01*
X148996915Y-143884810D01*
X154384811Y-142922706D02*
X154192406Y-142922706D01*
X154192406Y-142922706D02*
X154192406Y-142730301D01*
X154192406Y-142730301D02*
X154384811Y-142730301D01*
X154384811Y-142730301D02*
X154384811Y-142922706D01*
G36*
X154384811Y-142922706D02*
G01*
X154192406Y-142922706D01*
X154192406Y-142730301D01*
X154384811Y-142730301D01*
X154384811Y-142922706D01*
G37*
X154384811Y-142922706D02*
X154192406Y-142922706D01*
X154192406Y-142730301D01*
X154384811Y-142730301D01*
X154384811Y-142922706D01*
X154962105Y-139651504D02*
X154000001Y-139651504D01*
X154000001Y-139651504D02*
X154000001Y-139459019D01*
X154000001Y-139459019D02*
X154769700Y-139459019D01*
X154769700Y-139459019D02*
X154769700Y-139074209D01*
X154769700Y-139074209D02*
X154962105Y-139074209D01*
X154962105Y-139074209D02*
X154962105Y-139651504D01*
G36*
X154962105Y-139651504D02*
G01*
X154000001Y-139651504D01*
X154000001Y-139459019D01*
X154769700Y-139459019D01*
X154769700Y-139074209D01*
X154962105Y-139074209D01*
X154962105Y-139651504D01*
G37*
X154962105Y-139651504D02*
X154000001Y-139651504D01*
X154000001Y-139459019D01*
X154769700Y-139459019D01*
X154769700Y-139074209D01*
X154962105Y-139074209D01*
X154962105Y-139651504D01*
X150343909Y-139651504D02*
X150151504Y-139651504D01*
X150151504Y-139651504D02*
X150151504Y-139266614D01*
X150151504Y-139266614D02*
X150343909Y-139266614D01*
X150343909Y-139266614D02*
X150343909Y-139651504D01*
G36*
X150343909Y-139651504D02*
G01*
X150151504Y-139651504D01*
X150151504Y-139266614D01*
X150343909Y-139266614D01*
X150343909Y-139651504D01*
G37*
X150343909Y-139651504D02*
X150151504Y-139651504D01*
X150151504Y-139266614D01*
X150343909Y-139266614D01*
X150343909Y-139651504D01*
D12*
X157500001Y-132750000D03*
X157500001Y-137250000D03*
X157500001Y-132000000D03*
X157500001Y-134250000D03*
X157500001Y-133500000D03*
X157500001Y-135750000D03*
X157500001Y-135000000D03*
X157500001Y-138000000D03*
X157500001Y-136500000D03*
X157500001Y-69249999D03*
X157500001Y-71499999D03*
X157500001Y-69999999D03*
X157500001Y-70749999D03*
X157500001Y-68499999D03*
X157500001Y-66999999D03*
X157500001Y-67749999D03*
X157500001Y-72999999D03*
X157500001Y-72249999D03*
X192285711Y-78500000D03*
X190142856Y-78500000D03*
X190857141Y-78500000D03*
X191571426Y-78500000D03*
X188000001Y-78500000D03*
X188714286Y-78500000D03*
X193000001Y-78500000D03*
X189428571Y-78500000D03*
X190857141Y-130459999D03*
X188000001Y-130459999D03*
X189428571Y-130459999D03*
X188714286Y-130459999D03*
X193000001Y-130459999D03*
X192285711Y-130459999D03*
X190142856Y-130459999D03*
X191571426Y-130459999D03*
X164500001Y-92460000D03*
X163071426Y-92460000D03*
X160214286Y-92460000D03*
X162357141Y-92460000D03*
X160928571Y-92460000D03*
X161642856Y-92460000D03*
X163785711Y-92460000D03*
X159500001Y-92460000D03*
X190857141Y-92460000D03*
X191571426Y-92460000D03*
X190142856Y-92460000D03*
X193000001Y-92460000D03*
X188714286Y-92460000D03*
X192285711Y-92460000D03*
X189428571Y-92460000D03*
X188000001Y-92460000D03*
X163785711Y-111460000D03*
X160928571Y-111460000D03*
X161642856Y-111460000D03*
X160214286Y-111460000D03*
X159500001Y-111460000D03*
X163071426Y-111460000D03*
X162357141Y-111460000D03*
X164500001Y-111460000D03*
D13*
X172000001Y-100040000D03*
D12*
X171350001Y-102540000D03*
X172750001Y-92460000D03*
X172050001Y-92460000D03*
D14*
X170365001Y-98770000D03*
D13*
X170000001Y-100040000D03*
D12*
X170650001Y-92460000D03*
X171350001Y-92460000D03*
X170650001Y-102540000D03*
X169950001Y-102540000D03*
D14*
X171635001Y-97500000D03*
X171635001Y-96230000D03*
D12*
X169250001Y-92460000D03*
X169950001Y-92460000D03*
D14*
X170365001Y-96230000D03*
D13*
X171000001Y-94960000D03*
D14*
X170365001Y-97500000D03*
D12*
X172750001Y-102540000D03*
X169250001Y-102540000D03*
X172050001Y-102540000D03*
D14*
X171635001Y-98770000D03*
D13*
X168460001Y-82000000D03*
D14*
X169730001Y-81635000D03*
X169730001Y-80365000D03*
D12*
X168810001Y-78500000D03*
D14*
X172270001Y-81635000D03*
D12*
X169510001Y-78500000D03*
D13*
X173540001Y-81000000D03*
D12*
X170210001Y-78500000D03*
X170910001Y-78500000D03*
D14*
X172270001Y-80365000D03*
D12*
X170210001Y-83500000D03*
X171610001Y-83500000D03*
D14*
X171000001Y-80365000D03*
D13*
X168460001Y-80000000D03*
D12*
X169510001Y-83500000D03*
X171610001Y-78500000D03*
D14*
X171000001Y-81635000D03*
D12*
X170910001Y-83500000D03*
X168810001Y-83500000D03*
X181850001Y-92460000D03*
X179750001Y-92460000D03*
D14*
X182135001Y-97500000D03*
D13*
X181500001Y-94960000D03*
D14*
X180865001Y-97500000D03*
D12*
X180450001Y-92460000D03*
D14*
X180865001Y-96230000D03*
D12*
X182550001Y-92460000D03*
X181150001Y-102540000D03*
X182550001Y-102540000D03*
X181850001Y-102540000D03*
D14*
X180865001Y-98770000D03*
D12*
X183250001Y-92460000D03*
D14*
X182135001Y-98770000D03*
X182135001Y-96230000D03*
D12*
X179750001Y-102540000D03*
X181150001Y-92460000D03*
D13*
X182500001Y-100040000D03*
D12*
X180450001Y-102540000D03*
D13*
X180500001Y-100040000D03*
D12*
X183250001Y-102540000D03*
D14*
X171635001Y-116500000D03*
D12*
X172050001Y-121540000D03*
D13*
X172000001Y-119040000D03*
D14*
X170365001Y-115230000D03*
X171635001Y-117770000D03*
D12*
X169250001Y-111460000D03*
X172750001Y-121540000D03*
X169950001Y-121540000D03*
X169950001Y-111460000D03*
X169250001Y-121540000D03*
X171350001Y-121540000D03*
D13*
X171000001Y-113960000D03*
D14*
X170365001Y-117770000D03*
D12*
X172050001Y-111460000D03*
X172750001Y-111460000D03*
D14*
X170365001Y-116500000D03*
D12*
X171350001Y-111460000D03*
X170650001Y-111460000D03*
D14*
X171635001Y-115230000D03*
D12*
X170650001Y-121540000D03*
D13*
X170000001Y-119040000D03*
D12*
X190142856Y-64500000D03*
X188000001Y-64500000D03*
X192285711Y-64500000D03*
X190857141Y-64500000D03*
X191571426Y-64500000D03*
X193000001Y-64500000D03*
X189428571Y-64500000D03*
X188714286Y-64500000D03*
X163785711Y-130460000D03*
X163071426Y-130460000D03*
X160214286Y-130460000D03*
X162357141Y-130460000D03*
X161642856Y-130460000D03*
X164500001Y-130460000D03*
X159500001Y-130460000D03*
X160928571Y-130460000D03*
X181150001Y-111460000D03*
X181150001Y-121540000D03*
D14*
X180865001Y-117770000D03*
X182135001Y-115230000D03*
D12*
X181850001Y-121540000D03*
D13*
X182500001Y-119040000D03*
D12*
X183250001Y-111460000D03*
X179750001Y-111460000D03*
X181850001Y-111460000D03*
X180450001Y-121540000D03*
D14*
X180865001Y-116500000D03*
D12*
X180450001Y-111460000D03*
X183250001Y-121540000D03*
X182550001Y-111460000D03*
X179750001Y-121540000D03*
D13*
X181500001Y-113960000D03*
D14*
X180865001Y-115230000D03*
X182135001Y-116500000D03*
X182135001Y-117770000D03*
D12*
X182550001Y-121540000D03*
D13*
X180500001Y-119040000D03*
D12*
X157500001Y-99500000D03*
X157500001Y-101000000D03*
X157500001Y-100250000D03*
X157500001Y-105500000D03*
X157500001Y-101750000D03*
X157500001Y-102500000D03*
X157500001Y-104750000D03*
X157500001Y-103250000D03*
X157500001Y-104000000D03*
D13*
X170000001Y-138040000D03*
D12*
X172050001Y-140540000D03*
X172050001Y-130460000D03*
X169950001Y-130460000D03*
X172750001Y-140540000D03*
D14*
X170365001Y-136770000D03*
D12*
X170650001Y-140540000D03*
X169250001Y-130460000D03*
X171350001Y-140540000D03*
D14*
X171635001Y-136770000D03*
D13*
X172000001Y-138040000D03*
D14*
X171635001Y-134230000D03*
X170365001Y-134230000D03*
D12*
X170650001Y-130460000D03*
X169250001Y-140540000D03*
X171350001Y-130460000D03*
X169950001Y-140540000D03*
D14*
X171635001Y-135500000D03*
D12*
X172750001Y-130460000D03*
D13*
X171000001Y-132960000D03*
D14*
X170365001Y-135500000D03*
D12*
X181410001Y-64500000D03*
X182110001Y-64500000D03*
X179310001Y-64500000D03*
X182110001Y-69500000D03*
X181410001Y-69500000D03*
X180710001Y-69500000D03*
X179310001Y-69500000D03*
X180010001Y-64500000D03*
X180010001Y-69500000D03*
X180710001Y-64500000D03*
D15*
X182770001Y-66365000D03*
D16*
X182770001Y-67635000D03*
D15*
X181500001Y-66365000D03*
D16*
X181500001Y-67635000D03*
D15*
X180230001Y-66365000D03*
D16*
X180230001Y-67635000D03*
D17*
X178960001Y-66000000D03*
D18*
X184040001Y-67000000D03*
D19*
X178960001Y-68000000D03*
D13*
X143500001Y-127460001D03*
X144500001Y-132540001D03*
X144500001Y-132540001D03*
X143500001Y-127460001D03*
X142500001Y-132540001D03*
X142500001Y-132540001D03*
D12*
X190142856Y-111460001D03*
X188000001Y-111460001D03*
X189428571Y-111460001D03*
X188714286Y-111460001D03*
X193000001Y-111460001D03*
X190857141Y-111460001D03*
X191571426Y-111460001D03*
X192285711Y-111460001D03*
X160214286Y-64500000D03*
X160928571Y-64500000D03*
X163071426Y-64500000D03*
X164500001Y-64500000D03*
X159500001Y-64500000D03*
X162357141Y-64500000D03*
X161642856Y-64500000D03*
X163785711Y-64500000D03*
X182550000Y-130460000D03*
X180450000Y-130460000D03*
X182550000Y-140540000D03*
X181150000Y-140540000D03*
X183250000Y-130460000D03*
X179750000Y-130460000D03*
X181150000Y-130460000D03*
X180450000Y-140540000D03*
X181850000Y-130460000D03*
X179750000Y-140540000D03*
X181850000Y-140540000D03*
X183250000Y-140540000D03*
D20*
X180865000Y-134230000D03*
D21*
X182135000Y-134230000D03*
D20*
X180865000Y-135500000D03*
D21*
X182135000Y-135500000D03*
D20*
X180865000Y-136770000D03*
D21*
X182135000Y-136770000D03*
D17*
X182500000Y-138040000D03*
D22*
X180500000Y-138040000D03*
D23*
X181500000Y-132960000D03*
D12*
X163785711Y-78500000D03*
X162357141Y-78500000D03*
X159500001Y-78500000D03*
X163071426Y-78500000D03*
X160214286Y-78500000D03*
X161642856Y-78500000D03*
X160928571Y-78500000D03*
X164500001Y-78500000D03*
D13*
X168460001Y-66000000D03*
D12*
X168810001Y-64500000D03*
X170910001Y-69500000D03*
D13*
X168460001Y-68000000D03*
D12*
X169510001Y-64500000D03*
D14*
X169730001Y-66365000D03*
X169730001Y-67635000D03*
D12*
X171610001Y-69500000D03*
D13*
X173540001Y-67000000D03*
D12*
X170210001Y-69500000D03*
X170210001Y-64500000D03*
X169510001Y-69500000D03*
D14*
X172270001Y-67635000D03*
D12*
X170910001Y-64500000D03*
D14*
X171000001Y-66365000D03*
X171000001Y-67635000D03*
X172270001Y-66365000D03*
D12*
X171610001Y-64500000D03*
X168810001Y-69500000D03*
D13*
X178960001Y-80000000D03*
X184040001Y-81000000D03*
D12*
X180010001Y-83500000D03*
D14*
X180230001Y-80365000D03*
D12*
X181410001Y-78500000D03*
X179310001Y-83500000D03*
D14*
X182770001Y-81635000D03*
D12*
X180010001Y-78500000D03*
D14*
X180230001Y-81635000D03*
D12*
X180710001Y-83500000D03*
D14*
X181500001Y-80365000D03*
D12*
X181410001Y-83500000D03*
D13*
X178960001Y-82000000D03*
D12*
X182110001Y-78500000D03*
X180710001Y-78500000D03*
D14*
X181500001Y-81635000D03*
X182770001Y-80365000D03*
D12*
X182110001Y-83500000D03*
X179310001Y-78500000D03*
G36*
X182252039Y-138041201D02*
G01*
X182331008Y-138056909D01*
X182353538Y-138066241D01*
X182415269Y-138107488D01*
X182432513Y-138124732D01*
X182473760Y-138186463D01*
X182483092Y-138208993D01*
X182498800Y-138287962D01*
X182500001Y-138300155D01*
X182500000Y-138888635D01*
X182498799Y-138900828D01*
X182483091Y-138979797D01*
X182473759Y-139002327D01*
X182429024Y-139069278D01*
X182421251Y-139078749D01*
X182078749Y-139421252D01*
X182069278Y-139429025D01*
X182002327Y-139473760D01*
X181979797Y-139483092D01*
X181900828Y-139498800D01*
X181888635Y-139500001D01*
X181111366Y-139500001D01*
X181099173Y-139498800D01*
X181020204Y-139483092D01*
X180997674Y-139473760D01*
X180930723Y-139429025D01*
X180921252Y-139421252D01*
X180578750Y-139078749D01*
X180570977Y-139069278D01*
X180526242Y-139002327D01*
X180516910Y-138979797D01*
X180501202Y-138900828D01*
X180500001Y-138888635D01*
X180500001Y-138300155D01*
X180501202Y-138287962D01*
X180516910Y-138208992D01*
X180526242Y-138186462D01*
X180567489Y-138124732D01*
X180584733Y-138107488D01*
X180646463Y-138066241D01*
X180668993Y-138056909D01*
X180747963Y-138041201D01*
X180760156Y-138040000D01*
X182239846Y-138040000D01*
X182252039Y-138041201D01*
G37*
G36*
X178931695Y-66018306D02*
G01*
X178950001Y-66062500D01*
X178950001Y-67937500D01*
X178931695Y-67981694D01*
X178887501Y-68000000D01*
X177772501Y-68000000D01*
X177728307Y-67981694D01*
X177710001Y-67937500D01*
X177710001Y-66062500D01*
X177728307Y-66018306D01*
X177772501Y-66000000D01*
X178887501Y-66000000D01*
X178931695Y-66018306D01*
G37*
G36*
X182008171Y-131502420D02*
G01*
X182068620Y-131514444D01*
X182114040Y-131533258D01*
X182154766Y-131560470D01*
X182189530Y-131595234D01*
X182216742Y-131635960D01*
X182235556Y-131681380D01*
X182247580Y-131741829D01*
X182250001Y-131766410D01*
X182250001Y-132092379D01*
X182247580Y-132116960D01*
X182235556Y-132177409D01*
X182216742Y-132222830D01*
X182182498Y-132274080D01*
X182166828Y-132293173D01*
X181688383Y-132771618D01*
X181669290Y-132787288D01*
X181618043Y-132821530D01*
X181572623Y-132840344D01*
X181524583Y-132849900D01*
X181475419Y-132849900D01*
X181427379Y-132840344D01*
X181381959Y-132821530D01*
X181330712Y-132787288D01*
X181311619Y-132771618D01*
X180833174Y-132293173D01*
X180817504Y-132274080D01*
X180783260Y-132222830D01*
X180764446Y-132177409D01*
X180752422Y-132116960D01*
X180750001Y-132092379D01*
X180750001Y-131766411D01*
X180752422Y-131741829D01*
X180764447Y-131681378D01*
X180783261Y-131635959D01*
X180810471Y-131595236D01*
X180845232Y-131560473D01*
X180885959Y-131533259D01*
X180931383Y-131514444D01*
X180991830Y-131502421D01*
X181016410Y-131500000D01*
X181983590Y-131499999D01*
X182008171Y-131502420D01*
G37*
G36*
X184948013Y-66180376D02*
G01*
X184959304Y-66195800D01*
X185192986Y-66646471D01*
X185200001Y-66675241D01*
X185200000Y-67315006D01*
X185193198Y-67343361D01*
X184959043Y-67803311D01*
X184922679Y-67834390D01*
X184874990Y-67830654D01*
X184859151Y-67819150D01*
X184084195Y-67044194D01*
X184065889Y-67000000D01*
X184084195Y-66955806D01*
X184859625Y-66180376D01*
X184903819Y-66162070D01*
X184948013Y-66180376D01*
G37*
M02*
