G04 #@! TF.GenerationSoftware,KiCad,Pcbnew,(6.0.2-0)*
G04 #@! TF.CreationDate,2022-08-08T09:45:33+12:00*
G04 #@! TF.ProjectId,stamp_attach,7374616d-705f-4617-9474-6163682e6b69,rev?*
G04 #@! TF.SameCoordinates,Original*
G04 #@! TF.FileFunction,Soldermask,Top*
G04 #@! TF.FilePolarity,Negative*
%FSLAX46Y46*%
G04 Gerber Fmt 4.6, Leading zero omitted, Abs format (unit mm)*
G04 Created by KiCad (PCBNEW (6.0.2-0)) date 2022-08-08 09:45:33*
%MOMM*%
%LPD*%
G01*
G04 APERTURE LIST*
G04 Aperture macros list*
%AMRoundRect*
0 Rectangle with rounded corners*
0 $1 Rounding radius*
0 $2 $3 $4 $5 $6 $7 $8 $9 X,Y pos of 4 corners*
0 Add a 4 corners polygon primitive as box body*
4,1,4,$2,$3,$4,$5,$6,$7,$8,$9,$2,$3,0*
0 Add four circle primitives for the rounded corners*
1,1,$1+$1,$2,$3*
1,1,$1+$1,$4,$5*
1,1,$1+$1,$6,$7*
1,1,$1+$1,$8,$9*
0 Add four rect primitives between the rounded corners*
20,1,$1+$1,$2,$3,$4,$5,0*
20,1,$1+$1,$4,$5,$6,$7,0*
20,1,$1+$1,$6,$7,$8,$9,0*
20,1,$1+$1,$8,$9,$2,$3,0*%
%AMFreePoly0*
4,1,32,0.280000,0.504858,0.355383,0.504398,0.493921,0.462967,0.615261,0.384317,0.709651,0.274773,0.769501,0.143140,0.790000,0.000000,0.789848,-0.012460,0.765857,-0.155057,0.702809,-0.285188,0.605772,-0.392394,0.482545,-0.468055,0.343037,-0.506089,0.280000,-0.504934,0.280000,-0.510000,0.000000,-0.510000,0.000000,-0.504934,-0.081539,-0.503439,-0.219561,-0.460318,-0.339932,-0.380193,
-0.432976,-0.269504,-0.491213,-0.137149,-0.509962,0.006231,-0.487715,0.149110,-0.426262,0.280002,-0.330541,0.388385,-0.208249,0.465545,-0.069215,0.505281,0.000000,0.504858,0.000000,0.510000,0.280000,0.510000,0.280000,0.504858,0.280000,0.504858,$1*%
%AMFreePoly1*
4,1,24,0.750000,-0.499999,0.500000,-0.500000,0.350416,-0.350416,0.319385,-0.384700,0.198574,-0.458877,0.061801,-0.496166,-0.079941,-0.493568,-0.215256,-0.451293,-0.333266,-0.372738,-0.424486,-0.264219,-0.481581,-0.134460,-0.499963,0.006109,-0.478152,0.146187,-0.417904,0.274511,-0.324060,0.380769,-0.204165,0.456417,-0.067858,0.495374,0.073905,0.494508,0.209726,0.453889,0.328688,0.376783,
0.350948,0.350948,0.500000,0.500000,0.750000,0.499999,0.750000,-0.499999,0.750000,-0.499999,$1*%
%AMFreePoly2*
4,1,18,-0.750000,0.300000,-0.734776,0.376537,-0.691421,0.441421,-0.626537,0.484776,-0.550000,0.500000,0.250000,0.500000,0.750000,0.000000,0.750000,-0.300000,0.734776,-0.376537,0.691421,-0.441421,0.626537,-0.484776,0.550000,-0.500000,-0.550000,-0.500000,-0.626537,-0.484776,-0.691421,-0.441421,-0.734776,-0.376537,-0.750000,-0.300000,-0.750000,0.300000,-0.750000,0.300000,$1*%
%AMFreePoly3*
4,1,18,-0.750000,0.300000,-0.734776,0.376537,-0.691421,0.441421,-0.626537,0.484776,-0.550000,0.500000,0.550000,0.500000,0.626537,0.484776,0.691421,0.441421,0.734776,0.376537,0.750000,0.300000,0.750000,-0.300000,0.734776,-0.376537,0.691421,-0.441421,0.626537,-0.484776,0.550000,-0.500000,-0.250000,-0.500000,-0.750000,0.000000,-0.750000,0.300000,-0.750000,0.300000,$1*%
G04 Aperture macros list end*
%ADD10C,0.150000*%
%ADD11C,0.500000*%
%ADD12C,1.000000*%
%ADD13C,0.700000*%
%ADD14FreePoly0,90.000000*%
%ADD15FreePoly0,270.000000*%
%ADD16FreePoly1,225.000000*%
%ADD17FreePoly1,0.000000*%
%ADD18FreePoly1,135.000000*%
%ADD19C,2.000000*%
%ADD20C,0.800000*%
%ADD21RoundRect,0.200000X-0.550000X-0.300000X0.550000X-0.300000X0.550000X0.300000X-0.550000X0.300000X0*%
%ADD22FreePoly0,180.000000*%
%ADD23FreePoly0,0.000000*%
%ADD24FreePoly2,0.000000*%
%ADD25FreePoly3,0.000000*%
%ADD26FreePoly1,315.000000*%
%ADD27FreePoly1,90.000000*%
G04 APERTURE END LIST*
D10*
X184920001Y-67770000D02*
G75*
G03*
X184920001Y-66230000I-861475J770000D01*
G01*
D11*
X157500001Y-132750000D03*
X157500001Y-137250000D03*
X157500001Y-132000000D03*
X157500001Y-134250000D03*
X157500001Y-133500000D03*
X157500001Y-135750000D03*
X157500001Y-135000000D03*
X157500001Y-138000000D03*
X157500001Y-136500000D03*
X157500001Y-69249999D03*
X157500001Y-71499999D03*
X157500001Y-69999999D03*
X157500001Y-70749999D03*
X157500001Y-68499999D03*
X157500001Y-66999999D03*
X157500001Y-67749999D03*
X157500001Y-72999999D03*
X157500001Y-72249999D03*
X192285711Y-78500000D03*
X190142856Y-78500000D03*
X190857141Y-78500000D03*
X191571426Y-78500000D03*
X188000001Y-78500000D03*
X188714286Y-78500000D03*
X193000001Y-78500000D03*
X189428571Y-78500000D03*
X190857141Y-130459999D03*
X188000001Y-130459999D03*
X189428571Y-130459999D03*
X188714286Y-130459999D03*
X193000001Y-130459999D03*
X192285711Y-130459999D03*
X190142856Y-130459999D03*
X191571426Y-130459999D03*
X164500001Y-92460000D03*
X163071426Y-92460000D03*
X160214286Y-92460000D03*
X162357141Y-92460000D03*
X160928571Y-92460000D03*
X161642856Y-92460000D03*
X163785711Y-92460000D03*
X159500001Y-92460000D03*
X190857141Y-92460000D03*
X191571426Y-92460000D03*
X190142856Y-92460000D03*
X193000001Y-92460000D03*
X188714286Y-92460000D03*
X192285711Y-92460000D03*
X189428571Y-92460000D03*
X188000001Y-92460000D03*
X163785711Y-111460000D03*
X160928571Y-111460000D03*
X161642856Y-111460000D03*
X160214286Y-111460000D03*
X159500001Y-111460000D03*
X163071426Y-111460000D03*
X162357141Y-111460000D03*
X164500001Y-111460000D03*
D12*
X172000001Y-100040000D03*
D11*
X171350001Y-102540000D03*
X172750001Y-92460000D03*
X172050001Y-92460000D03*
D13*
X170365001Y-98770000D03*
D12*
X170000001Y-100040000D03*
D11*
X170650001Y-92460000D03*
X171350001Y-92460000D03*
X170650001Y-102540000D03*
X169950001Y-102540000D03*
D13*
X171635001Y-97500000D03*
X171635001Y-96230000D03*
D11*
X169250001Y-92460000D03*
X169950001Y-92460000D03*
D13*
X170365001Y-96230000D03*
D12*
X171000001Y-94960000D03*
D13*
X170365001Y-97500000D03*
D11*
X172750001Y-102540000D03*
X169250001Y-102540000D03*
X172050001Y-102540000D03*
D13*
X171635001Y-98770000D03*
D12*
X168460001Y-82000000D03*
D13*
X169730001Y-81635000D03*
X169730001Y-80365000D03*
D11*
X168810001Y-78500000D03*
D13*
X172270001Y-81635000D03*
D11*
X169510001Y-78500000D03*
D12*
X173540001Y-81000000D03*
D11*
X170210001Y-78500000D03*
X170910001Y-78500000D03*
D13*
X172270001Y-80365000D03*
D11*
X170210001Y-83500000D03*
X171610001Y-83500000D03*
D13*
X171000001Y-80365000D03*
D12*
X168460001Y-80000000D03*
D11*
X169510001Y-83500000D03*
X171610001Y-78500000D03*
D13*
X171000001Y-81635000D03*
D11*
X170910001Y-83500000D03*
X168810001Y-83500000D03*
X181850001Y-92460000D03*
X179750001Y-92460000D03*
D13*
X182135001Y-97500000D03*
D12*
X181500001Y-94960000D03*
D13*
X180865001Y-97500000D03*
D11*
X180450001Y-92460000D03*
D13*
X180865001Y-96230000D03*
D11*
X182550001Y-92460000D03*
X181150001Y-102540000D03*
X182550001Y-102540000D03*
X181850001Y-102540000D03*
D13*
X180865001Y-98770000D03*
D11*
X183250001Y-92460000D03*
D13*
X182135001Y-98770000D03*
X182135001Y-96230000D03*
D11*
X179750001Y-102540000D03*
X181150001Y-92460000D03*
D12*
X182500001Y-100040000D03*
D11*
X180450001Y-102540000D03*
D12*
X180500001Y-100040000D03*
D11*
X183250001Y-102540000D03*
D13*
X171635001Y-116500000D03*
D11*
X172050001Y-121540000D03*
D12*
X172000001Y-119040000D03*
D13*
X170365001Y-115230000D03*
X171635001Y-117770000D03*
D11*
X169250001Y-111460000D03*
X172750001Y-121540000D03*
X169950001Y-121540000D03*
X169950001Y-111460000D03*
X169250001Y-121540000D03*
X171350001Y-121540000D03*
D12*
X171000001Y-113960000D03*
D13*
X170365001Y-117770000D03*
D11*
X172050001Y-111460000D03*
X172750001Y-111460000D03*
D13*
X170365001Y-116500000D03*
D11*
X171350001Y-111460000D03*
X170650001Y-111460000D03*
D13*
X171635001Y-115230000D03*
D11*
X170650001Y-121540000D03*
D12*
X170000001Y-119040000D03*
D11*
X190142856Y-64500000D03*
X188000001Y-64500000D03*
X192285711Y-64500000D03*
X190857141Y-64500000D03*
X191571426Y-64500000D03*
X193000001Y-64500000D03*
X189428571Y-64500000D03*
X188714286Y-64500000D03*
X163785711Y-130460000D03*
X163071426Y-130460000D03*
X160214286Y-130460000D03*
X162357141Y-130460000D03*
X161642856Y-130460000D03*
X164500001Y-130460000D03*
X159500001Y-130460000D03*
X160928571Y-130460000D03*
X181150001Y-111460000D03*
X181150001Y-121540000D03*
D13*
X180865001Y-117770000D03*
X182135001Y-115230000D03*
D11*
X181850001Y-121540000D03*
D12*
X182500001Y-119040000D03*
D11*
X183250001Y-111460000D03*
X179750001Y-111460000D03*
X181850001Y-111460000D03*
X180450001Y-121540000D03*
D13*
X180865001Y-116500000D03*
D11*
X180450001Y-111460000D03*
X183250001Y-121540000D03*
X182550001Y-111460000D03*
X179750001Y-121540000D03*
D12*
X181500001Y-113960000D03*
D13*
X180865001Y-115230000D03*
X182135001Y-116500000D03*
X182135001Y-117770000D03*
D11*
X182550001Y-121540000D03*
D12*
X180500001Y-119040000D03*
D11*
X157500001Y-99500000D03*
X157500001Y-101000000D03*
X157500001Y-100250000D03*
X157500001Y-105500000D03*
X157500001Y-101750000D03*
X157500001Y-102500000D03*
X157500001Y-104750000D03*
X157500001Y-103250000D03*
X157500001Y-104000000D03*
D12*
X170000001Y-138040000D03*
D11*
X172050001Y-140540000D03*
X172050001Y-130460000D03*
X169950001Y-130460000D03*
X172750001Y-140540000D03*
D13*
X170365001Y-136770000D03*
D11*
X170650001Y-140540000D03*
X169250001Y-130460000D03*
X171350001Y-140540000D03*
D13*
X171635001Y-136770000D03*
D12*
X172000001Y-138040000D03*
D13*
X171635001Y-134230000D03*
X170365001Y-134230000D03*
D11*
X170650001Y-130460000D03*
X169250001Y-140540000D03*
X171350001Y-130460000D03*
X169950001Y-140540000D03*
D13*
X171635001Y-135500000D03*
D11*
X172750001Y-130460000D03*
D12*
X171000001Y-132960000D03*
D13*
X170365001Y-135500000D03*
D11*
X181410001Y-64500000D03*
X182110001Y-64500000D03*
X179310001Y-64500000D03*
X182110001Y-69500000D03*
X181410001Y-69500000D03*
X180710001Y-69500000D03*
X179310001Y-69500000D03*
X180010001Y-64500000D03*
X180010001Y-69500000D03*
X180710001Y-64500000D03*
D14*
X182770001Y-66365000D03*
D15*
X182770001Y-67635000D03*
D14*
X181500001Y-66365000D03*
D15*
X181500001Y-67635000D03*
D14*
X180230001Y-66365000D03*
D15*
X180230001Y-67635000D03*
D16*
X178960001Y-66000000D03*
D17*
X184040001Y-67000000D03*
D18*
X178960001Y-68000000D03*
D12*
X143500001Y-127460001D03*
X144500001Y-132540001D03*
X144500001Y-132540001D03*
X143500001Y-127460001D03*
X142500001Y-132540001D03*
X142500001Y-132540001D03*
D19*
X138000001Y-128000001D03*
D20*
X142865001Y-128730001D03*
D19*
X149000001Y-128000001D03*
D20*
X144135001Y-128730001D03*
X142865001Y-130000001D03*
D19*
X136000001Y-130000001D03*
X151000001Y-130000001D03*
D20*
X144135001Y-130000001D03*
D19*
X138000001Y-132000001D03*
D20*
X142865001Y-131270001D03*
D19*
X149000001Y-132000001D03*
D20*
X144135001Y-131270001D03*
D11*
X190142856Y-111460001D03*
X188000001Y-111460001D03*
X189428571Y-111460001D03*
X188714286Y-111460001D03*
X193000001Y-111460001D03*
X190857141Y-111460001D03*
X191571426Y-111460001D03*
X192285711Y-111460001D03*
X160214286Y-64500000D03*
X160928571Y-64500000D03*
X163071426Y-64500000D03*
X164500001Y-64500000D03*
X159500001Y-64500000D03*
X162357141Y-64500000D03*
X161642856Y-64500000D03*
X163785711Y-64500000D03*
X182550000Y-130460000D03*
X180450000Y-130460000D03*
X182550000Y-140540000D03*
X181150000Y-140540000D03*
X183250000Y-130460000D03*
X179750000Y-130460000D03*
X181150000Y-130460000D03*
X180450000Y-140540000D03*
X181850000Y-130460000D03*
X179750000Y-140540000D03*
X181850000Y-140540000D03*
X183250000Y-140540000D03*
D21*
X179000000Y-133595000D03*
D22*
X180865000Y-134230000D03*
D23*
X182135000Y-134230000D03*
D21*
X184000000Y-132325000D03*
X179000000Y-136135000D03*
D22*
X180865000Y-135500000D03*
D21*
X184000000Y-134865000D03*
D23*
X182135000Y-135500000D03*
D24*
X179000000Y-138675000D03*
D22*
X180865000Y-136770000D03*
D25*
X184000000Y-137405000D03*
D23*
X182135000Y-136770000D03*
D16*
X182500000Y-138040000D03*
D26*
X180500000Y-138040000D03*
D27*
X181500000Y-132960000D03*
D11*
X163785711Y-78500000D03*
X162357141Y-78500000D03*
X159500001Y-78500000D03*
X163071426Y-78500000D03*
X160214286Y-78500000D03*
X161642856Y-78500000D03*
X160928571Y-78500000D03*
X164500001Y-78500000D03*
D12*
X168460001Y-66000000D03*
D11*
X168810001Y-64500000D03*
X170910001Y-69500000D03*
D12*
X168460001Y-68000000D03*
D11*
X169510001Y-64500000D03*
D13*
X169730001Y-66365000D03*
X169730001Y-67635000D03*
D11*
X171610001Y-69500000D03*
D12*
X173540001Y-67000000D03*
D11*
X170210001Y-69500000D03*
X170210001Y-64500000D03*
X169510001Y-69500000D03*
D13*
X172270001Y-67635000D03*
D11*
X170910001Y-64500000D03*
D13*
X171000001Y-66365000D03*
X171000001Y-67635000D03*
X172270001Y-66365000D03*
D11*
X171610001Y-64500000D03*
X168810001Y-69500000D03*
D12*
X178960001Y-80000000D03*
X184040001Y-81000000D03*
D11*
X180010001Y-83500000D03*
D13*
X180230001Y-80365000D03*
D11*
X181410001Y-78500000D03*
X179310001Y-83500000D03*
D13*
X182770001Y-81635000D03*
D11*
X180010001Y-78500000D03*
D13*
X180230001Y-81635000D03*
D11*
X180710001Y-83500000D03*
D13*
X181500001Y-80365000D03*
D11*
X181410001Y-83500000D03*
D12*
X178960001Y-82000000D03*
D11*
X182110001Y-78500000D03*
X180710001Y-78500000D03*
D13*
X181500001Y-81635000D03*
X182770001Y-80365000D03*
D11*
X182110001Y-83500000D03*
X179310001Y-78500000D03*
G36*
X184947539Y-66180850D02*
G01*
X184959043Y-66196689D01*
X185193199Y-66656639D01*
X185200001Y-66684994D01*
X185200001Y-67324758D01*
X185192986Y-67353528D01*
X184959304Y-67804200D01*
X184922709Y-67835007D01*
X184875049Y-67830915D01*
X184859625Y-67819624D01*
X184084195Y-67044194D01*
X184065889Y-67000000D01*
X184084195Y-66955806D01*
X184859151Y-66180850D01*
X184903345Y-66162544D01*
X184947539Y-66180850D01*
G37*
G36*
X182008171Y-131502420D02*
G01*
X182068620Y-131514444D01*
X182114040Y-131533258D01*
X182154766Y-131560470D01*
X182189530Y-131595234D01*
X182216742Y-131635960D01*
X182235556Y-131681380D01*
X182247580Y-131741829D01*
X182250001Y-131766410D01*
X182250001Y-132092379D01*
X182247580Y-132116960D01*
X182235556Y-132177409D01*
X182216742Y-132222830D01*
X182182498Y-132274080D01*
X182166828Y-132293173D01*
X181688383Y-132771618D01*
X181669290Y-132787288D01*
X181618043Y-132821530D01*
X181572623Y-132840344D01*
X181524583Y-132849900D01*
X181475419Y-132849900D01*
X181427379Y-132840344D01*
X181381959Y-132821530D01*
X181330712Y-132787288D01*
X181311619Y-132771618D01*
X180833174Y-132293173D01*
X180817504Y-132274080D01*
X180783260Y-132222830D01*
X180764446Y-132177409D01*
X180752422Y-132116960D01*
X180750001Y-132092379D01*
X180750001Y-131766411D01*
X180752422Y-131741829D01*
X180764447Y-131681378D01*
X180783261Y-131635959D01*
X180810471Y-131595236D01*
X180845232Y-131560473D01*
X180885959Y-131533259D01*
X180931383Y-131514444D01*
X180991830Y-131502421D01*
X181016410Y-131500000D01*
X181983590Y-131499999D01*
X182008171Y-131502420D01*
G37*
G36*
X178931695Y-66018306D02*
G01*
X178950001Y-66062500D01*
X178950001Y-67937500D01*
X178931695Y-67981694D01*
X178887501Y-68000000D01*
X177772501Y-68000000D01*
X177728307Y-67981694D01*
X177710001Y-67937500D01*
X177710001Y-66062500D01*
X177728307Y-66018306D01*
X177772501Y-66000000D01*
X178887501Y-66000000D01*
X178931695Y-66018306D01*
G37*
G36*
X182252039Y-138041201D02*
G01*
X182331009Y-138056909D01*
X182353539Y-138066241D01*
X182415269Y-138107488D01*
X182432513Y-138124732D01*
X182473760Y-138186462D01*
X182483092Y-138208992D01*
X182498800Y-138287962D01*
X182500001Y-138300155D01*
X182500001Y-138888635D01*
X182498800Y-138900828D01*
X182483092Y-138979797D01*
X182473760Y-139002327D01*
X182429025Y-139069278D01*
X182421252Y-139078749D01*
X182078750Y-139421252D01*
X182069279Y-139429025D01*
X182002328Y-139473760D01*
X181979798Y-139483092D01*
X181900829Y-139498800D01*
X181888636Y-139500001D01*
X181111366Y-139500001D01*
X181099173Y-139498800D01*
X181020204Y-139483092D01*
X180997674Y-139473760D01*
X180930723Y-139429025D01*
X180921252Y-139421252D01*
X180578750Y-139078749D01*
X180570977Y-139069278D01*
X180526242Y-139002327D01*
X180516910Y-138979797D01*
X180501202Y-138900828D01*
X180500001Y-138888635D01*
X180500001Y-138300155D01*
X180501202Y-138287962D01*
X180516910Y-138208992D01*
X180526242Y-138186462D01*
X180567489Y-138124732D01*
X180584733Y-138107488D01*
X180646463Y-138066241D01*
X180668993Y-138056909D01*
X180747963Y-138041201D01*
X180760156Y-138040000D01*
X182239846Y-138040000D01*
X182252039Y-138041201D01*
G37*
M02*
