%FSLAX45Y45*%
G04 Gerber Fmt 4.5, Leading zero omitted, Abs format (unit mm)*
G04 Created by KiCad (PCBNEW (6.0.2-0)) date 2022-08-08 09:45:42*
%MOMM*%
%LPD*%
G01*
G04 APERTURE LIST*
%TA.AperFunction,Profile*%
%ADD10C,0.150000*%
%TD*%
%ADD11C,0.200000*%
%ADD12C,0.070000*%
%ADD13C,0.100000*%
G04 APERTURE END LIST*
D10*
X16900000Y-12354000D02*
X16550000Y-12354000D01*
X17196000Y-6250000D02*
G75*
G03*
X17146000Y-6300000I0J-50000D01*
G01*
X17950000Y-10454000D02*
G75*
G03*
X18000000Y-10404000I0J50000D01*
G01*
X19300000Y-5850000D02*
X19300000Y-14650000D01*
X16950000Y-12896000D02*
G75*
G03*
X16900000Y-12846000I-50000J0D01*
G01*
X19200000Y-5750000D02*
X16050000Y-5750000D01*
X18800000Y-12946000D02*
G75*
G03*
X18700000Y-12846000I-100000J0D01*
G01*
X18800000Y-7750000D02*
X18800000Y-8450000D01*
X16900000Y-14254000D02*
G75*
G03*
X16950000Y-14204000I0J50000D01*
G01*
X16900000Y-10454000D02*
G75*
G03*
X16950000Y-10404000I0J50000D01*
G01*
X16550000Y-7650000D02*
G75*
G03*
X16450000Y-7750000I0J-100000D01*
G01*
X10600000Y-5750000D02*
G75*
G03*
X10500000Y-5850000I0J-100000D01*
G01*
X10600000Y-14750000D02*
X15650000Y-14750000D01*
X18300000Y-12304000D02*
G75*
G03*
X18350000Y-12354000I50000J0D01*
G01*
X16050000Y-5750000D02*
G75*
G03*
X15950000Y-5850000I0J-100000D01*
G01*
X15950000Y-6650000D02*
X15950000Y-5850000D01*
X16550000Y-10946000D02*
G75*
G03*
X16450000Y-11046000I0J-100000D01*
G01*
X18350000Y-9046000D02*
G75*
G03*
X18300000Y-9096000I0J-50000D01*
G01*
X18350000Y-14254000D02*
X18700000Y-14254000D01*
X16900000Y-12354000D02*
G75*
G03*
X16950000Y-12304000I0J50000D01*
G01*
X18350000Y-12846000D02*
X18700000Y-12846000D01*
X16900000Y-10946000D02*
X16550000Y-10946000D01*
X18246000Y-7650000D02*
G75*
G03*
X18196000Y-7700000I0J-50000D01*
G01*
X17146000Y-8500000D02*
G75*
G03*
X17196000Y-8550000I50000J0D01*
G01*
X16900000Y-14254000D02*
X16550000Y-14254000D01*
X18000000Y-12896000D02*
G75*
G03*
X17950000Y-12846000I-50000J0D01*
G01*
X16846000Y-8550000D02*
X16550000Y-8550000D01*
X17950000Y-14254000D02*
G75*
G03*
X18000000Y-14204000I0J50000D01*
G01*
X18196000Y-8500000D02*
G75*
G03*
X18246000Y-8550000I50000J0D01*
G01*
X16846000Y-8550000D02*
G75*
G03*
X16896000Y-8500000I0J50000D01*
G01*
X15950000Y-14650000D02*
G75*
G03*
X16050000Y-14750000I100000J0D01*
G01*
X17196000Y-7650000D02*
G75*
G03*
X17146000Y-7700000I0J-50000D01*
G01*
X17300000Y-10946000D02*
G75*
G03*
X17250000Y-10996000I0J-50000D01*
G01*
X16900000Y-9046000D02*
X16550000Y-9046000D01*
X18800000Y-6350000D02*
X18800000Y-7050000D01*
X18800000Y-11046000D02*
G75*
G03*
X18700000Y-10946000I-100000J0D01*
G01*
X17250000Y-12304000D02*
G75*
G03*
X17300000Y-12354000I50000J0D01*
G01*
X17896000Y-8550000D02*
X17196000Y-8550000D01*
X18000000Y-9096000D02*
G75*
G03*
X17950000Y-9046000I-50000J0D01*
G01*
X18246000Y-6250000D02*
G75*
G03*
X18196000Y-6300000I0J-50000D01*
G01*
X18196000Y-7100000D02*
G75*
G03*
X18246000Y-7150000I50000J0D01*
G01*
X16450000Y-14154000D02*
X16450000Y-12946000D01*
X16900000Y-10454000D02*
X16550000Y-10454000D01*
X16550000Y-9046000D02*
G75*
G03*
X16450000Y-9146000I0J-100000D01*
G01*
X15750000Y-5850000D02*
X15750000Y-6650000D01*
X19300000Y-5850000D02*
G75*
G03*
X19200000Y-5750000I-100000J0D01*
G01*
X15750000Y-7350000D02*
X15750000Y-9900000D01*
X18700000Y-8550000D02*
G75*
G03*
X18800000Y-8450000I0J100000D01*
G01*
X15750000Y-13150000D02*
X15750000Y-10600000D01*
X18700000Y-10454000D02*
G75*
G03*
X18800000Y-10354000I0J100000D01*
G01*
X16846000Y-7150000D02*
G75*
G03*
X16896000Y-7100000I0J50000D01*
G01*
X16450000Y-8450000D02*
X16450000Y-7750000D01*
X16896000Y-6300000D02*
G75*
G03*
X16846000Y-6250000I-50000J0D01*
G01*
X16450000Y-12254000D02*
X16450000Y-11046000D01*
X16846000Y-7150000D02*
X16550000Y-7150000D01*
X18350000Y-12354000D02*
X18700000Y-12354000D01*
X17300000Y-12846000D02*
G75*
G03*
X17250000Y-12896000I0J-50000D01*
G01*
X18300000Y-14204000D02*
G75*
G03*
X18350000Y-14254000I50000J0D01*
G01*
X16450000Y-10354000D02*
G75*
G03*
X16550000Y-10454000I100000J0D01*
G01*
X17950000Y-14254000D02*
X17300000Y-14254000D01*
X16450000Y-7050000D02*
X16450000Y-6350000D01*
X18700000Y-7650000D02*
X18246000Y-7650000D01*
X16950000Y-10996000D02*
G75*
G03*
X16900000Y-10946000I-50000J0D01*
G01*
X17300000Y-9046000D02*
G75*
G03*
X17250000Y-9096000I0J-50000D01*
G01*
X18700000Y-7150000D02*
G75*
G03*
X18800000Y-7050000I0J100000D01*
G01*
X18800000Y-7750000D02*
G75*
G03*
X18700000Y-7650000I-100000J0D01*
G01*
X18700000Y-6250000D02*
X18246000Y-6250000D01*
X16550000Y-12846000D02*
G75*
G03*
X16450000Y-12946000I0J-100000D01*
G01*
X18350000Y-12846000D02*
G75*
G03*
X18300000Y-12896000I0J-50000D01*
G01*
X18800000Y-12946000D02*
X18800000Y-14154000D01*
X16550000Y-7650000D02*
X16846000Y-7650000D01*
X16450000Y-14154000D02*
G75*
G03*
X16550000Y-14254000I100000J0D01*
G01*
X15950000Y-14650000D02*
X15950000Y-13850000D01*
X10500000Y-14650000D02*
X10500000Y-5850000D01*
X17196000Y-6250000D02*
X17896000Y-6250000D01*
X17946000Y-7700000D02*
G75*
G03*
X17896000Y-7650000I-50000J0D01*
G01*
X18700000Y-12354000D02*
G75*
G03*
X18800000Y-12254000I0J100000D01*
G01*
X16950000Y-9096000D02*
G75*
G03*
X16900000Y-9046000I-50000J0D01*
G01*
X17950000Y-10454000D02*
X17300000Y-10454000D01*
X19200000Y-14750000D02*
X16050000Y-14750000D01*
X17896000Y-7150000D02*
G75*
G03*
X17946000Y-7100000I0J50000D01*
G01*
X18350000Y-10454000D02*
X18700000Y-10454000D01*
X18350000Y-9046000D02*
X18700000Y-9046000D01*
X15750000Y-5850000D02*
G75*
G03*
X15650000Y-5750000I-100000J0D01*
G01*
X18350000Y-10946000D02*
X18700000Y-10946000D01*
X16450000Y-12254000D02*
G75*
G03*
X16550000Y-12354000I100000J0D01*
G01*
X18700000Y-14254000D02*
G75*
G03*
X18800000Y-14154000I0J100000D01*
G01*
X16450000Y-8450000D02*
G75*
G03*
X16550000Y-8550000I100000J0D01*
G01*
X15950000Y-9900000D02*
X15950000Y-7350000D01*
X18350000Y-10946000D02*
G75*
G03*
X18300000Y-10996000I0J-50000D01*
G01*
X18300000Y-10404000D02*
G75*
G03*
X18350000Y-10454000I50000J0D01*
G01*
X15750000Y-13850000D02*
X15750000Y-14650000D01*
X17950000Y-12354000D02*
G75*
G03*
X18000000Y-12304000I0J50000D01*
G01*
X18800000Y-6350000D02*
G75*
G03*
X18700000Y-6250000I-100000J0D01*
G01*
X17946000Y-6300000D02*
G75*
G03*
X17896000Y-6250000I-50000J0D01*
G01*
X10600000Y-5750000D02*
X15650000Y-5750000D01*
X18800000Y-11046000D02*
X18800000Y-12254000D01*
X17300000Y-10946000D02*
X17950000Y-10946000D01*
X18800000Y-9146000D02*
G75*
G03*
X18700000Y-9046000I-100000J0D01*
G01*
X18800000Y-9146000D02*
X18800000Y-10354000D01*
X16896000Y-7700000D02*
G75*
G03*
X16846000Y-7650000I-50000J0D01*
G01*
X15950000Y-13150000D02*
X15950000Y-10600000D01*
X17896000Y-7150000D02*
X17196000Y-7150000D01*
X16550000Y-6250000D02*
X16846000Y-6250000D01*
X16450000Y-7050000D02*
G75*
G03*
X16550000Y-7150000I100000J0D01*
G01*
X15650000Y-14750000D02*
G75*
G03*
X15750000Y-14650000I0J100000D01*
G01*
X17250000Y-14204000D02*
G75*
G03*
X17300000Y-14254000I50000J0D01*
G01*
X19200000Y-14750000D02*
G75*
G03*
X19300000Y-14650000I0J100000D01*
G01*
X10500000Y-14650000D02*
G75*
G03*
X10600000Y-14750000I100000J0D01*
G01*
X17950000Y-12354000D02*
X17300000Y-12354000D01*
X17196000Y-7650000D02*
X17896000Y-7650000D01*
X17300000Y-9046000D02*
X17950000Y-9046000D01*
X16550000Y-6250000D02*
G75*
G03*
X16450000Y-6350000I0J-100000D01*
G01*
X16900000Y-12846000D02*
X16550000Y-12846000D01*
X18000000Y-10996000D02*
G75*
G03*
X17950000Y-10946000I-50000J0D01*
G01*
X18246000Y-8550000D02*
X18700000Y-8550000D01*
X17146000Y-7100000D02*
G75*
G03*
X17196000Y-7150000I50000J0D01*
G01*
X18246000Y-7150000D02*
X18700000Y-7150000D01*
X17300000Y-12846000D02*
X17950000Y-12846000D01*
X17250000Y-10404000D02*
G75*
G03*
X17300000Y-10454000I50000J0D01*
G01*
X16450000Y-10354000D02*
X16450000Y-9146000D01*
X17896000Y-8550000D02*
G75*
G03*
X17946000Y-8500000I0J50000D01*
G01*
D11*
D12*
X17988000Y-6601500D02*
X18058000Y-6671500D01*
X18058000Y-6601500D02*
X17988000Y-6671500D01*
X17988000Y-6728500D02*
X18058000Y-6798500D01*
X18058000Y-6728500D02*
X17988000Y-6798500D01*
X18051500Y-13388000D02*
X18121500Y-13458000D01*
X18121500Y-13388000D02*
X18051500Y-13458000D01*
X18051500Y-13515000D02*
X18121500Y-13585000D01*
X18121500Y-13515000D02*
X18051500Y-13585000D01*
X18051500Y-13642000D02*
X18121500Y-13712000D01*
X18121500Y-13642000D02*
X18051500Y-13712000D01*
X18115000Y-6601500D02*
X18185000Y-6671500D01*
X18185000Y-6601500D02*
X18115000Y-6671500D01*
X18115000Y-6728500D02*
X18185000Y-6798500D01*
X18185000Y-6728500D02*
X18115000Y-6798500D01*
X18178500Y-13388000D02*
X18248500Y-13458000D01*
X18248500Y-13388000D02*
X18178500Y-13458000D01*
X18178500Y-13515000D02*
X18248500Y-13585000D01*
X18248500Y-13515000D02*
X18178500Y-13585000D01*
X18178500Y-13642000D02*
X18248500Y-13712000D01*
X18248500Y-13642000D02*
X18178500Y-13712000D01*
X18242000Y-6601500D02*
X18312000Y-6671500D01*
X18312000Y-6601500D02*
X18242000Y-6671500D01*
X18242000Y-6728500D02*
X18312000Y-6798500D01*
X18312000Y-6728500D02*
X18242000Y-6798500D01*
D13*
X17946000Y-6600000D02*
G75*
G03*
X17946000Y-6600000I-50000J0D01*
G01*
X17946000Y-6800000D02*
G75*
G03*
X17946000Y-6800000I-50000J0D01*
G01*
X18100000Y-13804000D02*
G75*
G03*
X18100000Y-13804000I-50000J0D01*
G01*
X18200000Y-13296000D02*
G75*
G03*
X18200000Y-13296000I-50000J0D01*
G01*
X18300000Y-13804000D02*
G75*
G03*
X18300000Y-13804000I-50000J0D01*
G01*
X18454000Y-6700000D02*
G75*
G03*
X18454000Y-6700000I-50000J0D01*
G01*
D11*
X10750119Y-15067976D02*
X10750119Y-14867976D01*
X10797738Y-14867976D01*
X10826310Y-14877500D01*
X10845357Y-14896548D01*
X10854881Y-14915595D01*
X10864405Y-14953690D01*
X10864405Y-14982262D01*
X10854881Y-15020357D01*
X10845357Y-15039405D01*
X10826310Y-15058452D01*
X10797738Y-15067976D01*
X10750119Y-15067976D01*
X10950119Y-15067976D02*
X10950119Y-14934643D01*
X10950119Y-14972738D02*
X10959643Y-14953690D01*
X10969167Y-14944167D01*
X10988214Y-14934643D01*
X11007262Y-14934643D01*
X11073929Y-15067976D02*
X11073929Y-14934643D01*
X11073929Y-14867976D02*
X11064405Y-14877500D01*
X11073929Y-14887024D01*
X11083452Y-14877500D01*
X11073929Y-14867976D01*
X11073929Y-14887024D01*
X11197738Y-15067976D02*
X11178691Y-15058452D01*
X11169167Y-15039405D01*
X11169167Y-14867976D01*
X11302500Y-15067976D02*
X11283452Y-15058452D01*
X11273929Y-15039405D01*
X11273929Y-14867976D01*
X11531071Y-15067976D02*
X11531071Y-14867976D01*
X11597738Y-15010833D01*
X11664405Y-14867976D01*
X11664405Y-15067976D01*
X11845357Y-15067976D02*
X11845357Y-14963214D01*
X11835833Y-14944167D01*
X11816786Y-14934643D01*
X11778690Y-14934643D01*
X11759643Y-14944167D01*
X11845357Y-15058452D02*
X11826310Y-15067976D01*
X11778690Y-15067976D01*
X11759643Y-15058452D01*
X11750119Y-15039405D01*
X11750119Y-15020357D01*
X11759643Y-15001310D01*
X11778690Y-14991786D01*
X11826310Y-14991786D01*
X11845357Y-14982262D01*
X11940595Y-14934643D02*
X11940595Y-15134643D01*
X11940595Y-14944167D02*
X11959643Y-14934643D01*
X11997738Y-14934643D01*
X12016786Y-14944167D01*
X12026310Y-14953690D01*
X12035833Y-14972738D01*
X12035833Y-15029881D01*
X12026310Y-15048929D01*
X12016786Y-15058452D01*
X11997738Y-15067976D01*
X11959643Y-15067976D01*
X11940595Y-15058452D01*
X12121548Y-15048929D02*
X12131071Y-15058452D01*
X12121548Y-15067976D01*
X12112024Y-15058452D01*
X12121548Y-15048929D01*
X12121548Y-15067976D01*
X12121548Y-14944167D02*
X12131071Y-14953690D01*
X12121548Y-14963214D01*
X12112024Y-14953690D01*
X12121548Y-14944167D01*
X12121548Y-14963214D01*
D12*
X10422500Y-15362500D02*
X10492500Y-15432500D01*
X10492500Y-15362500D02*
X10422500Y-15432500D01*
D11*
X10788214Y-15287976D02*
X10807262Y-15287976D01*
X10826310Y-15297500D01*
X10835833Y-15307024D01*
X10845357Y-15326071D01*
X10854881Y-15364167D01*
X10854881Y-15411786D01*
X10845357Y-15449881D01*
X10835833Y-15468929D01*
X10826310Y-15478452D01*
X10807262Y-15487976D01*
X10788214Y-15487976D01*
X10769167Y-15478452D01*
X10759643Y-15468929D01*
X10750119Y-15449881D01*
X10740595Y-15411786D01*
X10740595Y-15364167D01*
X10750119Y-15326071D01*
X10759643Y-15307024D01*
X10769167Y-15297500D01*
X10788214Y-15287976D01*
X10940595Y-15468929D02*
X10950119Y-15478452D01*
X10940595Y-15487976D01*
X10931072Y-15478452D01*
X10940595Y-15468929D01*
X10940595Y-15487976D01*
X11016786Y-15287976D02*
X11150119Y-15287976D01*
X11064405Y-15487976D01*
X11264405Y-15287976D02*
X11283452Y-15287976D01*
X11302500Y-15297500D01*
X11312024Y-15307024D01*
X11321548Y-15326071D01*
X11331071Y-15364167D01*
X11331071Y-15411786D01*
X11321548Y-15449881D01*
X11312024Y-15468929D01*
X11302500Y-15478452D01*
X11283452Y-15487976D01*
X11264405Y-15487976D01*
X11245357Y-15478452D01*
X11235833Y-15468929D01*
X11226310Y-15449881D01*
X11216786Y-15411786D01*
X11216786Y-15364167D01*
X11226310Y-15326071D01*
X11235833Y-15307024D01*
X11245357Y-15297500D01*
X11264405Y-15287976D01*
X11454881Y-15287976D02*
X11473929Y-15287976D01*
X11492976Y-15297500D01*
X11502500Y-15307024D01*
X11512024Y-15326071D01*
X11521548Y-15364167D01*
X11521548Y-15411786D01*
X11512024Y-15449881D01*
X11502500Y-15468929D01*
X11492976Y-15478452D01*
X11473929Y-15487976D01*
X11454881Y-15487976D01*
X11435833Y-15478452D01*
X11426310Y-15468929D01*
X11416786Y-15449881D01*
X11407262Y-15411786D01*
X11407262Y-15364167D01*
X11416786Y-15326071D01*
X11426310Y-15307024D01*
X11435833Y-15297500D01*
X11454881Y-15287976D01*
X11607262Y-15487976D02*
X11607262Y-15354643D01*
X11607262Y-15373690D02*
X11616786Y-15364167D01*
X11635833Y-15354643D01*
X11664405Y-15354643D01*
X11683452Y-15364167D01*
X11692976Y-15383214D01*
X11692976Y-15487976D01*
X11692976Y-15383214D02*
X11702500Y-15364167D01*
X11721548Y-15354643D01*
X11750119Y-15354643D01*
X11769167Y-15364167D01*
X11778690Y-15383214D01*
X11778690Y-15487976D01*
X11873929Y-15487976D02*
X11873929Y-15354643D01*
X11873929Y-15373690D02*
X11883452Y-15364167D01*
X11902500Y-15354643D01*
X11931071Y-15354643D01*
X11950119Y-15364167D01*
X11959643Y-15383214D01*
X11959643Y-15487976D01*
X11959643Y-15383214D02*
X11969167Y-15364167D01*
X11988214Y-15354643D01*
X12016786Y-15354643D01*
X12035833Y-15364167D01*
X12045357Y-15383214D01*
X12045357Y-15487976D01*
X12435833Y-15278452D02*
X12264405Y-15535595D01*
X12692976Y-15287976D02*
X12712024Y-15287976D01*
X12731071Y-15297500D01*
X12740595Y-15307024D01*
X12750119Y-15326071D01*
X12759643Y-15364167D01*
X12759643Y-15411786D01*
X12750119Y-15449881D01*
X12740595Y-15468929D01*
X12731071Y-15478452D01*
X12712024Y-15487976D01*
X12692976Y-15487976D01*
X12673929Y-15478452D01*
X12664405Y-15468929D01*
X12654881Y-15449881D01*
X12645357Y-15411786D01*
X12645357Y-15364167D01*
X12654881Y-15326071D01*
X12664405Y-15307024D01*
X12673929Y-15297500D01*
X12692976Y-15287976D01*
X12845357Y-15468929D02*
X12854881Y-15478452D01*
X12845357Y-15487976D01*
X12835833Y-15478452D01*
X12845357Y-15468929D01*
X12845357Y-15487976D01*
X12978690Y-15287976D02*
X12997738Y-15287976D01*
X13016786Y-15297500D01*
X13026310Y-15307024D01*
X13035833Y-15326071D01*
X13045357Y-15364167D01*
X13045357Y-15411786D01*
X13035833Y-15449881D01*
X13026310Y-15468929D01*
X13016786Y-15478452D01*
X12997738Y-15487976D01*
X12978690Y-15487976D01*
X12959643Y-15478452D01*
X12950119Y-15468929D01*
X12940595Y-15449881D01*
X12931071Y-15411786D01*
X12931071Y-15364167D01*
X12940595Y-15326071D01*
X12950119Y-15307024D01*
X12959643Y-15297500D01*
X12978690Y-15287976D01*
X13121548Y-15307024D02*
X13131071Y-15297500D01*
X13150119Y-15287976D01*
X13197738Y-15287976D01*
X13216786Y-15297500D01*
X13226310Y-15307024D01*
X13235833Y-15326071D01*
X13235833Y-15345119D01*
X13226310Y-15373690D01*
X13112024Y-15487976D01*
X13235833Y-15487976D01*
X13302500Y-15287976D02*
X13435833Y-15287976D01*
X13350119Y-15487976D01*
X13597738Y-15287976D02*
X13559643Y-15287976D01*
X13540595Y-15297500D01*
X13531071Y-15307024D01*
X13512024Y-15335595D01*
X13502500Y-15373690D01*
X13502500Y-15449881D01*
X13512024Y-15468929D01*
X13521548Y-15478452D01*
X13540595Y-15487976D01*
X13578690Y-15487976D01*
X13597738Y-15478452D01*
X13607262Y-15468929D01*
X13616786Y-15449881D01*
X13616786Y-15402262D01*
X13607262Y-15383214D01*
X13597738Y-15373690D01*
X13578690Y-15364167D01*
X13540595Y-15364167D01*
X13521548Y-15373690D01*
X13512024Y-15383214D01*
X13502500Y-15402262D01*
X13692976Y-15287976D02*
X13692976Y-15326071D01*
X13769167Y-15287976D02*
X13769167Y-15326071D01*
X14064405Y-15564167D02*
X14054881Y-15554643D01*
X14035833Y-15526071D01*
X14026310Y-15507024D01*
X14016786Y-15478452D01*
X14007262Y-15430833D01*
X14007262Y-15392738D01*
X14016786Y-15345119D01*
X14026310Y-15316548D01*
X14035833Y-15297500D01*
X14054881Y-15268929D01*
X14064405Y-15259405D01*
X14245357Y-15487976D02*
X14131071Y-15487976D01*
X14188214Y-15487976D02*
X14188214Y-15287976D01*
X14169167Y-15316548D01*
X14150119Y-15335595D01*
X14131071Y-15345119D01*
X14321548Y-15307024D02*
X14331071Y-15297500D01*
X14350119Y-15287976D01*
X14397738Y-15287976D01*
X14416786Y-15297500D01*
X14426310Y-15307024D01*
X14435833Y-15326071D01*
X14435833Y-15345119D01*
X14426310Y-15373690D01*
X14312024Y-15487976D01*
X14435833Y-15487976D01*
X14673929Y-15487976D02*
X14673929Y-15287976D01*
X14759643Y-15487976D02*
X14759643Y-15383214D01*
X14750119Y-15364167D01*
X14731071Y-15354643D01*
X14702500Y-15354643D01*
X14683452Y-15364167D01*
X14673929Y-15373690D01*
X14883452Y-15487976D02*
X14864405Y-15478452D01*
X14854881Y-15468929D01*
X14845357Y-15449881D01*
X14845357Y-15392738D01*
X14854881Y-15373690D01*
X14864405Y-15364167D01*
X14883452Y-15354643D01*
X14912024Y-15354643D01*
X14931071Y-15364167D01*
X14940595Y-15373690D01*
X14950119Y-15392738D01*
X14950119Y-15449881D01*
X14940595Y-15468929D01*
X14931071Y-15478452D01*
X14912024Y-15487976D01*
X14883452Y-15487976D01*
X15064405Y-15487976D02*
X15045357Y-15478452D01*
X15035833Y-15459405D01*
X15035833Y-15287976D01*
X15216786Y-15478452D02*
X15197738Y-15487976D01*
X15159643Y-15487976D01*
X15140595Y-15478452D01*
X15131071Y-15459405D01*
X15131071Y-15383214D01*
X15140595Y-15364167D01*
X15159643Y-15354643D01*
X15197738Y-15354643D01*
X15216786Y-15364167D01*
X15226310Y-15383214D01*
X15226310Y-15402262D01*
X15131071Y-15421310D01*
X15302500Y-15478452D02*
X15321548Y-15487976D01*
X15359643Y-15487976D01*
X15378690Y-15478452D01*
X15388214Y-15459405D01*
X15388214Y-15449881D01*
X15378690Y-15430833D01*
X15359643Y-15421310D01*
X15331071Y-15421310D01*
X15312024Y-15411786D01*
X15302500Y-15392738D01*
X15302500Y-15383214D01*
X15312024Y-15364167D01*
X15331071Y-15354643D01*
X15359643Y-15354643D01*
X15378690Y-15364167D01*
X15454881Y-15564167D02*
X15464405Y-15554643D01*
X15483452Y-15526071D01*
X15492976Y-15507024D01*
X15502500Y-15478452D01*
X15512024Y-15430833D01*
X15512024Y-15392738D01*
X15502500Y-15345119D01*
X15492976Y-15316548D01*
X15483452Y-15297500D01*
X15464405Y-15268929D01*
X15454881Y-15259405D01*
D13*
X10492500Y-15661500D02*
G75*
G03*
X10492500Y-15661500I-50000J0D01*
G01*
D11*
X10854881Y-15751976D02*
X10740595Y-15751976D01*
X10797738Y-15751976D02*
X10797738Y-15551976D01*
X10778691Y-15580548D01*
X10759643Y-15599595D01*
X10740595Y-15609119D01*
X10940595Y-15732929D02*
X10950119Y-15742452D01*
X10940595Y-15751976D01*
X10931072Y-15742452D01*
X10940595Y-15732929D01*
X10940595Y-15751976D01*
X11073929Y-15551976D02*
X11092976Y-15551976D01*
X11112024Y-15561500D01*
X11121548Y-15571024D01*
X11131072Y-15590071D01*
X11140595Y-15628167D01*
X11140595Y-15675786D01*
X11131072Y-15713881D01*
X11121548Y-15732929D01*
X11112024Y-15742452D01*
X11092976Y-15751976D01*
X11073929Y-15751976D01*
X11054881Y-15742452D01*
X11045357Y-15732929D01*
X11035833Y-15713881D01*
X11026310Y-15675786D01*
X11026310Y-15628167D01*
X11035833Y-15590071D01*
X11045357Y-15571024D01*
X11054881Y-15561500D01*
X11073929Y-15551976D01*
X11264405Y-15551976D02*
X11283452Y-15551976D01*
X11302500Y-15561500D01*
X11312024Y-15571024D01*
X11321548Y-15590071D01*
X11331071Y-15628167D01*
X11331071Y-15675786D01*
X11321548Y-15713881D01*
X11312024Y-15732929D01*
X11302500Y-15742452D01*
X11283452Y-15751976D01*
X11264405Y-15751976D01*
X11245357Y-15742452D01*
X11235833Y-15732929D01*
X11226310Y-15713881D01*
X11216786Y-15675786D01*
X11216786Y-15628167D01*
X11226310Y-15590071D01*
X11235833Y-15571024D01*
X11245357Y-15561500D01*
X11264405Y-15551976D01*
X11454881Y-15551976D02*
X11473929Y-15551976D01*
X11492976Y-15561500D01*
X11502500Y-15571024D01*
X11512024Y-15590071D01*
X11521548Y-15628167D01*
X11521548Y-15675786D01*
X11512024Y-15713881D01*
X11502500Y-15732929D01*
X11492976Y-15742452D01*
X11473929Y-15751976D01*
X11454881Y-15751976D01*
X11435833Y-15742452D01*
X11426310Y-15732929D01*
X11416786Y-15713881D01*
X11407262Y-15675786D01*
X11407262Y-15628167D01*
X11416786Y-15590071D01*
X11426310Y-15571024D01*
X11435833Y-15561500D01*
X11454881Y-15551976D01*
X11607262Y-15751976D02*
X11607262Y-15618643D01*
X11607262Y-15637690D02*
X11616786Y-15628167D01*
X11635833Y-15618643D01*
X11664405Y-15618643D01*
X11683452Y-15628167D01*
X11692976Y-15647214D01*
X11692976Y-15751976D01*
X11692976Y-15647214D02*
X11702500Y-15628167D01*
X11721548Y-15618643D01*
X11750119Y-15618643D01*
X11769167Y-15628167D01*
X11778690Y-15647214D01*
X11778690Y-15751976D01*
X11873929Y-15751976D02*
X11873929Y-15618643D01*
X11873929Y-15637690D02*
X11883452Y-15628167D01*
X11902500Y-15618643D01*
X11931071Y-15618643D01*
X11950119Y-15628167D01*
X11959643Y-15647214D01*
X11959643Y-15751976D01*
X11959643Y-15647214D02*
X11969167Y-15628167D01*
X11988214Y-15618643D01*
X12016786Y-15618643D01*
X12035833Y-15628167D01*
X12045357Y-15647214D01*
X12045357Y-15751976D01*
X12435833Y-15542452D02*
X12264405Y-15799595D01*
X12692976Y-15551976D02*
X12712024Y-15551976D01*
X12731071Y-15561500D01*
X12740595Y-15571024D01*
X12750119Y-15590071D01*
X12759643Y-15628167D01*
X12759643Y-15675786D01*
X12750119Y-15713881D01*
X12740595Y-15732929D01*
X12731071Y-15742452D01*
X12712024Y-15751976D01*
X12692976Y-15751976D01*
X12673929Y-15742452D01*
X12664405Y-15732929D01*
X12654881Y-15713881D01*
X12645357Y-15675786D01*
X12645357Y-15628167D01*
X12654881Y-15590071D01*
X12664405Y-15571024D01*
X12673929Y-15561500D01*
X12692976Y-15551976D01*
X12845357Y-15732929D02*
X12854881Y-15742452D01*
X12845357Y-15751976D01*
X12835833Y-15742452D01*
X12845357Y-15732929D01*
X12845357Y-15751976D01*
X12978690Y-15551976D02*
X12997738Y-15551976D01*
X13016786Y-15561500D01*
X13026310Y-15571024D01*
X13035833Y-15590071D01*
X13045357Y-15628167D01*
X13045357Y-15675786D01*
X13035833Y-15713881D01*
X13026310Y-15732929D01*
X13016786Y-15742452D01*
X12997738Y-15751976D01*
X12978690Y-15751976D01*
X12959643Y-15742452D01*
X12950119Y-15732929D01*
X12940595Y-15713881D01*
X12931071Y-15675786D01*
X12931071Y-15628167D01*
X12940595Y-15590071D01*
X12950119Y-15571024D01*
X12959643Y-15561500D01*
X12978690Y-15551976D01*
X13112024Y-15551976D02*
X13235833Y-15551976D01*
X13169167Y-15628167D01*
X13197738Y-15628167D01*
X13216786Y-15637690D01*
X13226310Y-15647214D01*
X13235833Y-15666262D01*
X13235833Y-15713881D01*
X13226310Y-15732929D01*
X13216786Y-15742452D01*
X13197738Y-15751976D01*
X13140595Y-15751976D01*
X13121548Y-15742452D01*
X13112024Y-15732929D01*
X13331071Y-15751976D02*
X13369167Y-15751976D01*
X13388214Y-15742452D01*
X13397738Y-15732929D01*
X13416786Y-15704357D01*
X13426310Y-15666262D01*
X13426310Y-15590071D01*
X13416786Y-15571024D01*
X13407262Y-15561500D01*
X13388214Y-15551976D01*
X13350119Y-15551976D01*
X13331071Y-15561500D01*
X13321548Y-15571024D01*
X13312024Y-15590071D01*
X13312024Y-15637690D01*
X13321548Y-15656738D01*
X13331071Y-15666262D01*
X13350119Y-15675786D01*
X13388214Y-15675786D01*
X13407262Y-15666262D01*
X13416786Y-15656738D01*
X13426310Y-15637690D01*
X13597738Y-15618643D02*
X13597738Y-15751976D01*
X13550119Y-15542452D02*
X13502500Y-15685310D01*
X13626310Y-15685310D01*
X13692976Y-15551976D02*
X13692976Y-15590071D01*
X13769167Y-15551976D02*
X13769167Y-15590071D01*
X14064405Y-15828167D02*
X14054881Y-15818643D01*
X14035833Y-15790071D01*
X14026310Y-15771024D01*
X14016786Y-15742452D01*
X14007262Y-15694833D01*
X14007262Y-15656738D01*
X14016786Y-15609119D01*
X14026310Y-15580548D01*
X14035833Y-15561500D01*
X14054881Y-15532929D01*
X14064405Y-15523405D01*
X14226310Y-15551976D02*
X14188214Y-15551976D01*
X14169167Y-15561500D01*
X14159643Y-15571024D01*
X14140595Y-15599595D01*
X14131071Y-15637690D01*
X14131071Y-15713881D01*
X14140595Y-15732929D01*
X14150119Y-15742452D01*
X14169167Y-15751976D01*
X14207262Y-15751976D01*
X14226310Y-15742452D01*
X14235833Y-15732929D01*
X14245357Y-15713881D01*
X14245357Y-15666262D01*
X14235833Y-15647214D01*
X14226310Y-15637690D01*
X14207262Y-15628167D01*
X14169167Y-15628167D01*
X14150119Y-15637690D01*
X14140595Y-15647214D01*
X14131071Y-15666262D01*
X14483452Y-15751976D02*
X14483452Y-15551976D01*
X14569167Y-15751976D02*
X14569167Y-15647214D01*
X14559643Y-15628167D01*
X14540595Y-15618643D01*
X14512024Y-15618643D01*
X14492976Y-15628167D01*
X14483452Y-15637690D01*
X14692976Y-15751976D02*
X14673929Y-15742452D01*
X14664405Y-15732929D01*
X14654881Y-15713881D01*
X14654881Y-15656738D01*
X14664405Y-15637690D01*
X14673929Y-15628167D01*
X14692976Y-15618643D01*
X14721548Y-15618643D01*
X14740595Y-15628167D01*
X14750119Y-15637690D01*
X14759643Y-15656738D01*
X14759643Y-15713881D01*
X14750119Y-15732929D01*
X14740595Y-15742452D01*
X14721548Y-15751976D01*
X14692976Y-15751976D01*
X14873929Y-15751976D02*
X14854881Y-15742452D01*
X14845357Y-15723405D01*
X14845357Y-15551976D01*
X15026310Y-15742452D02*
X15007262Y-15751976D01*
X14969167Y-15751976D01*
X14950119Y-15742452D01*
X14940595Y-15723405D01*
X14940595Y-15647214D01*
X14950119Y-15628167D01*
X14969167Y-15618643D01*
X15007262Y-15618643D01*
X15026310Y-15628167D01*
X15035833Y-15647214D01*
X15035833Y-15666262D01*
X14940595Y-15685310D01*
X15112024Y-15742452D02*
X15131071Y-15751976D01*
X15169167Y-15751976D01*
X15188214Y-15742452D01*
X15197738Y-15723405D01*
X15197738Y-15713881D01*
X15188214Y-15694833D01*
X15169167Y-15685310D01*
X15140595Y-15685310D01*
X15121548Y-15675786D01*
X15112024Y-15656738D01*
X15112024Y-15647214D01*
X15121548Y-15628167D01*
X15140595Y-15618643D01*
X15169167Y-15618643D01*
X15188214Y-15628167D01*
X15264405Y-15828167D02*
X15273929Y-15818643D01*
X15292976Y-15790071D01*
X15302500Y-15771024D01*
X15312024Y-15742452D01*
X15321548Y-15694833D01*
X15321548Y-15656738D01*
X15312024Y-15609119D01*
X15302500Y-15580548D01*
X15292976Y-15561500D01*
X15273929Y-15532929D01*
X15264405Y-15523405D01*
M02*
