M48
; DRILL file {KiCad (6.0.2-0)} date Monday, 08 August 2022 at 09:45:41 am
; FORMAT={-:-/ absolute / metric / decimal}
; #@! TF.CreationDate,2022-08-08T09:45:41+12:00
; #@! TF.GenerationSoftware,Kicad,Pcbnew,(6.0.2-0)
; #@! TF.FileFunction,NonPlated,1,2,NPTH
FMAT,2
METRIC
; #@! TA.AperFunction,NonPlated,NPTH,ComponentDrill
T1C0.500
; #@! TA.AperFunction,NonPlated,NPTH,ComponentDrill
T2C0.700
; #@! TA.AperFunction,NonPlated,NPTH,ComponentDrill
T3C1.000
%
G90
G05
T1
X157.5Y-67.0
X157.5Y-67.75
X157.5Y-68.5
X157.5Y-69.25
X157.5Y-70.0
X157.5Y-70.75
X157.5Y-71.5
X157.5Y-72.25
X157.5Y-73.0
X157.5Y-99.5
X157.5Y-100.25
X157.5Y-101.0
X157.5Y-101.75
X157.5Y-102.5
X157.5Y-103.25
X157.5Y-104.0
X157.5Y-104.75
X157.5Y-105.5
X157.5Y-132.0
X157.5Y-132.75
X157.5Y-133.5
X157.5Y-134.25
X157.5Y-135.0
X157.5Y-135.75
X157.5Y-136.5
X157.5Y-137.25
X157.5Y-138.0
X159.5Y-64.5
X159.5Y-78.5
X159.5Y-92.46
X159.5Y-111.46
X159.5Y-130.46
X160.214Y-64.5
X160.214Y-78.5
X160.214Y-92.46
X160.214Y-111.46
X160.214Y-130.46
X160.929Y-64.5
X160.929Y-78.5
X160.929Y-92.46
X160.929Y-111.46
X160.929Y-130.46
X161.643Y-64.5
X161.643Y-78.5
X161.643Y-92.46
X161.643Y-111.46
X161.643Y-130.46
X162.357Y-64.5
X162.357Y-78.5
X162.357Y-92.46
X162.357Y-111.46
X162.357Y-130.46
X163.071Y-64.5
X163.071Y-78.5
X163.071Y-92.46
X163.071Y-111.46
X163.071Y-130.46
X163.786Y-64.5
X163.786Y-78.5
X163.786Y-92.46
X163.786Y-111.46
X163.786Y-130.46
X164.5Y-64.5
X164.5Y-78.5
X164.5Y-92.46
X164.5Y-111.46
X164.5Y-130.46
X168.81Y-64.5
X168.81Y-69.5
X168.81Y-78.5
X168.81Y-83.5
X169.25Y-92.46
X169.25Y-102.54
X169.25Y-111.46
X169.25Y-121.54
X169.25Y-130.46
X169.25Y-140.54
X169.51Y-64.5
X169.51Y-69.5
X169.51Y-78.5
X169.51Y-83.5
X169.95Y-92.46
X169.95Y-102.54
X169.95Y-111.46
X169.95Y-121.54
X169.95Y-130.46
X169.95Y-140.54
X170.21Y-64.5
X170.21Y-69.5
X170.21Y-78.5
X170.21Y-83.5
X170.65Y-92.46
X170.65Y-102.54
X170.65Y-111.46
X170.65Y-121.54
X170.65Y-130.46
X170.65Y-140.54
X170.91Y-64.5
X170.91Y-69.5
X170.91Y-78.5
X170.91Y-83.5
X171.35Y-92.46
X171.35Y-102.54
X171.35Y-111.46
X171.35Y-121.54
X171.35Y-130.46
X171.35Y-140.54
X171.61Y-64.5
X171.61Y-69.5
X171.61Y-78.5
X171.61Y-83.5
X172.05Y-92.46
X172.05Y-102.54
X172.05Y-111.46
X172.05Y-121.54
X172.05Y-130.46
X172.05Y-140.54
X172.75Y-92.46
X172.75Y-102.54
X172.75Y-111.46
X172.75Y-121.54
X172.75Y-130.46
X172.75Y-140.54
X179.31Y-64.5
X179.31Y-69.5
X179.31Y-78.5
X179.31Y-83.5
X179.75Y-130.46
X179.75Y-140.54
X179.75Y-92.46
X179.75Y-102.54
X179.75Y-111.46
X179.75Y-121.54
X180.01Y-64.5
X180.01Y-69.5
X180.01Y-78.5
X180.01Y-83.5
X180.45Y-130.46
X180.45Y-140.54
X180.45Y-92.46
X180.45Y-102.54
X180.45Y-111.46
X180.45Y-121.54
X180.71Y-64.5
X180.71Y-69.5
X180.71Y-78.5
X180.71Y-83.5
X181.15Y-130.46
X181.15Y-140.54
X181.15Y-92.46
X181.15Y-102.54
X181.15Y-111.46
X181.15Y-121.54
X181.41Y-64.5
X181.41Y-69.5
X181.41Y-78.5
X181.41Y-83.5
X181.85Y-130.46
X181.85Y-140.54
X181.85Y-92.46
X181.85Y-102.54
X181.85Y-111.46
X181.85Y-121.54
X182.11Y-64.5
X182.11Y-69.5
X182.11Y-78.5
X182.11Y-83.5
X182.55Y-130.46
X182.55Y-140.54
X182.55Y-92.46
X182.55Y-102.54
X182.55Y-111.46
X182.55Y-121.54
X183.25Y-130.46
X183.25Y-140.54
X183.25Y-92.46
X183.25Y-102.54
X183.25Y-111.46
X183.25Y-121.54
X188.0Y-64.5
X188.0Y-78.5
X188.0Y-92.46
X188.0Y-111.46
X188.0Y-130.46
X188.714Y-64.5
X188.714Y-78.5
X188.714Y-92.46
X188.714Y-111.46
X188.714Y-130.46
X189.429Y-64.5
X189.429Y-78.5
X189.429Y-92.46
X189.429Y-111.46
X189.429Y-130.46
X190.143Y-64.5
X190.143Y-78.5
X190.143Y-92.46
X190.143Y-111.46
X190.143Y-130.46
X190.857Y-64.5
X190.857Y-78.5
X190.857Y-92.46
X190.857Y-111.46
X190.857Y-130.46
X191.571Y-64.5
X191.571Y-78.5
X191.571Y-92.46
X191.571Y-111.46
X191.571Y-130.46
X192.286Y-64.5
X192.286Y-78.5
X192.286Y-92.46
X192.286Y-111.46
X192.286Y-130.46
X193.0Y-64.5
X193.0Y-78.5
X193.0Y-92.46
X193.0Y-111.46
X193.0Y-130.46
T2
X169.73Y-66.365
X169.73Y-67.635
X169.73Y-80.365
X169.73Y-81.635
X170.365Y-96.23
X170.365Y-97.5
X170.365Y-98.77
X170.365Y-115.23
X170.365Y-116.5
X170.365Y-117.77
X170.365Y-134.23
X170.365Y-135.5
X170.365Y-136.77
X171.0Y-66.365
X171.0Y-67.635
X171.0Y-80.365
X171.0Y-81.635
X171.635Y-96.23
X171.635Y-97.5
X171.635Y-98.77
X171.635Y-115.23
X171.635Y-116.5
X171.635Y-117.77
X171.635Y-134.23
X171.635Y-135.5
X171.635Y-136.77
X172.27Y-66.365
X172.27Y-67.635
X172.27Y-80.365
X172.27Y-81.635
X180.23Y-80.365
X180.23Y-81.635
X180.865Y-96.23
X180.865Y-97.5
X180.865Y-98.77
X180.865Y-115.23
X180.865Y-116.5
X180.865Y-117.77
X181.5Y-80.365
X181.5Y-81.635
X182.135Y-96.23
X182.135Y-97.5
X182.135Y-98.77
X182.135Y-115.23
X182.135Y-116.5
X182.135Y-117.77
X182.77Y-80.365
X182.77Y-81.635
T3
X142.5Y-132.54
X142.5Y-132.54
X143.5Y-127.46
X143.5Y-127.46
X144.5Y-132.54
X144.5Y-132.54
X168.46Y-66.0
X168.46Y-68.0
X168.46Y-80.0
X168.46Y-82.0
X170.0Y-100.04
X170.0Y-119.04
X170.0Y-138.04
X171.0Y-94.96
X171.0Y-113.96
X171.0Y-132.96
X172.0Y-100.04
X172.0Y-119.04
X172.0Y-138.04
X173.54Y-67.0
X173.54Y-81.0
X178.96Y-80.0
X178.96Y-82.0
X180.5Y-100.04
X180.5Y-119.04
X181.5Y-94.96
X181.5Y-113.96
X182.5Y-100.04
X182.5Y-119.04
X184.04Y-81.0
T0
M30
